<?xml version="1.0" encoding="iso-8859-1"?>
<!-- Generator: Adobe Illustrator 18.0.0, SVG Export Plug-In . SVG Version: 6.00 Build 0)  -->
<!DOCTYPE svg PUBLIC "-//W3C//DTD SVG 1.1//EN" "http://www.w3.org/Graphics/SVG/1.1/DTD/svg11.dtd">
<svg version="1.1" id="Layer_2" xmlns="http://www.w3.org/2000/svg" xmlns:xlink="http://www.w3.org/1999/xlink" x="0px" y="0px"
	 width="100px" height="100px" viewBox="0 0 100 100" style="enable-background:new 0 0 100 100;" xml:space="preserve">
<path style="fill:#47DD7E;" d="M42.064,54H27.76c-0.63-2.239-2.462-3.974-4.76-4.455V32.448c2.295-0.48,4.126-2.212,4.758-4.448
	h40.484c0.632,2.236,2.463,3.967,4.758,4.448v9.911c1.757,0.786,3.44,1.786,5,3.026V29c0-3.314-2.686-6-6-6H24c-3.314,0-6,2.686-6,6
	v24c0,3.314,2.686,6,6,6h16.408C40.763,57.288,41.324,55.614,42.064,54z"/>
<circle style="fill:#47DD7E;" cx="29" cy="41" r="2"/>
<g>
	<path style="fill:#CEE35A;" d="M63.405,81.788c9.941,0,18-8.059,18-18s-8.059-18-18-18c-9.941,0-18,8.059-18,18
		C45.405,73.73,53.464,81.789,63.405,81.788z"/>
	<path style="fill:#006837;" d="M63.403,83.039c-6.975,0-13.42-3.788-16.821-9.886c-0.336-0.603-0.12-1.364,0.483-1.701
		c0.603-0.337,1.364-0.12,1.701,0.483c2.96,5.307,8.569,8.604,14.638,8.604c0.001,0,0,0,0.001,0c8.09,0,15.018-5.766,16.475-13.709
		c0.125-0.678,0.774-1.129,1.455-1.004c0.679,0.125,1.128,0.776,1.004,1.455c-1.674,9.13-9.637,15.758-18.934,15.758
		C63.404,83.039,63.404,83.039,63.403,83.039z M45.674,68.167c-0.596,0-1.124-0.427-1.23-1.035
		c-0.192-1.097-0.289-2.221-0.289-3.343c0-10.614,8.635-19.25,19.25-19.25c6.725,0,13.054,3.586,16.518,9.359
		c0.355,0.592,0.163,1.36-0.429,1.715c-0.59,0.356-1.36,0.164-1.715-0.429c-3.06-5.1-8.434-8.145-14.375-8.145
		c-9.236,0-16.75,7.514-16.75,16.75c0,0.978,0.084,1.958,0.252,2.913c0.119,0.68-0.336,1.328-1.016,1.447
		C45.818,68.161,45.745,68.167,45.674,68.167z M81.202,62.335c-0.608,0-1.142-0.444-1.235-1.064
		c-0.046-0.309-0.102-0.615-0.164-0.917c-0.14-0.676,0.296-1.337,0.972-1.477c0.676-0.143,1.337,0.295,1.477,0.972
		c0.072,0.347,0.135,0.697,0.188,1.05c0.103,0.683-0.368,1.319-1.05,1.422C81.326,62.331,81.263,62.335,81.202,62.335z"/>
</g>
<g>
	<path style="fill:#FFFFFF;" d="M63.405,78.171c-3.842,0-7.454-1.496-10.17-4.212c-2.717-2.716-4.213-6.328-4.213-10.17
		c0-0.787,0.065-1.58,0.193-2.355c0.135-0.818,0.909-1.37,1.724-1.236c0.817,0.135,1.371,0.907,1.236,1.724
		c-0.102,0.615-0.153,1.243-0.153,1.867c0,3.04,1.184,5.899,3.334,8.049c2.15,2.149,5.008,3.333,8.049,3.333
		c3.041,0,5.898-1.184,8.048-3.334c0.585-0.586,1.535-0.586,2.121,0c0.586,0.585,0.586,1.535,0,2.121
		C70.859,76.675,67.247,78.171,63.405,78.171z M52.993,57.696c-0.308,0-0.618-0.094-0.885-0.29
		c-0.668-0.489-0.813-1.428-0.324-2.097c0.437-0.596,0.924-1.165,1.451-1.691c0.586-0.586,1.535-0.586,2.121,0
		c0.586,0.585,0.586,1.536,0,2.121c-0.417,0.418-0.805,0.87-1.151,1.342C53.911,57.483,53.455,57.696,52.993,57.696z"/>
</g>
<path style="fill:#006837;" d="M68,65.568c0-1.333-0.649-2.559-1.73-3.315l-3.351-2.306c-0.468-0.36-0.757-0.901-0.757-1.514
	c0-1.009,0.829-1.838,1.838-1.838c0.757,0,1.405,0.432,1.694,1.117c0.216,0.541,0.865,0.793,1.405,0.577s0.793-0.865,0.577-1.405
	c-0.468-1.153-1.441-1.982-2.595-2.306v-0.144c0-0.613-0.468-1.081-1.081-1.081s-1.081,0.468-1.081,1.081v0.144
	C61.225,55.045,60,56.595,60,58.432c0,1.297,0.613,2.486,1.694,3.243l3.351,2.342c0.505,0.36,0.793,0.901,0.793,1.514
	c0,1.009-0.829,1.838-1.838,1.838c-0.721,0-1.405-0.432-1.694-1.117c-0.252-0.541-0.865-0.793-1.405-0.577
	c-0.541,0.252-0.793,0.865-0.577,1.405c0.505,1.117,1.441,1.946,2.595,2.27v0.216c0,0.613,0.468,1.081,1.081,1.081
	c0.613,0,1.081-0.468,1.081-1.081v-0.144C66.775,68.955,68,67.405,68,65.568z"/>
<g>
	<path style="fill:#006837;" d="M78,46.939c-0.69,0-1.25-0.56-1.25-1.25v-3.336c0-0.69,0.56-1.25,1.25-1.25s1.25,0.56,1.25,1.25
		v3.336C79.25,46.38,78.69,46.939,78,46.939z"/>
</g>
<g>
	<path style="fill:#47DD7E;" d="M20.83,16H18.17C16.974,16,16,15.026,16,13.83V11.17C16,9.974,16.974,9,18.17,9h2.659
		C22.026,9,23,9.974,23,11.17v2.659C23,15.026,22.026,16,20.83,16z M18.17,11C18.08,11,18,11.08,18,11.17v2.659
		C18,13.92,18.08,14,18.17,14h2.659C20.92,14,21,13.92,21,13.83V11.17C21,11.08,20.92,11,20.83,11H18.17z"/>
</g>
<circle style="fill:#006837;" cx="14.5" cy="86.5" r="2"/>
<circle style="fill:#CEE35A;" cx="76.148" cy="91.216" r="2"/>
<circle style="fill:#CEE35A;" cx="73.279" cy="14.842" r="2"/>
<g>
	<path style="fill:#006837;" d="M60,14c-1.93,0-3.5-1.57-3.5-3.5S58.07,7,60,7s3.5,1.57,3.5,3.5S61.93,14,60,14z M60,9
		c-0.827,0-1.5,0.673-1.5,1.5S59.173,12,60,12s1.5-0.673,1.5-1.5S60.827,9,60,9z"/>
</g>
<g>
	<path style="fill:#CEE35A;" d="M90.702,36.208h-4c-0.552,0-1-0.448-1-1s0.448-1,1-1h4c0.552,0,1,0.448,1,1
		S91.254,36.208,90.702,36.208z"/>
</g>
<g>
	<path style="fill:#CEE35A;" d="M88.702,38.208c-0.552,0-1-0.448-1-1v-4c0-0.552,0.448-1,1-1s1,0.448,1,1v4
		C89.702,37.76,89.254,38.208,88.702,38.208z"/>
</g>
<g>
	<path style="fill:#47DD7E;" d="M42.877,82.867h-4c-0.552,0-1-0.448-1-1s0.448-1,1-1h4c0.552,0,1,0.448,1,1
		S43.43,82.867,42.877,82.867z"/>
</g>
<g>
	<path style="fill:#47DD7E;" d="M40.877,84.867c-0.552,0-1-0.448-1-1v-4c0-0.552,0.448-1,1-1s1,0.448,1,1v4
		C41.877,84.419,41.43,84.867,40.877,84.867z"/>
</g>
<g>
	<path style="fill:#CEE35A;" d="M24.173,76.66c-0.262,0-0.517-0.103-0.707-0.293l-4.083-4.083c-0.253-0.252-0.352-0.621-0.259-0.966
		c0.092-0.345,0.362-0.615,0.707-0.707l5.577-1.494c0.344-0.093,0.713,0.006,0.966,0.259c0.253,0.252,0.352,0.621,0.259,0.966
		l-1.494,5.577c-0.092,0.345-0.362,0.615-0.707,0.707C24.347,76.648,24.26,76.66,24.173,76.66z M22.022,72.095l1.633,1.633
		l0.598-2.23L22.022,72.095z"/>
</g>
<g>
	<path style="fill:#CEE35A;" d="M87.667,18.369c-0.086,0-0.173-0.011-0.259-0.034l-5.577-1.495
		c-0.345-0.092-0.615-0.362-0.707-0.707c-0.093-0.345,0.006-0.713,0.259-0.966l4.083-4.082c0.253-0.252,0.621-0.351,0.966-0.259
		c0.345,0.092,0.615,0.362,0.707,0.707l1.445,5.392c0.066,0.134,0.104,0.285,0.104,0.444c0,0.552-0.448,1-1,1
		C87.682,18.369,87.674,18.369,87.667,18.369z M84.022,15.356l2.231,0.598l-0.598-2.23L84.022,15.356z"/>
</g>
<g>
	<path style="fill:#006837;" d="M39.903,60.25h-3.336c-0.69,0-1.25-0.56-1.25-1.25s0.56-1.25,1.25-1.25h3.336
		c0.69,0,1.25,0.56,1.25,1.25S40.594,60.25,39.903,60.25z"/>
</g>
<g>
	
		<rect x="75.424" y="77.992" transform="matrix(0.7071 0.7071 -0.7071 0.7071 79.1293 -32.5516)" style="fill:#006837;" width="6.868" height="2.5"/>
</g>
<g>
	<path style="fill:#006837;" d="M90.235,95.15c-1.21,0-2.359-0.462-3.234-1.301l-7.039-7.039c-1.745-1.745-1.753-4.637-0.019-6.447
		c0.869-0.87,2.01-1.338,3.23-1.338c1.21,0,2.359,0.462,3.235,1.3l7.039,7.039c1.753,1.829,1.745,4.721,0,6.466
		C92.596,94.682,91.456,95.15,90.235,95.15z M83.173,81.525c-0.553,0-1.065,0.208-1.444,0.587c-0.782,0.817-0.791,2.14,0,2.931
		l7.02,7.02c0.771,0.738,2.166,0.765,2.931,0c0.791-0.791,0.782-2.114-0.019-2.95l-7.001-7.001
		C84.271,81.74,83.736,81.525,83.173,81.525z"/>
</g>
<g>
	<path style="fill:#006837;" d="M18,38.678c0.69,0,1.25-0.56,1.25-1.25V29c0-2.619,2.131-4.75,4.75-4.75h32.143
		c0.69,0,1.25-0.56,1.25-1.25s-0.56-1.25-1.25-1.25H24c-3.998,0-7.25,3.252-7.25,7.25v8.428C16.75,38.119,17.31,38.678,18,38.678z"
		/>
	<path style="fill:#006837;" d="M39.713,57.75H24c-2.619,0-4.75-2.131-4.75-4.75v-2.572c0-0.69-0.56-1.25-1.25-1.25
		s-1.25,0.56-1.25,1.25V53c0,3.998,3.252,7.25,7.25,7.25h15.198C39.325,59.409,39.495,58.576,39.713,57.75z"/>
	<path style="fill:#006837;" d="M62.143,24.25H72c2.619,0,4.75,2.131,4.75,4.75v15.465c0.869,0.602,1.701,0.277,2.5,1.009V29
		c0-3.998-3.252-7.25-7.25-7.25h-9.857c-0.69,0-1.25,0.56-1.25,1.25S61.453,24.25,62.143,24.25z"/>
	<path style="fill:#006837;" d="M18,45.678c0.69,0,1.25-0.56,1.25-1.25v-1c0-0.69-0.56-1.25-1.25-1.25s-1.25,0.56-1.25,1.25v1
		C16.75,45.119,17.31,45.678,18,45.678z"/>
</g>
<path style="fill:#47DD7E;" d="M68.999,40.989C68.992,39.889,68.101,39,67,39c-0.883,0-1.624,0.576-1.889,1.37
	C66.42,40.465,67.718,40.676,68.999,40.989z"/>
<g>
	<path style="fill:#47DD7E;" d="M39.674,38.214c0.729,0.394,1.639,0.123,2.034-0.604c1.395-2.574,3.747-4.11,6.292-4.11
		c3.909,0,7.124,3.608,7.466,8.193c0.96-0.344,1.934-0.63,2.923-0.845C57.68,35.012,53.298,30.5,48,30.5
		c-3.664,0-7.002,2.124-8.93,5.68C38.675,36.909,38.946,37.819,39.674,38.214z"/>
	<path style="fill:#47DD7E;" d="M41.708,51.5c0.351,0,0.703-0.122,0.987-0.371c0.624-0.545,0.687-1.493,0.141-2.117
		c-1.474-1.684-2.303-3.946-2.335-6.368c-0.011-0.821-0.68-1.48-1.5-1.48c-0.007,0-0.014,0-0.021,0
		c-0.828,0.011-1.491,0.691-1.48,1.52c0.042,3.134,1.134,6.083,3.077,8.303C40.875,51.327,41.29,51.5,41.708,51.5z"/>
</g>
</svg>
