<?xml version="1.0" encoding="iso-8859-1"?>
<!-- Generator: Adobe Illustrator 18.0.0, SVG Export Plug-In . SVG Version: 6.00 Build 0)  -->
<!DOCTYPE svg PUBLIC "-//W3C//DTD SVG 1.1//EN" "http://www.w3.org/Graphics/SVG/1.1/DTD/svg11.dtd">
<svg version="1.1" id="Layer_2" xmlns="http://www.w3.org/2000/svg" xmlns:xlink="http://www.w3.org/1999/xlink" x="0px" y="0px"
	 width="100px" height="100px" viewBox="0 0 100 100" style="enable-background:new 0 0 100 100;" xml:space="preserve">
<path style="fill:#47DD7E;" d="M23,29h53v8H23V29z"/>
<g>
	<path style="fill:#006837;" d="M22,43.679c0.69,0,1.25-0.56,1.25-1.25V30c0-2.619,2.131-4.75,4.75-4.75h43
		c2.619,0,4.75,2.131,4.75,4.75v8h2.5v-8c0-3.998-3.252-7.25-7.25-7.25H28c-3.998,0-7.25,3.252-7.25,7.25v12.429
		C20.75,43.119,21.31,43.679,22,43.679z"/>
	<path style="fill:#006837;" d="M48.333,60.75H28c-2.619,0-4.75-2.131-4.75-4.75v-0.571c0-0.69-0.56-1.25-1.25-1.25
		s-1.25,0.56-1.25,1.25V56c0,3.998,3.252,7.25,7.25,7.25h20.333V60.75z"/>
	<path style="fill:#006837;" d="M22,50.679c0.69,0,1.25-0.56,1.25-1.25v-1c0-0.69-0.56-1.25-1.25-1.25s-1.25,0.56-1.25,1.25v1
		C20.75,50.119,21.31,50.679,22,50.679z"/>
</g>
<g>
	<path style="fill:#006837;" d="M79.288,59.243c-0.69,0-1.25-0.56-1.25-1.25v-4.917c0-4.553-3.704-8.257-8.257-8.257
		s-8.257,3.704-8.257,8.257v4.917c0,0.69-0.56,1.25-1.25,1.25s-1.25-0.56-1.25-1.25v-4.917c0-5.932,4.825-10.757,10.757-10.757
		s10.757,4.825,10.757,10.757v4.917C80.538,58.684,79.979,59.243,79.288,59.243z"/>
</g>
<g>
	<path style="fill:#CEE35A;" d="M57,58h25c1.657,0,3,1.343,3,3v20c0,1.657-1.343,3-3,3H57c-1.657,0-3-1.343-3-3V61
		C54,59.343,55.343,58,57,58z"/>
	<path style="fill:#006837;" d="M82,85.25H57c-2.344,0-4.25-1.906-4.25-4.25V61c0-2.344,1.906-4.25,4.25-4.25h25
		c2.344,0,4.25,1.906,4.25,4.25v3.285c0,0.69-0.56,1.25-1.25,1.25s-1.25-0.56-1.25-1.25V61c0-0.965-0.785-1.75-1.75-1.75H57
		c-0.965,0-1.75,0.785-1.75,1.75v20c0,0.965,0.785,1.75,1.75,1.75h25c0.965,0,1.75-0.785,1.75-1.75v-3.715
		c0-0.69,0.56-1.25,1.25-1.25s1.25,0.56,1.25,1.25V81C86.25,83.344,84.344,85.25,82,85.25z M85,72.535c-0.69,0-1.25-0.56-1.25-1.25
		v-1c0-0.69,0.56-1.25,1.25-1.25s1.25,0.56,1.25,1.25v1C86.25,71.976,85.69,72.535,85,72.535z"/>
</g>
<g>
	<path style="fill:#006837;" d="M48.522,63.25h-3.057c-0.69,0-1.25-0.56-1.25-1.25s0.56-1.25,1.25-1.25h3.057
		c0.69,0,1.25,0.56,1.25,1.25S49.213,63.25,48.522,63.25z"/>
</g>
<g>
	<path style="fill:#006837;" d="M76.994,41.25c-0.69,0-1.25-0.56-1.25-1.25v-3.057c0-0.69,0.56-1.25,1.25-1.25s1.25,0.56,1.25,1.25
		V40C78.244,40.69,77.685,41.25,76.994,41.25z"/>
</g>
<g>
	<path style="fill:#47DD7E;" d="M20.83,16h-2.66C16.974,16,16,15.026,16,13.83v-2.66C16,9.974,16.974,9,18.17,9h2.66
		C22.026,9,23,9.974,23,11.17v2.66C23,15.026,22.026,16,20.83,16z M18.17,11C18.079,11,18,11.079,18,11.17v2.66
		c0,0.091,0.079,0.17,0.17,0.17h2.66c0.091,0,0.17-0.079,0.17-0.17v-2.66c0-0.091-0.079-0.17-0.17-0.17H18.17z"/>
</g>
<circle style="fill:#006837;" cx="14.5" cy="86.5" r="2"/>
<circle style="fill:#CEE35A;" cx="81.148" cy="91.216" r="2"/>
<circle style="fill:#CEE35A;" cx="73.279" cy="14.842" r="2"/>
<g>
	<path style="fill:#006837;" d="M85.5,19c-1.93,0-3.5-1.57-3.5-3.5s1.57-3.5,3.5-3.5s3.5,1.57,3.5,3.5S87.43,19,85.5,19z M85.5,14
		c-0.827,0-1.5,0.673-1.5,1.5s0.673,1.5,1.5,1.5s1.5-0.673,1.5-1.5S86.327,14,85.5,14z"/>
</g>
<g>
	<path style="fill:#CEE35A;" d="M90.702,36.208h-4c-0.553,0-1-0.447-1-1s0.447-1,1-1h4c0.553,0,1,0.447,1,1
		S91.255,36.208,90.702,36.208z"/>
</g>
<g>
	<path style="fill:#CEE35A;" d="M88.702,38.208c-0.553,0-1-0.447-1-1v-4c0-0.553,0.447-1,1-1s1,0.447,1,1v4
		C89.702,37.761,89.255,38.208,88.702,38.208z"/>
</g>
<g>
	<path style="fill:#47DD7E;" d="M42.877,82.867h-4c-0.553,0-1-0.447-1-1s0.447-1,1-1h4c0.553,0,1,0.447,1,1
		S43.43,82.867,42.877,82.867z"/>
</g>
<g>
	<path style="fill:#47DD7E;" d="M40.877,84.867c-0.553,0-1-0.447-1-1v-4c0-0.553,0.447-1,1-1s1,0.447,1,1v4
		C41.877,84.42,41.43,84.867,40.877,84.867z"/>
</g>
<g>
	<path style="fill:#CEE35A;" d="M24.173,76.66c-0.262,0-0.518-0.103-0.707-0.293l-4.082-4.083c-0.253-0.253-0.352-0.621-0.259-0.966
		s0.362-0.614,0.707-0.707l5.577-1.494c0.349-0.096,0.714,0.006,0.966,0.259c0.253,0.253,0.352,0.621,0.259,0.966l-1.495,5.577
		c-0.093,0.346-0.362,0.614-0.707,0.707C24.346,76.649,24.259,76.66,24.173,76.66z M22.022,72.095l1.633,1.634l0.599-2.231
		L22.022,72.095z"/>
</g>
<g>
	<path style="fill:#CEE35A;" d="M37.363,17.336c-0.262,0-0.517-0.103-0.707-0.293l-4.082-4.082
		c-0.253-0.253-0.352-0.621-0.259-0.966s0.362-0.614,0.707-0.707l5.576-1.494c0.349-0.095,0.713,0.006,0.966,0.259
		s0.352,0.621,0.259,0.966l-1.494,5.576c-0.093,0.345-0.362,0.614-0.707,0.707C37.536,17.325,37.449,17.336,37.363,17.336z
		 M35.213,12.771l1.633,1.633l0.598-2.23L35.213,12.771z"/>
</g>
<g>
	<g>
		<path style="fill:#006837;" d="M64.827,79.264c-0.245,0-0.492-0.071-0.709-0.221c-0.568-0.393-0.711-1.171-0.319-1.739
			l10.344-14.992c0.394-0.569,1.171-0.711,1.739-0.319c0.568,0.393,0.711,1.171,0.319,1.739L65.857,78.724
			C65.614,79.075,65.224,79.264,64.827,79.264z"/>
	</g>
	<g>
		<path style="fill:#006837;" d="M66.138,70.25h-0.275c-1.716,0-3.112-1.396-3.112-3.112v-2.275c0-1.716,1.396-3.112,3.112-3.112
			h0.275c1.716,0,3.112,1.396,3.112,3.112v2.275C69.25,68.854,67.854,70.25,66.138,70.25z M65.862,64.25
			c-0.332,0-0.612,0.28-0.612,0.612v2.275c0,0.332,0.28,0.612,0.612,0.612h0.275c0.332,0,0.612-0.28,0.612-0.612v-2.275
			c0-0.332-0.28-0.612-0.612-0.612H65.862z"/>
	</g>
	<g>
		<path style="fill:#006837;" d="M74.138,79.25h-0.275c-1.716,0-3.112-1.396-3.112-3.112v-2.275c0-1.716,1.396-3.112,3.112-3.112
			h0.275c1.716,0,3.112,1.396,3.112,3.112v2.275C77.25,77.854,75.854,79.25,74.138,79.25z M73.862,73.25
			c-0.332,0-0.612,0.28-0.612,0.612v2.275c0,0.332,0.28,0.612,0.612,0.612h0.275c0.332,0,0.612-0.28,0.612-0.612v-2.275
			c0-0.332-0.28-0.612-0.612-0.612H73.862z"/>
	</g>
</g>
<g>
	<path style="fill:#CEE35A;" d="M54.252,51H36.333c-0.828,0-1.5-0.672-1.5-1.5s0.672-1.5,1.5-1.5h17.919c0.828,0,1.5,0.672,1.5,1.5
		S55.08,51,54.252,51z M30.333,51h-2c-0.828,0-1.5-0.672-1.5-1.5s0.672-1.5,1.5-1.5h2c0.828,0,1.5,0.672,1.5,1.5
		S31.161,51,30.333,51z"/>
</g>
</svg>
