<?xml version="1.0" encoding="iso-8859-1"?>
<!-- Generator: Adobe Illustrator 18.0.0, SVG Export Plug-In . SVG Version: 6.00 Build 0)  -->
<!DOCTYPE svg PUBLIC "-//W3C//DTD SVG 1.1//EN" "http://www.w3.org/Graphics/SVG/1.1/DTD/svg11.dtd">
<svg version="1.1" id="Layer_2" xmlns="http://www.w3.org/2000/svg" xmlns:xlink="http://www.w3.org/1999/xlink" x="0px" y="0px"
	 width="100px" height="100px" viewBox="0 0 100 100" style="enable-background:new 0 0 100 100;" xml:space="preserve">
<g>
	<path style="fill:#006837;" d="M63,39.25c-0.32,0-0.64-0.122-0.884-0.366l-1.413-1.413c-1.411-1.411-3.365-2.221-5.361-2.221H27
		c-0.69,0-1.25-0.56-1.25-1.25s0.56-1.25,1.25-1.25h28.342c2.693,0,5.225,1.049,7.129,2.953l1.413,1.413
		c0.488,0.488,0.488,1.279,0,1.768C63.64,39.128,63.32,39.25,63,39.25z"/>
</g>
<path style="fill:#CEE35A;" d="M30,48h5.552l-8.344-24.911c-0.987-2.947-4.177-4.536-7.124-3.549L30,49.144V48z"/>
<g>
	<path style="fill:#006837;" d="M70.942,54.307c-0.542,0-1.042-0.356-1.2-0.904l-0.314-1.09c-0.191-0.664,0.191-1.356,0.854-1.548
		c0.663-0.189,1.356,0.191,1.548,0.854l0.314,1.09c0.191,0.664-0.191,1.356-0.854,1.548C71.174,54.291,71.058,54.307,70.942,54.307z
		"/>
</g>
<g>
	<path style="fill:#47DD7E;" d="M64,55H42.333c-0.828,0-1.5-0.671-1.5-1.5s0.672-1.5,1.5-1.5H64c0.828,0,1.5,0.671,1.5,1.5
		S64.828,55,64,55z M36.333,55h-2c-0.828,0-1.5-0.671-1.5-1.5s0.672-1.5,1.5-1.5h2c0.828,0,1.5,0.671,1.5,1.5S37.161,55,36.333,55z"
		/>
</g>
<g>
	<path style="fill:#006837;" d="M40.24,81.12c-12.489-1.499-22.539-5.598-26.228-10.699c-0.404-0.56-1.186-0.685-1.745-0.28
		c-0.56,0.404-0.685,1.186-0.28,1.745c4.146,5.733,14.597,10.113,27.954,11.716c0.051,0.006,0.102,0.009,0.151,0.009
		c0.623,0,1.163-0.466,1.239-1.101C41.414,81.824,40.925,81.202,40.24,81.12z"/>
	<path style="fill:#006837;" d="M56,81.617c-3.249,0.174-6.615,0.176-9.865,0.006c-0.68-0.025-1.277,0.495-1.313,1.184
		c-0.036,0.689,0.494,1.277,1.184,1.313C47.65,84.206,49.33,84.25,51,84.25c1.716,0,3.442-0.046,5.133-0.137
		c0.689-0.037,1.219-0.625,1.182-1.315C57.278,82.109,56.68,81.567,56,81.617z"/>
</g>
<g>
	<path style="fill:#CEE35A;" d="M72,87c8.284,0,15-6.716,15-15s-6.716-15-15-15s-15,6.716-15,15S63.716,87,72,87z"/>
	<path style="fill:#006837;" d="M72,88.25c-8.96,0-16.25-7.29-16.25-16.25S63.04,55.75,72,55.75c3.35,0,6.565,1.011,9.3,2.923
		c0.566,0.396,0.704,1.175,0.309,1.741s-1.174,0.704-1.74,0.308C77.555,59.104,74.834,58.25,72,58.25
		c-7.582,0-13.75,6.168-13.75,13.75S64.418,85.75,72,85.75S85.75,79.582,85.75,72c0-0.439-0.021-0.879-0.062-1.307
		c-0.065-0.688,0.438-1.298,1.125-1.363c0.687-0.071,1.298,0.438,1.363,1.125c0.049,0.507,0.073,1.027,0.073,1.545
		C88.25,80.96,80.96,88.25,72,88.25z M85.203,66.123c-0.444,0-0.874-0.237-1.101-0.655c-0.146-0.27-0.301-0.535-0.464-0.793
		c-0.367-0.584-0.191-1.356,0.394-1.723c0.581-0.366,1.355-0.192,1.724,0.393c0.19,0.304,0.373,0.615,0.546,0.933
		c0.328,0.607,0.103,1.366-0.504,1.694C85.608,66.074,85.404,66.123,85.203,66.123z"/>
</g>
<path style="fill:#006837;" d="M76,75.568c0-1.333-0.649-2.559-1.73-3.315l-3.351-2.306c-0.468-0.36-0.757-0.901-0.757-1.514
	c0-1.009,0.829-1.838,1.838-1.838c0.757,0,1.405,0.432,1.694,1.117c0.216,0.541,0.865,0.793,1.405,0.577s0.793-0.865,0.577-1.405
	c-0.468-1.153-1.441-1.982-2.595-2.306v-0.144c0-0.613-0.468-1.081-1.081-1.081s-1.081,0.468-1.081,1.081v0.144
	C69.225,65.045,68,66.595,68,68.432c0,1.297,0.613,2.486,1.694,3.243l3.351,2.342c0.505,0.36,0.793,0.901,0.793,1.514
	c0,1.009-0.829,1.838-1.838,1.838c-0.721,0-1.405-0.432-1.694-1.117c-0.252-0.541-0.865-0.793-1.405-0.577
	c-0.541,0.252-0.793,0.865-0.577,1.405c0.505,1.117,1.441,1.946,2.595,2.27v0.216c0,0.613,0.468,1.081,1.081,1.081
	s1.081-0.468,1.081-1.081v-0.144C74.775,78.955,76,77.405,76,75.568z"/>
<g>
	<path style="fill:#006837;" d="M85.33,18h-2.66c-1.196,0-2.17-0.974-2.17-2.17V13.17c0-1.197,0.974-2.17,2.17-2.17h2.66
		c1.196,0,2.17,0.974,2.17,2.17v2.659C87.5,17.026,86.526,18,85.33,18z M82.67,13c-0.091,0-0.17,0.08-0.17,0.17v2.659
		c0,0.092,0.078,0.17,0.17,0.17h2.66c0.092,0,0.17-0.078,0.17-0.17V13.17c0-0.091-0.079-0.17-0.17-0.17H82.67z"/>
</g>
<circle style="fill:#006837;" cx="89" cy="92.5" r="2"/>
<circle style="fill:#CEE35A;" cx="84.5" cy="45.5" r="2"/>
<circle style="fill:#CEE35A;" cx="48.5" cy="13" r="2"/>
<g>
	<path style="fill:#47DD7E;" d="M15.25,55c-1.93,0-3.5-1.57-3.5-3.5s1.57-3.5,3.5-3.5s3.5,1.57,3.5,3.5S17.18,55,15.25,55z
		 M15.25,50c-0.827,0-1.5,0.673-1.5,1.5s0.673,1.5,1.5,1.5s1.5-0.673,1.5-1.5S16.077,50,15.25,50z"/>
</g>
<g>
	<path style="fill:#CEE35A;" d="M66.75,23.5h-4c-0.553,0-1-0.448-1-1s0.447-1,1-1h4c0.553,0,1,0.448,1,1S67.303,23.5,66.75,23.5z"/>
</g>
<g>
	<path style="fill:#CEE35A;" d="M64.75,25.5c-0.553,0-1-0.448-1-1v-4c0-0.552,0.447-1,1-1s1,0.448,1,1v4
		C65.75,25.052,65.303,25.5,64.75,25.5z"/>
</g>
<g>
	<path style="fill:#006837;" d="M10.5,90h-4c-0.553,0-1-0.448-1-1s0.447-1,1-1h4c0.553,0,1,0.448,1,1S11.053,90,10.5,90z"/>
</g>
<g>
	<path style="fill:#006837;" d="M8.5,92c-0.553,0-1-0.448-1-1v-4c0-0.552,0.447-1,1-1s1,0.448,1,1v4C9.5,91.552,9.053,92,8.5,92z"/>
</g>
<g>
	<path style="fill:#47DD7E;" d="M11.5,17c-0.086,0-0.173-0.011-0.259-0.034c-0.345-0.092-0.614-0.362-0.707-0.707L9.04,10.682
		c-0.093-0.345,0.006-0.713,0.259-0.966c0.252-0.252,0.619-0.353,0.966-0.259l5.576,1.494c0.345,0.092,0.614,0.362,0.707,0.707
		s-0.006,0.713-0.259,0.966l-4.082,4.083C12.018,16.897,11.762,17,11.5,17z M11.42,11.837l0.598,2.23l1.633-1.633L11.42,11.837z"/>
</g>
<g>
	<path style="fill:#006837;" d="M45.428,49.25h19.569c2.137,0,3.927,1.427,4.524,3.37h2.593c-0.648-3.34-3.591-5.87-7.117-5.87
		H45.428c-0.69,0-1.25,0.56-1.25,1.25S44.737,49.25,45.428,49.25z"/>
	<path style="fill:#006837;" d="M53,61.75H31.25v-12.5h8.178c0.69,0,1.25-0.56,1.25-1.25s-0.56-1.25-1.25-1.25H30
		c-0.69,0-1.25,0.56-1.25,1.25v15c0,0.69,0.56,1.25,1.25,1.25h23c0.69,0,1.25-0.56,1.25-1.25S53.69,61.75,53,61.75z"/>
</g>
<g>
	<path style="fill:#006837;" d="M29.608,34.192L34.234,48h2.637l-4.891-14.602c-0.22-0.655-0.929-1.007-1.583-0.788
		C29.742,32.83,29.39,33.538,29.608,34.192z"/>
	<path style="fill:#006837;" d="M30,48h0.935l-9.212-27.5c1.931-0.073,3.685,1.151,4.299,2.986l1.681,5.017
		c0.22,0.655,0.93,1.01,1.583,0.788c0.654-0.219,1.007-0.928,0.788-1.582l-1.681-5.017c-0.941-2.808-3.563-4.695-6.521-4.695
		c-0.742,0-1.478,0.121-2.186,0.358c-0.654,0.219-1.007,0.928-0.788,1.582L30,53.079V48z"/>
</g>
<path style="fill:#006837;" d="M30,63v-6.326l-6.383,21.47c-0.196,0.662,0.181,1.358,0.842,1.555
	c0.119,0.035,0.239,0.052,0.357,0.052c0.538,0,1.036-0.352,1.197-0.894L30.728,63H30z"/>
</svg>
