<?xml version="1.0" encoding="iso-8859-1"?>
<!-- Generator: Adobe Illustrator 18.0.0, SVG Export Plug-In . SVG Version: 6.00 Build 0)  -->
<!DOCTYPE svg PUBLIC "-//W3C//DTD SVG 1.1//EN" "http://www.w3.org/Graphics/SVG/1.1/DTD/svg11.dtd">
<svg version="1.1" id="Layer_2" xmlns="http://www.w3.org/2000/svg" xmlns:xlink="http://www.w3.org/1999/xlink" x="0px" y="0px"
	 width="100px" height="100px" viewBox="0 0 100 100" style="enable-background:new 0 0 100 100;" xml:space="preserve">
<path style="fill:#47DD7E;" d="M42.068,40.214h13.266V29.245c0-1.7-1.378-3.078-3.078-3.078H29.411c-1.7,0-3.078,1.378-3.078,3.078
	v13.844c0,1.7,1.378,3.078,3.078,3.078h4.675C35.107,42.722,38.287,40.214,42.068,40.214z"/>
<path style="fill:#CEE35A;" d="M74,30H61.333v3H74c0.829,0,1.5-0.672,1.5-1.5S74.829,30,74,30z"/>
<path style="fill:#CEE35A;" d="M74,36H61.333v3H74c0.829,0,1.5-0.672,1.5-1.5S74.829,36,74,36z"/>
<g>
	<path style="fill:#006837;" d="M81,83.394c-0.412,0-0.777,0.199-1.005,0.507l-4.217-3.826c-0.491-0.446-1.246-0.429-1.719,0.037
		l-4.684,4.631l-4.684-4.631c-0.487-0.482-1.271-0.482-1.758,0l-4.684,4.631l-4.684-4.631c-0.487-0.482-1.271-0.482-1.758,0
		l-4.679,4.626l-4.628-4.622c-0.486-0.484-1.272-0.487-1.762-0.004l-3.489,3.45V62h-2.5v24.5c0,0.69,0.615,1.25,1.306,1.25
		c0.329,0,0.645-0.13,0.879-0.361l4.679-4.626l4.628,4.622c0.487,0.484,1.273,0.488,1.762,0.004l4.684-4.631l4.684,4.631
		c0.487,0.482,1.271,0.482,1.758,0l4.684-4.631l4.684,4.631c0.487,0.482,1.271,0.482,1.758,0l4.721-4.667l5.186,4.704
		c0.234,0.213,0.535,0.324,0.84,0.324c0.171,0,0.343-0.035,0.506-0.107c0.452-0.2,0.744-0.648,0.744-1.143v-1.856
		C82.25,83.953,81.69,83.394,81,83.394z"/>
	<path style="fill:#006837;" d="M81,43.394c-0.69,0-1.25,0.56-1.25,1.25v30c0,0.69,0.56,1.25,1.25,1.25s1.25-0.56,1.25-1.25v-30
		C82.25,43.953,81.69,43.394,81,43.394z"/>
	<path style="fill:#006837;" d="M75,17.75H63.221v2.5H75c2.619,0,4.75,2.131,4.75,4.75v6.644c0,0.69,0.56,1.25,1.25,1.25
		s1.25-0.56,1.25-1.25V25C82.25,21.002,78.998,17.75,75,17.75z"/>
	<path style="fill:#006837;" d="M81,36.394c-0.69,0-1.25,0.56-1.25,1.25v1c0,0.69,0.56,1.25,1.25,1.25s1.25-0.56,1.25-1.25v-1
		C82.25,36.953,81.69,36.394,81,36.394z"/>
</g>
<path style="fill:#47DD7E;" d="M76,72.189c0-1.333-0.649-2.559-1.73-3.315l-3.351-2.306c-0.468-0.36-0.757-0.901-0.757-1.514
	c0-1.009,0.829-1.838,1.838-1.838c0.757,0,1.405,0.432,1.694,1.117c0.216,0.541,0.865,0.793,1.405,0.577s0.793-0.865,0.577-1.405
	c-0.468-1.153-1.441-1.982-2.595-2.306v-0.144c0-0.613-0.468-1.081-1.081-1.081s-1.081,0.468-1.081,1.081v0.144
	C69.225,61.667,68,63.216,68,65.054c0,1.297,0.613,2.486,1.694,3.243l3.351,2.342c0.505,0.36,0.793,0.901,0.793,1.514
	c0,1.009-0.829,1.838-1.838,1.838c-0.721,0-1.405-0.432-1.694-1.117c-0.252-0.541-0.865-0.793-1.405-0.577
	c-0.541,0.252-0.793,0.865-0.577,1.405c0.505,1.117,1.441,1.946,2.595,2.27v0.216c0,0.613,0.468,1.081,1.081,1.081
	s1.081-0.468,1.081-1.081v-0.144C74.775,75.577,76,74.027,76,72.189z"/>
<g>
	<path style="fill:#CEE35A;" d="M63.5,64h-15c-0.829,0-1.5-0.672-1.5-1.5s0.671-1.5,1.5-1.5h15c0.829,0,1.5,0.672,1.5,1.5
		S64.329,64,63.5,64z M42.5,64h-1c-0.829,0-1.5-0.672-1.5-1.5s0.671-1.5,1.5-1.5h1c0.829,0,1.5,0.672,1.5,1.5S43.329,64,42.5,64z"/>
</g>
<g>
	<path style="fill:#CEE35A;" d="M63.5,70h-15c-0.829,0-1.5-0.672-1.5-1.5s0.671-1.5,1.5-1.5h15c0.829,0,1.5,0.672,1.5,1.5
		S64.329,70,63.5,70z M42.5,70h-1c-0.829,0-1.5-0.672-1.5-1.5s0.671-1.5,1.5-1.5h1c0.829,0,1.5,0.672,1.5,1.5S43.329,70,42.5,70z"/>
</g>
<g>
	<path style="fill:#CEE35A;" d="M63.5,76h-15c-0.829,0-1.5-0.672-1.5-1.5s0.671-1.5,1.5-1.5h15c0.829,0,1.5,0.672,1.5,1.5
		S64.329,76,63.5,76z M42.5,76h-1c-0.829,0-1.5-0.672-1.5-1.5s0.671-1.5,1.5-1.5h1c0.829,0,1.5,0.672,1.5,1.5S43.329,76,42.5,76z"/>
</g>
<g>
	<path style="fill:#47DD7E;" d="M18.83,16H16.17C14.974,16,14,15.026,14,13.83v-2.66C14,9.974,14.974,9,16.17,9h2.659
		C20.026,9,21,9.974,21,11.17v2.66C21,15.026,20.026,16,18.83,16z M16.17,11C16.08,11,16,11.079,16,11.17v2.66
		c0,0.091,0.08,0.17,0.17,0.17h2.659C18.92,14,19,13.921,19,13.83v-2.66c0-0.091-0.08-0.17-0.17-0.17H16.17z"/>
</g>
<circle style="fill:#006837;" cx="88" cy="8" r="2"/>
<circle style="fill:#CEE35A;" cx="88.5" cy="76.5" r="2"/>
<circle style="fill:#CEE35A;" cx="73.279" cy="12.842" r="2"/>
<g>
	<path style="fill:#006837;" d="M14.5,91c-1.93,0-3.5-1.57-3.5-3.5s1.57-3.5,3.5-3.5s3.5,1.57,3.5,3.5S16.43,91,14.5,91z M14.5,86
		c-0.827,0-1.5,0.673-1.5,1.5s0.673,1.5,1.5,1.5s1.5-0.673,1.5-1.5S15.327,86,14.5,86z"/>
</g>
<g>
	<path style="fill:#CEE35A;" d="M13.459,46.887h-4c-0.552,0-1-0.447-1-1s0.448-1,1-1h4c0.552,0,1,0.447,1,1
		S14.012,46.887,13.459,46.887z"/>
</g>
<g>
	<path style="fill:#CEE35A;" d="M11.459,48.887c-0.552,0-1-0.447-1-1v-4c0-0.553,0.448-1,1-1s1,0.447,1,1v4
		C12.459,48.439,12.012,48.887,11.459,48.887z"/>
</g>
<g>
	<path style="fill:#47DD7E;" d="M28.877,82.867h-4c-0.552,0-1-0.447-1-1s0.448-1,1-1h4c0.552,0,1,0.447,1,1
		S29.43,82.867,28.877,82.867z"/>
</g>
<g>
	<path style="fill:#47DD7E;" d="M26.877,84.867c-0.552,0-1-0.447-1-1v-4c0-0.553,0.448-1,1-1s1,0.447,1,1v4
		C27.877,84.42,27.43,84.867,26.877,84.867z"/>
</g>
<g>
	<path style="fill:#CEE35A;" d="M21.173,73.66c-0.262,0-0.517-0.103-0.707-0.293l-4.083-4.083c-0.253-0.253-0.352-0.621-0.259-0.966
		c0.092-0.345,0.362-0.614,0.707-0.707l5.577-1.494c0.344-0.095,0.713,0.006,0.966,0.259s0.352,0.621,0.259,0.966l-1.494,5.577
		c-0.092,0.345-0.362,0.614-0.707,0.707C21.347,73.649,21.26,73.66,21.173,73.66z M19.022,69.095l1.633,1.634l0.598-2.231
		L19.022,69.095z"/>
</g>
<g>
	<path style="fill:#47DD7E;" d="M90.312,43.166c-0.262,0-0.517-0.103-0.707-0.293l-4.083-4.082
		c-0.252-0.253-0.352-0.621-0.259-0.966c0.092-0.345,0.362-0.614,0.707-0.707l5.577-1.494c0.345-0.095,0.713,0.006,0.966,0.259
		s0.352,0.621,0.259,0.966l-1.494,5.576c-0.092,0.345-0.362,0.614-0.707,0.707C90.485,43.155,90.398,43.166,90.312,43.166z
		 M88.161,38.602l1.633,1.633l0.598-2.23L88.161,38.602z"/>
</g>
<g>
	<path style="fill:#006837;" d="M36,68.25c-0.69,0-1.25-0.56-1.25-1.25v-7c0-0.69,0.56-1.25,1.25-1.25s1.25,0.56,1.25,1.25v7
		C37.25,67.69,36.69,68.25,36,68.25z"/>
</g>
<g>
	<path style="fill:#006837;" d="M64.749,20.25h-3.321c-0.69,0-1.25-0.56-1.25-1.25s0.56-1.25,1.25-1.25h3.321
		c0.69,0,1.25,0.56,1.25,1.25S65.439,20.25,64.749,20.25z"/>
</g>
<g>
	<path style="fill:#006837;" d="M41.417,22.455c-0.332,0-0.649-0.132-0.884-0.366L30.19,11.745c-0.488-0.488-0.488-1.279,0-1.768
		s1.279-0.488,1.768,0l9.459,9.46l9.459-9.46c0.488-0.488,1.279-0.488,1.768,0s0.488,1.279,0,1.768L42.301,22.089
		C42.067,22.323,41.749,22.455,41.417,22.455z"/>
</g>
<g>
	<path style="fill:#006837;" d="M33.786,49.417h-7.473c-2.608,0-4.729-2.122-4.729-4.729v-1.563c0-0.69-0.56-1.25-1.25-1.25
		s-1.25,0.56-1.25,1.25v1.563c0,3.986,3.243,7.229,7.229,7.229h8.143C34.111,51.139,33.878,50.3,33.786,49.417z"/>
	<path style="fill:#006837;" d="M20.333,31.375c0.69,0,1.25-0.56,1.25-1.25v-2.479c0-2.607,2.122-4.729,4.729-4.729h29.041
		c2.608,0,4.729,2.122,4.729,4.729v12.65c0.886,0.118,1.726,0.375,2.5,0.749V27.646c0-3.986-3.243-7.229-7.229-7.229H26.313
		c-3.986,0-7.229,3.243-7.229,7.229v2.479C19.083,30.815,19.643,31.375,20.333,31.375z"/>
	<path style="fill:#006837;" d="M20.333,38.375c0.69,0,1.25-0.56,1.25-1.25v-1c0-0.69-0.56-1.25-1.25-1.25s-1.25,0.56-1.25,1.25v1
		C19.083,37.815,19.643,38.375,20.333,38.375z"/>
</g>
<path style="fill:#006837;" d="M42.068,58.12c-5.281,0-9.578-4.297-9.578-9.578c0-5.201,4.069-9.406,9.264-9.572
	c0.05-0.006,0.104,0,0.155,0.004c0.052-0.006,0.105-0.01,0.159-0.01h16.9c3.17,0,6.128,1.562,7.915,4.177
	c0.389,0.57,0.243,1.348-0.327,1.737c-0.57,0.389-1.347,0.243-1.737-0.327c-1.32-1.933-3.507-3.087-5.85-3.087h-16.9
	c-0.039,0-0.077-0.002-0.115-0.005c-0.039,0.005-0.079,0.008-0.119,0.009c-3.837,0.123-6.844,3.23-6.844,7.074
	c0,3.903,3.175,7.078,7.078,7.078c2.23,0,4.291-1.031,5.654-2.83c0.236-0.312,0.605-0.495,0.996-0.495h3.6
	c0.391,0,0.76,0.184,0.996,0.495c1.363,1.799,3.423,2.83,5.654,2.83c1.462-0.001,2.865-0.44,4.055-1.271
	c0.566-0.396,1.346-0.256,1.741,0.309c0.395,0.566,0.257,1.346-0.309,1.74c-1.612,1.126-3.509,1.722-5.486,1.723
	c-2.809,0-5.416-1.204-7.246-3.325h-2.409C47.483,56.916,44.876,58.12,42.068,58.12z M67.058,51.782
	c-0.098,0-0.198-0.012-0.298-0.036c-0.671-0.164-1.082-0.841-0.917-1.511c0.067-0.273,0.118-0.552,0.152-0.835
	c0.082-0.687,0.703-1.171,1.39-1.093c0.686,0.082,1.174,0.704,1.092,1.39c-0.045,0.379-0.115,0.76-0.206,1.132
	C68.132,51.4,67.621,51.782,67.058,51.782z"/>
<g>
	<path style="fill:#FFFFFF;" d="M30.863,43.759c-0.006,0-0.011,0-0.017,0c-0.828-0.009-1.492-0.688-1.483-1.517
		c0.012-1.113,0.016-2.148,0.016-3.111l-0.004-2.933c0-0.426,0-0.832,0.003-1.22c0.006-0.824,0.677-1.488,1.5-1.488
		c0.004,0,0.007,0,0.012,0c0.828,0.007,1.495,0.683,1.488,1.512c-0.003,0.378-0.004,0.776-0.003,1.194l0.004,2.935
		c0,0.973-0.003,2.02-0.016,3.145C32.353,43.098,31.684,43.759,30.863,43.759z M31.914,30.73c-0.47,0-0.932-0.22-1.224-0.631
		c-0.48-0.676-0.321-1.612,0.354-2.092c0.537-0.383,1.171-0.553,1.925-0.495c0.826,0.059,1.449,0.775,1.39,1.602
		c-0.059,0.827-0.779,1.457-1.602,1.391l-0.049-0.003C32.462,30.656,32.187,30.73,31.914,30.73z"/>
</g>
<g>
	<circle style="fill:#47DD7E;" cx="58.181" cy="45.023" r="1.624"/>
	<circle style="fill:#47DD7E;" cx="58.181" cy="50.805" r="1.624"/>
	<circle style="fill:#47DD7E;" cx="55.29" cy="47.914" r="1.624"/>
	<circle style="fill:#47DD7E;" cx="61.072" cy="47.914" r="1.624"/>
</g>
<g>
	<path style="fill:#CEE35A;" d="M45.667,50.167h-6c-0.829,0-1.5-0.672-1.5-1.5s0.671-1.5,1.5-1.5h6c0.829,0,1.5,0.672,1.5,1.5
		S46.495,50.167,45.667,50.167z"/>
</g>
<g>
	<path style="fill:#CEE35A;" d="M42.667,53.167c-0.829,0-1.5-0.672-1.5-1.5v-6c0-0.828,0.671-1.5,1.5-1.5s1.5,0.672,1.5,1.5v6
		C44.167,52.495,43.495,53.167,42.667,53.167z"/>
</g>
</svg>
