<?xml version="1.0" encoding="iso-8859-1"?>
<!-- Generator: Adobe Illustrator 18.0.0, SVG Export Plug-In . SVG Version: 6.00 Build 0)  -->
<!DOCTYPE svg PUBLIC "-//W3C//DTD SVG 1.1//EN" "http://www.w3.org/Graphics/SVG/1.1/DTD/svg11.dtd">
<svg version="1.1" id="Layer_2" xmlns="http://www.w3.org/2000/svg" xmlns:xlink="http://www.w3.org/1999/xlink" x="0px" y="0px"
	 width="100px" height="100px" viewBox="0 0 100 100" style="enable-background:new 0 0 100 100;" xml:space="preserve">
<path style="fill:#47DD7E;" d="M23,29h53v8H23V29z"/>
<g>
	<path style="fill:#CEE35A;" d="M54.252,51H36.333c-0.828,0-1.5-0.671-1.5-1.5s0.672-1.5,1.5-1.5h17.919c0.828,0,1.5,0.671,1.5,1.5
		S55.08,51,54.252,51z M30.333,51h-2c-0.828,0-1.5-0.671-1.5-1.5s0.672-1.5,1.5-1.5h2c0.828,0,1.5,0.671,1.5,1.5
		S31.161,51,30.333,51z"/>
</g>
<g>
	<path style="fill:#006837;" d="M22,50.678c0.69,0,1.25-0.56,1.25-1.25v-1c0-0.69-0.56-1.25-1.25-1.25s-1.25,0.56-1.25,1.25v1
		C20.75,50.119,21.31,50.678,22,50.678z"/>
	<path style="fill:#006837;" d="M22,43.678c0.69,0,1.25-0.56,1.25-1.25V30c0-2.619,2.131-4.75,4.75-4.75h43
		c2.619,0,4.75,2.131,4.75,4.75v18.353c0.85,0.154,1.689,0.34,2.5,0.593V30c0-3.998-3.252-7.25-7.25-7.25H28
		c-3.998,0-7.25,3.252-7.25,7.25v12.428C20.75,43.119,21.31,43.678,22,43.678z"/>
	<path style="fill:#006837;" d="M52.687,60.75H28c-2.619,0-4.75-2.131-4.75-4.75v-0.572c0-0.69-0.56-1.25-1.25-1.25
		s-1.25,0.56-1.25,1.25V56c0,3.998,3.252,7.25,7.25,7.25h23.817C52.06,62.395,52.342,61.557,52.687,60.75z"/>
</g>
<g>
	<path style="fill:#CEE35A;" d="M72,84c8.284,0,15-6.716,15-15s-6.716-15-15-15s-15,6.716-15,15S63.716,84,72,84z"/>
	<path style="fill:#006837;" d="M72,85.25c-8.96,0-16.25-7.29-16.25-16.25S63.04,52.75,72,52.75c3.35,0,6.565,1.011,9.3,2.923
		c0.566,0.396,0.704,1.175,0.309,1.741s-1.174,0.705-1.74,0.308C77.555,56.104,74.834,55.25,72,55.25
		c-7.582,0-13.75,6.168-13.75,13.75S64.418,82.75,72,82.75S85.75,76.582,85.75,69c0-0.439-0.021-0.879-0.062-1.307
		c-0.065-0.688,0.438-1.298,1.125-1.363c0.687-0.066,1.298,0.438,1.363,1.125c0.049,0.507,0.073,1.027,0.073,1.545
		C88.25,77.96,80.96,85.25,72,85.25z M85.203,63.123c-0.444,0-0.874-0.237-1.101-0.655c-0.146-0.27-0.301-0.535-0.464-0.793
		c-0.367-0.584-0.191-1.356,0.394-1.723c0.581-0.367,1.355-0.192,1.724,0.393c0.19,0.304,0.373,0.615,0.546,0.933
		c0.328,0.607,0.103,1.366-0.504,1.694C85.608,63.074,85.404,63.123,85.203,63.123z"/>
</g>
<g>
	<path style="fill:#006837;" d="M52.522,63.25h-3.057c-0.69,0-1.25-0.56-1.25-1.25s0.56-1.25,1.25-1.25h3.057
		c0.69,0,1.25,0.56,1.25,1.25S53.213,63.25,52.522,63.25z"/>
</g>
<g>
	<path style="fill:#006837;" d="M76.994,49.778c-0.69,0-1.25-0.56-1.25-1.25v-3.057c0-0.69,0.56-1.25,1.25-1.25s1.25,0.56,1.25,1.25
		v3.057C78.244,49.219,77.685,49.778,76.994,49.778z"/>
</g>
<g>
	<path style="fill:#47DD7E;" d="M12.185,33.901h-2.66c-1.196,0-2.17-0.974-2.17-2.171v-2.659c0-1.196,0.974-2.17,2.17-2.17h2.66
		c1.197,0,2.17,0.974,2.17,2.17v2.659C14.355,32.928,13.381,33.901,12.185,33.901z M9.525,28.901c-0.09,0-0.17,0.079-0.17,0.17
		v2.659c0,0.091,0.08,0.171,0.17,0.171h2.66c0.091,0,0.17-0.08,0.17-0.171v-2.659c0-0.091-0.08-0.17-0.17-0.17H9.525z"/>
</g>
<circle style="fill:#006837;" cx="14.5" cy="86.5" r="2"/>
<circle style="fill:#CEE35A;" cx="81.148" cy="91.216" r="2"/>
<circle style="fill:#CEE35A;" cx="73.279" cy="14.842" r="2"/>
<g>
	<path style="fill:#006837;" d="M35.2,14.852c-1.93,0-3.5-1.57-3.5-3.5s1.57-3.5,3.5-3.5s3.5,1.57,3.5,3.5S37.13,14.852,35.2,14.852
		z M35.2,9.852c-0.827,0-1.5,0.673-1.5,1.5s0.673,1.5,1.5,1.5s1.5-0.673,1.5-1.5S36.027,9.852,35.2,9.852z"/>
</g>
<g>
	<path style="fill:#CEE35A;" d="M90.702,36.208h-4c-0.552,0-1-0.447-1-1s0.448-1,1-1h4c0.552,0,1,0.447,1,1
		S91.254,36.208,90.702,36.208z"/>
</g>
<g>
	<path style="fill:#CEE35A;" d="M88.702,38.208c-0.552,0-1-0.447-1-1v-4c0-0.553,0.448-1,1-1s1,0.447,1,1v4
		C89.702,37.761,89.254,38.208,88.702,38.208z"/>
</g>
<g>
	<path style="fill:#47DD7E;" d="M42.877,82.867h-4c-0.552,0-1-0.447-1-1s0.448-1,1-1h4c0.552,0,1,0.447,1,1
		S43.43,82.867,42.877,82.867z"/>
</g>
<g>
	<path style="fill:#47DD7E;" d="M40.877,84.867c-0.552,0-1-0.447-1-1v-4c0-0.553,0.448-1,1-1s1,0.447,1,1v4
		C41.877,84.42,41.43,84.867,40.877,84.867z"/>
</g>
<g>
	<path style="fill:#CEE35A;" d="M24.173,76.66c-0.262,0-0.517-0.103-0.707-0.293l-4.083-4.083c-0.253-0.253-0.352-0.621-0.259-0.966
		c0.092-0.345,0.362-0.614,0.707-0.707l5.577-1.494c0.346-0.093,0.713,0.006,0.966,0.259s0.352,0.621,0.259,0.966l-1.494,5.577
		c-0.092,0.345-0.362,0.614-0.707,0.707C24.347,76.649,24.26,76.66,24.173,76.66z M22.022,72.095l1.633,1.634l0.598-2.231
		L22.022,72.095z"/>
</g>
<g>
	<path style="fill:#CEE35A;" d="M86.29,24.481c-0.262,0-0.517-0.103-0.707-0.293L81.5,20.106c-0.252-0.253-0.352-0.621-0.259-0.966
		c0.092-0.345,0.362-0.614,0.707-0.707l5.577-1.495c0.346-0.093,0.713,0.006,0.966,0.259c0.253,0.253,0.352,0.621,0.259,0.966
		l-1.495,5.577c-0.092,0.345-0.362,0.614-0.707,0.707C86.463,24.471,86.376,24.481,86.29,24.481z M84.139,19.917l1.633,1.633
		l0.598-2.231L84.139,19.917z"/>
</g>
<circle style="fill:#006837;" cx="72" cy="77.175" r="1.5"/>
<path style="fill:#006837;" d="M72.42,60h-0.84c-0.59,0-1.061,0.49-1.038,1.079l0.42,10.922C70.983,72.559,71.442,73,72,73l0,0
	c0.558,0,1.017-0.441,1.038-0.999l0.42-10.922C73.481,60.49,73.01,60,72.42,60z"/>
</svg>
