<?xml version="1.0" encoding="iso-8859-1"?>
<!-- Generator: Adobe Illustrator 18.0.0, SVG Export Plug-In . SVG Version: 6.00 Build 0)  -->
<!DOCTYPE svg PUBLIC "-//W3C//DTD SVG 1.1//EN" "http://www.w3.org/Graphics/SVG/1.1/DTD/svg11.dtd">
<svg version="1.1" id="Layer_2" xmlns="http://www.w3.org/2000/svg" xmlns:xlink="http://www.w3.org/1999/xlink" x="0px" y="0px"
	 width="100px" height="100px" viewBox="0 0 100 100" style="enable-background:new 0 0 100 100;" xml:space="preserve">
<g>
	<path style="fill:#006837;" d="M75.635,73.22c-0.625,0-1.166-0.469-1.239-1.105c-0.08-0.686,0.411-1.307,1.097-1.386
		c3.568-0.415,6.259-3.403,6.258-6.95V42.583c0-0.69,0.56-1.25,1.25-1.25s1.25,0.56,1.25,1.25v21.195
		c0.001,4.817-3.64,8.873-8.469,9.434C75.732,73.218,75.684,73.22,75.635,73.22z"/>
</g>
<g>
	<path style="fill:#CEE35A;" d="M56,72.028V38.599c0-3.064,2.475-5.571,5.5-5.571l0,0c3.025,0,5.5,2.507,5.5,5.571l0.055,25.127
		c0,4.569,3.685,8.301,8.195,8.301l0,0H72.5C74.04,72.028,56,72.028,56,72.028z"/>
	<path style="fill:#006837;" d="M75.25,73.278H56c-0.69,0-1.25-0.56-1.25-1.25V38.599c0-3.761,3.028-6.821,6.75-6.821
		s6.75,3.06,6.75,6.821l0.055,25.125c0,3.891,3.115,7.054,6.945,7.054c0.69,0,1.25,0.56,1.25,1.25S75.94,73.278,75.25,73.278z
		 M57.25,70.778h11.636c-1.893-1.748-3.081-4.262-3.081-7.051L65.75,38.602c0-2.386-1.906-4.324-4.25-4.324s-4.25,1.938-4.25,4.321
		V70.778z"/>
</g>
<rect x="57.25" y="67.711" style="fill:#CEE35A;" width="6.028" height="5.567"/>
<g>
	<path style="fill:#006837;" d="M65,73.278h-3c-0.69,0-1.25-0.56-1.25-1.25s0.56-1.25,1.25-1.25h3c0.69,0,1.25,0.56,1.25,1.25
		S65.69,73.278,65,73.278z"/>
</g>
<g>
	<path style="fill:#47DD7E;" d="M92,50.333h-2.659c-1.197,0-2.171-0.974-2.171-2.17v-2.66c0-1.196,0.974-2.17,2.171-2.17H92
		c1.196,0,2.17,0.974,2.17,2.17v2.66C94.17,49.36,93.196,50.333,92,50.333z M89.341,45.333c-0.091,0-0.171,0.08-0.171,0.17v2.66
		c0,0.091,0.08,0.17,0.171,0.17H92c0.091,0,0.17-0.08,0.17-0.17v-2.66c0-0.09-0.079-0.17-0.17-0.17H89.341z"/>
</g>
<circle style="fill:#47DD7E;" cx="10.5" cy="84.833" r="2"/>
<circle style="fill:#CEE35A;" cx="22.362" cy="90.405" r="2"/>
<circle style="fill:#47DD7E;" cx="41.118" cy="11.642" r="2"/>
<g>
	<path style="fill:#006837;" d="M17.333,15.667c-1.93,0-3.5-1.57-3.5-3.5s1.57-3.5,3.5-3.5s3.5,1.57,3.5,3.5
		S19.263,15.667,17.333,15.667z M17.333,10.667c-0.827,0-1.5,0.673-1.5,1.5s0.673,1.5,1.5,1.5s1.5-0.673,1.5-1.5
		S18.16,10.667,17.333,10.667z"/>
</g>
<g>
	<path style="fill:#CEE35A;" d="M24,22h-4c-0.553,0-1-0.448-1-1s0.447-1,1-1h4c0.553,0,1,0.448,1,1S24.553,22,24,22z"/>
</g>
<g>
	<path style="fill:#CEE35A;" d="M22,24c-0.553,0-1-0.448-1-1v-4c0-0.552,0.447-1,1-1s1,0.448,1,1v4C23,23.552,22.553,24,22,24z"/>
</g>
<g>
	<path style="fill:#006837;" d="M90,90h-4c-0.553,0-1-0.448-1-1s0.447-1,1-1h4c0.553,0,1,0.448,1,1S90.553,90,90,90z"/>
</g>
<g>
	<path style="fill:#006837;" d="M88,92c-0.553,0-1-0.448-1-1v-4c0-0.552,0.447-1,1-1s1,0.448,1,1v4C89,91.552,88.553,92,88,92z"/>
</g>
<g>
	<path style="fill:#47DD7E;" d="M68.187,87.702c-0.262,0-0.517-0.103-0.707-0.293l-4.083-4.083
		c-0.253-0.252-0.352-0.621-0.259-0.966s0.362-0.615,0.707-0.707l5.577-1.494c0.347-0.092,0.714,0.006,0.966,0.259
		c0.253,0.252,0.352,0.621,0.259,0.966l-1.494,5.577c-0.093,0.345-0.362,0.615-0.707,0.707
		C68.36,87.691,68.273,87.702,68.187,87.702z M66.036,83.137l1.634,1.633l0.598-2.231L66.036,83.137z"/>
</g>
<g>
	<path style="fill:#47DD7E;" d="M77.667,11.333c-0.262,0-0.517-0.103-0.707-0.293l-4.083-4.083
		c-0.253-0.252-0.352-0.621-0.259-0.966s0.362-0.615,0.707-0.707l5.577-1.495c0.347-0.093,0.713,0.007,0.966,0.259
		c0.253,0.252,0.352,0.621,0.259,0.966l-1.494,5.577c-0.093,0.345-0.362,0.615-0.707,0.707
		C77.84,11.322,77.753,11.333,77.667,11.333z M75.516,6.769l1.634,1.633l0.598-2.231L75.516,6.769z"/>
</g>
<path style="fill:#006837;" d="M83.482,15.875c-0.466-0.193-1.002-0.091-1.36,0.264l-4.693,4.633l-4.693-4.633
	c-0.486-0.48-1.27-0.48-1.756,0l-4.693,4.633l-4.694-4.633c-0.486-0.48-1.27-0.48-1.756,0l-4.693,4.633l-4.693-4.633
	c-0.488-0.482-1.274-0.48-1.761,0.004l-5.516,5.5c-0.234,0.234-0.367,0.552-0.367,0.884L42.794,33h2.5l0.011-9.953l4.271-4.259
	l4.688,4.629c0.486,0.48,1.27,0.48,1.756,0l4.693-4.633l4.694,4.633c0.486,0.48,1.27,0.48,1.756,0l4.693-4.633l4.693,4.633
	c0.486,0.48,1.27,0.48,1.756,0l3.443-3.399v17.009c0,0.69,0.56,1.25,1.25,1.25s1.25-0.56,1.25-1.25v-20
	C84.25,16.524,83.947,16.069,83.482,15.875z"/>
<g>
	<g>
		<path style="fill:#006837;" d="M50.425,83.75c-0.317,0-0.636-0.121-0.879-0.361l-4.684-4.631l-4.684,4.631
			c-0.486,0.481-1.271,0.481-1.758,0l-4.684-4.631l-4.684,4.631c-0.487,0.484-1.275,0.481-1.763-0.004l-4.628-4.622l-4.679,4.626
			c-0.234,0.231-0.55,0.361-0.879,0.361c-0.69,0-1.306-0.56-1.306-1.25v-25c0-0.69,0.56-1.25,1.25-1.25s1.25,0.56,1.25,1.25v22.061
			l3.489-3.45c0.487-0.484,1.275-0.481,1.763,0.004l4.628,4.622l4.679-4.626c0.486-0.481,1.271-0.481,1.758,0l4.684,4.631
			l4.684-4.631c0.486-0.481,1.271-0.481,1.758,0l4.684,4.631l4.313-4.264V38.5c0-1.609,0.571-3.089,1.523-4.25H36.55
			c-0.69,0-1.25-0.56-1.25-1.25s0.56-1.25,1.25-1.25h25c0.69,0,1.25,0.56,1.25,1.25s-0.56,1.25-1.25,1.25
			c-2.378,0-4.313,1.907-4.313,4.25V77c0,0.334-0.134,0.654-0.371,0.889l-5.563,5.5C51.061,83.629,50.742,83.75,50.425,83.75z"/>
	</g>
	<g>
		<path style="fill:#006837;" d="M17.05,53.613c-0.69,0-1.25-0.56-1.25-1.25V51.85c0-0.69,0.56-1.25,1.25-1.25s1.25,0.56,1.25,1.25
			v0.514C18.3,53.054,17.74,53.613,17.05,53.613z M17.05,47.963c-0.69,0-1.25-0.56-1.25-1.25V38.5c0-3.722,3.056-6.75,6.812-6.75
			h8.784c0.69,0,1.25,0.56,1.25,1.25s-0.56,1.25-1.25,1.25h-8.784c-2.378,0-4.313,1.907-4.313,4.25v8.213
			C18.3,47.403,17.74,47.963,17.05,47.963z"/>
	</g>
</g>
<g>
	<path style="fill:#CEE35A;" d="M49.5,43h-27c-0.828,0-1.5-0.671-1.5-1.5s0.672-1.5,1.5-1.5h27c0.828,0,1.5,0.671,1.5,1.5
		S50.328,43,49.5,43z"/>
</g>
<path style="fill:#47DD7E;" d="M52,66.189c0-1.333-0.649-2.559-1.73-3.315l-3.351-2.306c-0.468-0.36-0.757-0.901-0.757-1.514
	c0-1.009,0.829-1.838,1.838-1.838c0.757,0,1.405,0.432,1.694,1.117c0.216,0.541,0.865,0.793,1.405,0.577
	c0.541-0.216,0.793-0.865,0.577-1.405c-0.468-1.153-1.441-1.982-2.595-2.306v-0.144c0-0.613-0.468-1.081-1.081-1.081
	s-1.081,0.468-1.081,1.081v0.144C45.225,55.667,44,57.216,44,59.054c0,1.297,0.613,2.486,1.694,3.243l3.351,2.342
	c0.505,0.36,0.793,0.901,0.793,1.514c0,1.009-0.829,1.838-1.838,1.838c-0.721,0-1.405-0.432-1.694-1.117
	c-0.252-0.541-0.865-0.793-1.405-0.577c-0.541,0.252-0.793,0.865-0.577,1.405c0.505,1.117,1.441,1.946,2.595,2.27v0.216
	c0,0.613,0.468,1.081,1.081,1.081c0.613,0,1.081-0.468,1.081-1.081v-0.144C50.775,69.577,52,68.027,52,66.189z"/>
<g>
	<path style="fill:#CEE35A;" d="M39.5,58h-10c-0.828,0-1.5-0.671-1.5-1.5s0.672-1.5,1.5-1.5h10c0.828,0,1.5,0.671,1.5,1.5
		S40.328,58,39.5,58z M23.5,58h-1c-0.828,0-1.5-0.671-1.5-1.5s0.672-1.5,1.5-1.5h1c0.828,0,1.5,0.671,1.5,1.5S24.328,58,23.5,58z"/>
</g>
<g>
	<path style="fill:#CEE35A;" d="M39.5,64h-10c-0.828,0-1.5-0.671-1.5-1.5s0.672-1.5,1.5-1.5h10c0.828,0,1.5,0.671,1.5,1.5
		S40.328,64,39.5,64z M23.5,64h-1c-0.828,0-1.5-0.671-1.5-1.5s0.672-1.5,1.5-1.5h1c0.828,0,1.5,0.671,1.5,1.5S24.328,64,23.5,64z"/>
</g>
<g>
	<path style="fill:#CEE35A;" d="M39.5,70h-10c-0.828,0-1.5-0.671-1.5-1.5s0.672-1.5,1.5-1.5h10c0.828,0,1.5,0.671,1.5,1.5
		S40.328,70,39.5,70z M23.5,70h-1c-0.828,0-1.5-0.671-1.5-1.5s0.672-1.5,1.5-1.5h1c0.828,0,1.5,0.671,1.5,1.5S24.328,70,23.5,70z"/>
</g>
</svg>
