<?xml version="1.0" encoding="iso-8859-1"?>
<!-- Generator: Adobe Illustrator 18.0.0, SVG Export Plug-In . SVG Version: 6.00 Build 0)  -->
<!DOCTYPE svg PUBLIC "-//W3C//DTD SVG 1.1//EN" "http://www.w3.org/Graphics/SVG/1.1/DTD/svg11.dtd">
<svg version="1.1" id="Layer_2" xmlns="http://www.w3.org/2000/svg" xmlns:xlink="http://www.w3.org/1999/xlink" x="0px" y="0px"
	 width="100px" height="100px" viewBox="0 0 100 100" style="enable-background:new 0 0 100 100;" xml:space="preserve">
<path style="fill:#CEE35A;" d="M74,36H56.692l-0.487,3H74c0.829,0,1.5-0.671,1.5-1.5S74.829,36,74,36z"/>
<path style="fill:#CEE35A;" d="M74,30H57.666l-0.487,3H74c0.829,0,1.5-0.671,1.5-1.5S74.829,30,74,30z"/>
<g>
	<path style="fill:#006837;" d="M62.749,20.25h-3.321c-0.69,0-1.25-0.56-1.25-1.25s0.56-1.25,1.25-1.25h3.321
		c0.69,0,1.25,0.56,1.25,1.25S63.439,20.25,62.749,20.25z"/>
</g>
<g>
	<path style="fill:#006837;" d="M81,43.393c-0.69,0-1.25,0.56-1.25,1.25v30c0,0.69,0.56,1.25,1.25,1.25s1.25-0.56,1.25-1.25v-30
		C82.25,43.953,81.69,43.393,81,43.393z"/>
	<path style="fill:#006837;" d="M81,83.393c-0.412,0-0.778,0.199-1.005,0.507l-4.217-3.826c-0.491-0.446-1.246-0.43-1.719,0.037
		l-4.684,4.631l-4.684-4.631c-0.487-0.481-1.271-0.481-1.758,0l-4.684,4.631l-4.684-4.631c-0.487-0.481-1.271-0.481-1.758,0
		l-4.679,4.626l-4.628-4.622c-0.486-0.485-1.272-0.488-1.762-0.004l-3.489,3.45V60h-2.5v26.5c0,0.69,0.615,1.25,1.306,1.25
		c0.329,0,0.645-0.13,0.879-0.361l4.679-4.626l4.628,4.622c0.487,0.486,1.273,0.489,1.762,0.004l4.684-4.631l4.684,4.631
		c0.487,0.481,1.271,0.481,1.758,0l4.684-4.631l4.684,4.631c0.487,0.481,1.271,0.481,1.758,0l4.721-4.667l5.186,4.705
		c0.234,0.213,0.535,0.324,0.84,0.324c0.171,0,0.343-0.035,0.506-0.107c0.452-0.201,0.744-0.648,0.744-1.143v-1.857
		C82.25,83.953,81.69,83.393,81,83.393z"/>
	<path style="fill:#006837;" d="M81,36.393c-0.69,0-1.25,0.56-1.25,1.25v1c0,0.69,0.56,1.25,1.25,1.25s1.25-0.56,1.25-1.25v-1
		C82.25,36.953,81.69,36.393,81,36.393z"/>
	<path style="fill:#006837;" d="M75,17.75H60.971v2.5H75c2.619,0,4.75,2.131,4.75,4.75v6.643c0,0.69,0.56,1.25,1.25,1.25
		s1.25-0.56,1.25-1.25V25C82.25,21.002,78.998,17.75,75,17.75z"/>
</g>
<g>
	<path style="fill:#006837;" d="M36,67.25c-0.69,0-1.25-0.56-1.25-1.25v-7c0-0.69,0.56-1.25,1.25-1.25s1.25,0.56,1.25,1.25v7
		C37.25,66.69,36.69,67.25,36,67.25z"/>
</g>
<path style="fill:#47DD7E;" d="M76,72.189c0-1.333-0.649-2.559-1.73-3.315l-3.351-2.306c-0.468-0.36-0.757-0.901-0.757-1.514
	c0-1.009,0.829-1.838,1.838-1.838c0.757,0,1.405,0.432,1.694,1.117c0.216,0.541,0.865,0.793,1.405,0.577s0.793-0.865,0.577-1.405
	c-0.468-1.153-1.441-1.982-2.595-2.306v-0.144c0-0.613-0.468-1.081-1.081-1.081s-1.081,0.468-1.081,1.081v0.144
	C69.225,61.667,68,63.216,68,65.054c0,1.297,0.613,2.486,1.694,3.243l3.351,2.342c0.505,0.36,0.793,0.901,0.793,1.514
	c0,1.009-0.829,1.838-1.838,1.838c-0.721,0-1.405-0.432-1.694-1.117c-0.252-0.541-0.865-0.793-1.405-0.577
	c-0.541,0.252-0.793,0.865-0.577,1.405c0.505,1.117,1.441,1.946,2.595,2.27v0.216c0,0.613,0.468,1.081,1.081,1.081
	s1.081-0.468,1.081-1.081v-0.144C74.775,75.577,76,74.027,76,72.189z"/>
<g>
	<path style="fill:#CEE35A;" d="M63.5,64h-15c-0.829,0-1.5-0.671-1.5-1.5s0.671-1.5,1.5-1.5h15c0.829,0,1.5,0.671,1.5,1.5
		S64.329,64,63.5,64z M42.5,64h-1c-0.829,0-1.5-0.671-1.5-1.5s0.671-1.5,1.5-1.5h1c0.829,0,1.5,0.671,1.5,1.5S43.329,64,42.5,64z"/>
</g>
<g>
	<path style="fill:#CEE35A;" d="M63.5,70h-15c-0.829,0-1.5-0.671-1.5-1.5s0.671-1.5,1.5-1.5h15c0.829,0,1.5,0.671,1.5,1.5
		S64.329,70,63.5,70z M42.5,70h-1c-0.829,0-1.5-0.671-1.5-1.5s0.671-1.5,1.5-1.5h1c0.829,0,1.5,0.671,1.5,1.5S43.329,70,42.5,70z"/>
</g>
<g>
	<path style="fill:#CEE35A;" d="M63.5,76h-15c-0.829,0-1.5-0.671-1.5-1.5s0.671-1.5,1.5-1.5h15c0.829,0,1.5,0.671,1.5,1.5
		S64.329,76,63.5,76z M42.5,76h-1c-0.829,0-1.5-0.671-1.5-1.5s0.671-1.5,1.5-1.5h1c0.829,0,1.5,0.671,1.5,1.5S43.329,76,42.5,76z"/>
</g>
<g>
	<path style="fill:#47DD7E;" d="M89.83,51.25H87.17c-1.197,0-2.17-0.974-2.17-2.17V46.42c0-1.197,0.974-2.17,2.17-2.17h2.659
		c1.197,0,2.17,0.974,2.17,2.17v2.659C92,50.276,91.026,51.25,89.83,51.25z M87.17,46.25c-0.091,0-0.17,0.08-0.17,0.17v2.659
		c0,0.091,0.08,0.17,0.17,0.17h2.659c0.091,0,0.17-0.08,0.17-0.17V46.42c0-0.091-0.08-0.17-0.17-0.17H87.17z"/>
</g>
<circle style="fill:#006837;" cx="88" cy="8" r="2"/>
<circle style="fill:#CEE35A;" cx="87.25" cy="64" r="2"/>
<circle style="fill:#47DD7E;" cx="23" cy="15" r="2"/>
<circle style="fill:#CEE35A;" cx="73.279" cy="12.842" r="2"/>
<g>
	<path style="fill:#006837;" d="M14.5,91.25c-2.068,0-3.75-1.682-3.75-3.75s1.682-3.75,3.75-3.75s3.75,1.682,3.75,3.75
		S16.568,91.25,14.5,91.25z M14.5,86.25c-0.689,0-1.25,0.561-1.25,1.25s0.561,1.25,1.25,1.25s1.25-0.561,1.25-1.25
		S15.189,86.25,14.5,86.25z"/>
</g>
<g>
	<path style="fill:#CEE35A;" d="M56.209,10.387h-4c-0.552,0-1-0.448-1-1s0.448-1,1-1h4c0.552,0,1,0.448,1,1
		S56.762,10.387,56.209,10.387z"/>
</g>
<g>
	<path style="fill:#CEE35A;" d="M54.209,12.387c-0.552,0-1-0.448-1-1v-4c0-0.552,0.448-1,1-1s1,0.448,1,1v4
		C55.209,11.939,54.762,12.387,54.209,12.387z"/>
</g>
<g>
	<path style="fill:#47DD7E;" d="M28.877,82.867h-4c-0.552,0-1-0.448-1-1s0.448-1,1-1h4c0.552,0,1,0.448,1,1
		S29.43,82.867,28.877,82.867z"/>
</g>
<g>
	<path style="fill:#47DD7E;" d="M26.877,84.867c-0.552,0-1-0.448-1-1v-4c0-0.552,0.448-1,1-1s1,0.448,1,1v4
		C27.877,84.419,27.43,84.867,26.877,84.867z"/>
</g>
<g>
	<path style="fill:#CEE35A;" d="M17.673,69.41c-0.262,0-0.517-0.103-0.707-0.293l-4.083-4.083c-0.253-0.252-0.352-0.621-0.259-0.966
		c0.092-0.345,0.362-0.615,0.707-0.707l5.577-1.494c0.345-0.092,0.713,0.006,0.966,0.259s0.352,0.621,0.259,0.966l-1.494,5.577
		c-0.092,0.345-0.362,0.615-0.707,0.707C17.847,69.398,17.76,69.41,17.673,69.41z M15.522,64.845l1.633,1.633l0.598-2.23
		L15.522,64.845z"/>
</g>
<g>
	<path style="fill:#47DD7E;" d="M14.062,14.667c-0.262,0-0.517-0.103-0.707-0.293l-4.083-4.083C9.019,10.039,8.92,9.67,9.013,9.325
		C9.105,8.98,9.375,8.71,9.72,8.618l5.577-1.494c0.345-0.092,0.713,0.006,0.966,0.259c0.253,0.252,0.352,0.621,0.259,0.966
		l-1.494,5.577c-0.092,0.345-0.362,0.615-0.707,0.707C14.235,14.655,14.148,14.667,14.062,14.667z M11.911,10.102l1.633,1.633
		l0.598-2.23L11.911,10.102z"/>
</g>
<g>
	<polygon style="fill:#CEE35A;" points="32.666,54.102 27.389,54.102 23.169,27.983 30.555,27.983 	"/>
</g>
<g>
	<polygon style="fill:#CEE35A;" points="43.218,54.102 37.942,54.102 36.886,27.983 44.273,27.983 	"/>
</g>
<g>
	<polygon style="fill:#CEE35A;" points="48.494,54.102 53.77,54.102 57.991,27.983 50.604,27.983 	"/>
</g>
<g>
	<path style="fill:#006837;" d="M53.77,55.25H27.39c-0.613,0-1.136-0.444-1.234-1.05l-1.789-11.019
		c-0.111-0.681,0.352-1.323,1.034-1.434c0.681-0.108,1.324,0.353,1.434,1.034l1.619,9.969h24.253l3.815-23.5H24.638l0.114,0.699
		c0.111,0.681-0.352,1.323-1.034,1.434c-0.684,0.106-1.323-0.352-1.434-1.034L21.935,28.2c-0.059-0.362,0.044-0.731,0.282-1.01
		s0.585-0.44,0.952-0.44h34.822c0.367,0,0.714,0.161,0.952,0.44c0.237,0.279,0.34,0.648,0.282,1.01l-4.221,26
		C54.906,54.806,54.383,55.25,53.77,55.25z M24.638,38.309c-0.602,0-1.133-0.436-1.232-1.05l-0.16-0.987
		c-0.11-0.681,0.352-1.323,1.034-1.434c0.682-0.11,1.324,0.352,1.434,1.034l0.16,0.987c0.11,0.681-0.352,1.323-1.034,1.434
		C24.771,38.304,24.704,38.309,24.638,38.309z"/>
</g>
<g>
	<path style="fill:#006837;" d="M31.074,27.923c-0.425,0-0.839-0.217-1.073-0.608c-0.501-0.837-0.636-1.813-0.378-2.747
		c0.264-0.958,0.903-1.751,1.8-2.234c1.781-0.958,4.06-0.353,5.082,1.351c0.355,0.592,0.163,1.36-0.43,1.715
		c-0.591,0.355-1.36,0.163-1.715-0.43c-0.338-0.565-1.142-0.764-1.752-0.435c-0.29,0.156-0.494,0.403-0.575,0.697
		c-0.074,0.27-0.034,0.553,0.113,0.798c0.355,0.592,0.162,1.36-0.43,1.714C31.514,27.866,31.292,27.923,31.074,27.923z"/>
</g>
<g>
	<path style="fill:#006837;" d="M35.512,25.238c-0.58,0-1.099-0.406-1.222-0.996c-0.194-0.932-0.007-1.885,0.528-2.683
		c0.56-0.836,1.427-1.401,2.439-1.59c2.019-0.382,3.992,0.897,4.397,2.844c0.141,0.676-0.293,1.338-0.969,1.479
		c-0.673,0.145-1.337-0.293-1.479-0.969c-0.13-0.624-0.799-1.027-1.49-0.896c-0.347,0.065-0.639,0.251-0.822,0.525
		c-0.112,0.166-0.229,0.437-0.158,0.781c0.141,0.676-0.293,1.338-0.969,1.479C35.682,25.229,35.596,25.238,35.512,25.238z"/>
</g>
<g>
	<path style="fill:#006837;" d="M45.485,28.205c-0.479,0-0.935-0.276-1.143-0.742c-0.393-0.882-0.409-1.861-0.046-2.755
		c0.376-0.926,1.107-1.645,2.059-2.025c1.888-0.756,4.083,0.105,4.889,1.918c0.281,0.63-0.003,1.369-0.634,1.65
		c-0.63,0.279-1.37-0.003-1.65-0.634c-0.263-0.59-1.031-0.87-1.677-0.612c-0.314,0.126-0.552,0.355-0.67,0.645
		c-0.074,0.183-0.132,0.47,0.014,0.797c0.281,0.63-0.003,1.37-0.634,1.65C45.828,28.17,45.655,28.205,45.485,28.205z"/>
</g>
<path style="fill:#006837;" d="M54.878,21.44c-0.22-1.869-1.875-3.326-3.877-3.326c-0.546,0-1.075,0.109-1.565,0.321
	c-0.579-1.386-1.977-2.337-3.604-2.337c-0.805,0-1.572,0.237-2.213,0.664c-0.666-1.169-1.958-1.961-3.412-1.961
	c-1.656,0-3.072,0.99-3.634,2.402c-0.703-0.608-1.616-0.953-2.59-0.953c-1.66,0-3.081,1.001-3.644,2.409
	c-0.357-0.104-0.73-0.159-1.104-0.159c-1.904,0-3.495,1.318-3.834,3.055c-1.834,0.306-3.233,1.846-3.233,3.695
	c0,0.904,0.333,1.76,0.942,2.44c0.036,0.106,0.099,0.206,0.147,0.31h2.478c-0.423-0.361-0.682-0.719-0.76-1.052
	c-0.043-0.188-0.141-0.359-0.279-0.493c-0.34-0.328-0.527-0.756-0.527-1.205c0-0.96,0.844-1.742,1.954-1.742
	c0.006,0,0.012,0,0.018,0l0.129,0.015c0.305,0.028,0.595-0.079,0.805-0.292c0.211-0.213,0.315-0.51,0.284-0.808
	c-0.001-0.013-0.022-0.161-0.024-0.173c0-0.965,0.853-1.75,1.902-1.75c0.571,0,0.989,0.239,1.239,0.438
	c0.31,0.249,0.736,0.291,1.086,0.107c0.351-0.183,0.562-0.556,0.537-0.951c-0.003-0.048-0.009-0.096-0.014-0.096L32.083,20
	c0-0.965,0.853-1.75,1.902-1.75c0.674,0,1.285,0.326,1.633,0.873c0.218,0.342,0.623,0.515,1.02,0.446l0.25-0.046
	c0.189-0.036,0.378-0.071,0.573-0.099c0.476-0.068,0.836-0.465,0.858-0.945c0.042-0.941,0.873-1.678,1.89-1.678
	c0.98,0,1.808,0.71,1.883,1.618c0.04,0.479,0.414,0.861,0.892,0.912l0.294,0.032c0.371,0.046,0.734-0.124,0.943-0.433
	c0.353-0.521,0.955-0.832,1.612-0.832c0.981,0,1.79,0.685,1.879,1.593c0.038,0.386,0.296,0.715,0.662,0.844l0.422,0.164
	c0.33,0.124,0.699,0.067,0.975-0.151c0.25-0.197,0.665-0.433,1.23-0.433c1.049,0,1.902,0.785,1.902,1.75
	c0,0.046-0.01,0.09-0.028,0.214c-0.051,0.371,0.108,0.739,0.414,0.954c0.158,0.111,0.314,0.222,0.462,0.335
	c0.258,0.196,0.596,0.255,0.907,0.158c0.225-0.071,0.424-0.105,0.609-0.105c1.049,0,1.902,0.785,1.902,1.75
	c0,0.455-0.19,0.886-0.535,1.215c-0.15,0.143-0.251,0.328-0.292,0.53c-0.067,0.341-0.335,0.71-0.785,1.085h2.433l-0.036,0.223
	c0.11-0.198,0.205-0.399,0.271-0.609c0.61-0.68,0.943-1.537,0.943-2.445C59.168,22.978,57.184,21.193,54.878,21.44z"/>
</svg>
