<?xml version="1.0" encoding="iso-8859-1"?>
<!-- Generator: Adobe Illustrator 18.0.0, SVG Export Plug-In . SVG Version: 6.00 Build 0)  -->
<!DOCTYPE svg PUBLIC "-//W3C//DTD SVG 1.1//EN" "http://www.w3.org/Graphics/SVG/1.1/DTD/svg11.dtd">
<svg version="1.1" id="Layer_2" xmlns="http://www.w3.org/2000/svg" xmlns:xlink="http://www.w3.org/1999/xlink" x="0px" y="0px"
	 width="100px" height="100px" viewBox="0 0 100 100" style="enable-background:new 0 0 100 100;" xml:space="preserve">
<path style="fill:#006837;" d="M87.75,71.333V78c0,0.798-3.942,2.75-11.25,2.75S65.25,78.798,65.25,78v-4.667h-2.5V78
	c0,3.607,7.128,5.25,13.75,5.25S90.25,81.607,90.25,78v-6.667H87.75z"/>
<g>
	<path style="fill:#006837;" d="M77.779,68.729c-0.421,0.015-0.848,0.021-1.279,0.021c-7.308,0-11.25-1.952-11.25-2.75v-5h-2.5v5
		c0,3.607,7.128,5.25,13.75,5.25c0.461,0,0.915-0.008,1.363-0.022c0.69-0.023,1.23-0.602,1.207-1.292
		C79.048,69.246,78.457,68.719,77.779,68.729z"/>
	<path style="fill:#006837;" d="M87.75,59v7.001c0,0.174-0.739,1.228-4.258,2.035c-0.673,0.154-1.094,0.825-0.939,1.498
		c0.154,0.673,0.827,1.095,1.498,0.939c4.057-0.93,6.2-2.477,6.199-4.472v-7H87.75z"/>
</g>
<path style="fill:#006837;" d="M87.75,65v7c0,0.798-3.942,2.75-11.25,2.75S65.25,72.798,65.25,72v-5h-2.5v5
	c0,3.607,7.128,5.25,13.75,5.25S90.25,75.607,90.25,72v-7H87.75z"/>
<g>
	<path style="fill:#006837;" d="M59.081,30.25c2.574,0,4.669,2.116,4.669,4.716c0,0.087,0.01,0.172,0.027,0.254l-0.008,8.811h2.5
		l0.008-9.064c0-0.092-0.011-0.184-0.032-0.272c-0.063-1.695-0.709-3.243-1.742-4.445h6.994c-1.088,1.266-1.747,2.915-1.747,4.716
		v9.065h2.5v-9.065c0-2.6,2.095-4.716,4.669-4.716c0.69,0,1.25-0.56,1.25-1.25s-0.56-1.25-1.25-1.25H59.081
		c-0.69,0-1.25,0.56-1.25,1.25S58.391,30.25,59.081,30.25z"/>
</g>
<g>
	<path style="fill:#006837;" d="M41.084,30.25h2.411c-0.348,0.465-0.334,1.125,0.065,1.576c0.768,0.867,1.189,1.981,1.189,3.14
		v18.761h2.512L47.25,34.966c0-1.733-0.619-3.404-1.747-4.716h6.994c-1.088,1.266-1.747,2.915-1.747,4.716v3.83
		c0,0.69,0.56,1.25,1.25,1.25s1.25-0.56,1.25-1.25v-3.83c0-2.6,2.095-4.716,4.669-4.716c0.69,0,1.25-0.56,1.25-1.25
		s-0.56-1.25-1.25-1.25H41.084c-0.69,0-1.25,0.56-1.25,1.25S40.394,30.25,41.084,30.25z"/>
	<path style="fill:#006837;" d="M52,43.545c-0.69,0-1.25,0.56-1.25,1.25v8.931h2.5v-8.931C53.25,44.105,52.69,43.545,52,43.545z"/>
</g>
<g>
	<path style="fill:#006837;" d="M78.359,30.25h-60c-0.69,0-1.25-0.56-1.25-1.25v-6c0-0.69,0.56-1.25,1.25-1.25s1.25,0.56,1.25,1.25
		v4.75h57.5V23c0-0.69,0.56-1.25,1.25-1.25s1.25,0.56,1.25,1.25v6C79.609,29.69,79.05,30.25,78.359,30.25z"/>
</g>
<g>
	<path style="fill:#006837;" d="M37.954,72.25H20.116c-0.589,0-1.097-0.411-1.222-0.986c-0.124-0.575,0.17-1.159,0.706-1.402
		c1.701-0.771,5.212-2.966,5.212-4.827V46.591c0-0.69,0.56-1.25,1.25-1.25c0.69,0,1.25,0.56,1.25,1.25v18.443
		c0,1.876-1.338,3.496-2.821,4.716h9.265c-0.247-0.204-0.49-0.418-0.726-0.642c-0.5-0.476-0.521-1.267-0.045-1.767
		c0.476-0.501,1.267-0.521,1.768-0.044c1.576,1.499,3.732,2.571,3.754,2.582c0.521,0.257,0.796,0.839,0.664,1.405
		C39.039,71.85,38.535,72.25,37.954,72.25z M32.008,66.045c-0.69,0-1.25-0.56-1.25-1.25v-29.83c0-1.801,0.661-3.45,1.754-4.716
		h-6.97c0.753,0.863,1.308,1.908,1.58,3.067c0.158,0.672-0.259,1.345-0.931,1.503c-0.675,0.157-1.345-0.259-1.503-0.931
		c-0.496-2.109-2.419-3.64-4.572-3.64c-0.69,0-1.25-0.56-1.25-1.25s0.56-1.25,1.25-1.25h17.838c0.69,0,1.25,0.56,1.25,1.25
		s-0.56,1.25-1.25,1.25c-2.59,0-4.696,2.116-4.696,4.716v29.83C33.258,65.486,32.698,66.045,32.008,66.045z M26.062,41.841
		c-0.69,0-1.25-0.56-1.25-1.25v-1c0-0.69,0.56-1.25,1.25-1.25c0.69,0,1.25,0.56,1.25,1.25v1
		C27.312,41.282,26.753,41.841,26.062,41.841z"/>
</g>
<g>
	<path style="fill:#47DD7E;" d="M18.36,23l30.579-9l29.421,9"/>
	<path style="fill:#006837;" d="M78.359,24.25c-0.121,0-0.244-0.018-0.365-0.055l-9.221-2.821c-0.66-0.202-1.032-0.901-0.83-1.561
		s0.905-1.031,1.561-0.83l9.221,2.821c0.66,0.202,1.032,0.901,0.83,1.561C79.39,23.904,78.895,24.25,78.359,24.25z M18.358,24.25
		c-0.54,0-1.038-0.353-1.198-0.897c-0.195-0.663,0.184-1.357,0.847-1.552l30.579-9c0.234-0.068,0.483-0.068,0.718,0.004l7.769,2.376
		c0.66,0.202,1.032,0.901,0.83,1.561c-0.202,0.66-0.903,1.029-1.561,0.83l-7.41-2.267l-30.22,8.894
		C18.595,24.234,18.476,24.25,18.358,24.25z M63.401,19.675c-0.12,0-0.243-0.018-0.365-0.055l-0.957-0.292
		c-0.66-0.202-1.032-0.9-0.83-1.561c0.201-0.659,0.894-1.032,1.561-0.83l0.957,0.292c0.66,0.202,1.032,0.9,0.83,1.561
		C64.433,19.328,63.937,19.675,63.401,19.675z"/>
</g>
<g>
	<path style="fill:#006837;" d="M39,78.25H15.859c-0.464,0-0.889-0.256-1.105-0.666c-0.216-0.41-0.188-0.906,0.073-1.289l4.096-6
		c0.232-0.341,0.619-0.545,1.032-0.545H39.55c0.69,0,1.25,0.56,1.25,1.25s-0.56,1.25-1.25,1.25H20.615l-2.389,3.5H39
		c0.69,0,1.25,0.56,1.25,1.25S39.69,78.25,39,78.25z"/>
</g>
<g>
	<path style="fill:#006837;" d="M46,60.25c-0.69,0-1.25-0.56-1.25-1.25v-8c0-0.69,0.56-1.25,1.25-1.25s1.25,0.56,1.25,1.25v8
		C47.25,59.69,46.69,60.25,46,60.25z"/>
</g>
<g>
	<path style="fill:#006837;" d="M52,56.25c-0.69,0-1.25-0.56-1.25-1.25v-8c0-0.69,0.56-1.25,1.25-1.25s1.25,0.56,1.25,1.25v8
		C53.25,55.69,52.69,56.25,52,56.25z"/>
</g>
<g>
	<path style="fill:#006837;" d="M65,48.25c-0.69,0-1.25-0.56-1.25-1.25v-8c0-0.69,0.56-1.25,1.25-1.25s1.25,0.56,1.25,1.25v8
		C66.25,47.69,65.69,48.25,65,48.25z"/>
</g>
<g>
	<path style="fill:#006837;" d="M71,46.25c-0.69,0-1.25-0.56-1.25-1.25v-8c0-0.69,0.56-1.25,1.25-1.25s1.25,0.56,1.25,1.25v8
		C72.25,45.69,71.69,46.25,71,46.25z"/>
</g>
<path style="fill:#006837;" d="M76.5,65.25c-6.622,0-13.75-1.643-13.75-5.25v-6c0-3.607,7.128-5.25,13.75-5.25
	S90.25,50.393,90.25,54v6C90.25,63.607,83.122,65.25,76.5,65.25z M76.5,51.25c-7.308,0-11.25,1.952-11.25,2.75v6
	c0,0.798,3.942,2.75,11.25,2.75S87.75,60.798,87.75,60v-6C87.75,53.202,83.808,51.25,76.5,51.25z"/>
<g>
	<path style="fill:#CEE35A;" d="M76.5,50C69.596,50,64,51.791,64,54s5.596,4,12.5,4S89,56.209,89,54S83.404,50,76.5,50z"/>
	<path style="fill:#006837;" d="M73.823,59.158c-0.029,0-0.059-0.001-0.088-0.003C68.425,58.784,62.75,57.235,62.75,54
		c0-3.607,7.128-5.25,13.75-5.25S90.25,50.393,90.25,54c0,0.964-0.541,2.352-3.118,3.489c-0.635,0.279-1.37-0.008-1.648-0.639
		c-0.278-0.632,0.007-1.37,0.639-1.648C87.46,54.611,87.75,54.096,87.75,54c0-0.798-3.942-2.75-11.25-2.75S65.25,53.202,65.25,54
		c0,0.566,2.663,2.242,8.659,2.661c0.688,0.048,1.208,0.646,1.16,1.334C75.023,58.654,74.475,59.158,73.823,59.158z M79.817,59.107
		c-0.642,0-1.187-0.49-1.244-1.14c-0.061-0.688,0.447-1.294,1.136-1.355c0.325-0.029,0.646-0.062,0.958-0.099
		c0.674-0.077,1.307,0.41,1.387,1.096c0.081,0.686-0.41,1.307-1.096,1.388c-0.336,0.039-0.68,0.075-1.03,0.105
		C79.891,59.106,79.854,59.107,79.817,59.107z"/>
</g>
<g>
	<path style="fill:#CEE35A;" d="M45,74c0,8.284,6.716,15,15,15s15-6.716,15-15s-6.716-15-15-15S45,65.716,45,74z"/>
	<path style="fill:#006837;" d="M60,90.25c-8.96,0-16.25-7.29-16.25-16.25S51.04,57.75,60,57.75S76.25,65.04,76.25,74
		c0,3.349-1.011,6.565-2.923,9.3c-0.395,0.566-1.174,0.704-1.74,0.308s-0.704-1.175-0.309-1.741
		c1.617-2.313,2.472-5.034,2.472-7.868c0-7.582-6.168-13.75-13.75-13.75S46.25,66.418,46.25,74S52.418,87.75,60,87.75
		c0.437,0,0.878-0.021,1.308-0.062c0.691-0.059,1.298,0.44,1.362,1.127c0.065,0.687-0.439,1.297-1.126,1.362
		C61.035,90.226,60.516,90.25,60,90.25z M67.128,88.452c-0.444,0-0.874-0.237-1.101-0.655c-0.328-0.607-0.103-1.366,0.504-1.694
		c0.271-0.146,0.535-0.301,0.794-0.464c0.585-0.369,1.356-0.192,1.724,0.392c0.368,0.584,0.192,1.356-0.392,1.724
		c-0.306,0.192-0.617,0.375-0.935,0.547C67.533,88.403,67.329,88.452,67.128,88.452z"/>
</g>
<path style="fill:#006837;" d="M64,77.568c0-1.333-0.649-2.559-1.73-3.315l-3.351-2.306c-0.468-0.36-0.757-0.901-0.757-1.514
	c0-1.009,0.829-1.838,1.838-1.838c0.757,0,1.405,0.432,1.694,1.117c0.216,0.541,0.865,0.793,1.405,0.577
	c0.541-0.216,0.793-0.865,0.577-1.405c-0.468-1.153-1.441-1.982-2.595-2.306v-0.144c0-0.613-0.468-1.081-1.081-1.081
	s-1.081,0.468-1.081,1.081v0.144C57.225,67.045,56,68.595,56,70.432c0,1.297,0.613,2.486,1.694,3.243l3.351,2.342
	c0.505,0.36,0.793,0.901,0.793,1.514c0,1.009-0.829,1.838-1.838,1.838c-0.721,0-1.405-0.432-1.694-1.117
	c-0.252-0.541-0.865-0.793-1.405-0.577c-0.541,0.252-0.793,0.865-0.577,1.405c0.505,1.117,1.441,1.946,2.595,2.27v0.216
	c0,0.613,0.468,1.081,1.081,1.081c0.613,0,1.081-0.468,1.081-1.081v-0.144C62.775,80.955,64,79.405,64,77.568z"/>
<g>
	<path style="fill:#47DD7E;" d="M14.83,18h-2.66C10.974,18,10,17.026,10,15.83V13.17c0-1.197,0.974-2.17,2.17-2.17h2.66
		c1.196,0,2.17,0.974,2.17,2.17v2.659C17,17.026,16.026,18,14.83,18z M12.17,13C12.079,13,12,13.08,12,13.17v2.659
		c0,0.092,0.078,0.17,0.17,0.17h2.66c0.092,0,0.17-0.078,0.17-0.17V13.17C15,13.08,14.921,13,14.83,13H12.17z"/>
</g>
<circle style="fill:#006837;" cx="8.5" cy="92.5" r="2"/>
<circle style="fill:#CEE35A;" cx="86" cy="40.333" r="2"/>
<circle style="fill:#CEE35A;" cx="42" cy="8" r="2"/>
<g>
	<path style="fill:#006837;" d="M84.5,14c-1.93,0-3.5-1.57-3.5-3.5S82.57,7,84.5,7S88,8.57,88,10.5S86.43,14,84.5,14z M84.5,9
		C83.673,9,83,9.673,83,10.5s0.673,1.5,1.5,1.5s1.5-0.673,1.5-1.5S85.327,9,84.5,9z"/>
</g>
<g>
	<g>
		<path style="fill:#CEE35A;" d="M13,37H9c-0.553,0-1-0.448-1-1s0.447-1,1-1h4c0.553,0,1,0.448,1,1S13.553,37,13,37z"/>
	</g>
	<g>
		<path style="fill:#CEE35A;" d="M11,39c-0.553,0-1-0.448-1-1v-4c0-0.552,0.447-1,1-1s1,0.448,1,1v4C12,38.552,11.553,39,11,39z"/>
	</g>
</g>
<g>
	<path style="fill:#47DD7E;" d="M91,90h-4c-0.553,0-1-0.448-1-1s0.447-1,1-1h4c0.553,0,1,0.448,1,1S91.553,90,91,90z"/>
</g>
<g>
	<path style="fill:#47DD7E;" d="M89,92c-0.553,0-1-0.448-1-1v-4c0-0.552,0.447-1,1-1s1,0.448,1,1v4C90,91.552,89.553,92,89,92z"/>
</g>
<g>
	<path style="fill:#47DD7E;" d="M18.667,59h-4c-0.553,0-1-0.448-1-1s0.447-1,1-1h4c0.553,0,1,0.448,1,1S19.22,59,18.667,59z"/>
</g>
<g>
	<path style="fill:#47DD7E;" d="M16.667,61c-0.553,0-1-0.448-1-1v-4c0-0.552,0.447-1,1-1s1,0.448,1,1v4
		C17.667,60.552,17.22,61,16.667,61z"/>
</g>
<g>
	<path style="fill:#47DD7E;" d="M22.339,90.992c-0.262,0-0.518-0.103-0.707-0.293l-4.082-4.083
		c-0.253-0.252-0.352-0.621-0.259-0.966s0.362-0.615,0.707-0.707l5.576-1.495c0.347-0.092,0.713,0.007,0.966,0.259
		c0.253,0.252,0.352,0.621,0.259,0.966l-1.494,5.577c-0.093,0.345-0.362,0.615-0.707,0.707
		C22.512,90.98,22.425,90.992,22.339,90.992z M20.188,86.427l1.633,1.633l0.598-2.23L20.188,86.427z"/>
</g>
</svg>
