<?xml version="1.0" encoding="iso-8859-1"?>
<!-- Generator: Adobe Illustrator 18.0.0, SVG Export Plug-In . SVG Version: 6.00 Build 0)  -->
<!DOCTYPE svg PUBLIC "-//W3C//DTD SVG 1.1//EN" "http://www.w3.org/Graphics/SVG/1.1/DTD/svg11.dtd">
<svg version="1.1" id="Layer_2" xmlns="http://www.w3.org/2000/svg" xmlns:xlink="http://www.w3.org/1999/xlink" x="0px" y="0px"
	 width="100px" height="100px" viewBox="0 0 100 100" style="enable-background:new 0 0 100 100;" xml:space="preserve">
<g>
	<path style="fill:#006837;" d="M51.038,72.75H40c-0.69,0-1.25,0.56-1.25,1.25s0.56,1.25,1.25,1.25h11.277
		C51.149,74.431,51.068,73.598,51.038,72.75z"/>
	<path style="fill:#006837;" d="M53.169,62.75H37.938c-2.265,0-4.226-1.613-4.662-3.836l-8.1-41.309
		c-0.666-3.393-3.658-5.855-7.115-5.855H11c-0.69,0-1.25,0.56-1.25,1.25s0.56,1.25,1.25,1.25h7.062c2.265,0,4.226,1.613,4.662,3.836
		l8.1,41.309c0.666,3.393,3.658,5.855,7.115,5.855h14.191C52.422,64.389,52.771,63.557,53.169,62.75z"/>
</g>
<g>
	<path style="fill:#006837;" d="M57.703,55.75H33.028l-5.209-26.5h46.697l-0.563,3.267c-0.117,0.68,0.339,1.327,1.02,1.444
		c0.681,0.117,1.327-0.339,1.444-1.02l0.815-4.729c0.063-0.363-0.039-0.736-0.276-1.018C76.719,26.913,76.369,26.75,76,26.75H26.3
		c-0.374,0-0.728,0.167-0.965,0.456s-0.333,0.668-0.261,1.035l5.7,29c0.115,0.586,0.629,1.009,1.227,1.009h24.152
		C56.934,57.349,56.78,56.506,57.703,55.75z"/>
	<path style="fill:#006837;" d="M73.997,40.877c0.597,0,1.125-0.429,1.23-1.038l0.17-0.985c0.117-0.68-0.339-1.327-1.02-1.444
		c-0.681-0.115-1.327,0.339-1.444,1.02l-0.17,0.985c-0.117,0.68,0.339,1.327,1.02,1.444C73.854,40.872,73.926,40.877,73.997,40.877z
		"/>
</g>
<g>
	<path style="fill:#CEE35A;" d="M72,87c8.284,0,15-6.716,15-15s-6.716-15-15-15s-15,6.716-15,15S63.716,87,72,87z"/>
	<path style="fill:#006837;" d="M72,88.25c-8.96,0-16.25-7.29-16.25-16.25S63.04,55.75,72,55.75c3.349,0,6.565,1.011,9.3,2.923
		c0.566,0.396,0.704,1.175,0.308,1.741c-0.396,0.566-1.174,0.703-1.741,0.308C77.555,59.104,74.834,58.25,72,58.25
		c-7.582,0-13.75,6.168-13.75,13.75S64.418,85.75,72,85.75S85.75,79.582,85.75,72c0-0.438-0.021-0.878-0.062-1.309
		c-0.065-0.687,0.439-1.297,1.127-1.362c0.685-0.058,1.297,0.439,1.362,1.127c0.048,0.508,0.072,1.028,0.072,1.544
		C88.25,80.96,80.96,88.25,72,88.25z M85.203,66.123c-0.444,0-0.874-0.237-1.1-0.655c-0.146-0.269-0.3-0.533-0.463-0.791
		c-0.369-0.584-0.195-1.356,0.389-1.725s1.356-0.195,1.725,0.389c0.193,0.305,0.375,0.617,0.548,0.936
		c0.329,0.607,0.103,1.366-0.504,1.694C85.608,66.074,85.404,66.123,85.203,66.123z"/>
</g>
<path style="fill:#006837;" d="M76,75.568c0-1.333-0.649-2.559-1.73-3.315l-3.351-2.306c-0.468-0.36-0.757-0.901-0.757-1.514
	c0-1.009,0.829-1.838,1.838-1.838c0.757,0,1.405,0.432,1.694,1.117c0.216,0.541,0.865,0.793,1.405,0.577s0.793-0.865,0.577-1.405
	c-0.468-1.153-1.441-1.982-2.595-2.306v-0.144c0-0.613-0.468-1.081-1.081-1.081s-1.081,0.468-1.081,1.081v0.144
	C69.225,65.045,68,66.595,68,68.432c0,1.297,0.613,2.486,1.694,3.243l3.351,2.342c0.505,0.36,0.793,0.901,0.793,1.514
	c0,1.009-0.829,1.838-1.838,1.838c-0.721,0-1.405-0.432-1.694-1.117c-0.252-0.541-0.865-0.793-1.405-0.577
	c-0.541,0.252-0.793,0.865-0.577,1.405c0.505,1.117,1.441,1.946,2.595,2.27v0.216c0,0.613,0.468,1.081,1.081,1.081
	s1.081-0.468,1.081-1.081v-0.144C74.775,78.955,76,77.405,76,75.568z"/>
<g>
	<path style="fill:#47DD7E;" d="M67.333,36h-25c-0.829,0-1.5-0.671-1.5-1.5s0.671-1.5,1.5-1.5h25c0.829,0,1.5,0.671,1.5,1.5
		S68.162,36,67.333,36z M36.333,36h-2c-0.829,0-1.5-0.671-1.5-1.5s0.671-1.5,1.5-1.5h2c0.829,0,1.5,0.671,1.5,1.5
		S37.162,36,36.333,36z"/>
</g>
<g>
	<path style="fill:#47DD7E;" d="M14.83,53H12.17C10.974,53,10,52.026,10,50.83V48.17c0-1.197,0.974-2.17,2.17-2.17h2.659
		c1.197,0,2.17,0.974,2.17,2.17v2.659C17,52.026,16.026,53,14.83,53z M12.17,48C12.08,48,12,48.08,12,48.17v2.659
		C12,50.92,12.08,51,12.17,51h2.659C14.92,51,15,50.92,15,50.83V48.17C15,48.08,14.92,48,14.83,48H12.17z"/>
</g>
<circle style="fill:#006837;" cx="8.5" cy="92.5" r="2"/>
<circle style="fill:#CEE35A;" cx="85" cy="51.333" r="2"/>
<circle style="fill:#CEE35A;" cx="67.667" cy="15.667" r="2"/>
<g>
	<path style="fill:#006837;" d="M81.5,22c-1.93,0-3.5-1.57-3.5-3.5s1.57-3.5,3.5-3.5s3.5,1.57,3.5,3.5S83.43,22,81.5,22z M81.5,17
		c-0.827,0-1.5,0.673-1.5,1.5s0.673,1.5,1.5,1.5s1.5-0.673,1.5-1.5S82.327,17,81.5,17z"/>
</g>
<g>
	<path style="fill:#CEE35A;" d="M21,37h-4c-0.552,0-1-0.448-1-1s0.448-1,1-1h4c0.552,0,1,0.448,1,1S21.552,37,21,37z"/>
</g>
<g>
	<path style="fill:#CEE35A;" d="M19,39c-0.552,0-1-0.448-1-1v-4c0-0.552,0.448-1,1-1s1,0.448,1,1v4C20,38.552,19.552,39,19,39z"/>
</g>
<g>
	<path style="fill:#47DD7E;" d="M91,90h-4c-0.552,0-1-0.448-1-1s0.448-1,1-1h4c0.552,0,1,0.448,1,1S91.552,90,91,90z"/>
</g>
<g>
	<path style="fill:#47DD7E;" d="M89,92c-0.552,0-1-0.448-1-1v-4c0-0.552,0.448-1,1-1s1,0.448,1,1v4C90,91.552,89.552,92,89,92z"/>
</g>
<g>
	<path style="fill:#47DD7E;" d="M22.339,90.992c-0.262,0-0.517-0.103-0.707-0.293l-4.082-4.083
		c-0.253-0.252-0.352-0.621-0.259-0.966c0.092-0.345,0.362-0.615,0.707-0.707l5.577-1.495c0.344-0.093,0.713,0.006,0.966,0.259
		c0.253,0.252,0.352,0.621,0.259,0.966l-1.495,5.577c-0.092,0.345-0.362,0.615-0.707,0.707
		C22.512,90.98,22.425,90.992,22.339,90.992z M20.188,86.427l1.633,1.633l0.598-2.23L20.188,86.427z"/>
</g>
<g>
	<path style="fill:#CEE35A;" d="M38.172,14.244c-0.262,0-0.517-0.103-0.707-0.293l-4.083-4.083
		c-0.253-0.252-0.352-0.621-0.259-0.966c0.092-0.345,0.362-0.615,0.707-0.707l5.577-1.495c0.345-0.092,0.713,0.006,0.966,0.259
		c0.252,0.252,0.352,0.621,0.259,0.966l-1.494,5.577c-0.092,0.345-0.362,0.615-0.707,0.707
		C38.346,14.232,38.259,14.244,38.172,14.244z M36.021,9.679l1.633,1.633l0.598-2.23L36.021,9.679z"/>
</g>
<g>
	<circle style="fill:#47DD7E;" cx="36.692" cy="73.961" r="4.961"/>
	<path style="fill:#006837;" d="M36.692,80.172c-3.425,0-6.211-2.786-6.211-6.211c0-0.678,0.109-1.345,0.324-1.983
		c0.22-0.653,0.927-1.008,1.583-0.786c0.654,0.22,1.006,0.929,0.786,1.583c-0.128,0.381-0.193,0.78-0.193,1.187
		c0,2.046,1.665,3.711,3.711,3.711s3.711-1.665,3.711-3.711s-1.665-3.711-3.711-3.711l-0.142,0.003
		c-0.683,0.023-1.268-0.519-1.29-1.209c-0.022-0.69,0.519-1.268,1.209-1.29l0.213-0.004c3.435,0,6.221,2.786,6.221,6.211
		S40.117,80.172,36.692,80.172z"/>
</g>
<g>
	<path style="fill:#006837;" d="M58.379,58.25H52c-0.69,0-1.25-0.56-1.25-1.25s0.56-1.25,1.25-1.25h6.379
		c0.69,0,1.25,0.56,1.25,1.25S59.07,58.25,58.379,58.25z"/>
</g>
<g>
	<path style="fill:#006837;" d="M52,75.25h-3c-0.69,0-1.25-0.56-1.25-1.25s0.56-1.25,1.25-1.25h3c0.69,0,1.25,0.56,1.25,1.25
		S52.69,75.25,52,75.25z"/>
</g>
<g>
	<path style="fill:#006837;" d="M53,65.25h-3c-0.69,0-1.25-0.56-1.25-1.25s0.56-1.25,1.25-1.25h3c0.69,0,1.25,0.56,1.25,1.25
		S53.69,65.25,53,65.25z"/>
</g>
<g>
	<path style="fill:#006837;" d="M71.932,53.005c-0.062,0-0.124-0.004-0.186-0.014c-0.683-0.102-1.154-0.738-1.052-1.421l0.896-6.005
		c0.102-0.683,0.737-1.152,1.421-1.052c0.683,0.102,1.154,0.738,1.052,1.421l-0.896,6.005C73.074,52.56,72.541,53.005,71.932,53.005
		z"/>
</g>
</svg>
