<?xml version="1.0" encoding="utf-8"?>
<!-- Generator: Adobe Illustrator 15.1.0, SVG Export Plug-In  -->
<!DOCTYPE svg PUBLIC "-//W3C//DTD SVG 1.1//EN" "http://www.w3.org/Graphics/SVG/1.1/DTD/svg11.dtd" [
	<!ENTITY ns_flows "http://ns.adobe.com/Flows/1.0/">
]>
<svg version="1.1"
	 xmlns="http://www.w3.org/2000/svg" xmlns:xlink="http://www.w3.org/1999/xlink" xmlns:a="http://ns.adobe.com/AdobeSVGViewerExtensions/3.0/"
	 x="0px" y="0px" width="250px" height="250px" viewBox="0.405 0 250 250"
	 overflow="visible" enable-background="new 0.405 0 250 250" xml:space="preserve">
<defs>
</defs>
<path d="M241.596,41.188h-95.896l-1.621,9.805h12.006l83.736-0.004c0.404,0,0.744,0,1.029-0.004v14.289h-99.135l-2.498,15.092
	l43.242,1.999h1.441h0.846l0.832,0.142c5.707,0.973,10.877,3.988,14.568,8.348h40.701l-0.002,99.826l-76.035-0.001l-5.127,9.802
	h81.912c4.992,0,9.055-4.059,9.055-9.049V90.854v-25.58V50.238C250.65,45.248,246.588,41.188,241.596,41.188z"/>
<path d="M9.803,190.686V90.854h54.811l13.381-25.58H9.805V50.99l75.658,0.001l5.129-9.804H9.055C4.062,41.188,0,45.248,0,50.238
	v15.035v25.58v100.578c0,4.99,4.062,9.049,9.055,9.049h93.023l1.621-9.803l-92.568,0.004
	C10.592,190.682,10.154,190.682,9.803,190.686z"/>
<g>
	<path d="M129.861,10c0.095,0,0.181,0.022,0.276,0.071c0.227,0.116,0.358,0.358,0.338,0.609l-4.776,28.869l-0.474,2.854
		l-3.514,21.237l-4.064,24.562l-1.837,11.103l11.241,0.52l54.715,2.529l0.23,0.011h0.231h0.578c1.089,0.345,2.021,1.105,2.569,2.117
		c0.569,1.169,0.566,2.55-0.008,3.716l-68.3,130.625c-0.152,0.172-0.354,0.192-0.443,0.192c-0.104,0-0.193-0.026-0.291-0.085
		c-0.146-0.087-0.244-0.235-0.272-0.4l6.02-36.419l1.619-9.802l5.111-30.917l1.836-11.103l-11.242-0.518l-54.844-2.527l-0.229-0.011
		h-0.23h-0.576c-1.11-0.353-2.06-1.139-2.612-2.195c-0.61-1.161-0.649-2.553-0.11-3.745l44.805-85.663l0.826-1.578l22.828-43.646
		l0.016-0.031l0.016-0.03C129.457,10.024,129.77,10,129.861,10 M129.861,0c-3.855,0-7.576,2.105-9.461,5.771L97.572,49.417
		l-0.824,1.574l-44.9,85.847c-1.973,4.076-1.893,8.847,0.215,12.854c2.09,3.995,5.924,6.782,10.367,7.541h1.672l54.844,2.527
		l-5.111,30.917l-1.619,9.803l-6.123,37.046c-0.346,4.029,1.635,7.905,5.105,9.983c1.703,1.02,3.578,1.505,5.428,1.505
		c3.598,0,7.107-1.836,9.09-5.147l68.553-131.109c2.047-4.039,2.047-8.813,0-12.854c-2.09-3.994-5.924-6.782-10.367-7.539h-1.672
		l-54.715-2.529l4.064-24.562l3.514-21.238l0.473-2.848l4.803-29.032c0.652-4.492-1.621-8.902-5.658-10.978
		C133.154,0.379,131.496,0,129.861,0L129.861,0z"/>
</g>
</svg>
