<?xml version="1.0" encoding="utf-8"?>
<!-- Generator: Adobe Illustrator 25.4.1, SVG Export Plug-In . SVG Version: 6.00 Build 0)  -->
<svg version="1.1" id="Layer_1" xmlns="http://www.w3.org/2000/svg" xmlns:xlink="http://www.w3.org/1999/xlink" x="0px" y="0px"
	 viewBox="0 0 349 43" style="enable-background:new 0 0 349 43;" xml:space="preserve">
<style type="text/css">
	.st0{fill:#3E3ECC;}
	.st1{font-family:'Futura-Bold';}
	.st2{font-size:42.6434px;}
	.st3{fill:#666666;}
	.st4{font-family:'Ubuntu-Bold';}
	.st5{font-size:44.8481px;}
	.st6{fill:#2EFFFC;}
</style>
<text transform="matrix(-1.042337e-10 0.7739 -1 -1.346898e-10 67.525 3.5085)" class="st0 st1 st2">&lt;</text>
<text transform="matrix(-1.042337e-10 0.7739 -1 -1.346898e-10 45.32 3.5085)" class="st0 st1 st2">&lt;</text>
<text transform="matrix(-1.042337e-10 0.7739 -1 -1.346898e-10 23.3395 3.5085)" class="st0 st1 st2">&lt;</text>
<text transform="matrix(1.737229e-10 -0.7739 1 2.244829e-10 33.3112 43.7262)" class="st0 st1 st2">&lt;</text>
<text transform="matrix(1.737229e-10 -0.7739 1 2.244829e-10 55.5153 43.7262)" class="st0 st1 st2">&lt;</text>
<text transform="matrix(1.737229e-10 -0.7739 1 2.244829e-10 77.4957 43.7272)" class="st0 st1 st2">&lt;</text>
<text transform="matrix(1.737229e-10 -0.7739 1 2.244829e-10 100.1325 43.6911)" class="st0 st1 st2">&lt;</text>
<text transform="matrix(-1.042337e-10 0.7739 -1 -1.346898e-10 90.1173 3.5075)" class="st0 st1 st2">&lt;</text>
<text transform="matrix(1 0 0 1 143.1193 38.0602)" class="st3 st4 st5">srclaunch</text>
<g>
	<path class="st6" d="M31.2,15l6.4-8.7h9L35,22.5l-8.9,0.2"/>
</g>
<g>
	<path class="st6" d="M53.2,15.7L59.6,7h9L57,23.2l-8.9,0.2"/>
</g>
<g>
	<path class="st6" d="M76.2,14.7L82.6,6h9L80,22.2l-8.9,0.2"/>
</g>
<g>
	<path class="st6" d="M98.8,14.7l6.4-8.7h9l-11.6,16.2l-8.9,0.2"/>
</g>
<g>
	<path class="st6" d="M18.7,33.1l6.4-8.7h9L22.5,40.6l-8.9,0.2"/>
</g>
<g>
	<path class="st6" d="M40.7,33.8l6.4-8.7h9L44.5,41.2l-8.9,0.2"/>
</g>
<g>
	<path class="st6" d="M63.7,32.8l6.4-8.7h9L67.5,40.2l-8.9,0.2"/>
</g>
<g>
	<path class="st6" d="M86.3,32.8l6.4-8.7h9L90,40.2l-8.9,0.2"/>
</g>
</svg>
