<?xml version="1.0" encoding="utf-8"?>
<!-- Generator: Adobe Illustrator 25.4.1, SVG Export Plug-In . SVG Version: 6.00 Build 0)  -->
<svg version="1.1" id="Layer_1" xmlns="http://www.w3.org/2000/svg" xmlns:xlink="http://www.w3.org/1999/xlink" x="0px" y="0px"
	 viewBox="0 0 343 46" style="enable-background:new 0 0 343 46;" xml:space="preserve">
<style type="text/css">
	.st0{fill:#3E3ECC;}
	.st1{font-family:'Futura-Bold';}
	.st2{font-size:42.6434px;}
	.st3{fill:#FF3ECC;}
	.st4{fill:#5CEFFF;}
	.st5{fill:#666666;}
	.st6{font-family:'Ubuntu-Bold';}
	.st7{font-size:44.8481px;}
</style>
<text transform="matrix(-1.042337e-10 0.7739 -1 -1.346898e-10 66.4062 5.001)" class="st0 st1 st2">&lt;</text>
<text transform="matrix(-1.042337e-10 0.7739 -1 -1.346898e-10 44.2012 5.001)" class="st0 st1 st2">&lt;</text>
<text transform="matrix(-1.042337e-10 0.7739 -1 -1.346898e-10 22.2207 5.001)" class="st0 st1 st2">&lt;</text>
<text transform="matrix(1.737229e-10 -0.7739 1 2.244829e-10 32.1924 45.2188)" class="st0 st1 st2">&lt;</text>
<text transform="matrix(1.737229e-10 -0.7739 1 2.244829e-10 54.3965 45.2188)" class="st0 st1 st2">&lt;</text>
<text transform="matrix(1.737229e-10 -0.7739 1 2.244829e-10 76.377 45.2197)" class="st0 st1 st2">&lt;</text>
<text transform="matrix(1.737229e-10 -0.7739 1 2.244829e-10 99.0137 45.1836)" class="st0 st1 st2">&lt;</text>
<text transform="matrix(-1.042337e-10 0.7739 -1 -1.346898e-10 88.9985 5)" class="st0 st1 st2">&lt;</text>
<g>
	<path class="st3" d="M17.3,34.5l6.4-8.7h9L21.1,42l-8.9,0.2"/>
</g>
<g>
	<path class="st3" d="M39.8,34.7l6.4-8.7h9L43.6,42.2l-8.9,0.2"/>
</g>
<g>
	<path class="st3" d="M61.7,34.7l6.4-8.7h9L65.5,42.2l-8.9,0.2"/>
</g>
<g>
	<path class="st3" d="M84.3,34.7l6.4-8.7h9L88.1,42.2l-8.9,0.2"/>
</g>
<g>
	<path class="st4" d="M35.2,8.1l8.9-0.2l11.6,16.2h-9.1l-6.3-8.7"/>
</g>
<g>
	<path class="st4" d="M57.1,8.1L66,7.9l11.6,16.2h-9.1l-6.3-8.7"/>
</g>
<g>
	<path class="st4" d="M79,8.1l8.9-0.2l11.6,16.2h-9.1l-6.3-8.7"/>
</g>
<g>
	<path class="st4" d="M101.4,8.1l8.9-0.2l11.6,16.2h-9.1l-6.3-8.7"/>
</g>
<text transform="matrix(1 0 0 1 142.0005 39.5527)" class="st5 st6 st7">srclaunch</text>
</svg>
