<?xml version="1.0" encoding="iso-8859-1"?>
<!-- Generator: Adobe Illustrator 18.0.0, SVG Export Plug-In . SVG Version: 6.00 Build 0)  -->
<!DOCTYPE svg PUBLIC "-//W3C//DTD SVG 1.1//EN" "http://www.w3.org/Graphics/SVG/1.1/DTD/svg11.dtd">
<svg version="1.1" id="Layer_2" xmlns="http://www.w3.org/2000/svg" xmlns:xlink="http://www.w3.org/1999/xlink" x="0px" y="0px"
	 width="100px" height="100px" viewBox="0 0 100 100" style="enable-background:new 0 0 100 100;" xml:space="preserve">
<path style="fill:#CEE35A;" d="M69.826,79.237l-1.559-1.559V63.7c0-7.154-4.136-13.385-10.121-16.384
	C57.321,48.353,56.066,49,54.671,49H39.071c-4.477,3.325-7.362,8.644-7.362,14.646v13.978l-1.559,1.559
	C28.752,80.581,29.72,83,31.709,83h36.558C70.256,83,71.278,80.634,69.826,79.237z"/>
<g>
	<path style="fill:#006837;" d="M60.31,38.306c-0.688-0.122-1.329,0.332-1.449,1.012l-1.027,5.779
		c-0.293,1.563-1.593,2.654-3.161,2.654H33.2c-0.764,0.589-1.672,0.996-2.664,1.161c-0.002,0.031-0.018,0.057-0.018,0.089
		c0,0.69,0.56,1.25,1.25,1.25h22.904c2.745,0,5.108-1.974,5.62-4.705l1.029-5.791C61.442,39.075,60.989,38.426,60.31,38.306z"/>
	<path style="fill:#006837;" d="M61.534,31.413c-0.686-0.12-1.329,0.333-1.449,1.012L59.91,33.41
		c-0.121,0.68,0.332,1.329,1.012,1.45c0.074,0.013,0.147,0.019,0.22,0.019c0.595,0,1.122-0.426,1.229-1.031l0.175-0.984
		C62.667,32.183,62.214,31.534,61.534,31.413z"/>
	<path style="fill:#006837;" d="M62.839,26.273c-0.871-2.14-2.952-3.523-5.301-3.523h-6.675l0.912-2.68
		c0.069-0.199,0.104-0.406,0.104-0.613c0-2.588-5.314-3.76-6.928-3.76c-1.538,0-2.083,0.68-2.271,1.252
		c-1.268,3.893-3.799,7.189-7.526,9.801h-7.674c-0.69,0-1.25,0.56-1.25,1.25h9.313v1.25c0.25,0,0.495-0.075,0.702-0.216
		c4.217-2.86,7.125-6.505,8.652-10.836c0.017,0,0.035,0,0.054,0c1.491,0,3.714,0.828,4.353,1.372l-1.371,4.028
		c-0.13,0.382-0.067,0.803,0.167,1.13c0.235,0.328,0.613,0.522,1.017,0.522h8.421c1.327,0,2.499,0.771,2.984,1.965
		c0.261,0.64,0.99,0.946,1.629,0.687C62.791,27.642,63.099,26.913,62.839,26.273z"/>
</g>
<path style="fill:#006837;" d="M29.544,50.25h-9.063c-0.69,0-1.25-0.56-1.25-1.25v-7.062c0-0.69,0.56-1.25,1.25-1.25
	s1.25,0.56,1.25,1.25v5.812h7.813c2.619,0,4.75-2.131,4.75-4.75V29.25H21.731v6.688c0,0.69-0.56,1.25-1.25,1.25
	s-1.25-0.56-1.25-1.25V28c0-0.69,0.56-1.25,1.25-1.25h15.063c0.69,0,1.25,0.56,1.25,1.25v15
	C36.794,46.998,33.542,50.25,29.544,50.25z"/>
<circle style="fill:#47DD7E;" cx="28" cy="41" r="3"/>
<g>
	<path style="fill:#CEE35A;" d="M46.719,24h6.906c-0.214-0.852-0.076-1.789,0.52-2.574l5.589-7.473
		c-5.714-3.831-13.187-3.956-19.027-0.251l-0.44,0.251l5.84,7.284C46.786,22.058,46.951,23.082,46.719,24z"/>
	<path style="fill:#006837;" d="M53.625,25.25H46.72c-0.385,0-0.749-0.177-0.985-0.481c-0.237-0.304-0.32-0.699-0.228-1.073
		c0.041-0.162,0.062-0.326,0.062-0.486c0-0.302-0.073-0.751-0.425-1.175l-5.853-7.3c-0.229-0.285-0.32-0.656-0.252-1.016
		c0.068-0.359,0.29-0.67,0.607-0.852l0.439-0.251c2.938-1.865,6.39-2.866,9.933-2.866l0.279,0.001
		c0.69,0.012,1.24,0.581,1.229,1.271c-0.012,0.683-0.569,1.229-1.25,1.229c-0.007,0-0.014,0-0.021,0l-0.229-0.001
		c-2.774,0-5.479,0.706-7.88,2.048l4.937,6.157c0.544,0.657,0.875,1.446,0.963,2.294h4.264c0.086-0.752,0.372-1.463,0.84-2.08
		l4.764-6.369c-0.709-0.396-1.448-0.738-2.208-1.022c-0.646-0.242-0.975-0.962-0.732-1.609c0.243-0.647,0.963-0.972,1.609-0.733
		c1.353,0.506,2.647,1.171,3.849,1.977c0.284,0.191,0.479,0.49,0.536,0.828c0.058,0.337-0.026,0.684-0.231,0.958l-5.589,7.473
		c-0.244,0.322-0.365,0.678-0.365,1.064c0,0.152,0.02,0.306,0.057,0.457c0.095,0.374,0.011,0.77-0.227,1.073
		C54.374,25.072,54.01,25.25,53.625,25.25z"/>
</g>
<path style="fill:#006837;" d="M54,68.216c0-1.333-0.649-2.559-1.73-3.315l-3.351-2.306c-0.468-0.36-0.757-0.901-0.757-1.514
	c0-1.009,0.829-1.838,1.838-1.838c0.757,0,1.405,0.432,1.694,1.117c0.216,0.541,0.865,0.793,1.405,0.577
	c0.541-0.216,0.793-0.865,0.577-1.405c-0.468-1.153-1.441-1.982-2.595-2.306v-0.144C51.081,56.468,50.613,56,50,56
	s-1.081,0.468-1.081,1.081v0.144C47.225,57.694,46,59.243,46,61.081c0,1.297,0.613,2.486,1.694,3.243l3.351,2.342
	c0.505,0.36,0.793,0.901,0.793,1.514c0,1.009-0.829,1.838-1.838,1.838c-0.721,0-1.405-0.432-1.694-1.117
	c-0.252-0.541-0.865-0.793-1.405-0.577c-0.541,0.252-0.793,0.865-0.577,1.405c0.505,1.117,1.441,1.946,2.595,2.27v0.216
	c0,0.613,0.468,1.081,1.081,1.081c0.613,0,1.081-0.468,1.081-1.081v-0.144C52.775,71.604,54,70.054,54,68.216z"/>
<g>
	<path style="fill:#FFFFFF;" d="M62.5,76.5c-0.828,0-1.5-0.671-1.5-1.5V63.271c0-1.091-0.172-2.169-0.513-3.207
		c-0.258-0.787,0.171-1.635,0.959-1.893c0.784-0.259,1.634,0.171,1.893,0.958C63.777,60.47,64,61.863,64,63.271V75
		C64,75.829,63.328,76.5,62.5,76.5z M58.781,56.037c-0.43,0-0.856-0.184-1.153-0.54l-1.28-1.537
		c-0.53-0.636-0.444-1.582,0.192-2.112c0.637-0.531,1.582-0.444,2.112,0.192l1.28,1.537c0.53,0.636,0.444,1.582-0.192,2.112
		C59.46,55.923,59.119,56.037,58.781,56.037z"/>
</g>
<g>
	<path style="fill:#8CC63F;" d="M34.998,53.115c-0.495,0.768-1.161,1.907-1.675,3.001"/>
	<path style="fill:#006837;" d="M33.322,57.366c-0.178,0-0.358-0.039-0.53-0.119c-0.625-0.293-0.894-1.038-0.6-1.663
		c0.46-0.979,1.116-2.155,1.755-3.146c0.375-0.581,1.148-0.746,1.729-0.373c0.58,0.374,0.747,1.148,0.373,1.728
		c-0.219,0.338-0.979,1.544-1.595,2.854C34.242,57.1,33.792,57.366,33.322,57.366z"/>
</g>
<g>
	<path style="fill:#47DD7E;" d="M85.33,18h-2.66c-1.196,0-2.17-0.974-2.17-2.17V13.17c0-1.197,0.974-2.17,2.17-2.17h2.66
		c1.196,0,2.17,0.974,2.17,2.17v2.659C87.5,17.026,86.526,18,85.33,18z M82.67,13c-0.091,0-0.17,0.08-0.17,0.17v2.659
		c0,0.092,0.078,0.17,0.17,0.17h2.66c0.092,0,0.17-0.078,0.17-0.17V13.17c0-0.091-0.079-0.17-0.17-0.17H82.67z"/>
</g>
<circle style="fill:#006837;" cx="89" cy="92.5" r="2"/>
<circle style="fill:#CEE35A;" cx="19.25" cy="65" r="2"/>
<circle style="fill:#CEE35A;" cx="80.25" cy="81" r="2"/>
<g>
	<path style="fill:#006837;" d="M13,14c-1.93,0-3.5-1.57-3.5-3.5S11.07,7,13,7s3.5,1.57,3.5,3.5S14.93,14,13,14z M13,9
		c-0.827,0-1.5,0.673-1.5,1.5S12.173,12,13,12s1.5-0.673,1.5-1.5S13.827,9,13,9z"/>
</g>
<g>
	<path style="fill:#CEE35A;" d="M77.5,22h-4c-0.553,0-1-0.448-1-1s0.447-1,1-1h4c0.553,0,1,0.448,1,1S78.053,22,77.5,22z"/>
</g>
<g>
	<path style="fill:#CEE35A;" d="M75.5,24c-0.553,0-1-0.448-1-1v-4c0-0.552,0.447-1,1-1s1,0.448,1,1v4C76.5,23.552,76.053,24,75.5,24
		z"/>
</g>
<g>
	<path style="fill:#47DD7E;" d="M18.833,86.667h-4c-0.553,0-1-0.448-1-1s0.447-1,1-1h4c0.553,0,1,0.448,1,1
		S19.386,86.667,18.833,86.667z"/>
</g>
<g>
	<path style="fill:#47DD7E;" d="M16.833,88.667c-0.553,0-1-0.448-1-1v-4c0-0.552,0.447-1,1-1s1,0.448,1,1v4
		C17.833,88.219,17.386,88.667,16.833,88.667z"/>
</g>
<g>
	<path style="fill:#47DD7E;" d="M81,57c-0.086,0-0.173-0.011-0.259-0.034c-0.345-0.092-0.614-0.362-0.707-0.707l-1.494-5.577
		c-0.093-0.345,0.006-0.713,0.259-0.966c0.252-0.252,0.619-0.352,0.966-0.259l5.576,1.494c0.345,0.092,0.614,0.362,0.707,0.707
		s-0.006,0.713-0.259,0.966l-4.082,4.083C81.518,56.897,81.262,57,81,57z M80.92,51.837l0.598,2.23l1.633-1.633L80.92,51.837z"/>
</g>
<g>
	<path style="fill:#006837;" d="M60.253,81.75H31.709c-0.629,0-0.969-0.513-0.969-0.995c0-0.261,0.099-0.493,0.294-0.688
		l1.559-1.559c0.234-0.234,0.366-0.552,0.366-0.884V63.646c0-3.619,1.133-7.016,3.095-9.81h-2.955
		c-1.686,2.905-2.641,6.263-2.641,9.81v13.461l-1.192,1.193c-0.662,0.662-1.026,1.534-1.026,2.456c0,1.96,1.523,3.495,3.469,3.495
		h28.544c0.69,0,1.25-0.56,1.25-1.25S60.943,81.75,60.253,81.75z"/>
	<path style="fill:#006837;" d="M70.71,78.353l-1.193-1.193V63.7c0-3.145-0.769-6.277-2.224-9.058
		c-0.319-0.612-1.078-0.849-1.687-0.528c-0.612,0.32-0.849,1.075-0.528,1.687c1.269,2.424,1.938,5.155,1.938,7.898v13.978
		c0,0.332,0.132,0.649,0.366,0.884l1.576,1.576c0.199,0.191,0.3,0.413,0.3,0.658c0,0.216-0.078,0.43-0.22,0.604
		c-0.437,0.535-0.356,1.322,0.179,1.759c0.231,0.189,0.512,0.281,0.789,0.281c0.362,0,0.723-0.157,0.97-0.46
		c0.504-0.618,0.782-1.394,0.782-2.184C71.759,79.871,71.38,78.998,70.71,78.353z"/>
	<path style="fill:#006837;" d="M62.668,48.829c-0.522-0.451-1.313-0.389-1.763,0.134c-0.45,0.523-0.39,1.313,0.134,1.763
		c0.236,0.203,0.467,0.412,0.692,0.627c0.242,0.231,0.553,0.346,0.863,0.346c0.329,0,0.658-0.129,0.903-0.386
		c0.478-0.5,0.459-1.291-0.04-1.768C63.201,49.299,62.937,49.061,62.668,48.829z"/>
</g>
</svg>
