<?xml version="1.0" encoding="iso-8859-1"?>
<!-- Generator: Adobe Illustrator 18.0.0, SVG Export Plug-In . SVG Version: 6.00 Build 0)  -->
<!DOCTYPE svg PUBLIC "-//W3C//DTD SVG 1.1//EN" "http://www.w3.org/Graphics/SVG/1.1/DTD/svg11.dtd">
<svg version="1.1" id="Layer_2" xmlns="http://www.w3.org/2000/svg" xmlns:xlink="http://www.w3.org/1999/xlink" x="0px" y="0px"
	 width="100px" height="100px" viewBox="0 0 100 100" style="enable-background:new 0 0 100 100;" xml:space="preserve">
<path style="fill:#47DD7E;" d="M23,29h53v8H23V29z"/>
<g>
	<path style="fill:#47DD7E;" d="M46.333,84h-2.66c-1.197,0-2.17-0.974-2.17-2.17V79.17c0-1.197,0.974-2.17,2.17-2.17h2.66
		c1.196,0,2.17,0.974,2.17,2.17v2.659C48.503,83.026,47.53,84,46.333,84z M43.674,79c-0.091,0-0.17,0.08-0.17,0.17v2.659
		c0,0.091,0.08,0.17,0.17,0.17h2.66c0.09,0,0.17-0.08,0.17-0.17V79.17c0-0.091-0.08-0.17-0.17-0.17H43.674z"/>
</g>
<circle style="fill:#006837;" cx="14.5" cy="86.5" r="2"/>
<circle style="fill:#CEE35A;" cx="81.148" cy="91.216" r="2"/>
<circle style="fill:#CEE35A;" cx="73.279" cy="14.842" r="2"/>
<circle style="fill:#47DD7E;" cx="84.333" cy="26" r="2"/>
<g>
	<path style="fill:#006837;" d="M85.5,14c-1.93,0-3.5-1.57-3.5-3.5S83.57,7,85.5,7S89,8.57,89,10.5S87.43,14,85.5,14z M85.5,9
		C84.673,9,84,9.673,84,10.5s0.673,1.5,1.5,1.5s1.5-0.673,1.5-1.5S86.327,9,85.5,9z"/>
</g>
<g>
	<path style="fill:#CEE35A;" d="M14.369,43.542h-4c-0.552,0-1-0.448-1-1s0.448-1,1-1h4c0.552,0,1,0.448,1,1
		S14.921,43.542,14.369,43.542z"/>
</g>
<g>
	<path style="fill:#CEE35A;" d="M12.369,45.542c-0.552,0-1-0.448-1-1v-4c0-0.552,0.448-1,1-1s1,0.448,1,1v4
		C13.369,45.094,12.921,45.542,12.369,45.542z"/>
</g>
<g>
	<path style="fill:#47DD7E;" d="M27.877,12.2h-4c-0.552,0-1-0.448-1-1s0.448-1,1-1h4c0.552,0,1,0.448,1,1S28.43,12.2,27.877,12.2z"
		/>
</g>
<g>
	<path style="fill:#47DD7E;" d="M25.877,14.2c-0.552,0-1-0.448-1-1v-4c0-0.552,0.448-1,1-1s1,0.448,1,1v4
		C26.877,13.752,26.43,14.2,25.877,14.2z"/>
</g>
<g>
	<path style="fill:#CEE35A;" d="M24.173,76.66c-0.262,0-0.517-0.103-0.707-0.293l-4.083-4.083c-0.253-0.252-0.352-0.621-0.259-0.966
		c0.092-0.345,0.362-0.615,0.707-0.707l5.577-1.494c0.346-0.092,0.713,0.007,0.966,0.259c0.253,0.252,0.352,0.621,0.259,0.966
		l-1.494,5.577c-0.092,0.345-0.362,0.615-0.707,0.707C24.347,76.648,24.26,76.66,24.173,76.66z M22.022,72.095l1.633,1.633
		l0.598-2.23L22.022,72.095z"/>
</g>
<g>
	<path style="fill:#CEE35A;" d="M54.251,51H36.333c-0.829,0-1.5-0.671-1.5-1.5s0.671-1.5,1.5-1.5h17.918c0.829,0,1.5,0.671,1.5,1.5
		S55.08,51,54.251,51z M30.333,51h-2c-0.829,0-1.5-0.671-1.5-1.5s0.671-1.5,1.5-1.5h2c0.829,0,1.5,0.671,1.5,1.5
		S31.162,51,30.333,51z"/>
</g>
<g>
	<path style="fill:#006837;" d="M22,43.678c0.69,0,1.25-0.56,1.25-1.25V30c0-2.619,2.131-4.75,4.75-4.75h43
		c2.619,0,4.75,2.131,4.75,4.75v18.353c0.85,0.154,1.689,0.34,2.5,0.593V30c0-3.998-3.252-7.25-7.25-7.25H28
		c-3.998,0-7.25,3.252-7.25,7.25v12.428C20.75,43.119,21.31,43.678,22,43.678z"/>
	<path style="fill:#006837;" d="M52.687,60.75H28c-2.619,0-4.75-2.131-4.75-4.75v-0.572c0-0.69-0.56-1.25-1.25-1.25
		s-1.25,0.56-1.25,1.25V56c0,3.998,3.252,7.25,7.25,7.25h23.817C52.06,62.395,52.342,61.557,52.687,60.75z"/>
	<path style="fill:#006837;" d="M22,50.678c0.69,0,1.25-0.56,1.25-1.25v-1c0-0.69-0.56-1.25-1.25-1.25s-1.25,0.56-1.25,1.25v1
		C20.75,50.119,21.31,50.678,22,50.678z"/>
</g>
<g>
	<path style="fill:#CEE35A;" d="M72,84c8.284,0,15-6.716,15-15s-6.716-15-15-15s-15,6.716-15,15S63.716,84,72,84z"/>
	<path style="fill:#006837;" d="M72,85.25c-8.96,0-16.25-7.29-16.25-16.25S63.04,52.75,72,52.75c3.349,0,6.565,1.011,9.3,2.923
		c0.566,0.396,0.704,1.175,0.308,1.741c-0.396,0.566-1.174,0.704-1.741,0.308C77.555,56.104,74.834,55.25,72,55.25
		c-7.582,0-13.75,6.168-13.75,13.75S64.418,82.75,72,82.75S85.75,76.582,85.75,69c0-0.438-0.021-0.878-0.062-1.309
		c-0.065-0.687,0.439-1.297,1.127-1.362c0.685-0.054,1.297,0.439,1.362,1.127c0.048,0.508,0.072,1.028,0.072,1.544
		C88.25,77.96,80.96,85.25,72,85.25z M85.203,63.123c-0.444,0-0.874-0.237-1.1-0.655c-0.146-0.269-0.3-0.533-0.463-0.791
		c-0.369-0.584-0.195-1.356,0.389-1.725c0.583-0.369,1.356-0.195,1.725,0.389c0.193,0.305,0.375,0.617,0.548,0.936
		c0.329,0.607,0.103,1.366-0.504,1.694C85.608,63.074,85.404,63.123,85.203,63.123z"/>
</g>
<g>
	<g>
		<path style="fill:#006837;" d="M66.827,77.264c-0.245,0-0.492-0.072-0.709-0.221c-0.568-0.392-0.711-1.17-0.319-1.739
			l10.344-14.993c0.393-0.568,1.17-0.71,1.739-0.319c0.568,0.392,0.711,1.17,0.319,1.739L67.857,76.724
			C67.614,77.075,67.224,77.264,66.827,77.264z"/>
	</g>
	<g>
		<path style="fill:#006837;" d="M68.138,68.25h-0.275c-1.716,0-3.112-1.396-3.112-3.112v-2.275c0-1.716,1.396-3.112,3.112-3.112
			h0.275c1.716,0,3.112,1.396,3.112,3.112v2.275C71.25,66.854,69.854,68.25,68.138,68.25z M67.862,62.25
			c-0.332,0-0.612,0.28-0.612,0.612v2.275c0,0.332,0.28,0.612,0.612,0.612h0.275c0.332,0,0.612-0.28,0.612-0.612v-2.275
			c0-0.332-0.28-0.612-0.612-0.612H67.862z"/>
	</g>
	<g>
		<path style="fill:#006837;" d="M76.138,77.25h-0.275c-1.716,0-3.112-1.396-3.112-3.112v-2.275c0-1.716,1.396-3.112,3.112-3.112
			h0.275c1.716,0,3.112,1.396,3.112,3.112v2.275C79.25,75.854,77.854,77.25,76.138,77.25z M75.862,71.25
			c-0.332,0-0.612,0.28-0.612,0.612v2.275c0,0.332,0.28,0.612,0.612,0.612h0.275c0.332,0,0.612-0.28,0.612-0.612v-2.275
			c0-0.332-0.28-0.612-0.612-0.612H75.862z"/>
	</g>
</g>
<g>
	<path style="fill:#006837;" d="M52.522,63.25h-3.057c-0.69,0-1.25-0.56-1.25-1.25s0.56-1.25,1.25-1.25h3.057
		c0.69,0,1.25,0.56,1.25,1.25S53.213,63.25,52.522,63.25z"/>
</g>
<g>
	<path style="fill:#006837;" d="M76.994,49.778c-0.69,0-1.25-0.56-1.25-1.25v-3.057c0-0.69,0.56-1.25,1.25-1.25s1.25,0.56,1.25,1.25
		v3.057C78.244,49.219,77.685,49.778,76.994,49.778z"/>
</g>
</svg>
