<?xml version="1.0" encoding="iso-8859-1"?>
<!-- Generator: Adobe Illustrator 18.0.0, SVG Export Plug-In . SVG Version: 6.00 Build 0)  -->
<!DOCTYPE svg PUBLIC "-//W3C//DTD SVG 1.1//EN" "http://www.w3.org/Graphics/SVG/1.1/DTD/svg11.dtd">
<svg version="1.1" id="Layer_2" xmlns="http://www.w3.org/2000/svg" xmlns:xlink="http://www.w3.org/1999/xlink" x="0px" y="0px"
	 width="100px" height="100px" viewBox="0 0 100 100" style="enable-background:new 0 0 100 100;" xml:space="preserve">
<path style="fill:#CEE35A;" d="M74,30H48v3h26c0.829,0,1.5-0.671,1.5-1.5S74.829,30,74,30z"/>
<path style="fill:#CEE35A;" d="M74,36H48l0,3h26c0.829,0,1.5-0.671,1.5-1.5S74.829,36,74,36z"/>
<path style="fill:#47DD7E;" d="M76,72.189c0-1.333-0.649-2.559-1.73-3.315l-3.351-2.306c-0.468-0.36-0.757-0.901-0.757-1.514
	c0-1.009,0.829-1.838,1.838-1.838c0.757,0,1.405,0.432,1.694,1.117c0.216,0.541,0.865,0.793,1.405,0.577s0.793-0.865,0.577-1.405
	c-0.468-1.153-1.441-1.982-2.595-2.306v-0.144c0-0.613-0.468-1.081-1.081-1.081s-1.081,0.468-1.081,1.081v0.144
	C69.225,61.667,68,63.216,68,65.054c0,1.297,0.613,2.486,1.694,3.243l3.351,2.342c0.505,0.36,0.793,0.901,0.793,1.514
	c0,1.009-0.829,1.838-1.838,1.838c-0.721,0-1.405-0.432-1.694-1.117c-0.252-0.541-0.865-0.793-1.405-0.577
	c-0.541,0.252-0.793,0.865-0.577,1.405c0.505,1.117,1.441,1.946,2.595,2.27v0.216c0,0.613,0.468,1.081,1.081,1.081
	s1.081-0.468,1.081-1.081v-0.144C74.775,75.577,76,74.027,76,72.189z"/>
<g>
	<path style="fill:#CEE35A;" d="M63.5,64h-15c-0.829,0-1.5-0.671-1.5-1.5s0.671-1.5,1.5-1.5h15c0.829,0,1.5,0.671,1.5,1.5
		S64.329,64,63.5,64z M42.5,64h-1c-0.829,0-1.5-0.671-1.5-1.5s0.671-1.5,1.5-1.5h1c0.829,0,1.5,0.671,1.5,1.5S43.329,64,42.5,64z"/>
</g>
<g>
	<path style="fill:#CEE35A;" d="M63.5,70h-15c-0.829,0-1.5-0.671-1.5-1.5s0.671-1.5,1.5-1.5h15c0.829,0,1.5,0.671,1.5,1.5
		S64.329,70,63.5,70z M42.5,70h-1c-0.829,0-1.5-0.671-1.5-1.5s0.671-1.5,1.5-1.5h1c0.829,0,1.5,0.671,1.5,1.5S43.329,70,42.5,70z"/>
</g>
<g>
	<path style="fill:#CEE35A;" d="M63.5,76h-15c-0.829,0-1.5-0.671-1.5-1.5s0.671-1.5,1.5-1.5h15c0.829,0,1.5,0.671,1.5,1.5
		S64.329,76,63.5,76z M42.5,76h-1c-0.829,0-1.5-0.671-1.5-1.5s0.671-1.5,1.5-1.5h1c0.829,0,1.5,0.671,1.5,1.5S43.329,76,42.5,76z"/>
</g>
<g>
	<path style="fill:#47DD7E;" d="M18.83,16H16.17C14.974,16,14,15.026,14,13.83V11.17C14,9.974,14.974,9,16.17,9h2.659
		C20.026,9,21,9.974,21,11.17v2.659C21,15.026,20.026,16,18.83,16z M16.17,11C16.08,11,16,11.08,16,11.17v2.659
		C16,13.92,16.08,14,16.17,14h2.659C18.92,14,19,13.92,19,13.83V11.17C19,11.08,18.92,11,18.83,11H16.17z"/>
</g>
<circle style="fill:#006837;" cx="88" cy="8" r="2"/>
<circle style="fill:#CEE35A;" cx="88.5" cy="76.5" r="2"/>
<circle style="fill:#CEE35A;" cx="73.279" cy="12.842" r="2"/>
<g>
	<path style="fill:#006837;" d="M14.5,91c-1.93,0-3.5-1.57-3.5-3.5s1.57-3.5,3.5-3.5s3.5,1.57,3.5,3.5S16.43,91,14.5,91z M14.5,86
		c-0.827,0-1.5,0.673-1.5,1.5s0.673,1.5,1.5,1.5s1.5-0.673,1.5-1.5S15.327,86,14.5,86z"/>
</g>
<g>
	<path style="fill:#CEE35A;" d="M13.459,46.887h-4c-0.552,0-1-0.448-1-1s0.448-1,1-1h4c0.552,0,1,0.448,1,1
		S14.012,46.887,13.459,46.887z"/>
</g>
<g>
	<path style="fill:#CEE35A;" d="M11.459,48.887c-0.552,0-1-0.448-1-1v-4c0-0.552,0.448-1,1-1s1,0.448,1,1v4
		C12.459,48.439,12.012,48.887,11.459,48.887z"/>
</g>
<g>
	<path style="fill:#47DD7E;" d="M28.877,82.867h-4c-0.552,0-1-0.448-1-1s0.448-1,1-1h4c0.552,0,1,0.448,1,1
		S29.43,82.867,28.877,82.867z"/>
</g>
<g>
	<path style="fill:#47DD7E;" d="M26.877,84.867c-0.552,0-1-0.448-1-1v-4c0-0.552,0.448-1,1-1s1,0.448,1,1v4
		C27.877,84.419,27.43,84.867,26.877,84.867z"/>
</g>
<g>
	<path style="fill:#CEE35A;" d="M21.173,73.66c-0.262,0-0.517-0.103-0.707-0.293l-4.083-4.083c-0.253-0.252-0.352-0.621-0.259-0.966
		c0.092-0.345,0.362-0.615,0.707-0.707l5.577-1.494c0.344-0.091,0.713,0.006,0.966,0.259c0.253,0.252,0.352,0.621,0.259,0.966
		l-1.494,5.577c-0.092,0.345-0.362,0.615-0.707,0.707C21.347,73.648,21.26,73.66,21.173,73.66z M19.022,69.095l1.633,1.633
		l0.598-2.23L19.022,69.095z"/>
</g>
<g>
	<path style="fill:#006837;" d="M57.749,20.25h-3.321c-0.69,0-1.25-0.56-1.25-1.25s0.56-1.25,1.25-1.25h3.321
		c0.69,0,1.25,0.56,1.25,1.25S58.439,20.25,57.749,20.25z"/>
</g>
<g>
	<path style="fill:#47DD7E;" d="M90.312,43.167c-0.262,0-0.517-0.103-0.707-0.293l-4.083-4.083
		c-0.253-0.252-0.352-0.621-0.259-0.966c0.092-0.345,0.362-0.615,0.707-0.707l5.577-1.494c0.345-0.091,0.713,0.006,0.966,0.259
		s0.352,0.621,0.259,0.966l-1.494,5.577c-0.092,0.345-0.362,0.615-0.707,0.707C90.485,43.155,90.398,43.167,90.312,43.167z
		 M88.161,38.602l1.633,1.633l0.598-2.23L88.161,38.602z"/>
</g>
<path style="fill:#47DD7E;" d="M48,26h5.034L35,13.552L16.706,26H22H48z"/>
<g>
	<path style="fill:#006837;" d="M48,47.25H30.631c-0.69,0-1.25-0.56-1.25-1.25s0.56-1.25,1.25-1.25H46.75V33.369
		c0-0.69,0.56-1.25,1.25-1.25s1.25,0.56,1.25,1.25V46C49.25,46.69,48.69,47.25,48,47.25z M22,45.881c-0.69,0-1.25-0.56-1.25-1.25
		V27.25h-4.044c-0.549,0-1.033-0.358-1.195-0.882c-0.161-0.524,0.038-1.092,0.492-1.401l5.022-3.417
		c0.571-0.388,1.348-0.24,1.737,0.331c0.388,0.571,0.24,1.348-0.331,1.737l-1.666,1.133H22c0.69,0,1.25,0.56,1.25,1.25v18.631
		C23.25,45.322,22.69,45.881,22,45.881z M48,28.619c-0.69,0-1.25-0.56-1.25-1.25v-1c0-0.063,0.004-0.124,0.014-0.185
		c-0.009-0.06-0.014-0.122-0.014-0.184c0-0.69,0.56-1.25,1.25-1.25h1.022l-14.027-9.683l-1.816,1.235
		c-0.572,0.389-1.348,0.24-1.736-0.33c-0.389-0.571-0.241-1.348,0.33-1.736l2.524-1.718c0.425-0.291,0.988-0.29,1.413,0.004
		l18.034,12.448c0.45,0.311,0.646,0.878,0.483,1.401c-0.163,0.522-0.646,0.878-1.193,0.878H49.25v0.119
		C49.25,28.059,48.69,28.619,48,28.619z M26.689,20.458c-0.4,0-0.793-0.191-1.035-0.547c-0.388-0.571-0.24-1.349,0.331-1.737
		l0.827-0.563c0.57-0.389,1.349-0.24,1.737,0.331c0.388,0.571,0.24,1.349-0.331,1.737l-0.827,0.563
		C27.176,20.388,26.931,20.458,26.689,20.458z"/>
</g>
<path style="fill:#CEE35A;" d="M35.333,50.811h11.333h10H60V45.85c0-1.488-0.867-1.554-2.233-2.216l-14.533-6.879
	c-2.133-1.025-4.467-1.554-6.833-1.554l0,0c-2.033,0-4.033,0.397-5.933,1.158L23.8,39.037c-2.3,0.926-3.8,3.142-3.8,5.589v6.184h5
	H35.333z"/>
<path style="fill:#CEE35A;" d="M38.298,42.245c-3.671,0-6.78-2.48-7.772-5.854l0.132-0.066c1.852-0.761,3.869-1.158,5.887-1.158
	c2.348,0,4.663,0.529,6.78,1.554l11.443,5.49h-16.47V42.245z"/>
<g>
	<path style="fill:#006837;" d="M60,52.061H20c-0.69,0-1.25-0.56-1.25-1.25v-1.829c0-0.69,0.56-1.25,1.25-1.25s1.25,0.56,1.25,1.25
		v0.579h37.5V45.85c0-0.412,0-0.412-0.82-0.77c-0.218-0.096-0.455-0.199-0.708-0.321l-14.523-6.875
		c-3.631-1.745-7.932-1.903-11.767-0.366l-6.666,2.678c-1.375,0.554-2.437,1.731-2.838,3.147c-0.188,0.665-0.879,1.05-1.543,0.862
		c-0.664-0.188-1.05-0.879-0.862-1.543c0.61-2.154,2.222-3.943,4.311-4.785l6.668-2.679c4.481-1.795,9.532-1.609,13.774,0.43
		l14.526,6.875c0.23,0.111,0.437,0.201,0.628,0.284c1.034,0.451,2.321,1.012,2.321,3.062v4.961C61.25,51.501,60.69,52.061,60,52.061
		z"/>
</g>
<g>
	<circle style="fill:#47DD7E;" cx="30.195" cy="50.811" r="4.961"/>
	<path style="fill:#006837;" d="M30.195,57.021c-3.424,0-6.21-2.786-6.21-6.21c0-0.679,0.109-1.347,0.324-1.985
		c0.221-0.654,0.927-1.005,1.584-0.785c0.654,0.221,1.005,0.93,0.785,1.584c-0.128,0.379-0.193,0.778-0.193,1.185
		c0,2.046,1.665,3.71,3.71,3.71c2.046,0,3.711-1.665,3.711-3.71c0-2.046-1.665-3.711-3.711-3.711l-0.141,0.003
		c-0.651,0.018-1.268-0.519-1.29-1.209c-0.022-0.69,0.519-1.268,1.209-1.29l0.211-0.004c3.435,0,6.221,2.786,6.221,6.211
		C36.406,54.235,33.62,57.021,30.195,57.021z"/>
</g>
<g>
	<circle style="fill:#47DD7E;" cx="51.692" cy="50.811" r="4.961"/>
	<path style="fill:#006837;" d="M51.692,57.021c-3.425,0-6.211-2.786-6.211-6.21c0-0.679,0.109-1.347,0.324-1.985
		c0.221-0.654,0.929-1.005,1.584-0.785c0.654,0.221,1.005,0.93,0.785,1.584c-0.128,0.379-0.193,0.778-0.193,1.185
		c0,2.046,1.665,3.71,3.711,3.71s3.711-1.665,3.711-3.71c0-2.046-1.665-3.711-3.711-3.711l-0.141,0.003
		c-0.693,0.021-1.268-0.519-1.29-1.209c-0.022-0.69,0.519-1.268,1.209-1.29l0.212-0.004c3.435,0,6.221,2.786,6.221,6.211
		C57.903,54.235,55.117,57.021,51.692,57.021z"/>
</g>
<g>
	<path style="fill:#FFFFFF;" d="M25.553,44.746c-0.592,0-1.153-0.353-1.39-0.936c-0.312-0.768,0.057-1.643,0.825-1.955l6.025-2.449
		c0.768-0.312,1.642,0.057,1.955,0.825c0.312,0.768-0.057,1.643-0.825,1.955l-6.025,2.449C25.932,44.71,25.741,44.746,25.553,44.746
		z M39.38,41.023c-0.009,0-0.018,0-0.026,0l-2-0.034c-0.828-0.014-1.488-0.697-1.474-1.526c0.014-0.828,0.689-1.466,1.526-1.474
		l2,0.034c0.828,0.014,1.488,0.697,1.474,1.526C40.866,40.368,40.197,41.023,39.38,41.023z"/>
</g>
<g>
	<path style="fill:#006837;" d="M81,43.393c-0.69,0-1.25,0.56-1.25,1.25v30c0,0.69,0.56,1.25,1.25,1.25s1.25-0.56,1.25-1.25v-30
		C82.25,43.953,81.69,43.393,81,43.393z"/>
	<path style="fill:#006837;" d="M81,83.393c-0.412,0-0.778,0.199-1.005,0.507l-4.217-3.826c-0.491-0.446-1.246-0.43-1.719,0.037
		l-4.684,4.631l-4.684-4.631c-0.487-0.481-1.271-0.481-1.758,0l-4.684,4.631l-4.684-4.631c-0.487-0.481-1.271-0.481-1.758,0
		l-4.679,4.626l-4.628-4.622c-0.486-0.485-1.272-0.488-1.762-0.004l-3.489,3.45V60h-2.5v26.5c0,0.69,0.615,1.25,1.306,1.25
		c0.329,0,0.645-0.13,0.879-0.361l4.679-4.626l4.628,4.622c0.487,0.486,1.273,0.489,1.762,0.004l4.684-4.631l4.684,4.631
		c0.487,0.481,1.271,0.481,1.758,0l4.684-4.631l4.684,4.631c0.487,0.481,1.271,0.481,1.758,0l4.721-4.667l5.186,4.705
		c0.234,0.213,0.535,0.324,0.84,0.324c0.171,0,0.343-0.035,0.506-0.107c0.452-0.201,0.744-0.648,0.744-1.143v-1.857
		C82.25,83.953,81.69,83.393,81,83.393z"/>
	<path style="fill:#006837;" d="M81,36.393c-0.69,0-1.25,0.56-1.25,1.25v1c0,0.69,0.56,1.25,1.25,1.25s1.25-0.56,1.25-1.25v-1
		C82.25,36.953,81.69,36.393,81,36.393z"/>
	<path style="fill:#006837;" d="M75,17.75H56.971v2.5H75c2.619,0,4.75,2.131,4.75,4.75v6.643c0,0.69,0.56,1.25,1.25,1.25
		s1.25-0.56,1.25-1.25V25C82.25,21.002,78.998,17.75,75,17.75z"/>
</g>
<g>
	<path style="fill:#006837;" d="M36,67.25c-0.69,0-1.25-0.56-1.25-1.25v-7c0-0.69,0.56-1.25,1.25-1.25s1.25,0.56,1.25,1.25v7
		C37.25,66.69,36.69,67.25,36,67.25z"/>
</g>
</svg>
