<?xml version="1.0" encoding="iso-8859-1"?>
<!-- Generator: Adobe Illustrator 18.0.0, SVG Export Plug-In . SVG Version: 6.00 Build 0)  -->
<!DOCTYPE svg PUBLIC "-//W3C//DTD SVG 1.1//EN" "http://www.w3.org/Graphics/SVG/1.1/DTD/svg11.dtd">
<svg version="1.1" id="Layer_2" xmlns="http://www.w3.org/2000/svg" xmlns:xlink="http://www.w3.org/1999/xlink" x="0px" y="0px"
	 width="100px" height="100px" viewBox="0 0 100 100" style="enable-background:new 0 0 100 100;" xml:space="preserve">
<g>
	<path style="fill:#006837;" d="M85,55.856h-4.13c-0.69,0-1.25-0.56-1.25-1.25s0.56-1.25,1.25-1.25H85c0.69,0,1.25,0.56,1.25,1.25
		S85.69,55.856,85,55.856z"/>
</g>
<path style="fill:#47DD7E;" d="M30.561,52.084c-0.8,0-1.6-0.304-2.1-0.911c-0.6-0.608-0.9-1.316-0.9-2.127
	c0-0.81,0.3-1.62,0.9-2.127c1.1-1.114,3.1-1.114,4.2,0c0.6,0.608,0.9,1.316,0.9,2.127c0,0.81-0.3,1.62-0.9,2.127
	C32.161,51.781,31.361,52.084,30.561,52.084z"/>
<path style="fill:#006837;" d="M25.621,66.528c-0.416-0.552-1.197-0.665-1.751-0.249c-0.552,0.415-0.663,1.198-0.249,1.75
	c0.213,0.283,0.432,0.56,0.658,0.833c0.247,0.298,0.604,0.452,0.963,0.452c0.28,0,0.563-0.094,0.797-0.288
	c0.531-0.44,0.605-1.229,0.164-1.76C26.004,67.025,25.809,66.779,25.621,66.528z"/>
<path style="fill:#006837;" d="M80.784,47.361c-0.239-0.647-0.963-0.977-1.606-0.737c-0.647,0.24-0.978,0.959-0.737,1.607
	c0.798,2.149,1.202,4.412,1.202,6.725c0,8.503-5.523,15.727-13.164,18.312v2.634c9.043-2.672,15.664-11.048,15.664-20.946
	C82.143,52.346,81.686,49.791,80.784,47.361z"/>
<polygon style="fill:#006837;" points="55.27,74.297 46.229,74.297 45.652,76.797 56.04,76.797 "/>
<path style="fill:#006837;" d="M35.592,73.494c-1.839-0.549-3.597-1.372-5.219-2.46c-0.574-0.385-1.35-0.232-1.734,0.342
	c-0.385,0.573-0.231,1.35,0.342,1.734c2.039,1.369,4.273,2.357,6.611,2.968V73.494z"/>
<path style="fill:#006837;" d="M64.42,85.034h-4.805c-1.786,0-3.199-1.346-3.304-3.101l-2.695-8.764
	c-0.203-0.66,0.167-1.359,0.827-1.563c0.661-0.204,1.359,0.168,1.562,0.827l2.745,8.923c0.037,0.119,0.056,0.243,0.056,0.368
	c0,0.477,0.333,0.809,0.81,0.809h4.805c0.477,0,0.809-0.333,0.809-0.809v-8.923c0-0.69,0.56-1.25,1.25-1.25s1.25,0.56,1.25,1.25
	v8.923C67.729,83.581,66.275,85.034,64.42,85.034z M42.455,85.034H37.65c-1.855,0-3.309-1.454-3.309-3.309v-8.923
	c0-0.69,0.56-1.25,1.25-1.25s1.25,0.56,1.25,1.25v8.923c0,0.477,0.332,0.809,0.809,0.809h4.805c0.477,0,0.81-0.333,0.81-0.809
	c0-0.095,0.011-0.189,0.032-0.281l2.059-8.923c0.01-0.042,0.021-0.084,0.035-0.125c0.405-1.181,0.491-1.608,0.634-2.531
	c0.106-0.682,0.75-1.148,1.426-1.044c0.683,0.105,1.15,0.744,1.045,1.426c-0.158,1.024-0.27,1.583-0.719,2.898l-2.016,8.737
	C45.682,83.662,44.258,85.034,42.455,85.034z"/>
<g>
	<path style="fill:#006837;" d="M28.728,36.959c-2.669,1.834-4.941,4.263-6.587,7.169c-0.904,1.649-2.791,2.714-4.807,2.714H15
		c-0.69,0-1.25,0.56-1.25,1.25V61.82c0,0.69,0.56,1.25,1.25,1.25h2.334c1.001,0,1.981,0.262,2.837,0.758
		c0.197,0.114,0.413,0.168,0.626,0.168c0.431,0,0.851-0.223,1.082-0.623c0.347-0.597,0.144-1.362-0.454-1.708
		c-1.235-0.716-2.65-1.095-4.091-1.095H16.25V49.342h1.084c2.959,0,5.641-1.537,6.99-3.997c1.152-2.033,2.656-3.797,4.403-5.251
		V36.959z"/>
	<path style="fill:#006837;" d="M74.864,38.688c-4.014-3.593-9.185-5.573-14.563-5.573H41.083c-1.113,0-2.211,0.094-3.293,0.26
		c0.462,0.693,0.805,1.488,1.01,2.383c0.753-0.09,1.514-0.143,2.283-0.143h19.219c4.761,0,9.341,1.753,12.895,4.936
		c0.513,0.46,1.304,0.417,1.766-0.097C75.422,39.938,75.379,39.148,74.864,38.688z"/>
</g>
<path style="fill:#006837;" d="M28.728,42.478c-0.69,0-1.25-0.56-1.25-1.25V29.56c0-0.69,0.56-1.25,1.25-1.25
	c7.122,0,11.546,3.635,11.546,9.487v1.432c0,0.69-0.56,1.25-1.25,1.25s-1.25-0.56-1.25-1.25v-1.432c0-5.469-4.759-6.707-7.796-6.939
	v10.371C29.978,41.918,29.418,42.478,28.728,42.478z"/>
<path style="fill:#CEE35A;" d="M65,19c-8.284,0-15,6.716-15,15c0,3.203,1.012,6.165,2.722,8.601h6.207
	c4.491,0,8.484,2.196,10.993,5.556C75.785,46.118,80,40.558,80,34C80,25.716,73.284,19,65,19z"/>
<g>
	<path style="fill:#006837;" d="M74.032,47.228c-0.379,0-0.753-0.171-0.998-0.497c-0.416-0.551-0.308-1.335,0.244-1.751
		c3.478-2.626,5.472-6.628,5.472-10.98c0-3.448-1.282-6.746-3.609-9.286c-0.466-0.509-0.432-1.299,0.077-1.766
		c0.51-0.466,1.3-0.432,1.767,0.078c2.751,3.002,4.266,6.9,4.266,10.975c0,5.143-2.356,9.872-6.466,12.975
		C74.559,47.146,74.295,47.228,74.032,47.228z M50.954,40.526c-0.506,0-0.981-0.309-1.17-0.811C49.098,37.891,48.75,35.968,48.75,34
		c0-8.788,6.875-15.921,15.652-16.239c0.015,0,0.03-0.001,0.046-0.001c0.669,0,1.224,0.53,1.248,1.205
		c0.025,0.69-0.514,1.27-1.204,1.294C57.066,20.529,51.25,26.564,51.25,34c0,1.667,0.294,3.293,0.874,4.836
		c0.243,0.646-0.084,1.367-0.729,1.61C51.249,40.5,51.101,40.526,50.954,40.526z M71.247,21.609c-0.174,0-0.351-0.037-0.52-0.114
		c-0.275-0.126-0.556-0.244-0.842-0.353c-0.646-0.243-0.973-0.964-0.729-1.61c0.244-0.646,0.967-0.973,1.61-0.729
		c0.341,0.128,0.674,0.268,1.002,0.418c0.628,0.288,0.903,1.029,0.616,1.657C72.175,21.338,71.721,21.609,71.247,21.609z"/>
</g>
<path style="fill:#CEE35A;" d="M17.183,60.55H16.25v-11.2h0.933c1.546,0,2.8,1.254,2.8,2.8v5.6
	C19.983,59.296,18.73,60.55,17.183,60.55z"/>
<g>
	<path style="fill:#47DD7E;" d="M14.83,18h-2.66C10.974,18,10,17.026,10,15.83V13.17c0-1.197,0.974-2.17,2.17-2.17h2.66
		c1.196,0,2.17,0.974,2.17,2.17v2.659C17,17.026,16.026,18,14.83,18z M12.17,13C12.079,13,12,13.08,12,13.17v2.659
		c0,0.092,0.078,0.17,0.17,0.17h2.66c0.092,0,0.17-0.078,0.17-0.17V13.17C15,13.08,14.921,13,14.83,13H12.17z"/>
</g>
<circle style="fill:#006837;" cx="8.5" cy="92.5" r="2"/>
<circle style="fill:#CEE35A;" cx="85" cy="70.333" r="2"/>
<circle style="fill:#CEE35A;" cx="49" cy="13" r="2"/>
<g>
	<path style="fill:#006837;" d="M84.5,14c-1.93,0-3.5-1.57-3.5-3.5S82.57,7,84.5,7S88,8.57,88,10.5S86.43,14,84.5,14z M84.5,9
		C83.673,9,83,9.673,83,10.5s0.673,1.5,1.5,1.5s1.5-0.673,1.5-1.5S85.327,9,84.5,9z"/>
</g>
<g>
	<path style="fill:#47DD7E;" d="M68.486,69.002c-0.394,0-0.786-0.154-1.08-0.459c-0.575-0.597-0.558-1.546,0.039-2.121l2.609-2.514
		c1.376-1.326,2.446-2.952,3.096-4.705c0.287-0.777,1.149-1.173,1.927-0.886c0.777,0.288,1.174,1.15,0.886,1.927
		c-0.804,2.174-2.128,4.188-3.826,5.824l-2.609,2.514C69.236,68.862,68.861,69.002,68.486,69.002z M75.403,55.325
		c-0.828,0-1.5-0.671-1.5-1.5v-2c0-0.829,0.672-1.5,1.5-1.5s1.5,0.671,1.5,1.5v2C76.903,54.653,76.231,55.325,75.403,55.325z"/>
</g>
<path style="fill:#006837;" d="M69,36.216c0-1.333-0.649-2.559-1.73-3.315l-3.351-2.306c-0.468-0.36-0.757-0.901-0.757-1.514
	c0-1.009,0.829-1.838,1.838-1.838c0.757,0,1.405,0.432,1.694,1.117c0.216,0.541,0.865,0.793,1.405,0.577s0.793-0.865,0.577-1.405
	c-0.468-1.153-1.441-1.982-2.595-2.306v-0.144C66.081,24.468,65.613,24,65,24s-1.081,0.468-1.081,1.081v0.144
	C62.225,25.694,61,27.243,61,29.081c0,1.297,0.613,2.486,1.694,3.243l3.351,2.342c0.505,0.36,0.793,0.901,0.793,1.514
	c0,1.009-0.829,1.838-1.838,1.838c-0.721,0-1.405-0.432-1.694-1.117c-0.252-0.541-0.865-0.793-1.405-0.577
	c-0.541,0.252-0.793,0.865-0.577,1.405c0.505,1.117,1.441,1.946,2.595,2.27v0.216c0,0.613,0.468,1.081,1.081,1.081
	s1.081-0.468,1.081-1.081v-0.144C67.775,39.604,69,38.054,69,36.216z"/>
<g>
	<path style="fill:#CEE35A;" d="M24,22h-4c-0.553,0-1-0.448-1-1s0.447-1,1-1h4c0.553,0,1,0.448,1,1S24.553,22,24,22z"/>
</g>
<g>
	<path style="fill:#CEE35A;" d="M22,24c-0.553,0-1-0.448-1-1v-4c0-0.552,0.447-1,1-1s1,0.448,1,1v4C23,23.552,22.553,24,22,24z"/>
</g>
<g>
	<path style="fill:#47DD7E;" d="M84.333,87h-4c-0.553,0-1-0.448-1-1s0.447-1,1-1h4c0.553,0,1,0.448,1,1S84.886,87,84.333,87z"/>
</g>
<g>
	<path style="fill:#47DD7E;" d="M82.333,89c-0.553,0-1-0.448-1-1v-4c0-0.552,0.447-1,1-1s1,0.448,1,1v4
		C83.333,88.552,82.886,89,82.333,89z"/>
</g>
<g>
	<path style="fill:#47DD7E;" d="M22.339,90.992c-0.262,0-0.518-0.103-0.707-0.293l-4.082-4.083
		c-0.253-0.252-0.352-0.621-0.259-0.966s0.362-0.615,0.707-0.707l5.576-1.495c0.347-0.093,0.713,0.006,0.966,0.259
		s0.352,0.621,0.259,0.966l-1.494,5.577c-0.093,0.345-0.362,0.615-0.707,0.707C22.512,90.98,22.425,90.992,22.339,90.992z
		 M20.188,86.427l1.633,1.633l0.598-2.23L20.188,86.427z"/>
</g>
<g>
	<path style="fill:#47DD7E;" d="M91.339,36.992c-0.262,0-0.518-0.103-0.707-0.293l-4.082-4.083
		c-0.253-0.252-0.352-0.621-0.259-0.966s0.362-0.615,0.707-0.707l5.576-1.495c0.347-0.092,0.712,0.006,0.966,0.259
		c0.253,0.252,0.352,0.621,0.259,0.966l-1.494,5.577c-0.093,0.345-0.362,0.615-0.707,0.707
		C91.512,36.98,91.425,36.992,91.339,36.992z M89.188,32.427l1.633,1.633l0.598-2.23L89.188,32.427z"/>
</g>
</svg>
