<?xml version="1.0" encoding="iso-8859-1"?>
<!-- Generator: Adobe Illustrator 18.0.0, SVG Export Plug-In . SVG Version: 6.00 Build 0)  -->
<!DOCTYPE svg PUBLIC "-//W3C//DTD SVG 1.1//EN" "http://www.w3.org/Graphics/SVG/1.1/DTD/svg11.dtd">
<svg version="1.1" id="Layer_2" xmlns="http://www.w3.org/2000/svg" xmlns:xlink="http://www.w3.org/1999/xlink" x="0px" y="0px"
	 width="100px" height="100px" viewBox="0 0 100 100" style="enable-background:new 0 0 100 100;" xml:space="preserve">
<g>
	<path style="fill:#006837;" d="M59.75,32.375c-0.69,0-1.25-0.56-1.25-1.25V28.5c0-4.48-3.645-8.125-8.125-8.125
		S42.25,24.02,42.25,28.5v2.625c0,0.69-0.56,1.25-1.25,1.25s-1.25-0.56-1.25-1.25V28.5c0-5.858,4.767-10.625,10.625-10.625
		S61,22.642,61,28.5v2.625C61,31.815,60.44,32.375,59.75,32.375z"/>
</g>
<g>
	<path style="fill:#47DD7E;" d="M77.83,30h-2.66C73.974,30,73,29.026,73,27.83V25.17c0-1.197,0.974-2.17,2.17-2.17h2.66
		c1.196,0,2.17,0.974,2.17,2.17v2.659C80,29.026,79.026,30,77.83,30z M75.17,25C75.079,25,75,25.08,75,25.17v2.659
		C75,27.92,75.079,28,75.17,28h2.66c0.091,0,0.17-0.08,0.17-0.17V25.17C78,25.08,77.921,25,77.83,25H75.17z"/>
</g>
<circle style="fill:#006837;" cx="85.5" cy="46" r="2"/>
<circle style="fill:#47DD7E;" cx="11.5" cy="64.5" r="2"/>
<g>
	<path style="fill:#006837;" d="M22.5,17.5c-1.93,0-3.5-1.57-3.5-3.5s1.57-3.5,3.5-3.5S26,12.07,26,14S24.43,17.5,22.5,17.5z
		 M22.5,12.5c-0.827,0-1.5,0.673-1.5,1.5s0.673,1.5,1.5,1.5S24,14.827,24,14S23.327,12.5,22.5,12.5z"/>
</g>
<g>
	<path style="fill:#CEE35A;" d="M78,12h-4c-0.553,0-1-0.448-1-1s0.447-1,1-1h4c0.553,0,1,0.448,1,1S78.553,12,78,12z"/>
</g>
<g>
	<path style="fill:#CEE35A;" d="M76,14c-0.553,0-1-0.448-1-1V9c0-0.552,0.447-1,1-1s1,0.448,1,1v4C77,13.552,76.553,14,76,14z"/>
</g>
<g>
	<path style="fill:#CEE35A;" d="M17.5,35c-0.262,0-0.518-0.103-0.707-0.293l-4.082-4.083c-0.253-0.252-0.352-0.621-0.259-0.966
		s0.362-0.615,0.707-0.707l5.576-1.494c0.348-0.093,0.713,0.006,0.966,0.259s0.352,0.621,0.259,0.966l-1.494,5.577
		c-0.093,0.345-0.362,0.615-0.707,0.707C17.673,34.989,17.586,35,17.5,35z M15.35,30.435l1.633,1.633l0.598-2.23L15.35,30.435z"/>
</g>
<g>
	<path style="fill:#47DD7E;" d="M45,86h-4c-0.553,0-1-0.448-1-1s0.447-1,1-1h4c0.553,0,1,0.448,1,1S45.553,86,45,86z"/>
</g>
<g>
	<path style="fill:#47DD7E;" d="M43,88c-0.553,0-1-0.448-1-1v-4c0-0.552,0.447-1,1-1s1,0.448,1,1v4C44,87.552,43.553,88,43,88z"/>
</g>
<circle style="fill:#CEE35A;" cx="77" cy="90" r="2"/>
<g>
	<path style="fill:#006837;" d="M76.23,78.25H35.238c-0.69,0-1.25-0.56-1.25-1.25s0.56-1.25,1.25-1.25H76.23
		c1.94,0,3.52-1.579,3.52-3.519c-0.001-0.37-0.062-0.74-0.18-1.094c-0.218-0.655,0.138-1.363,0.793-1.581
		c0.66-0.216,1.363,0.139,1.58,0.792c0.201,0.606,0.304,1.237,0.307,1.877C82.25,75.55,79.55,78.25,76.23,78.25z M29.238,78.25
		H23.77c-3.319,0-6.02-2.7-6.02-6.019c0.002-0.606,0.095-1.201,0.273-1.773c0.005-0.022,0.01-0.045,0.016-0.067l3.987-14.967
		c0.179-0.667,0.86-1.063,1.53-0.886c0.667,0.178,1.063,0.863,0.886,1.53l-3.957,14.853c-0.011,0.069-0.027,0.137-0.05,0.204
		c-0.122,0.358-0.185,0.733-0.186,1.112c0,1.936,1.579,3.514,3.52,3.514h5.469c0.69,0,1.25,0.56,1.25,1.25
		S29.929,78.25,29.238,78.25z M79.217,66.198c-0.553,0-1.058-0.369-1.207-0.928l-0.258-0.966c-0.178-0.667,0.219-1.352,0.886-1.53
		c0.672-0.178,1.353,0.219,1.53,0.885l0.258,0.966c0.178,0.667-0.219,1.352-0.886,1.53C79.432,66.184,79.323,66.198,79.217,66.198z
		 M77.414,59.434c-0.553,0-1.058-0.37-1.207-0.929l-6.068-22.782c-0.019-0.046-0.034-0.094-0.046-0.142
		c-0.401-1.552-1.8-2.637-3.402-2.639H33.308c-1.604,0-3.004,1.086-3.405,2.639c-0.008,0.033-0.019,0.066-0.029,0.098l-2.085,7.825
		c-0.178,0.667-0.858,1.068-1.53,0.886c-0.667-0.178-1.063-0.863-0.886-1.53l2.107-7.909c0.008-0.03,0.018-0.06,0.027-0.09
		c0.718-2.606,3.089-4.419,5.8-4.42h33.386c2.693,0.003,5.049,1.794,5.782,4.371c0.018,0.045,0.033,0.091,0.046,0.139l6.103,22.91
		c0.178,0.667-0.219,1.352-0.887,1.53C77.629,59.42,77.521,59.434,77.414,59.434z M24.779,51.198c-0.106,0-0.215-0.014-0.323-0.043
		c-0.667-0.178-1.063-0.863-0.886-1.53l0.258-0.966c0.178-0.667,0.86-1.064,1.53-0.885c0.667,0.178,1.063,0.863,0.886,1.53
		l-0.258,0.966C25.837,50.829,25.331,51.198,24.779,51.198z"/>
</g>
<path style="fill:#006837;" d="M54.955,58.216c0-1.333-0.649-2.559-1.73-3.315l-3.351-2.306c-0.468-0.36-0.757-0.901-0.757-1.514
	c0-1.009,0.829-1.838,1.838-1.838c0.757,0,1.405,0.432,1.694,1.117c0.216,0.541,0.865,0.793,1.405,0.577
	c0.541-0.216,0.793-0.865,0.577-1.405c-0.468-1.153-1.441-1.982-2.595-2.306v-0.144c0-0.613-0.468-1.081-1.081-1.081
	c-0.613,0-1.081,0.468-1.081,1.081v0.144c-1.694,0.468-2.919,2.018-2.919,3.856c0,1.297,0.613,2.486,1.694,3.243L52,56.667
	c0.505,0.36,0.793,0.901,0.793,1.514c0,1.009-0.829,1.838-1.838,1.838c-0.721,0-1.405-0.432-1.694-1.117
	c-0.252-0.541-0.865-0.793-1.405-0.577c-0.541,0.252-0.793,0.865-0.577,1.405c0.505,1.117,1.441,1.946,2.595,2.27v0.216
	c0,0.613,0.468,1.081,1.081,1.081c0.613,0,1.081-0.468,1.081-1.081v-0.144C53.73,61.604,54.955,60.054,54.955,58.216z"/>
<g>
	<path style="fill:#47DD7E;" d="M73.209,66.039c-0.668,0-1.277-0.449-1.451-1.125l-6.317-24.48c-0.183-0.707-0.82-1.2-1.55-1.2
		H47.26c-0.828,0-1.5-0.671-1.5-1.5s0.672-1.5,1.5-1.5h16.631c2.098,0,3.93,1.419,4.454,3.45l6.317,24.48
		c0.207,0.802-0.275,1.621-1.077,1.828C73.459,66.023,73.333,66.039,73.209,66.039z M41.26,39.233h-3.315
		c-0.828,0-1.5-0.671-1.5-1.5s0.672-1.5,1.5-1.5h3.315c0.828,0,1.5,0.671,1.5,1.5S42.088,39.233,41.26,39.233z"/>
</g>
<path style="fill:#CEE35A;" d="M76.313,75.708H23.687c-2.133,0-3.726-1.963-3.286-4.05l0.181-0.858h58.837l0.181,0.858
	C80.039,73.746,78.446,75.708,76.313,75.708z"/>
<circle style="fill:#006837;" cx="40.264" cy="54.246" r="1.5"/>
<circle style="fill:#006837;" cx="61.264" cy="54.246" r="1.5"/>
</svg>
