<?xml version="1.0" encoding="iso-8859-1"?>
<!-- Generator: Adobe Illustrator 18.0.0, SVG Export Plug-In . SVG Version: 6.00 Build 0)  -->
<!DOCTYPE svg PUBLIC "-//W3C//DTD SVG 1.1//EN" "http://www.w3.org/Graphics/SVG/1.1/DTD/svg11.dtd">
<svg version="1.1" id="Layer_2" xmlns="http://www.w3.org/2000/svg" xmlns:xlink="http://www.w3.org/1999/xlink" x="0px" y="0px"
	 width="100px" height="100px" viewBox="0 0 100 100" style="enable-background:new 0 0 100 100;" xml:space="preserve">
<g>
	<path style="fill:#47DD7E;" d="M58.857,16.885L43.734,27.176c0.078,0.047,0.158,0.088,0.235,0.137l0.376,0.215l-5,6.236
		c-0.331,0.4-0.516,0.857-0.581,1.322h1.085h38.017h7.36L58.857,16.885z"/>
</g>
<rect x="30.75" y="32.676" style="fill:#FFFFFF;" width="5.044" height="3.867"/>
<g>
	<path style="fill:#47DD7E;" d="M23.5,68.5c-0.829,0-1.5-0.671-1.5-1.5V55.271c0-1.41,0.222-2.803,0.661-4.141
		c0.258-0.787,1.106-1.214,1.893-0.958c0.787,0.258,1.216,1.105,0.958,1.893C25.172,53.101,25,54.18,25,55.271V67
		C25,67.829,24.329,68.5,23.5,68.5z M27.219,48.037c-0.338,0-0.679-0.114-0.959-0.348c-0.637-0.53-0.723-1.476-0.192-2.112
		l1.28-1.537c0.53-0.636,1.476-0.724,2.112-0.192c0.637,0.53,0.723,1.476,0.192,2.112l-1.28,1.537
		C28.076,47.853,27.649,48.037,27.219,48.037z"/>
</g>
<g>
	<path style="fill:#CEE35A;" d="M49.5,46c6.904,0,12.5,1.791,12.5,4s-5.596,4-12.5,4S37,52.209,37,50S42.596,46,49.5,46z"/>
	<path style="fill:#006837;" d="M52.176,55.158c-0.65,0-1.2-0.504-1.246-1.163c-0.048-0.688,0.471-1.286,1.16-1.334
		c5.997-0.418,8.659-2.094,8.659-2.661c0-0.798-3.942-2.75-11.25-2.75S38.25,49.202,38.25,50c0,0.096,0.29,0.611,1.628,1.202
		c0.631,0.279,0.917,1.017,0.639,1.648c-0.279,0.632-1.018,0.916-1.648,0.639C36.291,52.351,35.75,50.964,35.75,50
		c0-3.607,7.127-5.25,13.75-5.25S63.25,46.393,63.25,50c0,3.235-5.675,4.784-10.985,5.155
		C52.235,55.157,52.206,55.158,52.176,55.158z M46.183,55.107c-0.037,0-0.074-0.001-0.111-0.005c-0.35-0.031-0.693-0.066-1.03-0.105
		c-0.686-0.081-1.177-0.701-1.097-1.387c0.081-0.686,0.697-1.175,1.387-1.097c0.314,0.037,0.635,0.07,0.96,0.099
		c0.688,0.061,1.196,0.667,1.135,1.355C47.37,54.618,46.824,55.107,46.183,55.107z"/>
</g>
<g>
	<path style="fill:#47DD7E;" d="M85.33,18H82.67c-1.197,0-2.17-0.974-2.17-2.17V13.17c0-1.197,0.974-2.17,2.17-2.17h2.659
		c1.197,0,2.17,0.974,2.17,2.17v2.659C87.5,17.026,86.526,18,85.33,18z M82.67,13c-0.091,0-0.17,0.08-0.17,0.17v2.659
		c0,0.092,0.078,0.17,0.17,0.17h2.659c0.091,0,0.17-0.08,0.17-0.17V13.17c0-0.091-0.08-0.17-0.17-0.17H82.67z"/>
</g>
<circle style="fill:#006837;" cx="57.5" cy="93" r="2"/>
<circle style="fill:#CEE35A;" cx="15.5" cy="25.333" r="2"/>
<g>
	<path style="fill:#006837;" d="M21,18.75c-1.93,0-3.5-1.57-3.5-3.5s1.57-3.5,3.5-3.5s3.5,1.57,3.5,3.5S22.93,18.75,21,18.75z
		 M21,13.75c-0.827,0-1.5,0.673-1.5,1.5s0.673,1.5,1.5,1.5s1.5-0.673,1.5-1.5S21.827,13.75,21,13.75z"/>
</g>
<g>
	<path style="fill:#CEE35A;" d="M77.5,22h-4c-0.552,0-1-0.448-1-1s0.448-1,1-1h4c0.552,0,1,0.448,1,1S78.052,22,77.5,22z"/>
</g>
<g>
	<path style="fill:#CEE35A;" d="M75.5,24c-0.552,0-1-0.448-1-1v-4c0-0.552,0.448-1,1-1s1,0.448,1,1v4C76.5,23.552,76.052,24,75.5,24
		z"/>
</g>
<g>
	<path style="fill:#47DD7E;" d="M18,90.75h-4c-0.552,0-1-0.448-1-1s0.448-1,1-1h4c0.552,0,1,0.448,1,1S18.552,90.75,18,90.75z"/>
</g>
<g>
	<path style="fill:#47DD7E;" d="M16,92.75c-0.552,0-1-0.448-1-1v-4c0-0.552,0.448-1,1-1s1,0.448,1,1v4
		C17,92.302,16.552,92.75,16,92.75z"/>
</g>
<g>
	<path style="fill:#47DD7E;" d="M87,50c-0.086,0-0.173-0.011-0.259-0.034c-0.345-0.092-0.615-0.362-0.707-0.707l-1.494-5.577
		c-0.093-0.345,0.006-0.713,0.259-0.966c0.252-0.253,0.622-0.352,0.966-0.259l5.577,1.494c0.345,0.092,0.615,0.362,0.707,0.707
		c0.093,0.345-0.006,0.713-0.259,0.966l-4.083,4.083C87.517,49.897,87.262,50,87,50z M86.92,44.837l0.598,2.231l1.633-1.633
		L86.92,44.837z"/>
</g>
<g>
	<path style="fill:#CEE35A;" d="M30.877,86.867h-4c-0.552,0-1-0.448-1-1s0.448-1,1-1h4c0.552,0,1,0.448,1,1
		S31.43,86.867,30.877,86.867z"/>
</g>
<g>
	<path style="fill:#CEE35A;" d="M28.877,88.867c-0.552,0-1-0.448-1-1v-4c0-0.552,0.448-1,1-1s1,0.448,1,1v4
		C29.877,88.419,29.43,88.867,28.877,88.867z"/>
</g>
<g>
	<path style="fill:#CEE35A;" d="M35.377,17.867h-4c-0.552,0-1-0.448-1-1s0.448-1,1-1h4c0.552,0,1,0.448,1,1
		S35.93,17.867,35.377,17.867z"/>
</g>
<g>
	<path style="fill:#CEE35A;" d="M33.377,19.867c-0.552,0-1-0.448-1-1v-4c0-0.552,0.448-1,1-1s1,0.448,1,1v4
		C34.377,19.419,33.93,19.867,33.377,19.867z"/>
</g>
<path style="fill:#006837;" d="M56.304,58.082c-1.768,0.389-4.046,0.668-6.804,0.668c-7.308,0-11.25-1.952-11.25-2.75v-6
	c0-0.798,3.942-2.75,11.25-2.75S60.75,49.202,60.75,50v4.288c0.799-0.508,1.633-0.962,2.5-1.36V50c0-3.607-7.127-5.25-13.75-5.25
	S35.75,46.393,35.75,50v6c0,3.607,7.127,5.25,13.75,5.25c1.558,0,3.141-0.095,4.655-0.28C54.79,59.944,55.508,58.98,56.304,58.082z"
	/>
<g>
	<path style="fill:#CEE35A;" d="M72,87c8.284,0,15-6.716,15-15s-6.716-15-15-15s-15,6.716-15,15S63.716,87,72,87z"/>
	<path style="fill:#006837;" d="M72,88.25c-8.96,0-16.25-7.29-16.25-16.25S63.04,55.75,72,55.75c3.349,0,6.565,1.011,9.3,2.923
		c0.566,0.396,0.704,1.175,0.308,1.741c-0.396,0.567-1.174,0.703-1.741,0.308C77.555,59.104,74.834,58.25,72,58.25
		c-7.582,0-13.75,6.168-13.75,13.75S64.418,85.75,72,85.75S85.75,79.582,85.75,72c0-0.438-0.021-0.878-0.062-1.309
		c-0.065-0.687,0.439-1.297,1.127-1.362c0.69-0.054,1.297,0.44,1.362,1.127c0.048,0.508,0.072,1.028,0.072,1.544
		C88.25,80.96,80.96,88.25,72,88.25z M85.203,66.123c-0.444,0-0.874-0.237-1.1-0.655c-0.146-0.269-0.3-0.533-0.463-0.791
		c-0.369-0.584-0.195-1.356,0.389-1.725c0.583-0.37,1.355-0.194,1.725,0.389c0.193,0.305,0.375,0.617,0.548,0.936
		c0.329,0.607,0.103,1.366-0.504,1.694C85.608,66.074,85.404,66.123,85.203,66.123z"/>
</g>
<path style="fill:#006837;" d="M76,75.568c0-1.333-0.649-2.559-1.73-3.315l-3.351-2.306c-0.468-0.36-0.757-0.901-0.757-1.514
	c0-1.009,0.829-1.838,1.838-1.838c0.757,0,1.405,0.432,1.694,1.117c0.216,0.541,0.865,0.793,1.405,0.577s0.793-0.865,0.577-1.405
	c-0.468-1.153-1.441-1.982-2.595-2.306v-0.144c0-0.613-0.468-1.081-1.081-1.081s-1.081,0.468-1.081,1.081v0.144
	C69.225,65.045,68,66.595,68,68.432c0,1.297,0.613,2.486,1.694,3.243l3.351,2.342c0.505,0.36,0.793,0.901,0.793,1.514
	c0,1.009-0.829,1.838-1.838,1.838c-0.721,0-1.405-0.432-1.694-1.117c-0.252-0.541-0.865-0.793-1.405-0.577
	c-0.541,0.252-0.793,0.865-0.577,1.405c0.505,1.117,1.441,1.946,2.595,2.27v0.216c0,0.613,0.468,1.081,1.081,1.081
	s1.081-0.468,1.081-1.081v-0.144C74.775,78.955,76,77.405,76,75.568z"/>
<g>
	<path style="fill:#006837;" d="M50.531,79.238c-0.665,0-1.219-0.524-1.248-1.195c-0.03-0.69,0.505-1.273,1.194-1.304l1.634-0.071
		c0.693-0.008,1.274,0.505,1.304,1.194c0.03,0.69-0.505,1.273-1.194,1.304l-1.634,0.071C50.568,79.237,50.55,79.238,50.531,79.238z"
		/>
</g>
<g>
	<path style="fill:#006837;" d="M49.722,73.277c-0.665,0-1.219-0.524-1.248-1.195c-0.03-0.69,0.505-1.273,1.194-1.304l1.634-0.071
		c0.693-0.002,1.274,0.505,1.304,1.194c0.03,0.69-0.505,1.273-1.194,1.304l-1.634,0.071C49.759,73.277,49.741,73.277,49.722,73.277z
		"/>
</g>
<g>
	<path style="fill:#006837;" d="M50.72,67.235c-0.665,0-1.219-0.524-1.248-1.195c-0.03-0.69,0.505-1.273,1.194-1.304l1.634-0.071
		c0.685-0.005,1.274,0.505,1.304,1.194c0.03,0.69-0.505,1.273-1.194,1.304l-1.634,0.071C50.757,67.235,50.739,67.235,50.72,67.235z"
		/>
</g>
<g>
	<path style="fill:#006837;" d="M54.01,60.978c-0.598,0-1.126-0.43-1.23-1.039c-0.117-0.681,0.341-1.327,1.021-1.443l2.05-0.351
		c0.685-0.115,1.327,0.341,1.443,1.021c0.117,0.681-0.341,1.327-1.021,1.443l-2.05,0.351C54.151,60.972,54.08,60.978,54.01,60.978z"
		/>
</g>
<g>
	<path style="fill:#006837;" d="M62.022,55.5c-0.69,0-1.25-0.56-1.25-1.25v-1.888c0-0.69,0.56-1.25,1.25-1.25s1.25,0.56,1.25,1.25
		v1.888C63.272,54.94,62.713,55.5,62.022,55.5z"/>
</g>
<g>
	<path style="fill:#006837;" d="M78,53.58c-0.69,0-1.25-0.56-1.25-1.25V35.086c0-0.69,0.56-1.25,1.25-1.25h3.214l-7.834-5.408
		c-0.568-0.392-0.711-1.171-0.319-1.739c0.393-0.569,1.171-0.71,1.739-0.319l11.135,7.687c0.45,0.311,0.646,0.878,0.483,1.401
		c-0.163,0.522-0.646,0.878-1.193,0.878H79.25V52.33C79.25,53.021,78.69,53.58,78,53.58z M48.163,25.413
		c-0.4,0-0.792-0.191-1.035-0.547c-0.388-0.571-0.24-1.348,0.331-1.737l10.695-7.277c0.426-0.29,0.988-0.289,1.413,0.005l4.534,3.13
		c0.568,0.392,0.711,1.171,0.319,1.739c-0.392,0.568-1.171,0.71-1.739,0.319L58.853,18.4l-9.987,6.796
		C48.65,25.342,48.405,25.413,48.163,25.413z M69.151,25.242c-0.245,0-0.492-0.072-0.709-0.221l-0.823-0.568
		c-0.568-0.393-0.711-1.171-0.319-1.739c0.393-0.569,1.17-0.71,1.739-0.319l0.823,0.568c0.568,0.393,0.711,1.171,0.319,1.739
		C69.938,25.053,69.548,25.242,69.151,25.242z"/>
</g>
<g>
	<path style="fill:#006837;" d="M31.468,34.681c0.181,0.239,0.273,0.509,0.273,0.8c0,0.576-0.389,1.246-1.133,1.451
		c-0.251,0.024-0.447,0.095-0.627,0.159c-0.403,0.13-0.8,0.274-1.191,0.429c-0.642,0.255-0.955,0.982-0.7,1.624
		c0.255,0.642,0.982,0.953,1.624,0.7c0.341-0.136,0.687-0.261,1.048-0.377l0.136-0.047c0.057-0.005,0.113-0.013,0.169-0.026
		c1.839-0.408,3.174-2.054,3.174-3.912c0-0.838-0.271-1.637-0.777-2.304l-3.959-5.293c3.954-2.132,8.918-2.17,12.955-0.004
		l-4.079,5.087c-0.588,0.71-0.899,1.572-0.899,2.491c0,1.904,1.341,3.54,3.183,3.888c0.245,0.049,0.491,0.098,0.608,0.124
		c3.757,1.206,6.845,3.628,8.917,6.744h2.917c-2.344-4.246-6.248-7.575-11.149-9.147c-0.229-0.057-0.517-0.115-0.823-0.176
		c-0.757-0.144-1.153-0.83-1.153-1.433c0-0.23,0.056-0.572,0.337-0.912l5-6.236c0.229-0.285,0.321-0.656,0.253-1.016
		s-0.291-0.67-0.608-0.852l-0.326-0.185c-2.586-1.641-5.574-2.508-8.642-2.508c-3.223,0-6.34,0.947-9.014,2.74
		c-0.285,0.19-0.479,0.49-0.537,0.828c-0.058,0.338,0.026,0.685,0.231,0.959L31.468,34.681z"/>
	<path style="fill:#006837;" d="M18.617,70.562c0.234-0.234,0.366-0.552,0.366-0.884V55.7c0-2.744,0.67-5.475,1.939-7.898
		c0.32-0.612,0.084-1.367-0.528-1.687c-0.611-0.319-1.367-0.084-1.687,0.528c-1.455,2.78-2.224,5.912-2.224,9.058v13.46
		l-1.177,1.177c-0.687,0.662-1.065,1.536-1.065,2.459c0,1.905,1.566,3.454,3.492,3.454h2.015c0.69,0,1.25-0.56,1.25-1.25
		s-0.56-1.25-1.25-1.25h-2.015c-0.685,0-0.992-0.558-0.992-0.954c0-0.245,0.101-0.467,0.317-0.675L18.617,70.562z"/>
	<path style="fill:#006837;" d="M25.094,40.963c-0.45-0.524-1.24-0.583-1.763-0.134c-0.27,0.232-0.534,0.471-0.791,0.717
		c-0.499,0.478-0.516,1.269-0.039,1.767c0.246,0.257,0.574,0.386,0.903,0.386c0.311,0,0.622-0.115,0.864-0.347
		c0.225-0.215,0.455-0.423,0.691-0.626C25.484,42.276,25.544,41.486,25.094,40.963z"/>
	<path style="fill:#006837;" d="M36.973,73.75H25.748c-0.69,0-1.25,0.56-1.25,1.25s0.56,1.25,1.25,1.25h11.225V73.75z"/>
</g>
<path style="fill:#006837;" d="M52.352,64.641c-0.886,0.068-1.833,0.109-2.852,0.109c-0.432,0-0.859-0.007-1.279-0.021
	c-0.656-0.014-1.268,0.517-1.292,1.208c-0.023,0.69,0.518,1.268,1.208,1.292c0.448,0.015,0.903,0.022,1.363,0.022
	c0.689,0,1.383-0.022,2.075-0.058C51.78,66.318,52.042,65.469,52.352,64.641z"/>
<path style="fill:#006837;" d="M49.5,76.75c-7.308,0-11.25-1.952-11.25-2.75v-6.381h-2.5V74c0,3.607,7.127,5.25,13.75,5.25
	c0.923,0,1.854-0.035,2.775-0.1c-0.29-0.799-0.538-1.617-0.731-2.458C50.893,76.726,50.217,76.75,49.5,76.75z"/>
<path style="fill:#006837;" d="M49.5,70.75c-7.308,0-11.25-1.952-11.25-2.75v-6.853h-2.5V68c0,3.607,7.127,5.25,13.75,5.25
	c0.519,0,1.04-0.014,1.561-0.034C51.038,72.811,51,72.411,51,72c0-0.433,0.039-0.857,0.065-1.284
	C50.56,70.736,50.042,70.75,49.5,70.75z"/>
<path style="fill:#006837;" d="M42.509,64.036C38.991,63.229,38.25,62.174,38.25,62v-8.08h-2.5V62c0,1.996,2.145,3.542,6.2,4.472
	c0.673,0.151,1.344-0.267,1.498-0.939C43.602,64.86,43.182,64.19,42.509,64.036z"/>
</svg>
