<?xml version="1.0" encoding="iso-8859-1"?>
<!-- Generator: Adobe Illustrator 18.0.0, SVG Export Plug-In . SVG Version: 6.00 Build 0)  -->
<!DOCTYPE svg PUBLIC "-//W3C//DTD SVG 1.1//EN" "http://www.w3.org/Graphics/SVG/1.1/DTD/svg11.dtd">
<svg version="1.1" id="Layer_2" xmlns="http://www.w3.org/2000/svg" xmlns:xlink="http://www.w3.org/1999/xlink" x="0px" y="0px"
	 width="100px" height="100px" viewBox="0 0 100 100" style="enable-background:new 0 0 100 100;" xml:space="preserve">
<path style="fill:#47DD7E;" d="M23,29h53v8H23V29z"/>
<g>
	<path style="fill:#47DD7E;" d="M12.185,33.901h-2.66c-1.196,0-2.17-0.974-2.17-2.171v-2.659c0-1.196,0.974-2.17,2.17-2.17h2.66
		c1.197,0,2.17,0.974,2.17,2.17v2.659C14.355,32.928,13.381,33.901,12.185,33.901z M9.525,28.901c-0.09,0-0.17,0.079-0.17,0.17
		v2.659c0,0.091,0.08,0.171,0.17,0.171h2.66c0.091,0,0.17-0.08,0.17-0.171v-2.659c0-0.091-0.08-0.17-0.17-0.17H9.525z"/>
</g>
<circle style="fill:#006837;" cx="14.5" cy="86.5" r="2"/>
<circle style="fill:#CEE35A;" cx="81.148" cy="91.216" r="2"/>
<circle style="fill:#CEE35A;" cx="73.279" cy="14.842" r="2"/>
<g>
	<path style="fill:#006837;" d="M35.2,14.852c-1.93,0-3.5-1.57-3.5-3.5s1.57-3.5,3.5-3.5s3.5,1.57,3.5,3.5S37.13,14.852,35.2,14.852
		z M35.2,9.852c-0.827,0-1.5,0.673-1.5,1.5s0.673,1.5,1.5,1.5s1.5-0.673,1.5-1.5S36.027,9.852,35.2,9.852z"/>
</g>
<g>
	<path style="fill:#CEE35A;" d="M90.702,36.208h-4c-0.552,0-1-0.447-1-1s0.448-1,1-1h4c0.552,0,1,0.447,1,1
		S91.254,36.208,90.702,36.208z"/>
</g>
<g>
	<path style="fill:#CEE35A;" d="M88.702,38.208c-0.552,0-1-0.447-1-1v-4c0-0.553,0.448-1,1-1s1,0.447,1,1v4
		C89.702,37.761,89.254,38.208,88.702,38.208z"/>
</g>
<g>
	<path style="fill:#47DD7E;" d="M42.877,82.867h-4c-0.552,0-1-0.447-1-1s0.448-1,1-1h4c0.552,0,1,0.447,1,1
		S43.43,82.867,42.877,82.867z"/>
</g>
<g>
	<path style="fill:#47DD7E;" d="M40.877,84.867c-0.552,0-1-0.447-1-1v-4c0-0.553,0.448-1,1-1s1,0.447,1,1v4
		C41.877,84.42,41.43,84.867,40.877,84.867z"/>
</g>
<g>
	<path style="fill:#CEE35A;" d="M24.173,76.66c-0.262,0-0.517-0.103-0.707-0.293l-4.083-4.083c-0.253-0.253-0.352-0.621-0.259-0.966
		c0.092-0.345,0.362-0.614,0.707-0.707l5.577-1.494c0.344-0.093,0.713,0.006,0.966,0.259s0.352,0.621,0.259,0.966l-1.494,5.577
		c-0.092,0.345-0.362,0.614-0.707,0.707C24.347,76.649,24.26,76.66,24.173,76.66z M22.022,72.095l1.633,1.634l0.598-2.231
		L22.022,72.095z"/>
</g>
<g>
	<path style="fill:#CEE35A;" d="M86.29,24.481c-0.262,0-0.517-0.103-0.707-0.293L81.5,20.106c-0.252-0.253-0.352-0.621-0.259-0.966
		c0.092-0.345,0.362-0.614,0.707-0.707l5.577-1.495c0.344-0.093,0.713,0.006,0.966,0.259c0.253,0.253,0.352,0.621,0.259,0.966
		l-1.495,5.577c-0.092,0.345-0.362,0.614-0.707,0.707C86.463,24.471,86.376,24.481,86.29,24.481z M84.139,19.917l1.633,1.633
		l0.598-2.231L84.139,19.917z"/>
</g>
<g>
	<path style="fill:#CEE35A;" d="M54.251,51H36.333c-0.829,0-1.5-0.672-1.5-1.5s0.671-1.5,1.5-1.5h17.918c0.829,0,1.5,0.672,1.5,1.5
		S55.08,51,54.251,51z M30.333,51h-2c-0.829,0-1.5-0.672-1.5-1.5s0.671-1.5,1.5-1.5h2c0.829,0,1.5,0.672,1.5,1.5
		S31.162,51,30.333,51z"/>
</g>
<g>
	<path style="fill:#006837;" d="M56.516,60.75H28c-2.619,0-4.75-2.131-4.75-4.75v-0.571c0-0.69-0.56-1.25-1.25-1.25
		s-1.25,0.56-1.25,1.25V56c0,3.998,3.252,7.25,7.25,7.25h26.991L56.516,60.75z"/>
	<path style="fill:#006837;" d="M22,43.679c0.69,0,1.25-0.56,1.25-1.25V30c0-2.619,2.131-4.75,4.75-4.75h43
		c2.619,0,4.75,2.131,4.75,4.75v11.838l2.5,4.47V30c0-3.998-3.252-7.25-7.25-7.25H28c-3.998,0-7.25,3.252-7.25,7.25v12.429
		C20.75,43.119,21.31,43.679,22,43.679z"/>
	<path style="fill:#006837;" d="M22,50.679c0.69,0,1.25-0.56,1.25-1.25v-1c0-0.69-0.56-1.25-1.25-1.25s-1.25,0.56-1.25,1.25v1
		C20.75,50.119,21.31,50.679,22,50.679z"/>
</g>
<g>
	<polygon style="fill:#CEE35A;" points="53.646,79.964 71.476,49.082 89.306,79.964 	"/>
	<path style="fill:#006837;" d="M89.306,81.214H67.625c-0.69,0-1.25-0.56-1.25-1.25s0.56-1.25,1.25-1.25h19.516l-5.577-9.659
		c-0.345-0.598-0.14-1.362,0.458-1.708c0.596-0.343,1.362-0.141,1.708,0.458l6.66,11.534c0.223,0.387,0.223,0.863,0,1.25
		S89.753,81.214,89.306,81.214z M61.625,81.214h-7.979c-0.447,0-0.859-0.238-1.083-0.625s-0.223-0.863,0-1.25l17.83-30.882
		c0.446-0.773,1.719-0.773,2.165,0l4.67,8.089c0.345,0.598,0.14,1.362-0.458,1.707c-0.597,0.347-1.362,0.142-1.708-0.457
		l-3.588-6.214L55.811,78.714h5.814c0.69,0,1.25,0.56,1.25,1.25S62.315,81.214,61.625,81.214z M79.647,64.483
		c-0.432,0-0.852-0.224-1.083-0.625l-0.5-0.866c-0.345-0.598-0.14-1.362,0.458-1.708c0.596-0.344,1.362-0.141,1.708,0.458l0.5,0.866
		c0.345,0.598,0.14,1.362-0.458,1.708C80.075,64.43,79.86,64.483,79.647,64.483z"/>
</g>
<circle style="fill:#006837;" cx="71.476" cy="75.139" r="1.5"/>
<path style="fill:#006837;" d="M71.896,57.964h-0.84c-0.59,0-1.061,0.49-1.038,1.079l0.42,10.922
	c0.021,0.558,0.48,0.999,1.038,0.999l0,0c0.558,0,1.017-0.441,1.038-0.999l0.42-10.922C72.957,58.454,72.486,57.964,71.896,57.964z"
	/>
<g>
	<path style="fill:#006837;" d="M57.522,63.25h-3.057c-0.69,0-1.25-0.56-1.25-1.25s0.56-1.25,1.25-1.25h3.057
		c0.69,0,1.25,0.56,1.25,1.25S58.213,63.25,57.522,63.25z"/>
</g>
<g>
	<path style="fill:#006837;" d="M76.994,47.778c-0.69,0-1.25-0.56-1.25-1.25v-6.052c0-0.69,0.56-1.25,1.25-1.25s1.25,0.56,1.25,1.25
		v6.052C78.244,47.219,77.684,47.778,76.994,47.778z"/>
</g>
</svg>
