<?xml version="1.0" encoding="iso-8859-1"?>
<!-- Generator: Adobe Illustrator 18.0.0, SVG Export Plug-In . SVG Version: 6.00 Build 0)  -->
<!DOCTYPE svg PUBLIC "-//W3C//DTD SVG 1.1//EN" "http://www.w3.org/Graphics/SVG/1.1/DTD/svg11.dtd">
<svg version="1.1" id="Layer_2" xmlns="http://www.w3.org/2000/svg" xmlns:xlink="http://www.w3.org/1999/xlink" x="0px" y="0px"
	 width="100px" height="100px" viewBox="0 0 100 100" style="enable-background:new 0 0 100 100;" xml:space="preserve">
<path style="fill:#47DD7E;" d="M73,25H25c-3.314,0-6,2.686-6,6v24c0,3.314,2.686,6,6,6h19.055c0.371-1.712,0.942-3.389,1.696-5
	H28.76c-0.63-2.239-2.462-3.974-4.76-4.455V34.448c2.295-0.48,4.126-2.212,4.758-4.448h40.484c0.632,2.236,2.463,3.967,4.758,4.448
	v6.765c0.642,0.823,1.122,1.778,1.346,2.835c1.256,0.477,2.477,1.068,3.654,1.764V31C79,27.686,76.314,25,73,25z"/>
<circle style="fill:#47DD7E;" cx="30" cy="43" r="2"/>
<g>
	<path style="fill:#47DD7E;" d="M34.659,18H32c-1.196,0-2.17-0.974-2.17-2.17v-2.66c0-1.196,0.974-2.17,2.17-2.17h2.659
		c1.197,0,2.171,0.974,2.171,2.17v2.66C36.83,17.026,35.856,18,34.659,18z M32,13c-0.091,0-0.17,0.079-0.17,0.17v2.66
		c0,0.091,0.079,0.17,0.17,0.17h2.659c0.091,0,0.171-0.079,0.171-0.17v-2.66c0-0.091-0.08-0.17-0.171-0.17H32z"/>
</g>
<circle style="fill:#006837;" cx="14.5" cy="86.5" r="2"/>
<circle style="fill:#CEE35A;" cx="81.148" cy="91.216" r="2"/>
<circle style="fill:#CEE35A;" cx="13" cy="11" r="2"/>
<circle style="fill:#CEE35A;" cx="73.279" cy="14.842" r="2"/>
<g>
	<path style="fill:#006837;" d="M85.5,14c-1.93,0-3.5-1.57-3.5-3.5S83.57,7,85.5,7S89,8.57,89,10.5S87.43,14,85.5,14z M85.5,9
		C84.673,9,84,9.673,84,10.5s0.673,1.5,1.5,1.5s1.5-0.673,1.5-1.5S86.327,9,85.5,9z"/>
</g>
<g>
	<path style="fill:#CEE35A;" d="M90.702,36.208h-4c-0.553,0-1-0.447-1-1s0.447-1,1-1h4c0.553,0,1,0.447,1,1
		S91.255,36.208,90.702,36.208z"/>
</g>
<g>
	<path style="fill:#CEE35A;" d="M88.702,38.208c-0.553,0-1-0.447-1-1v-4c0-0.553,0.447-1,1-1s1,0.447,1,1v4
		C89.702,37.761,89.255,38.208,88.702,38.208z"/>
</g>
<g>
	<path style="fill:#47DD7E;" d="M42.877,82.867h-4c-0.553,0-1-0.447-1-1s0.447-1,1-1h4c0.553,0,1,0.447,1,1
		S43.43,82.867,42.877,82.867z"/>
</g>
<g>
	<path style="fill:#47DD7E;" d="M40.877,84.867c-0.553,0-1-0.447-1-1v-4c0-0.553,0.447-1,1-1s1,0.447,1,1v4
		C41.877,84.42,41.43,84.867,40.877,84.867z"/>
</g>
<g>
	<path style="fill:#CEE35A;" d="M24.173,76.66c-0.262,0-0.518-0.103-0.707-0.293l-4.082-4.083c-0.253-0.253-0.352-0.621-0.259-0.966
		s0.362-0.614,0.707-0.707l5.577-1.494c0.348-0.096,0.714,0.006,0.966,0.259c0.253,0.253,0.352,0.621,0.259,0.966l-1.495,5.577
		c-0.093,0.346-0.362,0.614-0.707,0.707C24.346,76.649,24.259,76.66,24.173,76.66z M22.022,72.095l1.633,1.634l0.599-2.231
		L22.022,72.095z"/>
</g>
<g>
	<path style="fill:#CEE35A;" d="M67,84c9.941,0,18-8.059,18-18s-8.059-18-18-18c-9.941,0-18,8.059-18,18C49,75.941,57.059,84,67,84z
		"/>
	<path style="fill:#006837;" d="M67,85.25c-6.976-0.001-13.422-3.789-16.823-9.886c-0.336-0.604-0.12-1.364,0.482-1.701
		c0.605-0.335,1.365-0.12,1.701,0.482c2.96,5.307,8.569,8.604,14.64,8.604c8.09,0,15.019-5.766,16.475-13.71
		c0.124-0.678,0.771-1.127,1.455-1.004c0.679,0.124,1.128,0.775,1.004,1.455C84.26,78.622,76.298,85.25,67,85.25z M49.269,70.377
		c-0.596,0-1.123-0.428-1.229-1.034C47.848,68.246,47.75,67.121,47.75,66c0-10.614,8.636-19.25,19.25-19.25
		c6.724,0,13.053,3.586,16.518,9.358c0.354,0.593,0.163,1.36-0.429,1.716c-0.595,0.354-1.361,0.163-1.716-0.429
		C78.312,52.295,72.939,49.25,67,49.25c-9.236,0-16.75,7.514-16.75,16.75c0,0.978,0.085,1.957,0.252,2.911
		c0.119,0.681-0.336,1.328-1.016,1.447C49.413,70.371,49.341,70.377,49.269,70.377z M84.796,64.546
		c-0.607,0-1.141-0.444-1.234-1.064c-0.046-0.307-0.101-0.611-0.164-0.913c-0.142-0.675,0.291-1.338,0.967-1.48
		c0.672-0.135,1.338,0.291,1.48,0.967c0.073,0.349,0.136,0.7,0.189,1.056c0.103,0.683-0.368,1.319-1.051,1.422
		C84.921,64.541,84.858,64.546,84.796,64.546z"/>
</g>
<g>
	<path style="fill:#006837;" d="M43.903,62.25h-3.336c-0.69,0-1.25-0.56-1.25-1.25s0.56-1.25,1.25-1.25h3.336
		c0.69,0,1.25,0.56,1.25,1.25S44.594,62.25,43.903,62.25z"/>
</g>
<g>
	<path style="fill:#006837;" d="M81.588,67.25H70.412c-0.69,0-1.25-0.56-1.25-1.25s0.56-1.25,1.25-1.25h11.176
		c0.69,0,1.25,0.56,1.25,1.25S82.278,67.25,81.588,67.25z"/>
</g>
<g>
	<path style="fill:#006837;" d="M82,85.25H52c-0.69,0-1.25-0.56-1.25-1.25s0.56-1.25,1.25-1.25h30c0.69,0,1.25,0.56,1.25,1.25
		S82.69,85.25,82,85.25z"/>
</g>
<g>
	<path style="fill:#006837;" d="M67,63.305c-0.69,0-1.25-0.56-1.25-1.25V50.88c0-0.69,0.56-1.25,1.25-1.25s1.25,0.56,1.25,1.25
		v11.175C68.25,62.745,67.69,63.305,67,63.305z"/>
</g>
<g>
	<path style="fill:#FFFFFF;" d="M67,69.268c1.805,0,3.268-1.463,3.268-3.268c0-1.805-1.463-3.268-3.268-3.268
		c-1.805,0-3.268,1.463-3.268,3.268C63.732,67.805,65.195,69.268,67,69.268z"/>
	<path style="fill:#006837;" d="M66.978,70.518c-0.24,0-0.483-0.021-0.721-0.061c-0.681-0.113-1.14-0.758-1.025-1.439
		c0.113-0.681,0.765-1.135,1.439-1.025c0.104,0.018,0.211,0.035,0.322,0.025c1.119,0,2.024-0.905,2.024-2.018
		S68.112,63.982,67,63.982c-1.018,0-1.878,0.76-2.003,1.768c-0.085,0.685-0.721,1.172-1.394,1.087
		c-0.685-0.084-1.172-0.708-1.087-1.394c0.278-2.258,2.206-3.961,4.483-3.961c2.491,0,4.518,2.026,4.518,4.518
		S69.491,70.518,67,70.518C66.992,70.518,66.984,70.518,66.978,70.518z"/>
</g>
<path style="fill:#006837;" d="M68.5,49.25h-3c-2.067,0-3.75-1.683-3.75-3.75s1.683-3.75,3.75-3.75h3c2.067,0,3.75,1.683,3.75,3.75
	S70.567,49.25,68.5,49.25z M65.5,44.25c-0.689,0-1.25,0.561-1.25,1.25s0.561,1.25,1.25,1.25h3c0.689,0,1.25-0.561,1.25-1.25
	s-0.561-1.25-1.25-1.25H65.5z"/>
<g>
	<path style="fill:#006837;" d="M79,47.25c-0.69,0-1.25-0.56-1.25-1.25v-3.336c0-0.69,0.56-1.25,1.25-1.25s1.25,0.56,1.25,1.25V46
		C80.25,46.69,79.69,47.25,79,47.25z"/>
</g>
<g>
	<path style="fill:#47DD7E;" d="M40.674,40.213c0.729,0.394,1.638,0.126,2.033-0.604C44.103,37.036,46.455,35.5,49,35.5
		c4.136,0,7.5,4.037,7.5,9l-0.001,0.117c-0.002,0.122,0.014,0.24,0.039,0.354c0.693-0.343,1.399-0.653,2.116-0.925
		c0.133-0.626,0.371-1.21,0.659-1.763C58.4,36.723,54.127,32.5,49,32.5c-3.663,0-7.002,2.123-8.93,5.68
		C39.675,38.908,39.945,39.818,40.674,40.213z"/>
	<path style="fill:#47DD7E;" d="M43.836,51.012c-1.474-1.683-2.303-3.943-2.335-6.366c-0.011-0.822-0.681-1.48-1.5-1.48
		c-0.006,0-0.013,0-0.02,0c-0.829,0.011-1.491,0.691-1.48,1.52c0.042,3.136,1.135,6.085,3.077,8.304
		c0.297,0.339,0.712,0.512,1.13,0.512c0.351,0,0.703-0.122,0.987-0.371C44.318,52.583,44.381,51.635,43.836,51.012z"/>
</g>
<g>
	<path style="fill:#006837;" d="M19,40.679c0.69,0,1.25-0.56,1.25-1.25V31c0-2.619,2.131-4.75,4.75-4.75h32.144
		c0.69,0,1.25-0.56,1.25-1.25s-0.56-1.25-1.25-1.25H25c-3.998,0-7.25,3.252-7.25,7.25v8.429C17.75,40.119,18.31,40.679,19,40.679z"
		/>
	<path style="fill:#006837;" d="M63.144,26.25H73c2.619,0,4.75,2.131,4.75,4.75v14.119c0.857,0.439,1.691-0.064,2.5,0.487V31
		c0-3.998-3.252-7.25-7.25-7.25h-9.856c-0.69,0-1.25,0.56-1.25,1.25S62.453,26.25,63.144,26.25z"/>
	<path style="fill:#006837;" d="M44.36,59.75H25c-2.619,0-4.75-2.131-4.75-4.75v-2.571c0-0.69-0.56-1.25-1.25-1.25
		s-1.25,0.56-1.25,1.25V55c0,3.998,3.252,7.25,7.25,7.25h18.824C43.959,61.409,44.133,60.575,44.36,59.75z"/>
	<path style="fill:#006837;" d="M19,47.679c0.69,0,1.25-0.56,1.25-1.25v-1c0-0.69-0.56-1.25-1.25-1.25s-1.25,0.56-1.25,1.25v1
		C17.75,47.119,18.31,47.679,19,47.679z"/>
</g>
</svg>
