<?xml version="1.0" encoding="iso-8859-1"?>
<!-- Generator: Adobe Illustrator 18.0.0, SVG Export Plug-In . SVG Version: 6.00 Build 0)  -->
<!DOCTYPE svg PUBLIC "-//W3C//DTD SVG 1.1//EN" "http://www.w3.org/Graphics/SVG/1.1/DTD/svg11.dtd">
<svg version="1.1" id="Layer_2" xmlns="http://www.w3.org/2000/svg" xmlns:xlink="http://www.w3.org/1999/xlink" x="0px" y="0px"
	 width="100px" height="100px" viewBox="0 0 100 100" style="enable-background:new 0 0 100 100;" xml:space="preserve">
<path style="fill:#47DD7E;" d="M76,72.189c0-1.333-0.649-2.559-1.73-3.315l-3.351-2.306c-0.468-0.36-0.757-0.901-0.757-1.514
	c0-1.009,0.829-1.838,1.838-1.838c0.757,0,1.405,0.432,1.694,1.117c0.216,0.541,0.865,0.793,1.405,0.577s0.793-0.865,0.577-1.405
	c-0.468-1.153-1.441-1.982-2.595-2.306v-0.144c0-0.613-0.468-1.081-1.081-1.081s-1.081,0.468-1.081,1.081v0.144
	C69.225,61.667,68,63.216,68,65.054c0,1.297,0.613,2.486,1.694,3.243l3.351,2.342c0.505,0.36,0.793,0.901,0.793,1.514
	c0,1.009-0.829,1.838-1.838,1.838c-0.721,0-1.405-0.432-1.694-1.117c-0.252-0.541-0.865-0.793-1.405-0.577
	c-0.541,0.252-0.793,0.865-0.577,1.405c0.505,1.117,1.441,1.946,2.595,2.27v0.216c0,0.613,0.468,1.081,1.081,1.081
	s1.081-0.468,1.081-1.081v-0.144C74.775,75.577,76,74.027,76,72.189z"/>
<g>
	<path style="fill:#006837;" d="M81,43.393c-0.69,0-1.25,0.56-1.25,1.25v30c0,0.69,0.56,1.25,1.25,1.25s1.25-0.56,1.25-1.25v-30
		C82.25,43.953,81.69,43.393,81,43.393z"/>
	<path style="fill:#006837;" d="M81,83.393c-0.412,0-0.778,0.199-1.005,0.507l-4.217-3.826c-0.491-0.446-1.246-0.43-1.719,0.037
		l-4.684,4.631l-4.684-4.631c-0.487-0.481-1.271-0.481-1.758,0l-4.684,4.631l-4.684-4.631c-0.487-0.481-1.271-0.481-1.758,0
		l-4.679,4.626l-4.628-4.622c-0.486-0.485-1.272-0.488-1.762-0.004l-3.489,3.45V62h-2.5v24.5c0,0.69,0.615,1.25,1.306,1.25
		c0.329,0,0.645-0.13,0.879-0.361l4.679-4.626l4.628,4.622c0.487,0.486,1.273,0.489,1.762,0.004l4.684-4.631l4.684,4.631
		c0.487,0.481,1.271,0.481,1.758,0l4.684-4.631l4.684,4.631c0.487,0.481,1.271,0.481,1.758,0l4.721-4.667l5.186,4.705
		c0.234,0.213,0.535,0.324,0.84,0.324c0.171,0,0.343-0.035,0.506-0.107c0.452-0.201,0.744-0.648,0.744-1.143v-1.857
		C82.25,83.953,81.69,83.393,81,83.393z"/>
	<path style="fill:#006837;" d="M75,17.75H42c-3.998,0-7.25,3.252-7.25,7.25v1.167h2.5V25c0-2.619,2.131-4.75,4.75-4.75h33
		c2.619,0,4.75,2.131,4.75,4.75v6.643c0,0.69,0.56,1.25,1.25,1.25s1.25-0.56,1.25-1.25V25C82.25,21.002,78.998,17.75,75,17.75z"/>
	<path style="fill:#006837;" d="M81,36.393c-0.69,0-1.25,0.56-1.25,1.25v1c0,0.69,0.56,1.25,1.25,1.25s1.25-0.56,1.25-1.25v-1
		C82.25,36.953,81.69,36.393,81,36.393z"/>
</g>
<g>
	<path style="fill:#006837;" d="M36,70.25c-0.69,0-1.25-0.56-1.25-1.25v-7c0-0.69,0.56-1.25,1.25-1.25s1.25,0.56,1.25,1.25v7
		C37.25,69.69,36.69,70.25,36,70.25z"/>
</g>
<g>
	<path style="fill:#CEE35A;" d="M19.5,26h36c2.475,0,4.5,1.993,4.5,4.429v22.143C60,55.007,57.975,57,55.5,57h-36
		c-2.475,0-4.5-1.993-4.5-4.429V30.429C15,27.993,17.025,26,19.5,26z"/>
	<path style="fill:#006837;" d="M55.5,58.25h-36c-3.1,0-5.623-2.395-5.746-5.453c-0.027-0.689,0.509-1.271,1.199-1.299
		c0.678-0.028,1.271,0.509,1.299,1.199c0.067,1.683,1.524,3.053,3.248,3.053h36c1.792,0,3.25-1.426,3.25-3.179V30.429
		c0-1.753-1.458-3.179-3.25-3.179h-36c-1.792,0-3.25,1.426-3.25,3.179v9.318c0,0.69-0.56,1.25-1.25,1.25s-1.25-0.56-1.25-1.25
		v-9.318c0-3.131,2.58-5.679,5.75-5.679h36c3.17,0,5.75,2.547,5.75,5.679v22.143C61.25,55.703,58.67,58.25,55.5,58.25z M15,47.997
		c-0.69,0-1.25-0.56-1.25-1.25v-1c0-0.69,0.56-1.25,1.25-1.25s1.25,0.56,1.25,1.25v1C16.25,47.438,15.69,47.997,15,47.997z"/>
</g>
<path style="fill:#47DD7E;" d="M16.25,30.041h42.5v6.919h-42.5V30.041z"/>
<g>
	<path style="fill:#FFFFFF;" d="M47.251,48H29.333c-0.829,0-1.5-0.671-1.5-1.5s0.671-1.5,1.5-1.5h17.918c0.829,0,1.5,0.671,1.5,1.5
		S48.08,48,47.251,48z M23.333,48h-2c-0.829,0-1.5-0.671-1.5-1.5s0.671-1.5,1.5-1.5h2c0.829,0,1.5,0.671,1.5,1.5
		S24.162,48,23.333,48z"/>
</g>
<g>
	<path style="fill:#CEE35A;" d="M63.5,64h-15c-0.829,0-1.5-0.671-1.5-1.5s0.671-1.5,1.5-1.5h15c0.829,0,1.5,0.671,1.5,1.5
		S64.329,64,63.5,64z M42.5,64h-1c-0.829,0-1.5-0.671-1.5-1.5s0.671-1.5,1.5-1.5h1c0.829,0,1.5,0.671,1.5,1.5S43.329,64,42.5,64z"/>
</g>
<g>
	<path style="fill:#CEE35A;" d="M63.5,70h-15c-0.829,0-1.5-0.671-1.5-1.5s0.671-1.5,1.5-1.5h15c0.829,0,1.5,0.671,1.5,1.5
		S64.329,70,63.5,70z M42.5,70h-1c-0.829,0-1.5-0.671-1.5-1.5s0.671-1.5,1.5-1.5h1c0.829,0,1.5,0.671,1.5,1.5S43.329,70,42.5,70z"/>
</g>
<g>
	<path style="fill:#CEE35A;" d="M63.5,76h-15c-0.829,0-1.5-0.671-1.5-1.5s0.671-1.5,1.5-1.5h15c0.829,0,1.5,0.671,1.5,1.5
		S64.329,76,63.5,76z M42.5,76h-1c-0.829,0-1.5-0.671-1.5-1.5s0.671-1.5,1.5-1.5h1c0.829,0,1.5,0.671,1.5,1.5S43.329,76,42.5,76z"/>
</g>
<g>
	<path style="fill:#47DD7E;" d="M18.83,16H16.17C14.974,16,14,15.026,14,13.83V11.17C14,9.974,14.974,9,16.17,9h2.659
		C20.026,9,21,9.974,21,11.17v2.659C21,15.026,20.026,16,18.83,16z M16.17,11C16.08,11,16,11.08,16,11.17v2.659
		C16,13.92,16.08,14,16.17,14h2.659C18.92,14,19,13.92,19,13.83V11.17C19,11.08,18.92,11,18.83,11H16.17z"/>
</g>
<circle style="fill:#006837;" cx="88" cy="8" r="2"/>
<circle style="fill:#47DD7E;" cx="91" cy="40.5" r="2"/>
<circle style="fill:#CEE35A;" cx="88.5" cy="76.5" r="2"/>
<circle style="fill:#CEE35A;" cx="73.279" cy="12.842" r="2"/>
<g>
	<path style="fill:#006837;" d="M14.5,91c-1.93,0-3.5-1.57-3.5-3.5s1.57-3.5,3.5-3.5s3.5,1.57,3.5,3.5S16.43,91,14.5,91z M14.5,86
		c-0.827,0-1.5,0.673-1.5,1.5s0.673,1.5,1.5,1.5s1.5-0.673,1.5-1.5S15.327,86,14.5,86z"/>
</g>
<g>
	<path style="fill:#CEE35A;" d="M32,18.5h-4c-0.552,0-1-0.448-1-1s0.448-1,1-1h4c0.552,0,1,0.448,1,1S32.552,18.5,32,18.5z"/>
</g>
<g>
	<path style="fill:#CEE35A;" d="M30,20.5c-0.552,0-1-0.448-1-1v-4c0-0.552,0.448-1,1-1s1,0.448,1,1v4C31,20.052,30.552,20.5,30,20.5
		z"/>
</g>
<g>
	<path style="fill:#47DD7E;" d="M28.877,82.867h-4c-0.552,0-1-0.448-1-1s0.448-1,1-1h4c0.552,0,1,0.448,1,1
		S29.43,82.867,28.877,82.867z"/>
</g>
<g>
	<path style="fill:#47DD7E;" d="M26.877,84.867c-0.552,0-1-0.448-1-1v-4c0-0.552,0.448-1,1-1s1,0.448,1,1v4
		C27.877,84.419,27.43,84.867,26.877,84.867z"/>
</g>
<g>
	<path style="fill:#CEE35A;" d="M21.173,73.66c-0.262,0-0.517-0.103-0.707-0.293l-4.083-4.083c-0.253-0.252-0.352-0.621-0.259-0.966
		c0.092-0.345,0.362-0.615,0.707-0.707l5.577-1.494c0.344-0.092,0.713,0.006,0.966,0.259c0.253,0.252,0.352,0.621,0.259,0.966
		l-1.494,5.577c-0.092,0.345-0.362,0.615-0.707,0.707C21.347,73.648,21.26,73.66,21.173,73.66z M19.022,69.095l1.633,1.633
		l0.598-2.23L19.022,69.095z"/>
</g>
<g>
	<path style="fill:#CEE35A;" d="M89.173,25.66c-0.262,0-0.517-0.103-0.707-0.293l-4.083-4.083c-0.253-0.252-0.352-0.621-0.259-0.966
		c0.092-0.345,0.362-0.615,0.707-0.707l5.577-1.494c0.345-0.092,0.713,0.007,0.966,0.259c0.253,0.252,0.352,0.621,0.259,0.966
		l-1.494,5.577c-0.092,0.345-0.362,0.615-0.707,0.707C89.347,25.648,89.26,25.66,89.173,25.66z M87.022,21.095l1.633,1.633
		l0.598-2.23L87.022,21.095z"/>
</g>
</svg>
