<?xml version="1.0" encoding="iso-8859-1"?>
<!-- Generator: Adobe Illustrator 18.0.0, SVG Export Plug-In . SVG Version: 6.00 Build 0)  -->
<!DOCTYPE svg PUBLIC "-//W3C//DTD SVG 1.1//EN" "http://www.w3.org/Graphics/SVG/1.1/DTD/svg11.dtd">
<svg version="1.1" id="Layer_2" xmlns="http://www.w3.org/2000/svg" xmlns:xlink="http://www.w3.org/1999/xlink" x="0px" y="0px"
	 width="100px" height="100px" viewBox="0 0 100 100" style="enable-background:new 0 0 100 100;" xml:space="preserve">
<path style="fill:#47DD7E;" d="M23,29h53v8H23V29z"/>
<g>
	<path style="fill:#47DD7E;" d="M38.83,16h-2.66C34.974,16,34,15.026,34,13.83V11.17C34,9.974,34.974,9,36.17,9h2.66
		C40.026,9,41,9.974,41,11.17v2.659C41,15.026,40.026,16,38.83,16z M36.17,11C36.079,11,36,11.08,36,11.17v2.659
		c0,0.092,0.078,0.17,0.17,0.17h2.66c0.092,0,0.17-0.078,0.17-0.17V11.17C39,11.08,38.921,11,38.83,11H36.17z"/>
</g>
<circle style="fill:#006837;" cx="14.5" cy="86.5" r="2"/>
<circle style="fill:#CEE35A;" cx="81.148" cy="91.216" r="2"/>
<circle style="fill:#CEE35A;" cx="73.279" cy="14.842" r="2"/>
<g>
	<path style="fill:#006837;" d="M85.5,14c-1.93,0-3.5-1.57-3.5-3.5S83.57,7,85.5,7S89,8.57,89,10.5S87.43,14,85.5,14z M85.5,9
		C84.673,9,84,9.673,84,10.5s0.673,1.5,1.5,1.5s1.5-0.673,1.5-1.5S86.327,9,85.5,9z"/>
</g>
<g>
	<path style="fill:#CEE35A;" d="M90.702,36.208h-4c-0.553,0-1-0.448-1-1s0.447-1,1-1h4c0.553,0,1,0.448,1,1
		S91.255,36.208,90.702,36.208z"/>
</g>
<g>
	<path style="fill:#CEE35A;" d="M88.702,38.208c-0.553,0-1-0.448-1-1v-4c0-0.552,0.447-1,1-1s1,0.448,1,1v4
		C89.702,37.76,89.255,38.208,88.702,38.208z"/>
</g>
<g>
	<path style="fill:#47DD7E;" d="M42.877,82.867h-4c-0.553,0-1-0.448-1-1s0.447-1,1-1h4c0.553,0,1,0.448,1,1
		S43.43,82.867,42.877,82.867z"/>
</g>
<g>
	<path style="fill:#47DD7E;" d="M40.877,84.867c-0.553,0-1-0.448-1-1v-4c0-0.552,0.447-1,1-1s1,0.448,1,1v4
		C41.877,84.419,41.43,84.867,40.877,84.867z"/>
</g>
<g>
	<path style="fill:#CEE35A;" d="M24.173,76.66c-0.262,0-0.518-0.103-0.707-0.293l-4.082-4.083c-0.253-0.252-0.352-0.621-0.259-0.966
		s0.362-0.615,0.707-0.707l5.577-1.494c0.349-0.093,0.714,0.007,0.966,0.259c0.253,0.252,0.352,0.621,0.259,0.966l-1.495,5.577
		c-0.093,0.345-0.362,0.615-0.707,0.707C24.346,76.648,24.259,76.66,24.173,76.66z M22.022,72.095l1.633,1.633l0.599-2.231
		L22.022,72.095z"/>
</g>
<g>
	<path style="fill:#47DD7E;" d="M15.668,30.285c-0.086,0-0.173-0.011-0.259-0.034l-5.577-1.494
		c-0.345-0.092-0.614-0.362-0.707-0.707s0.006-0.713,0.259-0.966l4.082-4.083c0.252-0.252,0.618-0.352,0.966-0.259
		c0.345,0.092,0.614,0.362,0.707,0.707l1.445,5.392c0.066,0.134,0.104,0.284,0.104,0.444c0,0.552-0.447,1-1,1
		C15.681,30.285,15.674,30.285,15.668,30.285z M12.022,27.273l2.231,0.598l-0.599-2.231L12.022,27.273z"/>
</g>
<g>
	<path style="fill:#CEE35A;" d="M54.252,51H36.333c-0.828,0-1.5-0.671-1.5-1.5s0.672-1.5,1.5-1.5h17.919c0.828,0,1.5,0.671,1.5,1.5
		S55.08,51,54.252,51z M30.333,51h-2c-0.828,0-1.5-0.671-1.5-1.5s0.672-1.5,1.5-1.5h2c0.828,0,1.5,0.671,1.5,1.5
		S31.161,51,30.333,51z"/>
</g>
<g>
	<path style="fill:#006837;" d="M22,50.678c0.69,0,1.25-0.56,1.25-1.25v-1c0-0.69-0.56-1.25-1.25-1.25s-1.25,0.56-1.25,1.25v1
		C20.75,50.119,21.31,50.678,22,50.678z"/>
	<path style="fill:#006837;" d="M22,43.678c0.69,0,1.25-0.56,1.25-1.25V30c0-2.619,2.131-4.75,4.75-4.75h43
		c2.619,0,4.75,2.131,4.75,4.75v18.353c0.85,0.154,1.689,0.34,2.5,0.593V30c0-3.998-3.252-7.25-7.25-7.25H28
		c-3.998,0-7.25,3.252-7.25,7.25v12.428C20.75,43.119,21.31,43.678,22,43.678z"/>
	<path style="fill:#006837;" d="M52.687,60.75H28c-2.619,0-4.75-2.131-4.75-4.75v-0.572c0-0.69-0.56-1.25-1.25-1.25
		s-1.25,0.56-1.25,1.25V56c0,3.998,3.252,7.25,7.25,7.25h23.817C52.06,62.395,52.342,61.557,52.687,60.75z"/>
</g>
<g>
	<path style="fill:#CEE35A;" d="M72,84c8.284,0,15-6.716,15-15s-6.716-15-15-15s-15,6.716-15,15S63.716,84,72,84z"/>
	<path style="fill:#006837;" d="M72,85.25c-8.96,0-16.25-7.29-16.25-16.25S63.04,52.75,72,52.75c3.35,0,6.565,1.011,9.3,2.923
		c0.566,0.396,0.704,1.175,0.309,1.741s-1.174,0.705-1.74,0.308C77.555,56.104,74.834,55.25,72,55.25
		c-7.582,0-13.75,6.168-13.75,13.75S64.418,82.75,72,82.75S85.75,76.582,85.75,69c0-0.439-0.021-0.879-0.062-1.307
		c-0.065-0.688,0.438-1.298,1.125-1.363c0.687-0.066,1.298,0.438,1.363,1.125c0.049,0.507,0.073,1.027,0.073,1.545
		C88.25,77.96,80.96,85.25,72,85.25z M85.203,63.123c-0.444,0-0.874-0.237-1.101-0.655c-0.146-0.27-0.301-0.535-0.464-0.793
		c-0.367-0.584-0.191-1.356,0.394-1.723c0.581-0.367,1.355-0.192,1.724,0.393c0.19,0.304,0.373,0.615,0.546,0.933
		c0.328,0.607,0.103,1.366-0.504,1.694C85.608,63.074,85.404,63.123,85.203,63.123z"/>
</g>
<path style="fill:#006837;" d="M76,72.568c0-1.333-0.649-2.559-1.73-3.315l-3.351-2.306c-0.468-0.36-0.757-0.901-0.757-1.514
	c0-1.009,0.829-1.838,1.838-1.838c0.757,0,1.405,0.432,1.694,1.117c0.216,0.541,0.865,0.793,1.405,0.577s0.793-0.865,0.577-1.405
	c-0.468-1.153-1.441-1.982-2.595-2.306v-0.144c0-0.613-0.468-1.081-1.081-1.081s-1.081,0.468-1.081,1.081v0.144
	C69.225,62.045,68,63.595,68,65.432c0,1.297,0.613,2.486,1.694,3.243l3.351,2.342c0.505,0.36,0.793,0.901,0.793,1.514
	c0,1.009-0.829,1.838-1.838,1.838c-0.721,0-1.405-0.432-1.694-1.117c-0.252-0.541-0.865-0.793-1.405-0.577
	c-0.541,0.252-0.793,0.865-0.577,1.405c0.505,1.117,1.441,1.946,2.595,2.27v0.216c0,0.613,0.468,1.081,1.081,1.081
	s1.081-0.468,1.081-1.081v-0.144C74.775,75.955,76,74.405,76,72.568z"/>
<g>
	<path style="fill:#006837;" d="M52.522,63.25h-3.057c-0.69,0-1.25-0.56-1.25-1.25s0.56-1.25,1.25-1.25h3.057
		c0.69,0,1.25,0.56,1.25,1.25S53.213,63.25,52.522,63.25z"/>
</g>
<g>
	<path style="fill:#006837;" d="M76.994,49.778c-0.69,0-1.25-0.56-1.25-1.25v-3.057c0-0.69,0.56-1.25,1.25-1.25s1.25,0.56,1.25,1.25
		v3.057C78.244,49.219,77.685,49.778,76.994,49.778z"/>
</g>
</svg>
