<?xml version="1.0" encoding="iso-8859-1"?>
<!-- Generator: Adobe Illustrator 18.0.0, SVG Export Plug-In . SVG Version: 6.00 Build 0)  -->
<!DOCTYPE svg PUBLIC "-//W3C//DTD SVG 1.1//EN" "http://www.w3.org/Graphics/SVG/1.1/DTD/svg11.dtd">
<svg version="1.1" id="Layer_2" xmlns="http://www.w3.org/2000/svg" xmlns:xlink="http://www.w3.org/1999/xlink" x="0px" y="0px"
	 width="100px" height="100px" viewBox="0 0 100 100" style="enable-background:new 0 0 100 100;" xml:space="preserve">
<path style="fill:#CEE35A;" d="M70,24H41v10h29V24z"/>
<g>
	<path style="fill:#006837;" d="M55.949,19.25h15.676c2.274,0,4.125,1.805,4.125,4.023v5.963c0,0.69,0.56,1.25,1.25,1.25
		s1.25-0.56,1.25-1.25v-5.963c0-3.597-2.972-6.523-6.625-6.523H55.949c-0.69,0-1.25,0.56-1.25,1.25S55.258,19.25,55.949,19.25z"/>
	<path style="fill:#006837;" d="M77,33.986c-0.69,0-1.25,0.56-1.25,1.25v16.117c0.85,0.154,1.689,0.34,2.5,0.593v-16.71
		C78.25,34.545,77.69,33.986,77,33.986z"/>
	<path style="fill:#006837;" d="M51.2,74.75H39.375c-2.274,0-4.125-1.805-4.125-4.023V23.273c0-2.218,1.851-4.023,4.125-4.023h3.574
		c0.69,0,1.25-0.56,1.25-1.25s-0.56-1.25-1.25-1.25h-3.574c-3.653,0-6.625,2.926-6.625,6.523v47.454
		c0,3.597,2.972,6.523,6.625,6.523h12.313C51.478,76.434,51.312,75.601,51.2,74.75z"/>
	<path style="fill:#006837;" d="M48.949,19.25h1c0.69,0,1.25-0.56,1.25-1.25s-0.56-1.25-1.25-1.25h-1c-0.69,0-1.25,0.56-1.25,1.25
		S48.258,19.25,48.949,19.25z"/>
</g>
<g>
	<path style="fill:#006837;" d="M23,77.25c-0.474,0-0.906-0.268-1.118-0.691l-2.9-5.8c-1.481-2.963-2.232-6.162-2.232-9.509v-7.754
		c0-0.69,0.56-1.25,1.25-1.25s1.25,0.56,1.25,1.25v7.754c0,2.956,0.662,5.779,1.968,8.391L23,73.205l1.782-3.564
		c1.289-2.532,1.968-5.414,1.968-8.341V23c0-2.068-1.682-3.75-3.75-3.75s-3.75,1.682-3.75,3.75v24.496c0,0.69-0.56,1.25-1.25,1.25
		s-1.25-0.56-1.25-1.25V23c0-3.446,2.804-6.25,6.25-6.25s6.25,2.804,6.25,6.25v38.3c0,3.32-0.773,6.594-2.236,9.467l-2.896,5.792
		C23.906,76.982,23.474,77.25,23,77.25z"/>
</g>
<g>
	<path style="fill:#47DD7E;" d="M23.5,40.5c-0.829,0-1.5-0.671-1.5-1.5v-8.08c0-0.829,0.671-1.5,1.5-1.5s1.5,0.671,1.5,1.5V39
		C25,39.829,24.329,40.5,23.5,40.5z M23.5,26.42c-0.829,0-1.5-0.671-1.5-1.5v-2c0-0.829,0.671-1.5,1.5-1.5s1.5,0.671,1.5,1.5v2
		C25,25.749,24.329,26.42,23.5,26.42z"/>
</g>
<g>
	<path style="fill:#47DD7E;" d="M46.5,53c-0.829,0-1.5-0.671-1.5-1.5v-10c0-0.829,0.671-1.5,1.5-1.5s1.5,0.671,1.5,1.5v10
		C48,52.329,47.329,53,46.5,53z"/>
</g>
<g>
	<path style="fill:#47DD7E;" d="M51.5,48h-10c-0.829,0-1.5-0.671-1.5-1.5s0.671-1.5,1.5-1.5h10c0.829,0,1.5,0.671,1.5,1.5
		S52.329,48,51.5,48z"/>
</g>
<g>
	<path style="fill:#47DD7E;" d="M51.5,66h-10c-0.829,0-1.5-0.671-1.5-1.5s0.671-1.5,1.5-1.5h10c0.829,0,1.5,0.671,1.5,1.5
		S52.329,66,51.5,66z"/>
</g>
<g>
	<path style="fill:#47DD7E;" d="M60.257,52.243c-0.384,0-0.768-0.146-1.061-0.439c-0.586-0.585-0.586-1.536,0-2.121l8.485-8.485
		c0.586-0.586,1.535-0.586,2.121,0c0.586,0.585,0.586,1.536,0,2.121l-8.485,8.485C61.025,52.096,60.641,52.243,60.257,52.243z"/>
</g>
<g>
	<path style="fill:#47DD7E;" d="M68.743,52.243c-0.384,0-0.768-0.146-1.061-0.439l-8.485-8.485c-0.586-0.585-0.586-1.536,0-2.121
		c0.586-0.586,1.535-0.586,2.121,0l8.485,8.485c0.586,0.585,0.586,1.536,0,2.121C69.51,52.096,69.126,52.243,68.743,52.243z"/>
</g>
<g>
	<path style="fill:#006837;" d="M77,53.875c-0.69,0-1.25-0.56-1.25-1.25v-7c0-0.69,0.56-1.25,1.25-1.25s1.25,0.56,1.25,1.25v7
		C78.25,53.315,77.69,53.875,77,53.875z"/>
</g>
<g>
	<path style="fill:#006837;" d="M52.125,77.25h-7c-0.69,0-1.25-0.56-1.25-1.25s0.56-1.25,1.25-1.25h7c0.69,0,1.25,0.56,1.25,1.25
		S52.815,77.25,52.125,77.25z"/>
</g>
<g>
	<path style="fill:#CEE35A;" d="M72,87c8.284,0,15-6.716,15-15s-6.716-15-15-15s-15,6.716-15,15S63.716,87,72,87z"/>
	<path style="fill:#006837;" d="M72,88.25c-8.96,0-16.25-7.29-16.25-16.25S63.04,55.75,72,55.75c3.349,0,6.565,1.011,9.3,2.923
		c0.566,0.396,0.704,1.175,0.308,1.741s-1.174,0.704-1.741,0.308C77.555,59.104,74.834,58.25,72,58.25
		c-7.582,0-13.75,6.168-13.75,13.75S64.418,85.75,72,85.75S85.75,79.582,85.75,72c0-0.438-0.021-0.878-0.062-1.309
		c-0.065-0.687,0.439-1.297,1.127-1.362c0.685-0.06,1.297,0.439,1.362,1.127c0.048,0.508,0.072,1.028,0.072,1.544
		C88.25,80.96,80.96,88.25,72,88.25z M85.203,66.123c-0.444,0-0.874-0.237-1.1-0.655c-0.146-0.269-0.3-0.533-0.463-0.791
		c-0.369-0.584-0.195-1.356,0.389-1.725s1.356-0.195,1.725,0.389c0.193,0.305,0.375,0.617,0.548,0.936
		c0.329,0.607,0.103,1.366-0.504,1.694C85.608,66.074,85.404,66.123,85.203,66.123z"/>
</g>
<path style="fill:#006837;" d="M76,75.568c0-1.333-0.649-2.559-1.73-3.315l-3.351-2.306c-0.468-0.36-0.757-0.901-0.757-1.514
	c0-1.009,0.829-1.838,1.838-1.838c0.757,0,1.405,0.432,1.694,1.117c0.216,0.541,0.865,0.793,1.405,0.577s0.793-0.865,0.577-1.405
	c-0.468-1.153-1.441-1.982-2.595-2.306v-0.144c0-0.613-0.468-1.081-1.081-1.081s-1.081,0.468-1.081,1.081v0.144
	C69.225,65.045,68,66.595,68,68.432c0,1.297,0.613,2.486,1.694,3.243l3.351,2.342c0.505,0.36,0.793,0.901,0.793,1.514
	c0,1.009-0.829,1.838-1.838,1.838c-0.721,0-1.405-0.432-1.694-1.117c-0.252-0.541-0.865-0.793-1.405-0.577
	c-0.541,0.252-0.793,0.865-0.577,1.405c0.505,1.117,1.441,1.946,2.595,2.27v0.216c0,0.613,0.468,1.081,1.081,1.081
	s1.081-0.468,1.081-1.081v-0.144C74.775,78.955,76,77.405,76,75.568z"/>
<g>
	<path style="fill:#47DD7E;" d="M89.032,93.216h-2.66c-1.197,0-2.17-0.974-2.17-2.17v-2.659c0-1.197,0.974-2.17,2.17-2.17h2.66
		c1.196,0,2.17,0.974,2.17,2.17v2.659C91.202,92.243,90.229,93.216,89.032,93.216z M86.373,88.216c-0.091,0-0.17,0.08-0.17,0.17
		v2.659c0,0.091,0.08,0.17,0.17,0.17h2.66c0.09,0,0.17-0.08,0.17-0.17v-2.659c0-0.092-0.078-0.17-0.17-0.17H86.373z"/>
</g>
<circle style="fill:#006837;" cx="86.702" cy="11.716" r="2"/>
<circle style="fill:#CEE35A;" cx="23" cy="9" r="2"/>
<circle style="fill:#CEE35A;" cx="27.923" cy="86.375" r="2"/>
<g>
	<path style="fill:#006837;" d="M19.202,90.216c-1.93,0-3.5-1.57-3.5-3.5s1.57-3.5,3.5-3.5s3.5,1.57,3.5,3.5
		S21.132,90.216,19.202,90.216z M19.202,85.216c-0.827,0-1.5,0.673-1.5,1.5s0.673,1.5,1.5,1.5s1.5-0.673,1.5-1.5
		S20.029,85.216,19.202,85.216z"/>
</g>
<g>
	<path style="fill:#CEE35A;" d="M12.5,67.008h-4c-0.552,0-1-0.448-1-1s0.448-1,1-1h4c0.552,0,1,0.448,1,1S13.052,67.008,12.5,67.008
		z"/>
</g>
<g>
	<path style="fill:#CEE35A;" d="M10.5,69.008c-0.552,0-1-0.448-1-1v-4c0-0.552,0.448-1,1-1s1,0.448,1,1v4
		C11.5,68.561,11.052,69.008,10.5,69.008z"/>
</g>
<g>
	<path style="fill:#47DD7E;" d="M62.325,11.349h-4c-0.552,0-1-0.448-1-1s0.448-1,1-1h4c0.552,0,1,0.448,1,1
		S62.877,11.349,62.325,11.349z"/>
</g>
<g>
	<path style="fill:#47DD7E;" d="M60.325,13.349c-0.552,0-1-0.448-1-1v-4c0-0.552,0.448-1,1-1s1,0.448,1,1v4
		C61.325,12.901,60.877,13.349,60.325,13.349z"/>
</g>
<g>
	<path style="fill:#CEE35A;" d="M82.535,44.133c-0.262,0-0.517-0.103-0.707-0.293c-0.253-0.252-0.352-0.621-0.259-0.966l1.495-5.577
		c0.092-0.345,0.362-0.615,0.707-0.707c0.344-0.091,0.713,0.006,0.966,0.259l4.082,4.083c0.253,0.252,0.352,0.621,0.259,0.966
		c-0.092,0.345-0.362,0.615-0.707,0.707l-5.577,1.494C82.708,44.122,82.621,44.133,82.535,44.133z M84.547,39.488l-0.598,2.231
		l2.23-0.598L84.547,39.488z"/>
</g>
</svg>
