<svg width="180" height="180" viewBox="0 0 180 180" fill="none" xmlns="http://www.w3.org/2000/svg">
  <path
    d="M6 51C6 42.1634 13.1634 35 22 35H158C166.837 35 174 42.1634 174 51V129C174 137.837 166.837 145 158 145H22C13.1634 145 6 137.837 6 129V51Z"
    fill="white" />
  <path fillRule="evenodd" clipRule="evenodd"
    d="M2 51C2 39.9543 10.9543 31 22 31H158C169.046 31 178 39.9543 178 51V129C178 140.046 169.046 149 158 149H22C10.9543 149 2 140.046 2 129V51ZM22 39C15.3726 39 10 44.3726 10 51V129C10 135.627 15.3726 141 22 141H158C164.627 141 170 135.627 170 129V51C170 44.3726 164.627 39 158 39H22Z"
    fill="#179439" />
  <path
    d="M132 110C132 118.284 125.284 125 117 125C108.716 125 102 118.284 102 110C102 101.716 108.716 95 117 95C125.284 95 132 101.716 132 110Z"
    fill="#C8E54E" />
  <path
    d="M154 110C154 118.284 147.284 125 139 125C130.716 125 124 118.284 124 110C124 101.716 130.716 95 139 95C147.284 95 154 101.716 154 110Z"
    fill="#179439" />
  <path fillRule="evenodd" clipRule="evenodd"
    d="M128 120.198C130.482 117.522 132 113.938 132 110C132 106.062 130.482 102.478 128 99.8018C125.518 102.478 124 106.062 124 110C124 113.938 125.518 117.522 128 120.198Z"
    fill="#095A31" />
  <path fillRule="evenodd" clipRule="evenodd"
    d="M22 107C22 104.791 23.7909 103 26 103H54C56.2091 103 58 104.791 58 107C58 109.209 56.2091 111 54 111H26C23.7909 111 22 109.209 22 107Z"
    fill="#BAC8DC" />
  <path fillRule="evenodd" clipRule="evenodd"
    d="M22 90C22 87.7909 23.7909 86 26 86H86C88.2091 86 90 87.7909 90 90C90 92.2091 88.2091 94 86 94H26C23.7909 94 22 92.2091 22 90Z"
    fill="#BAC8DC" />
  <path d="M10 53H170V71H10V53Z" fill="#C8E54E" />
  <path fillRule="evenodd" clipRule="evenodd"
    d="M110 35C110 15.67 125.67 0 145 0C164.33 0 180 15.67 180 35C180 54.33 164.33 70 145 70C125.67 70 110 54.33 110 35Z"
    fill="#095A31" />
  <path
    d="M174.167 34.9999C174.167 51.1082 161.108 64.1666 145 64.1666C128.892 64.1666 115.833 51.1082 115.833 34.9999C115.833 18.8916 128.892 5.83325 145 5.83325C161.108 5.83325 174.167 18.8916 174.167 34.9999Z"
    fill="#179439" />
  <path fillRule="evenodd" clipRule="evenodd"
    d="M145 16.3333C146.289 16.3333 147.333 17.3779 147.333 18.6666V22.4182H150.833C154.255 22.4182 156.667 25.3937 156.667 28.5947C156.667 29.8834 155.622 30.928 154.333 30.928C153.045 30.928 152 29.8834 152 28.5947C152 27.5507 151.277 27.0849 150.833 27.0849H139.167C138.723 27.0849 138 27.5507 138 28.5947V31.1568C138 32.2008 138.723 32.6666 139.167 32.6666H150.833C154.255 32.6666 156.667 35.6421 156.667 38.8431V41.4051C156.667 44.6061 154.255 47.5816 150.833 47.5816H147.333V51.3332C147.333 52.6219 146.289 53.6666 145 53.6666C143.711 53.6666 142.667 52.6219 142.667 51.3332V47.5816H139.167C135.744 47.5816 133.333 44.6061 133.333 41.4051C133.333 40.1165 134.378 39.0718 135.667 39.0718C136.955 39.0718 138 40.1165 138 41.4051C138 42.4492 138.723 42.9149 139.167 42.9149H150.833C151.277 42.9149 152 42.4492 152 41.4051V38.8431C152 37.799 151.277 37.3332 150.833 37.3332H139.167C135.744 37.3332 133.333 34.3578 133.333 31.1568V28.5947C133.333 25.3937 135.744 22.4182 139.167 22.4182H142.667V18.6666C142.667 17.3779 143.711 16.3333 145 16.3333Z"
    fill="white" />
</svg>