<svg width="180" height="180" viewBox="0 0 180 180" fill="none" xmlns="http://www.w3.org/2000/svg">
  <path
    d="M4 64C4 55.1634 11.1634 48 20 48H156C164.837 48 172 55.1634 172 64V142C172 150.837 164.837 158 156 158H20C11.1634 158 4 150.837 4 142V64Z"
    fill="white" />
  <path fillRule="evenodd" clipRule="evenodd"
    d="M20 52C13.3726 52 8 57.3726 8 64V142C8 148.627 13.3726 154 20 154H156C162.627 154 168 148.627 168 142V93C168 90.7909 169.791 89 172 89C174.209 89 176 90.7909 176 93V142C176 153.046 167.046 162 156 162H20C8.95431 162 0 153.046 0 142V64C0 52.9543 8.95431 44 20 44H75C77.2091 44 79 45.7909 79 48C79 50.2091 77.2091 52 75 52H20Z"
    fill="#179439" />
  <path
    d="M130 123C130 131.284 123.284 138 115 138C106.716 138 100 131.284 100 123C100 114.716 106.716 108 115 108C123.284 108 130 114.716 130 123Z"
    fill="#C8E54E" />
  <path
    d="M152 123C152 131.284 145.284 138 137 138C128.716 138 122 131.284 122 123C122 114.716 128.716 108 137 108C145.284 108 152 114.716 152 123Z"
    fill="#179439" />
  <path fillRule="evenodd" clipRule="evenodd"
    d="M126 133.198C128.482 130.522 130 126.938 130 123C130 119.062 128.482 115.478 126 112.802C123.518 115.478 122 119.062 122 123C122 126.938 123.518 130.522 126 133.198Z"
    fill="#095A31" />
  <path fillRule="evenodd" clipRule="evenodd"
    d="M20 120C20 117.791 21.7909 116 24 116H52C54.2091 116 56 117.791 56 120C56 122.209 54.2091 124 52 124H24C21.7909 124 20 122.209 20 120Z"
    fill="#BAC8DC" />
  <path fillRule="evenodd" clipRule="evenodd"
    d="M20 103C20 100.791 21.7909 99 24 99H84C86.2091 99 88 100.791 88 103C88 105.209 86.2091 107 84 107H24C21.7909 107 20 105.209 20 103Z"
    fill="#BAC8DC" />
  <path fillRule="evenodd" clipRule="evenodd"
    d="M170.247 79C173.906 72.7243 176 65.4381 176 57.6667C176 34.1025 156.748 15 133 15C109.252 15 90 34.1025 90 57.6667C90 65.4381 92.094 72.7243 95.7526 79H170.247Z"
    fill="white" />
  <path fillRule="evenodd" clipRule="evenodd"
    d="M133 19C111.431 19 94 36.3409 94 57.6667C94 63.9042 95.4868 69.7888 98.1276 75H167.872C170.513 69.7888 172 63.9042 172 57.6667C172 36.3409 154.569 19 133 19ZM86 57.6667C86 31.8641 107.072 11 133 11C158.928 11 180 31.8641 180 57.6667C180 66.1662 177.708 74.1451 173.703 81.0146C172.986 82.244 171.67 83 170.247 83H95.7526C94.3296 83 93.0137 82.244 92.297 81.0146C88.2922 74.1451 86 66.1662 86 57.6667Z"
    fill="#095A31" />
  <path d="M149.313 37.4822C150.029 36.5939 151.435 37.4057 151.024 38.4702L141.66 62.7129L133 57.7129L149.313 37.4822Z"
    fill="#9DC346" />
  <path d="M114 70C114 59.5066 122.507 51 133 51C143.493 51 152 59.5066 152 70V75H114V70Z" fill="#179439" />
  <path
    d="M136 26C136 27.6569 134.657 29 133 29C131.343 29 130 27.6569 130 26C130 24.3431 131.343 23 133 23C134.657 23 136 24.3431 136 26Z"
    fill="#C8E54E" />
  <path
    d="M166 48C166 49.6569 164.657 51 163 51C161.343 51 160 49.6569 160 48C160 46.3431 161.343 45 163 45C164.657 45 166 46.3431 166 48Z"
    fill="#C8E54E" />
  <path
    d="M106 48C106 49.6569 104.657 51 103 51C101.343 51 100 49.6569 100 48C100 46.3431 101.343 45 103 45C104.657 45 106 46.3431 106 48Z"
    fill="#C8E54E" />
  <path
    d="M117 33C117 34.6569 115.657 36 114 36C112.343 36 111 34.6569 111 33C111 31.3431 112.343 30 114 30C115.657 30 117 31.3431 117 33Z"
    fill="#C8E54E" />
  <path
    d="M166 66C166 67.6569 164.657 69 163 69C161.343 69 160 67.6569 160 66C160 64.3431 161.343 63 163 63C164.657 63 166 64.3431 166 66Z"
    fill="#C8E54E" />
  <path
    d="M106 66C106 67.6569 104.657 69 103 69C101.343 69 100 67.6569 100 66C100 64.3431 101.343 63 103 63C104.657 63 106 64.3431 106 66Z"
    fill="#C8E54E" />
  <rect x="8" y="66" width="69" height="13" fill="#C8E54E" />
  <path
    d="M159 77C159 91.3594 147.359 103 133 103C118.641 103 107 91.3594 107 77C107 62.6406 118.641 51 133 51C147.359 51 159 62.6406 159 77Z"
    fill="#179439" />
  <path fillRule="evenodd" clipRule="evenodd"
    d="M142.109 63.3359C143.028 63.9486 143.277 65.1903 142.664 66.1094L126.664 90.1094C126.051 91.0284 124.81 91.2768 123.891 90.6641C122.972 90.0514 122.723 88.8096 123.336 87.8906L139.336 63.8906C139.949 62.9715 141.19 62.7232 142.109 63.3359Z"
    fill="white" />
  <path fillRule="evenodd" clipRule="evenodd"
    d="M124 69C123.448 69 123 69.4477 123 70C123 70.5523 123.448 71 124 71C124.552 71 125 70.5523 125 70C125 69.4477 124.552 69 124 69ZM119 70C119 67.2386 121.239 65 124 65C126.761 65 129 67.2386 129 70C129 72.7614 126.761 75 124 75C121.239 75 119 72.7614 119 70Z"
    fill="white" />
  <path fillRule="evenodd" clipRule="evenodd"
    d="M142 83C141.448 83 141 83.4477 141 84C141 84.5523 141.448 85 142 85C142.552 85 143 84.5523 143 84C143 83.4477 142.552 83 142 83ZM137 84C137 81.2386 139.239 79 142 79C144.761 79 147 81.2386 147 84C147 86.7614 144.761 89 142 89C139.239 89 137 86.7614 137 84Z"
    fill="white" />
</svg>