<svg width="180" height="180" viewBox="0 0 180 180" fill="none" xmlns="http://www.w3.org/2000/svg">
  <path
    d="M20 30C20 27.7909 21.7909 26 24 26H136C138.209 26 140 27.7909 140 30V172C140 174.209 138.209 176 136 176H24C21.7909 176 20 174.209 20 172V30Z"
    fill="white" />
  <path fillRule="evenodd" clipRule="evenodd"
    d="M16 30C16 25.5817 19.5817 22 24 22H136C140.418 22 144 25.5817 144 30V172C144 176.418 140.418 180 136 180H24C19.5817 180 16 176.418 16 172V30ZM136 30L24 30V172H136V30Z"
    fill="#095A31" />
  <path d="M35 34H125V162H35V34Z" fill="white" />
  <path fillRule="evenodd" clipRule="evenodd"
    d="M94.8284 55.1716C96.3905 56.7337 96.3905 59.2663 94.8284 60.8284L70.8284 84.8284C69.2663 86.3905 66.7337 86.3905 65.1716 84.8284C63.6095 83.2663 63.6095 80.7337 65.1716 79.1716L89.1716 55.1716C90.7337 53.6095 93.2663 53.6095 94.8284 55.1716Z"
    fill="#9DC346" />
  <path fillRule="evenodd" clipRule="evenodd"
    d="M65.1716 55.1716C63.6095 56.7337 63.6095 59.2663 65.1716 60.8284L89.1716 84.8284C90.7337 86.3905 93.2663 86.3905 94.8284 84.8284C96.3905 83.2663 96.3905 80.7337 94.8284 79.1716L70.8284 55.1716C69.2663 53.6095 66.7337 53.6095 65.1716 55.1716Z"
    fill="#9DC346" />
  <path fillRule="evenodd" clipRule="evenodd"
    d="M31 34C31 31.7909 32.7909 30 35 30H125C127.209 30 129 31.7909 129 34V162C129 164.209 127.209 166 125 166H35C32.7909 166 31 164.209 31 162V34ZM39 38V158H121V38H39Z"
    fill="#9DC346" />
  <path d="M39 30H121V44H39V30Z" fill="#DFEBFD" />
  <path fillRule="evenodd" clipRule="evenodd"
    d="M90.8341 14H110C111.105 14 112 14.8954 112 16V32C112 33.1046 111.105 34 110 34H50C48.8954 34 48 33.1046 48 32V16C48 14.8954 48.8954 14 50 14H67.1659C68.1181 8.32457 73.054 4 79 4C84.946 4 89.8819 8.32457 90.8341 14Z"
    fill="white" />
  <path fillRule="evenodd" clipRule="evenodd"
    d="M79 8C75.04 8 71.745 10.8812 71.1108 14.6618C70.7875 16.5886 69.1197 18 67.1659 18H52V30H108V18H90.8341C88.8803 18 87.2125 16.5886 86.8892 14.6618C86.255 10.8812 82.96 8 79 8ZM64.1642 10C66.5381 4.13597 72.2832 0 79 0C85.7168 0 91.4619 4.13597 93.8358 10H110C113.314 10 116 12.6863 116 16V32C116 35.3137 113.314 38 110 38H50C46.6863 38 44 35.3137 44 32V16C44 12.6863 46.6863 10 50 10H64.1642Z"
    fill="#179439" />
  <path
    d="M81 16C81 17.1046 80.1046 18 79 18C77.8954 18 77 17.1046 77 16C77 14.8954 77.8954 14 79 14C80.1046 14 81 14.8954 81 16Z"
    fill="#179439" />
  <path d="M61.5381 103.548H106.538L103.077 124.452H67.3073L61.5381 103.548Z" fill="#C8E54E" />
  <path fillRule="evenodd" clipRule="evenodd"
    d="M67.6822 122.71C68.9567 122.71 69.9899 123.75 69.9899 125.033V133.162C69.9899 135.086 71.5397 136.646 73.4514 136.646H99.6153C100.89 136.646 101.923 137.686 101.923 138.969C101.923 140.251 100.89 141.291 99.6153 141.291H73.4514C68.9907 141.291 65.3745 137.652 65.3745 133.162V125.033C65.3745 123.75 66.4077 122.71 67.6822 122.71Z"
    fill="#179439" />
  <path fillRule="evenodd" clipRule="evenodd"
    d="M50 98.3226C50 97.0399 51.0332 96 52.3077 96H55.0235C59.1663 96 62.8017 98.7779 63.9148 102.794L69.4344 122.71H98.3399C100.604 122.71 102.533 121.057 102.896 118.808L104.98 105.871H70.1923C68.9178 105.871 67.8846 104.831 67.8846 103.548C67.8846 102.266 68.9178 101.226 70.1923 101.226H107.692C108.369 101.226 109.011 101.525 109.45 102.043C109.888 102.562 110.079 103.248 109.97 103.92L107.452 119.552C106.727 124.05 102.868 127.355 98.3399 127.355H67.6823C66.6466 127.355 65.7378 126.66 65.4595 125.656L59.4691 104.042C58.9126 102.034 57.0949 100.645 55.0235 100.645H52.3077C51.0332 100.645 50 99.6053 50 98.3226Z"
    fill="#095A31" />
  <path
    d="M80.0002 146.516C80.0002 148.44 78.4504 150 76.5387 150C74.6269 150 73.0771 148.44 73.0771 146.516C73.0771 144.592 74.6269 143.032 76.5387 143.032C78.4504 143.032 80.0002 144.592 80.0002 146.516Z"
    fill="#095A31" />
  <path
    d="M97.3078 146.516C97.3078 148.44 95.7581 150 93.8463 150C91.9345 150 90.3848 148.44 90.3848 146.516C90.3848 144.592 91.9345 143.032 93.8463 143.032C95.7581 143.032 97.3078 144.592 97.3078 146.516Z"
    fill="#095A31" />
  <path fillRule="evenodd" clipRule="evenodd"
    d="M110 35C110 15.67 125.67 0 145 0C164.33 0 180 15.67 180 35C180 54.33 164.33 70 145 70C125.67 70 110 54.33 110 35Z"
    fill="#095A31" />
  <path
    d="M174.167 34.9999C174.167 51.1082 161.108 64.1666 145 64.1666C128.892 64.1666 115.833 51.1082 115.833 34.9999C115.833 18.8916 128.892 5.83325 145 5.83325C161.108 5.83325 174.167 18.8916 174.167 34.9999Z"
    fill="#179439" />
  <path fillRule="evenodd" clipRule="evenodd"
    d="M145 16.3333C146.289 16.3333 147.333 17.3779 147.333 18.6666V22.4182H150.833C154.256 22.4182 156.667 25.3937 156.667 28.5947C156.667 29.8834 155.622 30.928 154.333 30.928C153.045 30.928 152 29.8834 152 28.5947C152 27.5507 151.277 27.0849 150.833 27.0849H139.167C138.723 27.0849 138 27.5507 138 28.5947V31.1568C138 32.2008 138.723 32.6666 139.167 32.6666H150.833C154.256 32.6666 156.667 35.6421 156.667 38.8431V41.4051C156.667 44.6061 154.256 47.5816 150.833 47.5816H147.333V51.3332C147.333 52.6219 146.289 53.6666 145 53.6666C143.711 53.6666 142.667 52.6219 142.667 51.3332V47.5816H139.167C135.744 47.5816 133.333 44.6061 133.333 41.4051C133.333 40.1165 134.378 39.0718 135.667 39.0718C136.955 39.0718 138 40.1165 138 41.4051C138 42.4492 138.723 42.9149 139.167 42.9149H150.833C151.277 42.9149 152 42.4492 152 41.4051V38.8431C152 37.799 151.277 37.3332 150.833 37.3332H139.167C135.744 37.3332 133.333 34.3578 133.333 31.1568V28.5947C133.333 25.3937 135.744 22.4182 139.167 22.4182H142.667V18.6666C142.667 17.3779 143.711 16.3333 145 16.3333Z"
    fill="white" />
</svg>