<svg width="160" height="160" viewBox="0 0 160 160" fill="none" xmlns="http://www.w3.org/2000/svg">
  <path fillRule="evenodd" clipRule="evenodd"
    d="M16.25 16.875C17.2855 16.875 18.125 17.7145 18.125 18.75V21.875H21.25C22.2855 21.875 23.125 22.7145 23.125 23.75C23.125 24.7855 22.2855 25.625 21.25 25.625H18.125V28.75C18.125 29.7855 17.2855 30.625 16.25 30.625C15.2145 30.625 14.375 29.7855 14.375 28.75V25.625H11.25C10.2145 25.625 9.375 24.7855 9.375 23.75C9.375 22.7145 10.2145 21.875 11.25 21.875L14.375 21.875V18.75C14.375 17.7145 15.2145 16.875 16.25 16.875Z"
    fill="#DFEBFD" />
  <path fillRule="evenodd" clipRule="evenodd"
    d="M145 97.5C146.036 97.5 146.875 98.3395 146.875 99.375V102.5H150C151.036 102.5 151.875 103.339 151.875 104.375C151.875 105.411 151.036 106.25 150 106.25H146.875V109.375C146.875 110.411 146.036 111.25 145 111.25C143.964 111.25 143.125 110.411 143.125 109.375V106.25H140C138.964 106.25 138.125 105.411 138.125 104.375C138.125 103.339 138.964 102.5 140 102.5L143.125 102.5V99.375C143.125 98.3395 143.964 97.5 145 97.5Z"
    fill="#DFEBFD" />
  <path
    d="M61.25 146.25C61.25 147.976 59.8509 149.375 58.125 149.375C56.3991 149.375 55 147.976 55 146.25C55 144.524 56.3991 143.125 58.125 143.125C59.8509 143.125 61.25 144.524 61.25 146.25Z"
    fill="#C8E54E" />
  <path fillRule="evenodd" clipRule="evenodd"
    d="M150 134.375C149.31 134.375 148.75 134.935 148.75 135.625C148.75 136.315 149.31 136.875 150 136.875C150.69 136.875 151.25 136.315 151.25 135.625C151.25 134.935 150.69 134.375 150 134.375ZM143.75 135.625C143.75 132.173 146.548 129.375 150 129.375C153.452 129.375 156.25 132.173 156.25 135.625C156.25 139.077 153.452 141.875 150 141.875C146.548 141.875 143.75 139.077 143.75 135.625Z"
    fill="#C8E54E" />
  <path fillRule="evenodd" clipRule="evenodd"
    d="M15.625 73.75C14.5895 73.75 13.75 74.5895 13.75 75.625C13.75 76.6605 14.5895 77.5 15.625 77.5C16.6605 77.5 17.5 76.6605 17.5 75.625C17.5 74.5895 16.6605 73.75 15.625 73.75ZM8.75 75.625C8.75 71.828 11.828 68.75 15.625 68.75C19.422 68.75 22.5 71.828 22.5 75.625C22.5 79.422 19.422 82.5 15.625 82.5C11.828 82.5 8.75 79.422 8.75 75.625Z"
    fill="#DFEBFD" />
  <path fillRule="evenodd" clipRule="evenodd"
    d="M143.125 11.25C142.089 11.25 141.25 12.0895 141.25 13.125C141.25 14.1605 142.089 15 143.125 15C144.161 15 145 14.1605 145 13.125C145 12.0895 144.161 11.25 143.125 11.25ZM136.25 13.125C136.25 9.32804 139.328 6.25 143.125 6.25C146.922 6.25 150 9.32804 150 13.125C150 16.922 146.922 20 143.125 20C139.328 20 136.25 16.922 136.25 13.125Z"
    fill="#DFEBFD" />
  <path fillRule="evenodd" clipRule="evenodd"
    d="M23.125 136.875C24.0182 136.875 24.8435 137.351 25.2901 138.125L29.6202 145.625C30.0668 146.399 30.0668 147.351 29.6202 148.125C29.1737 148.899 28.3483 149.375 27.4552 149.375H18.7949C17.9018 149.375 17.0764 148.899 16.6299 148.125C16.1833 147.351 16.1833 146.399 16.6299 145.625L20.96 138.125C21.4066 137.351 22.2319 136.875 23.125 136.875Z"
    fill="#C8E54E" />
  <path fillRule="evenodd" clipRule="evenodd"
    d="M115.625 142.5C116.518 142.5 117.344 142.976 117.79 143.75L122.12 151.25C122.567 152.024 122.567 152.976 122.12 153.75C121.674 154.524 120.848 155 119.955 155H111.295C110.402 155 109.576 154.524 109.13 153.75C108.683 152.976 108.683 152.024 109.13 151.25L113.46 143.75C113.907 142.976 114.732 142.5 115.625 142.5Z"
    fill="#DFEBFD" />
  <g clip-path="url(#clip0)">
    <path
      d="M36.5 42.75C36.5 41.3693 37.6193 40.25 39 40.25H109C110.381 40.25 111.5 41.3693 111.5 42.75V131.5C111.5 132.881 110.381 134 109 134H39C37.6193 134 36.5 132.881 36.5 131.5V42.75Z"
      fill="white" />
    <path fillRule="evenodd" clipRule="evenodd"
      d="M34 42.75C34 39.9886 36.2386 37.75 39 37.75H109C111.761 37.75 114 39.9886 114 42.75V131.5C114 134.261 111.761 136.5 109 136.5H39C36.2386 136.5 34 134.261 34 131.5V42.75ZM109 42.75L39 42.75V131.5H109V42.75Z"
      fill="#095A31" />
    <path d="M45.875 45.25H102.125V125.25H45.875V45.25Z" fill="white" />
    <path fillRule="evenodd" clipRule="evenodd"
      d="M83.2678 58.4822C84.2441 59.4585 84.2441 61.0415 83.2678 62.0178L68.2678 77.0178C67.2915 77.9941 65.7085 77.9941 64.7322 77.0178C63.7559 76.0415 63.7559 74.4585 64.7322 73.4822L79.7322 58.4822C80.7085 57.5059 82.2915 57.5059 83.2678 58.4822Z"
      fill="#9DC346" />
    <path fillRule="evenodd" clipRule="evenodd"
      d="M64.7322 58.4822C63.7559 59.4585 63.7559 61.0415 64.7322 62.0178L79.7322 77.0178C80.7085 77.9941 82.2915 77.9941 83.2678 77.0178C84.2441 76.0415 84.2441 74.4585 83.2678 73.4822L68.2678 58.4822C67.2915 57.5059 65.7085 57.5059 64.7322 58.4822Z"
      fill="#9DC346" />
    <path fillRule="evenodd" clipRule="evenodd"
      d="M43.375 45.25C43.375 43.8693 44.4943 42.75 45.875 42.75H102.125C103.506 42.75 104.625 43.8693 104.625 45.25V125.25C104.625 126.631 103.506 127.75 102.125 127.75H45.875C44.4943 127.75 43.375 126.631 43.375 125.25V45.25ZM48.375 47.75V122.75H99.625V47.75H48.375Z"
      fill="#9DC346" />
    <path d="M48.375 42.75H99.625V51.5H48.375V42.75Z" fill="#DFEBFD" />
    <path fillRule="evenodd" clipRule="evenodd"
      d="M80.7713 32.75H92.75C93.4403 32.75 94 33.3096 94 34V44C94 44.6904 93.4403 45.25 92.75 45.25H55.25C54.5596 45.25 54 44.6904 54 44V34C54 33.3096 54.5596 32.75 55.25 32.75H65.9787C66.5738 29.2029 69.6588 26.5 73.375 26.5C77.0912 26.5 80.1762 29.2029 80.7713 32.75Z"
      fill="white" />
    <path fillRule="evenodd" clipRule="evenodd"
      d="M73.375 29C70.9 29 68.8407 30.8008 68.4442 33.1636C68.2422 34.3679 67.1998 35.25 65.9787 35.25H56.5V42.75H91.5V35.25H80.7713C79.5502 35.25 78.5078 34.3679 78.3058 33.1636C77.9093 30.8008 75.85 29 73.375 29ZM64.1026 30.25C65.5863 26.585 69.177 24 73.375 24C77.573 24 81.1637 26.585 82.6474 30.25H92.75C94.8211 30.25 96.5 31.9289 96.5 34V44C96.5 46.0711 94.8211 47.75 92.75 47.75H55.25C53.1789 47.75 51.5 46.0711 51.5 44V34C51.5 31.9289 53.1789 30.25 55.25 30.25H64.1026Z"
      fill="#179439" />
    <path
      d="M74.625 34C74.625 34.6904 74.0654 35.25 73.375 35.25C72.6846 35.25 72.125 34.6904 72.125 34C72.125 33.3096 72.6846 32.75 73.375 32.75C74.0654 32.75 74.625 33.3096 74.625 34Z"
      fill="#179439" />
    <path d="M62.4609 88.7178H90.5859L88.4225 101.782H66.0667L62.4609 88.7178Z" fill="#C8E54E" />
    <path fillRule="evenodd" clipRule="evenodd"
      d="M66.3017 100.694C67.0982 100.694 67.744 101.344 67.744 102.146V107.226C67.744 108.429 68.7126 109.404 69.9075 109.404H86.2598C87.0564 109.404 87.7022 110.054 87.7022 110.855C87.7022 111.657 87.0564 112.307 86.2598 112.307H69.9075C67.1195 112.307 64.8594 110.032 64.8594 107.226V102.146C64.8594 101.344 65.5051 100.694 66.3017 100.694Z"
      fill="#179439" />
    <path fillRule="evenodd" clipRule="evenodd"
      d="M55.25 85.4516C55.25 84.6499 55.8957 84 56.6923 84H58.3897C60.9789 84 63.2511 85.7362 63.9468 88.2464L67.3965 100.694H85.4624C86.8773 100.694 88.0834 99.6608 88.3099 98.2551L89.6126 90.1694H67.8702C67.0736 90.1694 66.4279 89.5195 66.4279 88.7178C66.4279 87.9161 67.0736 87.2661 67.8702 87.2661H91.3077C91.7305 87.2661 92.1321 87.4529 92.4061 87.777C92.6802 88.1012 92.7991 88.53 92.7314 88.9501L91.1573 98.7198C90.7043 101.531 88.2922 103.597 85.4624 103.597H66.3014C65.6541 103.597 65.0861 103.163 64.9122 102.535L61.1682 89.0264C60.8204 87.7713 59.6843 86.9032 58.3897 86.9032H56.6923C55.8957 86.9032 55.25 86.2533 55.25 85.4516Z"
      fill="#095A31" />
    <path
      d="M73.9998 115.573C73.9998 116.775 73.0312 117.75 71.8363 117.75C70.6415 117.75 69.6729 116.775 69.6729 115.573C69.6729 114.37 70.6415 113.395 71.8363 113.395C73.0312 113.395 73.9998 114.37 73.9998 115.573Z"
      fill="#095A31" />
    <path
      d="M84.8172 115.573C84.8172 116.775 83.8485 117.75 82.6537 117.75C81.4588 117.75 80.4902 116.775 80.4902 115.573C80.4902 114.37 81.4588 113.395 82.6537 113.395C83.8485 113.395 84.8172 114.37 84.8172 115.573Z"
      fill="#095A31" />
    <path fillRule="evenodd" clipRule="evenodd"
      d="M92.75 45.875C92.75 33.7938 102.544 24 114.625 24C126.706 24 136.5 33.7938 136.5 45.875C136.5 57.9562 126.706 67.75 114.625 67.75C102.544 67.75 92.75 57.9562 92.75 45.875Z"
      fill="#095A31" />
    <path
      d="M132.854 45.875C132.854 55.9427 124.692 64.1042 114.625 64.1042C104.557 64.1042 96.3955 55.9427 96.3955 45.875C96.3955 35.8074 104.557 27.6459 114.625 27.6459C124.692 27.6459 132.854 35.8074 132.854 45.875Z"
      fill="#179439" />
    <path fillRule="evenodd" clipRule="evenodd"
      d="M114.625 34.2084C115.43 34.2084 116.083 34.8613 116.083 35.6667V38.0115H118.271C120.409 38.0115 121.916 39.8711 121.916 41.8718C121.916 42.6772 121.263 43.3301 120.458 43.3301C119.653 43.3301 119 42.6772 119 41.8718C119 41.2193 118.548 40.9281 118.271 40.9281H110.979C110.701 40.9281 110.25 41.2193 110.25 41.8718V43.4731C110.25 44.1256 110.701 44.4167 110.979 44.4167H118.271C120.409 44.4167 121.916 46.2764 121.916 48.277V49.8783C121.916 51.8789 120.409 53.7386 118.271 53.7386H116.083V56.0834C116.083 56.8888 115.43 57.5417 114.625 57.5417C113.819 57.5417 113.166 56.8888 113.166 56.0834V53.7386H110.979C108.84 53.7386 107.333 51.8789 107.333 49.8783C107.333 49.0729 107.986 48.42 108.791 48.42C109.597 48.42 110.25 49.0729 110.25 49.8783C110.25 50.5308 110.701 50.8219 110.979 50.8219H118.271C118.548 50.8219 119 50.5308 119 49.8783V48.277C119 47.6245 118.548 47.3334 118.271 47.3334H110.979C108.84 47.3334 107.333 45.4737 107.333 43.4731V41.8718C107.333 39.8711 108.84 38.0115 110.979 38.0115H113.166V35.6667C113.166 34.8613 113.819 34.2084 114.625 34.2084Z"
      fill="white" />
  </g>
  <defs>
    <clipPath id="clip0">
      <rect width="112.5" height="112.5" fill="white" transform="translate(24 24)" />
    </clipPath>
  </defs>
</svg>