<svg width="160" height="160" viewBox="0 0 160 160" fill="none" xmlns="http://www.w3.org/2000/svg">
  <path fillRule="evenodd" clipRule="evenodd"
    d="M16.25 16.875C17.2855 16.875 18.125 17.7145 18.125 18.75V21.875H21.25C22.2855 21.875 23.125 22.7145 23.125 23.75C23.125 24.7855 22.2855 25.625 21.25 25.625H18.125V28.75C18.125 29.7855 17.2855 30.625 16.25 30.625C15.2145 30.625 14.375 29.7855 14.375 28.75V25.625H11.25C10.2145 25.625 9.375 24.7855 9.375 23.75C9.375 22.7145 10.2145 21.875 11.25 21.875L14.375 21.875V18.75C14.375 17.7145 15.2145 16.875 16.25 16.875Z"
    fill="#DFEBFD" />
  <path fillRule="evenodd" clipRule="evenodd"
    d="M151.25 68.125C152.286 68.125 153.125 68.9645 153.125 70V73.125H156.25C157.286 73.125 158.125 73.9645 158.125 75C158.125 76.0355 157.286 76.875 156.25 76.875H153.125V80C153.125 81.0355 152.286 81.875 151.25 81.875C150.214 81.875 149.375 81.0355 149.375 80V76.875H146.25C145.214 76.875 144.375 76.0355 144.375 75C144.375 73.9645 145.214 73.125 146.25 73.125L149.375 73.125V70C149.375 68.9645 150.214 68.125 151.25 68.125Z"
    fill="#C8E54E" />
  <path fillRule="evenodd" clipRule="evenodd"
    d="M146.25 138.125C147.286 138.125 148.125 138.964 148.125 140V143.125H151.25C152.286 143.125 153.125 143.964 153.125 145C153.125 146.036 152.286 146.875 151.25 146.875H148.125V150C148.125 151.036 147.286 151.875 146.25 151.875C145.214 151.875 144.375 151.036 144.375 150V146.875H141.25C140.214 146.875 139.375 146.036 139.375 145C139.375 143.964 140.214 143.125 141.25 143.125L144.375 143.125V140C144.375 138.964 145.214 138.125 146.25 138.125Z"
    fill="#DFEBFD" />
  <path fillRule="evenodd" clipRule="evenodd"
    d="M17.5 103.75C18.5355 103.75 19.375 104.589 19.375 105.625V108.75H22.5C23.5355 108.75 24.375 109.589 24.375 110.625C24.375 111.661 23.5355 112.5 22.5 112.5H19.375V115.625C19.375 116.661 18.5355 117.5 17.5 117.5C16.4645 117.5 15.625 116.661 15.625 115.625V112.5H12.5C11.4645 112.5 10.625 111.661 10.625 110.625C10.625 109.589 11.4645 108.75 12.5 108.75L15.625 108.75V105.625C15.625 104.589 16.4645 103.75 17.5 103.75Z"
    fill="#C8E54E" />
  <path
    d="M152.5 126.875C152.5 128.601 151.101 130 149.375 130C147.649 130 146.25 128.601 146.25 126.875C146.25 125.149 147.649 123.75 149.375 123.75C151.101 123.75 152.5 125.149 152.5 126.875Z"
    fill="#9DC346" />
  <path
    d="M102.5 17.5C102.5 19.9162 100.541 21.875 98.125 21.875C95.7088 21.875 93.75 19.9162 93.75 17.5C93.75 15.0838 95.7088 13.125 98.125 13.125C100.541 13.125 102.5 15.0838 102.5 17.5Z"
    fill="#DFEBFD" />
  <path
    d="M50.625 148.125C50.625 149.851 49.2259 151.25 47.5 151.25C45.7741 151.25 44.375 149.851 44.375 148.125C44.375 146.399 45.7741 145 47.5 145C49.2259 145 50.625 146.399 50.625 148.125Z"
    fill="#C8E54E" />
  <path fillRule="evenodd" clipRule="evenodd"
    d="M141.25 10C142.143 10 142.969 10.4765 143.415 11.25L147.745 18.75C148.192 19.5235 148.192 20.4765 147.745 21.25C147.299 22.0235 146.473 22.5 145.58 22.5H136.92C136.027 22.5 135.201 22.0235 134.755 21.25C134.308 20.4765 134.308 19.5235 134.755 18.75L139.085 11.25C139.532 10.4765 140.357 10 141.25 10Z"
    fill="#DFEBFD" />
  <path fillRule="evenodd" clipRule="evenodd"
    d="M16.25 137.5C17.1432 137.5 17.9685 137.976 18.4151 138.75L22.7452 146.25C23.1918 147.024 23.1918 147.976 22.7452 148.75C22.2987 149.524 21.4733 150 20.5802 150H11.9199C11.0268 150 10.2014 149.524 9.75486 148.75C9.30828 147.976 9.30828 147.024 9.75486 146.25L14.085 138.75C14.5316 137.976 15.3569 137.5 16.25 137.5Z"
    fill="#DFEBFD" />
  <g clip-path="url(#clip0)">
    <path
      d="M71.8125 127.75H43.0625V97.75L53.6875 92.125H83.0625V103.594H92.0625H126.943C130.979 103.594 134.25 106.865 134.25 110.9C134.25 114.46 131.685 117.502 128.176 118.102L71.8125 127.75Z"
      fill="white" />
    <path d="M42.8438 99.6562L51.5625 92.3438V129.187H42.8438V99.6562Z" fill="#DFEBFD" />
    <path fillRule="evenodd" clipRule="evenodd"
      d="M89.5625 103.594C89.5625 102.213 90.6818 101.094 92.0625 101.094H126.943C132.359 101.094 136.75 105.484 136.75 110.9C136.75 115.678 133.307 119.76 128.598 120.566L72.0249 130.25H43.4062V125.25H71.6001L127.754 115.638C130.062 115.243 131.75 113.242 131.75 110.9C131.75 108.246 129.598 106.094 126.943 106.094H92.0625C90.6818 106.094 89.5625 104.974 89.5625 103.594Z"
      fill="#179439" />
    <path fillRule="evenodd" clipRule="evenodd"
      d="M44.8907 93.6007C48.6472 90.6214 53.3008 89 58.0953 89H77.3751C82.2076 89 86.1251 92.9175 86.1251 97.75V101C86.1251 105.832 82.2076 109.75 77.3751 109.75H61.4063C60.0256 109.75 58.9063 108.631 58.9063 107.25C58.9063 105.869 60.0256 104.75 61.4063 104.75H77.3751C79.4462 104.75 81.1251 103.071 81.1251 101V97.75C81.1251 95.6789 79.4462 94 77.3751 94H58.0953C54.4289 94 50.8703 95.2399 47.9977 97.5182L44.9598 99.9275C43.8781 100.785 42.3056 100.604 41.4476 99.5222C40.5896 98.4405 40.7711 96.868 41.8529 96.01L44.8907 93.6007Z"
      fill="#179439" />
    <path
      d="M27.375 95.5C27.375 92.0482 30.1732 89.25 33.625 89.25H36.875C40.3268 89.25 43.125 92.0482 43.125 95.5V127.438C43.125 130.889 40.3268 133.687 36.875 133.687H33.625C30.1732 133.687 27.375 130.889 27.375 127.437V95.5Z"
      fill="#C8E54E" />
    <path fillRule="evenodd" clipRule="evenodd"
      d="M23.75 95.5C23.75 90.6675 27.6675 86.75 32.5 86.75H36.875C41.7075 86.75 45.625 90.6675 45.625 95.5V98.25C45.625 99.6307 44.5057 100.75 43.125 100.75C41.7443 100.75 40.625 99.6307 40.625 98.25V95.5C40.625 93.4289 38.9461 91.75 36.875 91.75H32.5C30.4289 91.75 28.75 93.4289 28.75 95.5V128C28.75 130.071 30.4289 131.75 32.5 131.75H36.875C38.9461 131.75 40.625 130.071 40.625 128V108.938C40.625 107.557 41.7443 106.438 43.125 106.438C44.5057 106.438 45.625 107.557 45.625 108.938V128C45.625 132.832 41.7075 136.75 36.875 136.75H32.5C27.6675 136.75 23.75 132.832 23.75 128V95.5Z"
      fill="#095A31" />
    <path
      d="M38.0625 126.375C38.0625 128.239 36.5515 129.75 34.6875 129.75C32.8235 129.75 31.3125 128.239 31.3125 126.375C31.3125 124.511 32.8235 123 34.6875 123C36.5515 123 38.0625 124.511 38.0625 126.375Z"
      fill="#179439" />
    <path fillRule="evenodd" clipRule="evenodd"
      d="M128.375 51.5C129.756 51.5 130.875 52.6193 130.875 54V69C130.875 75.9036 125.279 81.5 118.375 81.5H80.25C78.8693 81.5 77.75 80.3807 77.75 79C77.75 77.6193 78.8693 76.5 80.25 76.5H118.375C122.517 76.5 125.875 73.1421 125.875 69V54C125.875 52.6193 126.994 51.5 128.375 51.5Z"
      fill="#179439" />
    <path
      d="M58.375 37.75C58.375 36.3693 59.4943 35.25 60.875 35.25H118.375C119.756 35.25 120.875 36.3693 120.875 37.75V69C120.875 70.3807 119.756 71.5 118.375 71.5H60.875C59.4943 71.5 58.375 70.3807 58.375 69V37.75Z"
      fill="#9DC346" />
    <path fillRule="evenodd" clipRule="evenodd"
      d="M55.875 37.75C55.875 34.9886 58.1136 32.75 60.875 32.75H118.375C121.136 32.75 123.375 34.9886 123.375 37.75V69C123.375 71.7614 121.136 74 118.375 74H60.875C58.1136 74 55.875 71.7614 55.875 69V37.75ZM118.375 37.75L60.875 37.75V69H118.375V37.75Z"
      fill="#095A31" />
    <path
      d="M100.875 54C100.875 60.2132 95.8382 65.25 89.625 65.25C83.4118 65.25 78.375 60.2132 78.375 54C78.375 47.7868 83.4118 42.75 89.625 42.75C95.8382 42.75 100.875 47.7868 100.875 54Z"
      fill="white" />
    <path fillRule="evenodd" clipRule="evenodd"
      d="M89.625 44C90.3154 44 90.875 44.5596 90.875 45.25V47.2598H92.75C94.5833 47.2598 95.875 48.8538 95.875 50.5686C95.875 51.259 95.3154 51.8186 94.625 51.8186C93.9346 51.8186 93.375 51.259 93.375 50.5686C93.375 50.0093 92.9877 49.7598 92.75 49.7598H86.5C86.2623 49.7598 85.875 50.0093 85.875 50.5686V51.9412C85.875 52.5005 86.2623 52.75 86.5 52.75H92.75C94.5833 52.75 95.875 54.344 95.875 56.0588V57.4314C95.875 59.1462 94.5833 60.7402 92.75 60.7402H90.875V62.75C90.875 63.4404 90.3154 64 89.625 64C88.9346 64 88.375 63.4404 88.375 62.75V60.7402H86.5C84.6667 60.7402 83.375 59.1462 83.375 57.4314C83.375 56.741 83.9346 56.1814 84.625 56.1814C85.3154 56.1814 85.875 56.741 85.875 57.4314C85.875 57.9907 86.2623 58.2402 86.5 58.2402H92.75C92.9877 58.2402 93.375 57.9907 93.375 57.4314V56.0588C93.375 55.4995 92.9877 55.25 92.75 55.25H86.5C84.6667 55.25 83.375 53.656 83.375 51.9412V50.5686C83.375 48.8538 84.6667 47.2598 86.5 47.2598H88.375V45.25C88.375 44.5596 88.9346 44 89.625 44Z"
      fill="#179439" />
    <path
      d="M68.375 37.75C68.375 38.7349 68.181 39.7102 67.8041 40.6201C67.4272 41.5301 66.8747 42.3569 66.1783 43.0533C65.4819 43.7497 64.6551 44.3022 63.7451 44.6791C62.8352 45.056 61.8599 45.25 60.875 45.25L60.875 37.75H68.375Z"
      fill="#095A31" />
    <path
      d="M68.375 69C68.375 68.0151 68.181 67.0398 67.8041 66.1299C67.4272 65.2199 66.8747 64.3931 66.1783 63.6967C65.4819 63.0003 64.6551 62.4478 63.7451 62.0709C62.8352 61.694 61.8599 61.5 60.875 61.5L60.875 69H68.375Z"
      fill="#095A31" />
    <path
      d="M110.875 37.75C110.875 38.7349 111.069 39.7102 111.446 40.6201C111.823 41.5301 112.375 42.3569 113.072 43.0533C113.768 43.7497 114.595 44.3022 115.505 44.6791C116.415 45.056 117.39 45.25 118.375 45.25L118.375 37.75H110.875Z"
      fill="#095A31" />
    <path
      d="M110.875 69C110.875 68.0151 111.069 67.0398 111.446 66.1299C111.823 65.2199 112.375 64.3931 113.072 63.6967C113.768 63.0003 114.595 62.4478 115.505 62.0709C116.415 61.694 117.39 61.5 118.375 61.5L118.375 69H110.875Z"
      fill="#095A31" />
  </g>
  <defs>
    <clipPath id="clip0">
      <rect width="112.5" height="112.5" fill="white" transform="translate(24 24)" />
    </clipPath>
  </defs>
</svg>