<svg width="180" height="180" viewBox="0 0 180 180" fill="none" xmlns="http://www.w3.org/2000/svg">
  <path
    d="M43 27C43 14.2975 53.2975 4 66 4H80C92.7025 4 103 14.2975 103 27V153C103 165.703 92.7025 176 80 176H66C53.2975 176 43 165.703 43 153V27Z"
    fill="white" />
  <path fillRule="evenodd" clipRule="evenodd"
    d="M39 27C39 12.0883 51.0883 0 66 0H80C94.9117 0 107 12.0883 107 27V153C107 167.912 94.9117 180 80 180H66C51.0883 180 39 167.912 39 153V27ZM66 8C55.5066 8 47 16.5066 47 27V153C47 163.493 55.5066 172 66 172H80C90.4934 172 99 163.493 99 153V27C99 16.5066 90.4934 8 80 8H66Z"
    fill="#095A31" />
  <path fillRule="evenodd" clipRule="evenodd"
    d="M58 32C58 29.7909 59.7909 28 62 28H73C75.2091 28 77 29.7909 77 32C77 34.2091 75.2091 36 73 36H62C59.7909 36 58 34.2091 58 32Z"
    fill="#BAC8DC" />
  <path fillRule="evenodd" clipRule="evenodd"
    d="M58 52C58 49.7909 59.7909 48 62 48H73C75.2091 48 77 49.7909 77 52C77 54.2091 75.2091 56 73 56H62C59.7909 56 58 54.2091 58 52Z"
    fill="#BAC8DC" />
  <path fillRule="evenodd" clipRule="evenodd"
    d="M58 72C58 69.7909 59.7909 68 62 68H73C75.2091 68 77 69.7909 77 72C77 74.2091 75.2091 76 73 76H62C59.7909 76 58 74.2091 58 72Z"
    fill="#BAC8DC" />
  <path fillRule="evenodd" clipRule="evenodd"
    d="M58 92C58 89.7909 59.7909 88 62 88H73C75.2091 88 77 89.7909 77 92C77 94.2091 75.2091 96 73 96H62C59.7909 96 58 94.2091 58 92Z"
    fill="#BAC8DC" />
  <path fillRule="evenodd" clipRule="evenodd"
    d="M58 112C58 109.791 59.7909 108 62 108H73C75.2091 108 77 109.791 77 112C77 114.209 75.2091 116 73 116H62C59.7909 116 58 114.209 58 112Z"
    fill="#BAC8DC" />
  <path fillRule="evenodd" clipRule="evenodd"
    d="M73 18C75.2091 18 77 19.7909 77 22V153C77 155.209 75.2091 157 73 157C70.7909 157 69 155.209 69 153V22C69 19.7909 70.7909 18 73 18Z"
    fill="#179439" />
  <path
    d="M94 147C94 158.598 84.598 168 73 168C61.402 168 52 158.598 52 147C52 135.402 61.402 126 73 126C84.598 126 94 135.402 94 147Z"
    fill="#179439" />
  <path fillRule="evenodd" clipRule="evenodd"
    d="M73 131C74.1046 131 75 131.895 75 133V136.216H78C80.9333 136.216 83 138.766 83 141.51C83 142.614 82.1046 143.51 81 143.51C79.8954 143.51 79 142.614 79 141.51C79 140.615 78.3804 140.216 78 140.216H68C67.6196 140.216 67 140.615 67 141.51V143.706C67 144.601 67.6196 145 68 145H78C80.9333 145 83 147.55 83 150.294V152.49C83 155.234 80.9333 157.784 78 157.784H75V161C75 162.105 74.1046 163 73 163C71.8954 163 71 162.105 71 161V157.784H68C65.0667 157.784 63 155.234 63 152.49C63 151.386 63.8954 150.49 65 150.49C66.1046 150.49 67 151.386 67 152.49C67 153.385 67.6196 153.784 68 153.784H78C78.3804 153.784 79 153.385 79 152.49V150.294C79 149.399 78.3804 149 78 149H68C65.0667 149 63 146.45 63 143.706V141.51C63 138.766 65.0667 136.216 68 136.216H71V133C71 131.895 71.8954 131 73 131Z"
    fill="white" />
  <path
    d="M116.536 10C118.076 7.33333 121.925 7.33334 123.464 10L155.507 65.5C157.047 68.1667 155.122 71.5 152.043 71.5H87.9571C84.8779 71.5 82.9534 68.1667 84.493 65.5L116.536 10Z"
    fill="#179439" />
  <path fillRule="evenodd" clipRule="evenodd"
    d="M113.072 8C116.151 2.66665 123.849 2.66668 126.928 8L158.971 63.5C162.05 68.8333 158.201 75.5 152.043 75.5H87.957C81.7986 75.5 77.9496 68.8333 81.0288 63.5L113.072 8ZM120 12L87.957 67.5L152.043 67.5L120 12Z"
    fill="#095A31" />
  <path fillRule="evenodd" clipRule="evenodd"
    d="M120 26C122.209 26 124 27.7909 124 30V46C124 48.2091 122.209 50 120 50C117.791 50 116 48.2091 116 46V30C116 27.7909 117.791 26 120 26Z"
    fill="white" />
  <path fillRule="evenodd" clipRule="evenodd"
    d="M120 52C122.209 52 124 53.7909 124 56V58C124 60.2091 122.209 62 120 62C117.791 62 116 60.2091 116 58V56C116 53.7909 117.791 52 120 52Z"
    fill="white" />
</svg>