<svg width="160" height="160" viewBox="0 0 160 160" fill="none" xmlns="http://www.w3.org/2000/svg">
  <path fillRule="evenodd" clipRule="evenodd"
    d="M16.25 16.875C17.2855 16.875 18.125 17.7145 18.125 18.75V21.875H21.25C22.2855 21.875 23.125 22.7145 23.125 23.75C23.125 24.7855 22.2855 25.625 21.25 25.625H18.125V28.75C18.125 29.7855 17.2855 30.625 16.25 30.625C15.2145 30.625 14.375 29.7855 14.375 28.75V25.625H11.25C10.2145 25.625 9.375 24.7855 9.375 23.75C9.375 22.7145 10.2145 21.875 11.25 21.875L14.375 21.875V18.75C14.375 17.7145 15.2145 16.875 16.25 16.875Z"
    fill="#DFEBFD" />
  <path fillRule="evenodd" clipRule="evenodd"
    d="M145 97.5C146.036 97.5 146.875 98.3395 146.875 99.375V102.5H150C151.036 102.5 151.875 103.339 151.875 104.375C151.875 105.411 151.036 106.25 150 106.25H146.875V109.375C146.875 110.411 146.036 111.25 145 111.25C143.964 111.25 143.125 110.411 143.125 109.375V106.25H140C138.964 106.25 138.125 105.411 138.125 104.375C138.125 103.339 138.964 102.5 140 102.5L143.125 102.5V99.375C143.125 98.3395 143.964 97.5 145 97.5Z"
    fill="#DFEBFD" />
  <path
    d="M61.25 146.25C61.25 147.976 59.8509 149.375 58.125 149.375C56.3991 149.375 55 147.976 55 146.25C55 144.524 56.3991 143.125 58.125 143.125C59.8509 143.125 61.25 144.524 61.25 146.25Z"
    fill="#C8E54E" />
  <path fillRule="evenodd" clipRule="evenodd"
    d="M150 134.375C149.31 134.375 148.75 134.935 148.75 135.625C148.75 136.315 149.31 136.875 150 136.875C150.69 136.875 151.25 136.315 151.25 135.625C151.25 134.935 150.69 134.375 150 134.375ZM143.75 135.625C143.75 132.173 146.548 129.375 150 129.375C153.452 129.375 156.25 132.173 156.25 135.625C156.25 139.077 153.452 141.875 150 141.875C146.548 141.875 143.75 139.077 143.75 135.625Z"
    fill="#C8E54E" />
  <path fillRule="evenodd" clipRule="evenodd"
    d="M15.625 73.75C14.5895 73.75 13.75 74.5895 13.75 75.625C13.75 76.6605 14.5895 77.5 15.625 77.5C16.6605 77.5 17.5 76.6605 17.5 75.625C17.5 74.5895 16.6605 73.75 15.625 73.75ZM8.75 75.625C8.75 71.828 11.828 68.75 15.625 68.75C19.422 68.75 22.5 71.828 22.5 75.625C22.5 79.422 19.422 82.5 15.625 82.5C11.828 82.5 8.75 79.422 8.75 75.625Z"
    fill="#DFEBFD" />
  <path fillRule="evenodd" clipRule="evenodd"
    d="M143.125 11.25C142.089 11.25 141.25 12.0895 141.25 13.125C141.25 14.1605 142.089 15 143.125 15C144.161 15 145 14.1605 145 13.125C145 12.0895 144.161 11.25 143.125 11.25ZM136.25 13.125C136.25 9.32804 139.328 6.25 143.125 6.25C146.922 6.25 150 9.32804 150 13.125C150 16.922 146.922 20 143.125 20C139.328 20 136.25 16.922 136.25 13.125Z"
    fill="#DFEBFD" />
  <path fillRule="evenodd" clipRule="evenodd"
    d="M23.125 136.875C24.0182 136.875 24.8435 137.351 25.2901 138.125L29.6202 145.625C30.0668 146.399 30.0668 147.351 29.6202 148.125C29.1737 148.899 28.3483 149.375 27.4552 149.375H18.7949C17.9018 149.375 17.0764 148.899 16.6299 148.125C16.1833 147.351 16.1833 146.399 16.6299 145.625L20.96 138.125C21.4066 137.351 22.2319 136.875 23.125 136.875Z"
    fill="#C8E54E" />
  <path fillRule="evenodd" clipRule="evenodd"
    d="M115.625 142.5C116.518 142.5 117.344 142.976 117.79 143.75L122.12 151.25C122.567 152.024 122.567 152.976 122.12 153.75C121.674 154.524 120.848 155 119.955 155H111.295C110.402 155 109.576 154.524 109.13 153.75C108.683 152.976 108.683 152.024 109.13 151.25L113.46 143.75C113.907 142.976 114.732 142.5 115.625 142.5Z"
    fill="#DFEBFD" />
  <g clip-path="url(#clip0)">
    <path
      d="M63.1667 57.0535L91.5 30.25L119.833 57.0535V94C119.833 96.7614 117.595 99 114.833 99H68.1667C65.4052 99 63.1667 96.7614 63.1667 94V57.0535Z"
      fill="white" />
    <path fillRule="evenodd" clipRule="evenodd"
      d="M63.1665 54.625C64.5472 54.625 65.6665 55.7443 65.6665 57.125V78.0982C65.6665 79.4789 64.5472 80.5982 63.1665 80.5982C61.7858 80.5982 60.6665 79.4789 60.6665 78.0982V57.125C60.6665 55.7443 61.7858 54.625 63.1665 54.625ZM119.833 55.5625C121.214 55.5625 122.333 56.6818 122.333 58.0625V94.0714C122.333 98.2136 118.975 101.571 114.833 101.571H91.4998C90.1191 101.571 88.9998 100.452 88.9998 99.0714C88.9998 97.6907 90.1191 96.5714 91.4998 96.5714H114.833C116.214 96.5714 117.333 95.4522 117.333 94.0714V58.0625C117.333 56.6818 118.452 55.5625 119.833 55.5625Z"
      fill="#179439" />
    <path d="M91.5 33.6875L65.5625 58.0625V66.5L91.5 43.0625L117.438 66.5V58.0625L91.5 33.6875Z" fill="#DFEBFD" />
    <path fillRule="evenodd" clipRule="evenodd"
      d="M89.782 28.4339C90.7458 27.522 92.2542 27.522 93.2181 28.4339L135.718 68.6392C136.721 69.5881 136.765 71.1704 135.816 72.1734C134.867 73.1764 133.285 73.2203 132.282 72.2714L91.5 33.6914L50.7181 72.2714C49.7151 73.2203 48.1327 73.1764 47.1839 72.1734C46.235 71.1704 46.2789 69.5881 47.2819 68.6392L89.782 28.4339Z"
      fill="#095A31" />
    <path
      d="M93.375 65.25C93.375 63.8693 94.4943 62.75 95.875 62.75H109.625C111.006 62.75 112.125 63.8693 112.125 65.25V96.5H93.375V65.25Z"
      fill="#9DC346" />
    <path
      d="M70.875 65.25C70.875 63.8693 71.9943 62.75 73.375 62.75H87.125C88.5057 62.75 89.625 63.8693 89.625 65.25V79C89.625 80.3807 88.5057 81.5 87.125 81.5H73.375C71.9943 81.5 70.875 80.3807 70.875 79V65.25Z"
      fill="#C8E54E" />
    <path
      d="M69.7685 88.375H43.2315C40.6758 88.375 38.3776 89.9309 37.4285 92.3038L32.75 104H80.25L75.5715 92.3038C74.6224 89.9309 72.3242 88.375 69.7685 88.375Z"
      fill="#9DC346" />
    <path fillRule="evenodd" clipRule="evenodd"
      d="M35.1073 91.3753C36.4361 88.0533 39.6536 85.875 43.2315 85.875H69.7686C73.3465 85.875 76.5639 88.0533 77.8927 91.3753L82.5712 103.072C82.8793 103.842 82.7852 104.715 82.3202 105.402C81.8551 106.089 81.0796 106.5 80.25 106.5H32.75C31.9205 106.5 31.1449 106.089 30.6798 105.402C30.2148 104.715 30.1207 103.842 30.4288 103.072L35.1073 91.3753ZM43.2315 90.875C41.6981 90.875 40.3192 91.8086 39.7497 93.2323L36.4426 101.5H76.5574L73.2503 93.2323C72.6808 91.8086 71.3019 90.875 69.7686 90.875H43.2315Z"
      fill="#095A31" />
    <path
      d="M31.5 122.75C31.5 121.369 32.6193 120.25 34 120.25H40.25C41.6307 120.25 42.75 121.369 42.75 122.75V127.75C42.75 129.131 41.6307 130.25 40.25 130.25H34C32.6193 130.25 31.5 129.131 31.5 127.75V122.75Z"
      fill="#095A31" />
    <path
      d="M70.25 122.75C70.25 121.369 71.3693 120.25 72.75 120.25H79C80.3807 120.25 81.5 121.369 81.5 122.75V127.75C81.5 129.131 80.3807 130.25 79 130.25H72.75C71.3693 130.25 70.25 129.131 70.25 127.75V122.75Z"
      fill="#095A31" />
    <path
      d="M26.5 109C26.5 106.239 28.7386 104 31.5 104H81.5C84.2614 104 86.5 106.239 86.5 109V117.125C86.5 119.196 84.8211 120.875 82.75 120.875H30.25C28.1789 120.875 26.5 119.196 26.5 117.125V109Z"
      fill="white" />
    <path fillRule="evenodd" clipRule="evenodd"
      d="M24 109C24 104.858 27.3579 101.5 31.5 101.5H81.5C85.6421 101.5 89 104.858 89 109V117.125C89 120.577 86.2018 123.375 82.75 123.375H30.25C26.7982 123.375 24 120.577 24 117.125V109ZM31.5 106.5C30.1193 106.5 29 107.619 29 109V117.125C29 117.815 29.5596 118.375 30.25 118.375H82.75C83.4404 118.375 84 117.815 84 117.125V109C84 107.619 82.8807 106.5 81.5 106.5H31.5Z"
      fill="#179439" />
    <path
      d="M37.75 112.75C37.75 114.476 36.3509 115.875 34.625 115.875C32.8991 115.875 31.5 114.476 31.5 112.75C31.5 111.024 32.8991 109.625 34.625 109.625C36.3509 109.625 37.75 111.024 37.75 112.75Z"
      fill="#BAC8DC" />
    <path
      d="M81.5 112.75C81.5 114.476 80.1009 115.875 78.375 115.875C76.6491 115.875 75.25 114.476 75.25 112.75C75.25 111.024 76.6491 109.625 78.375 109.625C80.1009 109.625 81.5 111.024 81.5 112.75Z"
      fill="#BAC8DC" />
    <path fillRule="evenodd" clipRule="evenodd"
      d="M40.875 112.75C40.875 111.369 41.9943 110.25 43.375 110.25H69.625C71.0057 110.25 72.125 111.369 72.125 112.75C72.125 114.131 71.0057 115.25 69.625 115.25H43.375C41.9943 115.25 40.875 114.131 40.875 112.75Z"
      fill="#DFEBFD" />
    <path fillRule="evenodd" clipRule="evenodd"
      d="M24 45.875C24 33.7938 33.7938 24 45.875 24C57.9562 24 67.75 33.7938 67.75 45.875C67.75 57.9562 57.9562 67.75 45.875 67.75C33.7938 67.75 24 57.9562 24 45.875Z"
      fill="#095A31" />
    <path
      d="M64.1043 45.875C64.1043 55.9427 55.9429 64.1042 45.8752 64.1042C35.8075 64.1042 27.646 55.9427 27.646 45.875C27.646 35.8073 35.8075 27.6458 45.8752 27.6458C55.9429 27.6458 64.1043 35.8073 64.1043 45.875Z"
      fill="#179439" />
    <path fillRule="evenodd" clipRule="evenodd"
      d="M45.8752 34.2083C46.6806 34.2083 47.3335 34.8612 47.3335 35.6666V38.0114H49.521C51.6599 38.0114 53.1668 39.8711 53.1668 41.8717C53.1668 42.6771 52.5139 43.33 51.7085 43.33C50.9031 43.33 50.2502 42.6771 50.2502 41.8717C50.2502 41.2192 49.7983 40.9281 49.521 40.9281H42.2293C41.952 40.9281 41.5002 41.2192 41.5002 41.8717V43.473C41.5002 44.1255 41.952 44.4166 42.2293 44.4166H49.521C51.6599 44.4166 53.1668 46.2763 53.1668 48.2769V49.8782C53.1668 51.8789 51.6599 53.7385 49.521 53.7385H47.3335V56.0833C47.3335 56.8887 46.6806 57.5416 45.8752 57.5416C45.0697 57.5416 44.4168 56.8887 44.4168 56.0833V53.7385H42.2293C40.0904 53.7385 38.5835 51.8789 38.5835 49.8782C38.5835 49.0728 39.2364 48.4199 40.0418 48.4199C40.8472 48.4199 41.5002 49.0728 41.5002 49.8782C41.5002 50.5307 41.952 50.8219 42.2293 50.8219H49.521C49.7983 50.8219 50.2502 50.5308 50.2502 49.8782V48.2769C50.2502 47.6244 49.7983 47.3333 49.521 47.3333H42.2293C40.0904 47.3333 38.5835 45.4736 38.5835 43.473V41.8717C38.5835 39.8711 40.0904 38.0114 42.2293 38.0114H44.4168V35.6666C44.4168 34.8612 45.0697 34.2083 45.8752 34.2083Z"
      fill="white" />
  </g>
  <defs>
    <clipPath id="clip0">
      <rect width="112.5" height="112.5" fill="white" transform="translate(24 24)" />
    </clipPath>
  </defs>
</svg>