<svg width="160" height="160" viewBox="0 0 160 160" fill="none" xmlns="http://www.w3.org/2000/svg">
  <path fillRule="evenodd" clipRule="evenodd"
    d="M11.875 68.125C12.9105 68.125 13.75 68.9645 13.75 70V73.125H16.875C17.9105 73.125 18.75 73.9645 18.75 75C18.75 76.0355 17.9105 76.875 16.875 76.875H13.75V80C13.75 81.0355 12.9105 81.875 11.875 81.875C10.8395 81.875 10 81.0355 10 80V76.875H6.875C5.83947 76.875 5 76.0355 5 75C5 73.9645 5.83947 73.125 6.875 73.125L10 73.125V70C10 68.9645 10.8395 68.125 11.875 68.125Z"
    fill="#DFEBFD" />
  <path fillRule="evenodd" clipRule="evenodd"
    d="M146.875 122.5C147.911 122.5 148.75 123.339 148.75 124.375V127.5H151.875C152.911 127.5 153.75 128.339 153.75 129.375C153.75 130.411 152.911 131.25 151.875 131.25H148.75V134.375C148.75 135.411 147.911 136.25 146.875 136.25C145.839 136.25 145 135.411 145 134.375V131.25H141.875C140.839 131.25 140 130.411 140 129.375C140 128.339 140.839 127.5 141.875 127.5L145 127.5V124.375C145 123.339 145.839 122.5 146.875 122.5Z"
    fill="#DFEBFD" />
  <path fillRule="evenodd" clipRule="evenodd"
    d="M147.5 67.5C148.536 67.5 149.375 68.3395 149.375 69.375V72.5H152.5C153.536 72.5 154.375 73.3395 154.375 74.375C154.375 75.4105 153.536 76.25 152.5 76.25H149.375V79.375C149.375 80.4105 148.536 81.25 147.5 81.25C146.464 81.25 145.625 80.4105 145.625 79.375V76.25H142.5C141.464 76.25 140.625 75.4105 140.625 74.375C140.625 73.3395 141.464 72.5 142.5 72.5L145.625 72.5V69.375C145.625 68.3395 146.464 67.5 147.5 67.5Z"
    fill="#C8E54E" />
  <path
    d="M15.625 52.5C15.625 54.2259 14.2259 55.625 12.5 55.625C10.7741 55.625 9.375 54.2259 9.375 52.5C9.375 50.7741 10.7741 49.375 12.5 49.375C14.2259 49.375 15.625 50.7741 15.625 52.5Z"
    fill="#C8E54E" />
  <path fillRule="evenodd" clipRule="evenodd"
    d="M19.375 142.5C18.6846 142.5 18.125 143.06 18.125 143.75C18.125 144.44 18.6846 145 19.375 145C20.0654 145 20.625 144.44 20.625 143.75C20.625 143.06 20.0654 142.5 19.375 142.5ZM13.125 143.75C13.125 140.298 15.9232 137.5 19.375 137.5C22.8268 137.5 25.625 140.298 25.625 143.75C25.625 147.202 22.8268 150 19.375 150C15.9232 150 13.125 147.202 13.125 143.75Z"
    fill="#C8E54E" />
  <path fillRule="evenodd" clipRule="evenodd"
    d="M137.5 13.75C136.464 13.75 135.625 14.5895 135.625 15.625C135.625 16.6605 136.464 17.5 137.5 17.5C138.536 17.5 139.375 16.6605 139.375 15.625C139.375 14.5895 138.536 13.75 137.5 13.75ZM130.625 15.625C130.625 11.828 133.703 8.75 137.5 8.75C141.297 8.75 144.375 11.828 144.375 15.625C144.375 19.422 141.297 22.5 137.5 22.5C133.703 22.5 130.625 19.422 130.625 15.625Z"
    fill="#DFEBFD" />
  <path fillRule="evenodd" clipRule="evenodd"
    d="M14.375 13.125C15.2682 13.125 16.0935 13.6015 16.5401 14.375L20.8702 21.875C21.3168 22.6485 21.3168 23.6015 20.8702 24.375C20.4237 25.1485 19.5983 25.625 18.7052 25.625H10.0449C9.15176 25.625 8.32644 25.1485 7.87986 24.375C7.43328 23.6015 7.43328 22.6485 7.87986 21.875L12.21 14.375C12.6566 13.6015 13.4819 13.125 14.375 13.125Z"
    fill="#DFEBFD" />
  <path fillRule="evenodd" clipRule="evenodd"
    d="M131.25 135C132.143 135 132.969 135.476 133.415 136.25L137.745 143.75C138.192 144.524 138.192 145.476 137.745 146.25C137.299 147.024 136.473 147.5 135.58 147.5H126.92C126.027 147.5 125.201 147.024 124.755 146.25C124.308 145.476 124.308 144.524 124.755 143.75L129.085 136.25C129.532 135.476 130.357 135 131.25 135Z"
    fill="#DFEBFD" />
  <path
    d="M26.5 64C26.5 58.4772 30.9772 54 36.5 54H121.5C127.023 54 131.5 58.4772 131.5 64V112.75C131.5 118.273 127.023 122.75 121.5 122.75H36.5C30.9772 122.75 26.5 118.273 26.5 112.75V64Z"
    fill="white" />
  <path fillRule="evenodd" clipRule="evenodd"
    d="M36.5 56.5C32.3579 56.5 29 59.8579 29 64V112.75C29 116.892 32.3579 120.25 36.5 120.25H121.5C125.642 120.25 129 116.892 129 112.75V82.125C129 80.7443 130.119 79.625 131.5 79.625C132.881 79.625 134 80.7443 134 82.125V112.75C134 119.654 128.404 125.25 121.5 125.25H36.5C29.5964 125.25 24 119.654 24 112.75V64C24 57.0964 29.5964 51.5 36.5 51.5H70.875C72.2557 51.5 73.375 52.6193 73.375 54C73.375 55.3807 72.2557 56.5 70.875 56.5H36.5Z"
    fill="#179439" />
  <path
    d="M105.25 100.875C105.25 106.053 101.053 110.25 95.875 110.25C90.6973 110.25 86.5 106.053 86.5 100.875C86.5 95.6973 90.6973 91.5 95.875 91.5C101.053 91.5 105.25 95.6973 105.25 100.875Z"
    fill="#C8E54E" />
  <path
    d="M119 100.875C119 106.053 114.803 110.25 109.625 110.25C104.447 110.25 100.25 106.053 100.25 100.875C100.25 95.6973 104.447 91.5 109.625 91.5C114.803 91.5 119 95.6973 119 100.875Z"
    fill="#179439" />
  <path fillRule="evenodd" clipRule="evenodd"
    d="M102.75 107.249C104.301 105.576 105.25 103.336 105.25 100.875C105.25 98.4136 104.301 96.1738 102.75 94.5011C101.199 96.1738 100.25 98.4136 100.25 100.875C100.25 103.336 101.199 105.576 102.75 107.249Z"
    fill="#095A31" />
  <path fillRule="evenodd" clipRule="evenodd"
    d="M36.5 99C36.5 97.6193 37.6193 96.5 39 96.5H56.5C57.8807 96.5 59 97.6193 59 99C59 100.381 57.8807 101.5 56.5 101.5H39C37.6193 101.5 36.5 100.381 36.5 99Z"
    fill="#BAC8DC" />
  <path fillRule="evenodd" clipRule="evenodd"
    d="M36.5 88.375C36.5 86.9943 37.6193 85.875 39 85.875H76.5C77.8807 85.875 79 86.9943 79 88.375C79 89.7557 77.8807 90.875 76.5 90.875H39C37.6193 90.875 36.5 89.7557 36.5 88.375Z"
    fill="#BAC8DC" />
  <path d="M29 65.25H72.125V73.375H29V65.25Z" fill="#C8E54E" />
  <path
    d="M106.21 32.75C107.172 31.0833 109.578 31.0833 110.54 32.75L130.567 67.4375C131.529 69.1042 130.327 71.1875 128.402 71.1875H88.3485C86.424 71.1875 85.2211 69.1042 86.1834 67.4375L106.21 32.75Z"
    fill="#179439" />
  <path fillRule="evenodd" clipRule="evenodd"
    d="M108.375 45.25C109.065 45.25 109.625 45.8096 109.625 46.5V48.5098H111.5C113.333 48.5098 114.625 50.1038 114.625 51.8186C114.625 52.509 114.065 53.0686 113.375 53.0686C112.685 53.0686 112.125 52.509 112.125 51.8186C112.125 51.2593 111.738 51.0098 111.5 51.0098H105.25C105.012 51.0098 104.625 51.2593 104.625 51.8186V53.1912C104.625 53.7505 105.012 54 105.25 54H111.5C113.333 54 114.625 55.594 114.625 57.3088V58.6814C114.625 60.3962 113.333 61.9902 111.5 61.9902H109.625V64C109.625 64.6904 109.065 65.25 108.375 65.25C107.685 65.25 107.125 64.6904 107.125 64V61.9902H105.25C103.417 61.9902 102.125 60.3962 102.125 58.6814C102.125 57.991 102.685 57.4314 103.375 57.4314C104.065 57.4314 104.625 57.991 104.625 58.6814C104.625 59.2407 105.012 59.4902 105.25 59.4902H111.5C111.738 59.4902 112.125 59.2407 112.125 58.6814V57.3088C112.125 56.7495 111.738 56.5 111.5 56.5H105.25C103.417 56.5 102.125 54.906 102.125 53.1912V51.8186C102.125 50.1038 103.417 48.5098 105.25 48.5098H107.125V46.5C107.125 45.8096 107.685 45.25 108.375 45.25Z"
    fill="white" />
  <path fillRule="evenodd" clipRule="evenodd"
    d="M104.045 31.5C105.969 28.1667 110.781 28.1667 112.705 31.5L132.732 66.1875C134.657 69.5208 132.251 73.6875 128.402 73.6875H88.3483C84.4993 73.6875 82.0937 69.5208 84.0182 66.1875L104.045 31.5ZM108.375 34L88.3483 68.6875L128.402 68.6875L108.375 34Z"
    fill="#095A31" />
</svg>