<svg width="160" height="160" viewBox="0 0 160 160" fill="none" xmlns="http://www.w3.org/2000/svg">
  <path fillRule="evenodd" clipRule="evenodd"
    d="M16.25 16.875C17.2855 16.875 18.125 17.7145 18.125 18.75V21.875H21.25C22.2855 21.875 23.125 22.7145 23.125 23.75C23.125 24.7855 22.2855 25.625 21.25 25.625H18.125V28.75C18.125 29.7855 17.2855 30.625 16.25 30.625C15.2145 30.625 14.375 29.7855 14.375 28.75V25.625H11.25C10.2145 25.625 9.375 24.7855 9.375 23.75C9.375 22.7145 10.2145 21.875 11.25 21.875L14.375 21.875V18.75C14.375 17.7145 15.2145 16.875 16.25 16.875Z"
    fill="#DFEBFD" />
  <path fillRule="evenodd" clipRule="evenodd"
    d="M11.875 105C12.9105 105 13.75 105.839 13.75 106.875V110H16.875C17.9105 110 18.75 110.839 18.75 111.875C18.75 112.911 17.9105 113.75 16.875 113.75H13.75V116.875C13.75 117.911 12.9105 118.75 11.875 118.75C10.8395 118.75 10 117.911 10 116.875V113.75H6.875C5.83947 113.75 5 112.911 5 111.875C5 110.839 5.83947 110 6.875 110L10 110V106.875C10 105.839 10.8395 105 11.875 105Z"
    fill="#C8E54E" />
  <path
    d="M149.375 146.25C149.375 147.976 147.976 149.375 146.25 149.375C144.524 149.375 143.125 147.976 143.125 146.25C143.125 144.524 144.524 143.125 146.25 143.125C147.976 143.125 149.375 144.524 149.375 146.25Z"
    fill="#9DC346" />
  <path
    d="M57.5 17.5C57.5 19.9162 55.5412 21.875 53.125 21.875C50.7088 21.875 48.75 19.9162 48.75 17.5C48.75 15.0838 50.7088 13.125 53.125 13.125C55.5412 13.125 57.5 15.0838 57.5 17.5Z"
    fill="#C8E54E" />
  <path
    d="M67.5 135C67.5 136.726 66.1009 138.125 64.375 138.125C62.6491 138.125 61.25 136.726 61.25 135C61.25 133.274 62.6491 131.875 64.375 131.875C66.1009 131.875 67.5 133.274 67.5 135Z"
    fill="#C8E54E" />
  <path fillRule="evenodd" clipRule="evenodd"
    d="M143.125 11.25C142.089 11.25 141.25 12.0895 141.25 13.125C141.25 14.1605 142.089 15 143.125 15C144.161 15 145 14.1605 145 13.125C145 12.0895 144.161 11.25 143.125 11.25ZM136.25 13.125C136.25 9.32804 139.328 6.25 143.125 6.25C146.922 6.25 150 9.32804 150 13.125C150 16.922 146.922 20 143.125 20C139.328 20 136.25 16.922 136.25 13.125Z"
    fill="#DFEBFD" />
  <path fillRule="evenodd" clipRule="evenodd"
    d="M34.375 135.625C35.2682 135.625 36.0935 136.101 36.5401 136.875L40.8702 144.375C41.3168 145.149 41.3168 146.101 40.8702 146.875C40.4237 147.649 39.5983 148.125 38.7052 148.125H30.0449C29.1518 148.125 28.3264 147.649 27.8799 146.875C27.4333 146.101 27.4333 145.149 27.8799 144.375L32.21 136.875C32.6566 136.101 33.4819 135.625 34.375 135.625Z"
    fill="#DFEBFD" />
  <path fillRule="evenodd" clipRule="evenodd"
    d="M62.75 52.75C62.75 43.085 70.585 35.25 80.25 35.25C89.915 35.25 97.75 43.085 97.75 52.75V70.25H62.75V52.75ZM80.25 40.25C73.3464 40.25 67.75 45.8464 67.75 52.75V65.25H92.75V52.75C92.75 45.8464 87.1536 40.25 80.25 40.25Z"
    fill="#C8E54E" />
  <path fillRule="evenodd" clipRule="evenodd"
    d="M102.75 75.25H57.75V52.75C57.75 40.3236 67.8236 30.25 80.25 30.25C92.6764 30.25 102.75 40.3236 102.75 52.75V75.25ZM80.25 40.25C73.3464 40.25 67.75 45.8464 67.75 52.75V65.25H92.75V52.75C92.75 45.8464 87.1536 40.25 80.25 40.25ZM87.75 60.25V52.75C87.75 48.6079 84.3921 45.25 80.25 45.25C76.1079 45.25 72.75 48.6079 72.75 52.75V60.25H87.75ZM62.75 52.75C62.75 43.085 70.585 35.25 80.25 35.25C89.915 35.25 97.75 43.085 97.75 52.75V70.25H62.75V52.75Z"
    fill="#095A31" />
  <path
    d="M44.5044 62.75H115.995C118.96 62.75 121.516 64.8323 122.116 67.7353L132.758 119.238C133.399 122.341 131.029 125.25 127.861 125.25H32.6385C29.4703 125.25 27.1009 122.341 27.7419 119.238L38.3837 67.7353C38.9835 64.8323 41.5401 62.75 44.5044 62.75Z"
    fill="white" />
  <path fillRule="evenodd" clipRule="evenodd"
    d="M81.5003 75.6667C82.4208 75.6667 83.167 76.4129 83.167 77.3334V80.0131H85.667C88.1114 80.0131 89.8337 82.1384 89.8337 84.4249C89.8337 85.3453 89.0875 86.0915 88.167 86.0915C87.2465 86.0915 86.5003 85.3453 86.5003 84.4249C86.5003 83.6791 85.984 83.3464 85.667 83.3464H77.3337C77.0167 83.3464 76.5003 83.6791 76.5003 84.4249V86.2549C76.5003 87.0006 77.0167 87.3334 77.3337 87.3334H85.667C88.1114 87.3334 89.8337 89.4587 89.8337 91.7451V93.5752C89.8337 95.8616 88.1114 97.9869 85.667 97.9869H83.167V100.667C83.167 101.587 82.4208 102.333 81.5003 102.333C80.5799 102.333 79.8337 101.587 79.8337 100.667V97.9869H77.3337C74.8892 97.9869 73.167 95.8616 73.167 93.5752C73.167 92.6547 73.9132 91.9085 74.8337 91.9085C75.7541 91.9085 76.5003 92.6547 76.5003 93.5752C76.5003 94.3209 77.0167 94.6536 77.3337 94.6536H85.667C85.984 94.6536 86.5003 94.3209 86.5003 93.5752V91.7451C86.5003 90.9994 85.984 90.6667 85.667 90.6667H77.3337C74.8892 90.6667 73.167 88.5414 73.167 86.2549V84.4249C73.167 82.1384 74.8892 80.0131 77.3337 80.0131H79.8337V77.3334C79.8337 76.4129 80.5799 75.6667 81.5003 75.6667Z"
    fill="#179439" />
  <path d="M28.375 112.125H54.625V123.375H28.375V112.125Z" fill="#DFEBFD" />
  <path fillRule="evenodd" clipRule="evenodd"
    d="M27.75 114.312C27.75 112.932 28.8693 111.812 30.25 111.812H99C100.381 111.812 101.5 112.932 101.5 114.312C101.5 115.693 100.381 116.812 99 116.812H30.25C28.8693 116.812 27.75 115.693 27.75 114.312Z"
    fill="#9DC346" />
  <path d="M39 63.375H54.625L54.3125 108.062H29.9375L39 63.375Z" fill="#DFEBFD" />
  <path fillRule="evenodd" clipRule="evenodd"
    d="M114.625 114.312C114.625 112.932 115.744 111.812 117.125 111.812H129.625C131.006 111.812 132.125 112.932 132.125 114.312C132.125 115.693 131.006 116.812 129.625 116.812H117.125C115.744 116.812 114.625 115.693 114.625 114.312Z"
    fill="#9DC346" />
  <path fillRule="evenodd" clipRule="evenodd"
    d="M35.9353 67.2294C36.7751 63.1652 40.3542 60.25 44.5043 60.25H115.995C120.145 60.25 123.724 63.1652 124.564 67.2294L135.206 118.732C136.167 123.386 132.613 127.75 127.861 127.75H32.6384C27.8861 127.75 24.332 123.386 25.2936 118.732L35.9353 67.2294ZM44.5043 65.25C42.7257 65.25 41.1918 66.4994 40.8319 68.2412L30.1902 119.744C29.8696 121.295 31.0543 122.75 32.6384 122.75H127.861C129.445 122.75 130.63 121.295 130.309 119.744L119.668 68.2412C119.308 66.4994 117.774 65.25 115.995 65.25H44.5043Z"
    fill="#095A31" />
</svg>