<svg width="160" height="160" viewBox="0 0 160 160" fill="none" xmlns="http://www.w3.org/2000/svg">
  <path fillRule="evenodd" clipRule="evenodd"
    d="M151.25 31.25C152.286 31.25 153.125 32.0895 153.125 33.125V36.25H156.25C157.286 36.25 158.125 37.0895 158.125 38.125C158.125 39.1605 157.286 40 156.25 40H153.125V43.125C153.125 44.1605 152.286 45 151.25 45C150.214 45 149.375 44.1605 149.375 43.125V40H146.25C145.214 40 144.375 39.1605 144.375 38.125C144.375 37.0895 145.214 36.25 146.25 36.25L149.375 36.25V33.125C149.375 32.0895 150.214 31.25 151.25 31.25Z"
    fill="#DFEBFD" />
  <path fillRule="evenodd" clipRule="evenodd"
    d="M146.25 138.125C147.286 138.125 148.125 138.964 148.125 140V143.125H151.25C152.286 143.125 153.125 143.964 153.125 145C153.125 146.036 152.286 146.875 151.25 146.875H148.125V150C148.125 151.036 147.286 151.875 146.25 151.875C145.214 151.875 144.375 151.036 144.375 150V146.875H141.25C140.214 146.875 139.375 146.036 139.375 145C139.375 143.964 140.214 143.125 141.25 143.125L144.375 143.125V140C144.375 138.964 145.214 138.125 146.25 138.125Z"
    fill="#DFEBFD" />
  <path
    d="M113.125 13.125C113.125 15.5412 111.166 17.5 108.75 17.5C106.334 17.5 104.375 15.5412 104.375 13.125C104.375 10.7088 106.334 8.75 108.75 8.75C111.166 8.75 113.125 10.7088 113.125 13.125Z"
    fill="#C8E54E" />
  <path
    d="M18.125 127.5C18.125 129.226 16.7259 130.625 15 130.625C13.2741 130.625 11.875 129.226 11.875 127.5C11.875 125.774 13.2741 124.375 15 124.375C16.7259 124.375 18.125 125.774 18.125 127.5Z"
    fill="#C8E54E" />
  <path fillRule="evenodd" clipRule="evenodd"
    d="M31.25 14.375C30.2145 14.375 29.375 15.2145 29.375 16.25C29.375 17.2855 30.2145 18.125 31.25 18.125C32.2855 18.125 33.125 17.2855 33.125 16.25C33.125 15.2145 32.2855 14.375 31.25 14.375ZM24.375 16.25C24.375 12.453 27.453 9.375 31.25 9.375C35.047 9.375 38.125 12.453 38.125 16.25C38.125 20.047 35.047 23.125 31.25 23.125C27.453 23.125 24.375 20.047 24.375 16.25Z"
    fill="#DFEBFD" />
  <path fillRule="evenodd" clipRule="evenodd"
    d="M143.75 8.75C144.643 8.75 145.469 9.2265 145.915 10L150.245 17.5C150.692 18.2735 150.692 19.2265 150.245 20C149.799 20.7735 148.973 21.25 148.08 21.25H139.42C138.527 21.25 137.701 20.7735 137.255 20C136.808 19.2265 136.808 18.2735 137.255 17.5L141.585 10C142.032 9.2265 142.857 8.75 143.75 8.75Z"
    fill="#DFEBFD" />
  <path fillRule="evenodd" clipRule="evenodd"
    d="M26.25 137.5C27.1432 137.5 27.9685 137.976 28.4151 138.75L32.7452 146.25C33.1918 147.024 33.1918 147.976 32.7452 148.75C32.2987 149.524 31.4733 150 30.5802 150H21.9199C21.0268 150 20.2014 149.524 19.7549 148.75C19.3083 147.976 19.3083 147.024 19.7549 146.25L24.085 138.75C24.5316 137.976 25.3569 137.5 26.25 137.5Z"
    fill="#DFEBFD" />
  <path fillRule="evenodd" clipRule="evenodd"
    d="M13.125 32.5C14.0182 32.5 14.8435 32.9765 15.2901 33.75L19.6202 41.25C20.0668 42.0235 20.0668 42.9765 19.6202 43.75C19.1737 44.5235 18.3483 45 17.4552 45H8.79492C7.90176 45 7.07644 44.5235 6.62986 43.75C6.18328 42.9765 6.18328 42.0235 6.62986 41.25L10.96 33.75C11.4066 32.9765 12.2319 32.5 13.125 32.5Z"
    fill="#C8E54E" />
  <g clip-path="url(#clip0)">
    <path fillRule="evenodd" clipRule="evenodd"
      d="M80.25 44.625C81.6307 44.625 82.75 45.7443 82.75 47.125V85.6387L110.444 67.5325C111.6 66.777 113.149 67.1013 113.905 68.257C114.661 69.4126 114.336 70.9619 113.181 71.7175L82.75 91.6125V127.125C82.75 128.506 81.6307 129.625 80.25 129.625C78.8693 129.625 77.75 128.506 77.75 127.125V100.738L57.9272 82.3975C56.9137 81.4599 56.8523 79.8781 57.79 78.8647C58.7276 77.8512 60.3094 77.7898 61.3228 78.7275L77.75 93.9262V47.125C77.75 45.7443 78.8693 44.625 80.25 44.625Z"
      fill="#179439" />
    <path
      d="M55.25 29C55.25 27.6193 56.3693 26.5 57.75 26.5L102.75 26.5C104.131 26.5 105.25 27.6193 105.25 29V50.25C105.25 51.6307 104.131 52.75 102.75 52.75H57.75C56.3693 52.75 55.25 51.6307 55.25 50.25V29Z"
      fill="#9DC346" />
    <path fillRule="evenodd" clipRule="evenodd"
      d="M52.75 29C52.75 26.2386 54.9886 24 57.75 24L102.75 24C105.511 24 107.75 26.2386 107.75 29V50.25C107.75 53.0114 105.511 55.25 102.75 55.25H57.75C54.9886 55.25 52.75 53.0114 52.75 50.25V29ZM102.75 29L57.75 29V50.25H102.75V29Z"
      fill="#095A31" />
    <path
      d="M89 39.625C89 44.4575 85.0825 48.375 80.25 48.375C75.4175 48.375 71.5 44.4575 71.5 39.625C71.5 34.7925 75.4175 30.875 80.25 30.875C85.0825 30.875 89 34.7925 89 39.625Z"
      fill="white" />
    <path fillRule="evenodd" clipRule="evenodd"
      d="M60.25 32.75C60.25 32.0596 60.8096 31.5 61.5 31.5H65.25C65.9404 31.5 66.5 32.0596 66.5 32.75C66.5 33.4404 65.9404 34 65.25 34H61.5C60.8096 34 60.25 33.4404 60.25 32.75Z"
      fill="#C8E54E" />
    <path fillRule="evenodd" clipRule="evenodd"
      d="M94 46.5C94 45.8096 94.5596 45.25 95.25 45.25H99C99.6904 45.25 100.25 45.8096 100.25 46.5C100.25 47.1904 99.6904 47.75 99 47.75H95.25C94.5596 47.75 94 47.1904 94 46.5Z"
      fill="#C8E54E" />
    <path
      d="M52.75 104.625C52.75 103.244 53.8693 102.125 55.25 102.125H105.25C106.631 102.125 107.75 103.244 107.75 104.625V110.25C107.75 111.631 106.631 112.75 105.25 112.75H55.25C53.8693 112.75 52.75 111.631 52.75 110.25V104.625Z"
      fill="#C8E54E" />
    <path fillRule="evenodd" clipRule="evenodd"
      d="M50.25 104.625C50.25 101.864 52.4886 99.625 55.25 99.625H105.25C108.011 99.625 110.25 101.864 110.25 104.625V110.25C110.25 113.011 108.011 115.25 105.25 115.25H55.25C52.4886 115.25 50.25 113.011 50.25 110.25V104.625ZM105.25 104.625H55.25V110.25H105.25V104.625Z"
      fill="#179439" />
    <path
      d="M59.943 115.955C59.4721 114.354 60.6724 112.75 62.3414 112.75H98.1591C99.8281 112.75 101.028 114.354 100.557 115.955L95.7781 132.205C95.4651 133.269 94.4887 134 93.3796 134H67.1208C66.0118 134 65.0354 133.269 64.7224 132.205L59.943 115.955Z"
      fill="#C8E54E" />
    <path fillRule="evenodd" clipRule="evenodd"
      d="M57.5442 116.661C56.6024 113.458 59.003 110.25 62.3411 110.25H98.1587C101.497 110.25 103.897 113.458 102.956 116.661L98.1761 132.911C97.5503 135.039 95.5973 136.5 93.3793 136.5H67.1205C64.9024 136.5 62.9495 135.039 62.3237 132.911L57.5442 116.661ZM62.3411 115.25L62.3411 115.25L67.1205 131.5H93.3793L98.1587 115.25H62.3411Z"
      fill="#179439" />
    <path fillRule="evenodd" clipRule="evenodd"
      d="M94 74C94 65.3706 100.996 58.375 109.625 58.375C118.254 58.375 125.25 65.3706 125.25 74C125.25 82.6294 118.254 89.625 109.625 89.625C100.996 89.625 94 82.6294 94 74Z"
      fill="#095A31" />
    <path
      d="M122.646 74C122.646 81.1912 116.817 87.0208 109.625 87.0208C102.434 87.0208 96.6045 81.1912 96.6045 74C96.6045 66.8088 102.434 60.9791 109.625 60.9791C116.817 60.9791 122.646 66.8088 122.646 74Z"
      fill="#179439" />
    <path fillRule="evenodd" clipRule="evenodd"
      d="M109.625 65.6666C110.201 65.6666 110.667 66.133 110.667 66.7083V68.3831H112.229C113.757 68.3831 114.834 69.7115 114.834 71.1405C114.834 71.7158 114.367 72.1821 113.792 72.1821C113.217 72.1821 112.75 71.7158 112.75 71.1405C112.75 70.6744 112.428 70.4665 112.229 70.4665H107.021C106.823 70.4665 106.5 70.6744 106.5 71.1405V72.2843C106.5 72.7503 106.823 72.9583 107.021 72.9583H112.229C113.757 72.9583 114.834 74.2866 114.834 75.7156V76.8594C114.834 78.2885 113.757 79.6168 112.229 79.6168H110.667V81.2916C110.667 81.8669 110.201 82.3333 109.625 82.3333C109.05 82.3333 108.584 81.8669 108.584 81.2916V79.6168H107.021C105.493 79.6168 104.417 78.2885 104.417 76.8594C104.417 76.2841 104.883 75.8178 105.459 75.8178C106.034 75.8178 106.5 76.2841 106.5 76.8594C106.5 77.3255 106.823 77.5335 107.021 77.5335H112.229C112.428 77.5335 112.75 77.3255 112.75 76.8594V75.7156C112.75 75.2496 112.428 75.0416 112.229 75.0416H107.021C105.493 75.0416 104.417 73.7133 104.417 72.2843V71.1405C104.417 69.7115 105.493 68.3831 107.021 68.3831H108.584V66.7083C108.584 66.133 109.05 65.6666 109.625 65.6666Z"
      fill="white" />
    <path fillRule="evenodd" clipRule="evenodd"
      d="M35.25 77.75C35.25 69.1206 42.2456 62.125 50.875 62.125C59.5044 62.125 66.5 69.1206 66.5 77.75C66.5 86.3794 59.5044 93.375 50.875 93.375C42.2456 93.375 35.25 86.3794 35.25 77.75Z"
      fill="#095A31" />
    <path
      d="M63.8962 77.75C63.8962 84.9412 58.0665 90.7708 50.8753 90.7708C43.6841 90.7708 37.8545 84.9412 37.8545 77.75C37.8545 70.5588 43.6841 64.7291 50.8753 64.7291C58.0665 64.7291 63.8962 70.5588 63.8962 77.75Z"
      fill="#179439" />
    <path fillRule="evenodd" clipRule="evenodd"
      d="M50.8753 69.4166C51.4506 69.4166 51.917 69.883 51.917 70.4583V72.1331H53.4795C55.0073 72.1331 56.0837 73.4615 56.0837 74.8905C56.0837 75.4658 55.6173 75.9321 55.042 75.9321C54.4667 75.9321 54.0003 75.4658 54.0003 74.8905C54.0003 74.4244 53.6776 74.2165 53.4795 74.2165H48.2712C48.0731 74.2165 47.7503 74.4244 47.7503 74.8905V76.0343C47.7503 76.5003 48.0731 76.7083 48.2712 76.7083H53.4795C55.0073 76.7083 56.0837 78.0366 56.0837 79.4656V80.6094C56.0837 82.0385 55.0073 83.3668 53.4795 83.3668H51.917V85.0416C51.917 85.6169 51.4506 86.0833 50.8753 86.0833C50.3 86.0833 49.8337 85.6169 49.8337 85.0416V83.3668H48.2712C46.7434 83.3668 45.667 82.0385 45.667 80.6094C45.667 80.0341 46.1334 79.5678 46.7087 79.5678C47.284 79.5678 47.7503 80.0341 47.7503 80.6094C47.7503 81.0755 48.0731 81.2835 48.2712 81.2835H53.4795C53.6776 81.2835 54.0003 81.0755 54.0003 80.6094V79.4656C54.0003 78.9996 53.6776 78.7916 53.4795 78.7916H48.2712C46.7434 78.7916 45.667 77.4633 45.667 76.0343V74.8905C45.667 73.4615 46.7434 72.1331 48.2712 72.1331H49.8337V70.4583C49.8337 69.883 50.3 69.4166 50.8753 69.4166Z"
      fill="white" />
  </g>
  <defs>
    <clipPath id="clip0">
      <rect width="112.5" height="112.5" fill="white" transform="translate(24 24)" />
    </clipPath>
  </defs>
</svg>