<svg width="160" height="160" viewBox="0 0 160 160" fill="none" xmlns="http://www.w3.org/2000/svg">
  <path fillRule="evenodd" clipRule="evenodd"
    d="M16.25 16.875C17.2855 16.875 18.125 17.7145 18.125 18.75V21.875H21.25C22.2855 21.875 23.125 22.7145 23.125 23.75C23.125 24.7855 22.2855 25.625 21.25 25.625H18.125V28.75C18.125 29.7855 17.2855 30.625 16.25 30.625C15.2145 30.625 14.375 29.7855 14.375 28.75V25.625H11.25C10.2145 25.625 9.375 24.7855 9.375 23.75C9.375 22.7145 10.2145 21.875 11.25 21.875L14.375 21.875V18.75C14.375 17.7145 15.2145 16.875 16.25 16.875Z"
    fill="#DFEBFD" />
  <path fillRule="evenodd" clipRule="evenodd"
    d="M145 97.5C146.036 97.5 146.875 98.3395 146.875 99.375V102.5H150C151.036 102.5 151.875 103.339 151.875 104.375C151.875 105.411 151.036 106.25 150 106.25H146.875V109.375C146.875 110.411 146.036 111.25 145 111.25C143.964 111.25 143.125 110.411 143.125 109.375V106.25H140C138.964 106.25 138.125 105.411 138.125 104.375C138.125 103.339 138.964 102.5 140 102.5L143.125 102.5V99.375C143.125 98.3395 143.964 97.5 145 97.5Z"
    fill="#DFEBFD" />
  <path
    d="M61.25 146.25C61.25 147.976 59.8509 149.375 58.125 149.375C56.3991 149.375 55 147.976 55 146.25C55 144.524 56.3991 143.125 58.125 143.125C59.8509 143.125 61.25 144.524 61.25 146.25Z"
    fill="#C8E54E" />
  <path fillRule="evenodd" clipRule="evenodd"
    d="M150 134.375C149.31 134.375 148.75 134.935 148.75 135.625C148.75 136.315 149.31 136.875 150 136.875C150.69 136.875 151.25 136.315 151.25 135.625C151.25 134.935 150.69 134.375 150 134.375ZM143.75 135.625C143.75 132.173 146.548 129.375 150 129.375C153.452 129.375 156.25 132.173 156.25 135.625C156.25 139.077 153.452 141.875 150 141.875C146.548 141.875 143.75 139.077 143.75 135.625Z"
    fill="#C8E54E" />
  <path fillRule="evenodd" clipRule="evenodd"
    d="M15.625 73.75C14.5895 73.75 13.75 74.5895 13.75 75.625C13.75 76.6605 14.5895 77.5 15.625 77.5C16.6605 77.5 17.5 76.6605 17.5 75.625C17.5 74.5895 16.6605 73.75 15.625 73.75ZM8.75 75.625C8.75 71.828 11.828 68.75 15.625 68.75C19.422 68.75 22.5 71.828 22.5 75.625C22.5 79.422 19.422 82.5 15.625 82.5C11.828 82.5 8.75 79.422 8.75 75.625Z"
    fill="#DFEBFD" />
  <path fillRule="evenodd" clipRule="evenodd"
    d="M143.125 11.25C142.089 11.25 141.25 12.0895 141.25 13.125C141.25 14.1605 142.089 15 143.125 15C144.161 15 145 14.1605 145 13.125C145 12.0895 144.161 11.25 143.125 11.25ZM136.25 13.125C136.25 9.32804 139.328 6.25 143.125 6.25C146.922 6.25 150 9.32804 150 13.125C150 16.922 146.922 20 143.125 20C139.328 20 136.25 16.922 136.25 13.125Z"
    fill="#DFEBFD" />
  <path fillRule="evenodd" clipRule="evenodd"
    d="M23.125 136.875C24.0182 136.875 24.8435 137.351 25.2901 138.125L29.6202 145.625C30.0668 146.399 30.0668 147.351 29.6202 148.125C29.1737 148.899 28.3483 149.375 27.4552 149.375H18.7949C17.9018 149.375 17.0764 148.899 16.6299 148.125C16.1833 147.351 16.1833 146.399 16.6299 145.625L20.96 138.125C21.4066 137.351 22.2319 136.875 23.125 136.875Z"
    fill="#C8E54E" />
  <path fillRule="evenodd" clipRule="evenodd"
    d="M115.625 142.5C116.518 142.5 117.344 142.976 117.79 143.75L122.12 151.25C122.567 152.024 122.567 152.976 122.12 153.75C121.674 154.524 120.848 155 119.955 155H111.295C110.402 155 109.576 154.524 109.13 153.75C108.683 152.976 108.683 152.024 109.13 151.25L113.46 143.75C113.907 142.976 114.732 142.5 115.625 142.5Z"
    fill="#DFEBFD" />
  <g clip-path="url(#clip0)">
    <path fillRule="evenodd" clipRule="evenodd"
      d="M132.438 79.9375C133.818 79.9375 134.938 81.0568 134.938 82.4375V82.75C134.938 88.2728 130.46 92.75 124.938 92.75V87.75C127.699 87.75 129.938 85.5114 129.938 82.75V82.4375C129.938 81.0568 131.057 79.9375 132.438 79.9375Z"
      fill="#179439" />
    <path fillRule="evenodd" clipRule="evenodd"
      d="M128.688 92.75C128.86 92.75 129 92.6101 129 92.4375C129 92.2649 128.86 92.125 128.688 92.125C128.515 92.125 128.375 92.2649 128.375 92.4375C128.375 92.6101 128.515 92.75 128.688 92.75ZM124 92.4375C124 89.8487 126.099 87.75 128.688 87.75C131.276 87.75 133.375 89.8487 133.375 92.4375C133.375 95.0263 131.276 97.125 128.688 97.125C126.099 97.125 124 95.0263 124 92.4375Z"
      fill="#179439" />
    <path fillRule="evenodd" clipRule="evenodd"
      d="M59 48.5833C59 47.4327 59.9327 46.5 61.0833 46.5C66.8363 46.5 71.5 51.1637 71.5 56.9167V58.375H92.75C110.009 58.375 124 72.3661 124 89.625C124 102.918 115.7 114.272 104 118.789V125.875C104 130.362 100.362 134 95.875 134C91.3877 134 87.75 130.362 87.75 125.875V120.875H72.125V125.875C72.125 130.362 68.4873 134 64 134C59.5127 134 55.875 130.362 55.875 125.875V118.54C49.0194 115.721 43.387 110.535 39.9952 104H35.25C30.4175 104 26.5 100.082 26.5 95.25V93.375C26.5 88.5425 30.4175 84.625 35.25 84.625H36.8978C38.8238 72.6485 47.5556 62.9479 59 59.6165V48.5833Z"
      fill="white" />
    <path fillRule="evenodd" clipRule="evenodd"
      d="M56.5 48.5833C56.5 46.052 58.552 44 61.0833 44C67.8663 44 73.4282 49.2284 73.9586 55.875H92.75C111.39 55.875 126.5 70.9854 126.5 89.625C126.5 103.371 118.283 115.193 106.5 120.456V125.875C106.5 131.743 101.743 136.5 95.875 136.5C90.007 136.5 85.25 131.743 85.25 125.875V123.375H74.625V125.875C74.625 131.743 69.868 136.5 64 136.5C58.132 136.5 53.375 131.743 53.375 125.875V120.169C47.1374 117.228 41.9489 112.436 38.5156 106.5H35.25C29.0368 106.5 24 101.463 24 95.25V93.375C24 87.3007 28.8141 82.3508 34.8351 82.1325C37.4073 70.7868 45.6891 61.6173 56.5 57.7962V48.5833ZM61.5 49.0108V59.6165C61.5 60.7281 60.766 61.7062 59.6987 62.0169C49.1708 65.0815 41.137 74.0101 39.3661 85.0219C39.1712 86.2339 38.1253 87.125 36.8978 87.125H35.25C31.7982 87.125 29 89.9232 29 93.375V95.25C29 98.7018 31.7982 101.5 35.25 101.5H39.9952C40.9286 101.5 41.7843 102.02 42.2142 102.848C45.3354 108.862 50.5201 113.635 56.8256 116.227C57.763 116.613 58.375 117.526 58.375 118.54V125.875C58.375 128.982 60.8934 131.5 64 131.5C67.1066 131.5 69.625 128.982 69.625 125.875V120.875C69.625 119.494 70.7443 118.375 72.125 118.375H87.75C89.1307 118.375 90.25 119.494 90.25 120.875V125.875C90.25 128.982 92.7684 131.5 95.875 131.5C98.9816 131.5 101.5 128.982 101.5 125.875V118.789C101.5 117.755 102.136 116.829 103.1 116.457C113.868 112.3 121.5 101.851 121.5 89.625C121.5 73.7468 108.628 60.875 92.75 60.875H71.5C70.1193 60.875 69 59.7557 69 58.375V56.9167C69 52.6842 65.6786 49.2274 61.5 49.0108Z"
      fill="#179439" />
    <path
      d="M60.875 79.625C60.875 81.6961 59.1961 83.375 57.125 83.375C55.0539 83.375 53.375 81.6961 53.375 79.625C53.375 77.5539 55.0539 75.875 57.125 75.875C59.1961 75.875 60.875 77.5539 60.875 79.625Z"
      fill="#095A31" />
    <path fillRule="evenodd" clipRule="evenodd"
      d="M80.25 72.125C80.25 70.7443 81.3693 69.625 82.75 69.625H101.5C102.881 69.625 104 70.7443 104 72.125C104 73.5057 102.881 74.625 101.5 74.625H82.75C81.3693 74.625 80.25 73.5057 80.25 72.125Z"
      fill="#BAC8DC" />
    <path
      d="M29 94.625H46.5V95.25C46.5 98.7018 43.7018 101.5 40.25 101.5H35.25C31.7982 101.5 29 98.7018 29 95.25V94.625Z"
      fill="#DFEBFD" />
    <path fillRule="evenodd" clipRule="evenodd"
      d="M35.25 91.5C36.6307 91.5 37.75 92.6193 37.75 94V95.25C37.75 96.6307 36.6307 97.75 35.25 97.75C33.8693 97.75 32.75 96.6307 32.75 95.25V94C32.75 92.6193 33.8693 91.5 35.25 91.5Z"
      fill="#095A31" />
    <path fillRule="evenodd" clipRule="evenodd"
      d="M79 49.625C79 37.5438 88.7938 27.75 100.875 27.75C112.956 27.75 122.75 37.5438 122.75 49.625C122.75 61.7062 112.956 71.5 100.875 71.5C88.7938 71.5 79 61.7062 79 49.625Z"
      fill="#095A31" />
    <path
      d="M119.104 49.625C119.104 59.6927 110.943 67.8542 100.875 67.8542C90.8075 67.8542 82.646 59.6927 82.646 49.625C82.646 39.5574 90.8075 31.3959 100.875 31.3959C110.943 31.3959 119.104 39.5574 119.104 49.625Z"
      fill="#179439" />
    <path fillRule="evenodd" clipRule="evenodd"
      d="M100.875 37.9584C101.681 37.9584 102.333 38.6113 102.333 39.4167V41.7615H104.521C106.66 41.7615 108.167 43.6211 108.167 45.6218C108.167 46.4272 107.514 47.0801 106.708 47.0801C105.903 47.0801 105.25 46.4272 105.25 45.6218C105.25 44.9693 104.798 44.6781 104.521 44.6781H97.2293C96.952 44.6781 96.5002 44.9693 96.5002 45.6218V47.2231C96.5002 47.8756 96.952 48.1667 97.2293 48.1667H104.521C106.66 48.1667 108.167 50.0264 108.167 52.027V53.6283C108.167 55.6289 106.66 57.4886 104.521 57.4886H102.333V59.8334C102.333 60.6388 101.681 61.2917 100.875 61.2917C100.07 61.2917 99.4168 60.6388 99.4168 59.8334V57.4886H97.2293C95.0904 57.4886 93.5835 55.6289 93.5835 53.6283C93.5835 52.8229 94.2364 52.17 95.0418 52.17C95.8472 52.17 96.5002 52.8229 96.5002 53.6283C96.5002 54.2808 96.952 54.5719 97.2293 54.5719H104.521C104.798 54.5719 105.25 54.2808 105.25 53.6283V52.027C105.25 51.3745 104.798 51.0834 104.521 51.0834H97.2293C95.0904 51.0834 93.5835 49.2237 93.5835 47.2231V45.6218C93.5835 43.6211 95.0904 41.7615 97.2293 41.7615H99.4168V39.4167C99.4168 38.6113 100.07 37.9584 100.875 37.9584Z"
      fill="white" />
  </g>
  <defs>
    <clipPath id="clip0">
      <rect width="112.5" height="112.5" fill="white" transform="translate(24 24)" />
    </clipPath>
  </defs>
</svg>