<svg width="160" height="160" viewBox="0 0 160 160" fill="none" xmlns="http://www.w3.org/2000/svg">
  <path fillRule="evenodd" clipRule="evenodd"
    d="M16.25 16.875C17.2855 16.875 18.125 17.7145 18.125 18.75V21.875H21.25C22.2855 21.875 23.125 22.7145 23.125 23.75C23.125 24.7855 22.2855 25.625 21.25 25.625H18.125V28.75C18.125 29.7855 17.2855 30.625 16.25 30.625C15.2145 30.625 14.375 29.7855 14.375 28.75V25.625H11.25C10.2145 25.625 9.375 24.7855 9.375 23.75C9.375 22.7145 10.2145 21.875 11.25 21.875L14.375 21.875V18.75C14.375 17.7145 15.2145 16.875 16.25 16.875Z"
    fill="#DFEBFD" />
  <path fillRule="evenodd" clipRule="evenodd"
    d="M11.875 105C12.9105 105 13.75 105.839 13.75 106.875V110H16.875C17.9105 110 18.75 110.839 18.75 111.875C18.75 112.911 17.9105 113.75 16.875 113.75H13.75V116.875C13.75 117.911 12.9105 118.75 11.875 118.75C10.8395 118.75 10 117.911 10 116.875V113.75H6.875C5.83947 113.75 5 112.911 5 111.875C5 110.839 5.83947 110 6.875 110L10 110V106.875C10 105.839 10.8395 105 11.875 105Z"
    fill="#C8E54E" />
  <path
    d="M149.375 146.25C149.375 147.976 147.976 149.375 146.25 149.375C144.524 149.375 143.125 147.976 143.125 146.25C143.125 144.524 144.524 143.125 146.25 143.125C147.976 143.125 149.375 144.524 149.375 146.25Z"
    fill="#9DC346" />
  <path
    d="M57.5 17.5C57.5 19.9162 55.5412 21.875 53.125 21.875C50.7088 21.875 48.75 19.9162 48.75 17.5C48.75 15.0838 50.7088 13.125 53.125 13.125C55.5412 13.125 57.5 15.0838 57.5 17.5Z"
    fill="#C8E54E" />
  <path
    d="M67.5 135C67.5 136.726 66.1009 138.125 64.375 138.125C62.6491 138.125 61.25 136.726 61.25 135C61.25 133.274 62.6491 131.875 64.375 131.875C66.1009 131.875 67.5 133.274 67.5 135Z"
    fill="#C8E54E" />
  <path fillRule="evenodd" clipRule="evenodd"
    d="M143.125 11.25C142.089 11.25 141.25 12.0895 141.25 13.125C141.25 14.1605 142.089 15 143.125 15C144.161 15 145 14.1605 145 13.125C145 12.0895 144.161 11.25 143.125 11.25ZM136.25 13.125C136.25 9.32804 139.328 6.25 143.125 6.25C146.922 6.25 150 9.32804 150 13.125C150 16.922 146.922 20 143.125 20C139.328 20 136.25 16.922 136.25 13.125Z"
    fill="#DFEBFD" />
  <path fillRule="evenodd" clipRule="evenodd"
    d="M34.375 135.625C35.2682 135.625 36.0935 136.101 36.5401 136.875L40.8702 144.375C41.3168 145.149 41.3168 146.101 40.8702 146.875C40.4237 147.649 39.5983 148.125 38.7052 148.125H30.0449C29.1518 148.125 28.3264 147.649 27.8799 146.875C27.4333 146.101 27.4333 145.149 27.8799 144.375L32.21 136.875C32.6566 136.101 33.4819 135.625 34.375 135.625Z"
    fill="#DFEBFD" />
  <g clip-path="url(#clip0)">
    <path
      d="M26.5 55.25C26.5 51.7982 29.2982 49 32.75 49H127.75C131.202 49 134 51.7982 134 55.25V105.25C134 108.702 131.202 111.5 127.75 111.5H32.75C29.2982 111.5 26.5 108.702 26.5 105.25V55.25Z"
      fill="white" />
    <path fillRule="evenodd" clipRule="evenodd"
      d="M24 55.25C24 50.4175 27.9175 46.5 32.75 46.5H127.75C132.582 46.5 136.5 50.4175 136.5 55.25V105.25C136.5 110.082 132.582 114 127.75 114H32.75C27.9175 114 24 110.082 24 105.25V55.25ZM32.75 51.5C30.6789 51.5 29 53.1789 29 55.25V105.25C29 107.321 30.6789 109 32.75 109H127.75C129.821 109 131.5 107.321 131.5 105.25V55.25C131.5 53.1789 129.821 51.5 127.75 51.5H32.75Z"
      fill="#095A31" />
    <path d="M29 55.25C29 53.1789 30.6789 51.5 32.75 51.5H62.75V109H32.75C30.6789 109 29 107.321 29 105.25V55.25Z"
      fill="#C8E54E" />
    <path fillRule="evenodd" clipRule="evenodd"
      d="M45.8752 68.5834C46.6806 68.5834 47.3335 69.2363 47.3335 70.0417V72.3865H49.521C51.6599 72.3865 53.1668 74.2461 53.1668 76.2468C53.1668 77.0522 52.5139 77.7051 51.7085 77.7051C50.9031 77.7051 50.2502 77.0522 50.2502 76.2468C50.2502 75.5943 49.7983 75.3031 49.521 75.3031H42.2293C41.952 75.3031 41.5002 75.5943 41.5002 76.2468V77.8481C41.5002 78.5006 41.952 78.7917 42.2293 78.7917H49.521C51.6599 78.7917 53.1668 80.6514 53.1668 82.652V84.2533C53.1668 86.2539 51.6599 88.1136 49.521 88.1136H47.3335V90.4584C47.3335 91.2638 46.6806 91.9167 45.8752 91.9167C45.0697 91.9167 44.4168 91.2638 44.4168 90.4584V88.1136H42.2293C40.0904 88.1136 38.5835 86.2539 38.5835 84.2533C38.5835 83.4479 39.2364 82.795 40.0418 82.795C40.8472 82.795 41.5002 83.4479 41.5002 84.2533C41.5002 84.9058 41.952 85.1969 42.2293 85.1969H49.521C49.7983 85.1969 50.2502 84.9058 50.2502 84.2533V82.652C50.2502 81.9995 49.7983 81.7084 49.521 81.7084H42.2293C40.0904 81.7084 38.5835 79.8487 38.5835 77.8481V76.2468C38.5835 74.2461 40.0904 72.3865 42.2293 72.3865H44.4168V70.0417C44.4168 69.2363 45.0697 68.5834 45.8752 68.5834Z"
      fill="#179439" />
    <path fillRule="evenodd" clipRule="evenodd"
      d="M67.75 74C67.75 72.6193 68.8693 71.5 70.25 71.5H104C105.381 71.5 106.5 72.6193 106.5 74C106.5 75.3807 105.381 76.5 104 76.5H70.25C68.8693 76.5 67.75 75.3807 67.75 74Z"
      fill="#179439" />
    <path fillRule="evenodd" clipRule="evenodd"
      d="M67.75 86.5C67.75 85.1193 68.8693 84 70.25 84H122.125C123.506 84 124.625 85.1193 124.625 86.5C124.625 87.8807 123.506 89 122.125 89H70.25C68.8693 89 67.75 87.8807 67.75 86.5Z"
      fill="#BAC8DC" />
    <path fillRule="evenodd" clipRule="evenodd"
      d="M67.75 99C67.75 97.6193 68.8693 96.5 70.25 96.5H100.25C101.631 96.5 102.75 97.6193 102.75 99C102.75 100.381 101.631 101.5 100.25 101.5H70.25C68.8693 101.5 67.75 100.381 67.75 99Z"
      fill="#BAC8DC" />
    <path fillRule="evenodd" clipRule="evenodd"
      d="M106.5 99C106.5 97.6193 107.619 96.5 109 96.5H122.125C123.506 96.5 124.625 97.6193 124.625 99C124.625 100.381 123.506 101.5 122.125 101.5H109C107.619 101.5 106.5 100.381 106.5 99Z"
      fill="#BAC8DC" />
  </g>
  <defs>
    <clipPath id="clip0">
      <rect width="112.5" height="112.5" fill="white" transform="translate(24 24)" />
    </clipPath>
  </defs>
</svg>