<?xml version="1.0" encoding="utf-8"?>
<!-- Generator: Adobe Illustrator 15.1.0, SVG Export Plug-In  -->
<!DOCTYPE svg PUBLIC "-//W3C//DTD SVG 1.1//EN" "http://www.w3.org/Graphics/SVG/1.1/DTD/svg11.dtd" [
	<!ENTITY ns_flows "http://ns.adobe.com/Flows/1.0/">
]>
<svg version="1.1"
	 xmlns="http://www.w3.org/2000/svg" xmlns:xlink="http://www.w3.org/1999/xlink" xmlns:a="http://ns.adobe.com/AdobeSVGViewerExtensions/3.0/"
	 x="0px" y="0px" width="250px" height="159px" viewBox="0.325 0 250 159"
	 overflow="visible" enable-background="new 0.325 0 250 159" xml:space="preserve">
<defs>
</defs>
<path d="M241.596,0H9.055C4.062,0,0,4.061,0,9.051v15.035v25.58v100.578c0,4.99,4.062,9.049,9.055,9.049h232.541
	c4.992,0,9.055-4.059,9.055-9.049V49.666v-25.58V9.051C250.65,4.061,246.588,0,241.596,0z M240.85,24.086H9.805V9.803l146.279,0.002
	l83.736-0.004c0.404,0,0.744,0,1.029-0.004V24.086z M9.803,49.666h231.045l-0.002,99.826l-134.684-0.002l-95.031,0.004
	c-0.539,0-0.977,0-1.328,0.004V49.666z"/>
<path d="M21.928,106.971h20.678c2.473,0,4.486-2.012,4.486-4.484v-0.83c0-2.475-2.014-4.486-4.486-4.486H21.928
	c-2.475,0-4.486,2.012-4.486,4.486v0.83C17.441,104.959,19.453,106.971,21.928,106.971z"/>
<path d="M57.117,106.971h52.35c2.473,0,4.486-2.012,4.486-4.484v-0.83c0-2.475-2.014-4.486-4.486-4.486h-52.35
	c-2.473,0-4.486,2.012-4.486,4.486v0.83C52.631,104.959,54.645,106.971,57.117,106.971z"/>
<path d="M123.98,106.971h41.088c2.473,0,4.486-2.012,4.486-4.484v-0.83c0-2.475-2.014-4.486-4.486-4.486H123.98
	c-2.475,0-4.488,2.012-4.488,4.486v0.83C119.492,104.959,121.506,106.971,123.98,106.971z"/>
<path d="M179.582,106.971h24.9c2.473,0,4.486-2.012,4.486-4.484v-0.83c0-2.475-2.014-4.486-4.486-4.486h-24.9
	c-2.475,0-4.488,2.012-4.488,4.486v0.83C175.094,104.959,177.107,106.971,179.582,106.971z"/>
<path d="M21.928,121.92h63.117c2.473,0,4.486-2.012,4.486-4.484v-0.83c0-2.475-2.014-4.486-4.486-4.486H21.928
	c-2.475,0-4.486,2.012-4.486,4.486v0.83C17.441,119.908,19.453,121.92,21.928,121.92z"/>
</svg>
