<?xml version="1.0" encoding="utf-8"?>
<!-- Generator: Adobe Illustrator 25.4.1, SVG Export Plug-In . SVG Version: 6.00 Build 0)  -->
<svg version="1.1" id="Layer_1" xmlns="http://www.w3.org/2000/svg" xmlns:xlink="http://www.w3.org/1999/xlink" x="0px" y="0px"
	 viewBox="0 0 309 48" style="enable-background:new 0 0 309 48;" xml:space="preserve">
<style type="text/css">
	.st0{fill:#3E3ECC;}
	.st1{font-family:'Futura-Bold';}
	.st2{font-size:42.6434px;}
	.st3{fill:#FF3ECC;}
	.st4{fill:#5CEFFF;}
	.st5{fill:#666666;}
	.st6{font-family:'Ubuntu-Bold';}
	.st7{font-size:44.8481px;}
</style>
<text transform="matrix(-1.042337e-10 0.7739 -1 -1.346898e-10 44.525 4.5085)" class="st0 st1 st2">&lt;</text>
<text transform="matrix(-1.042337e-10 0.7739 -1 -1.346898e-10 22.32 4.5085)" class="st0 st1 st2">&lt;</text>
<text transform="matrix(-1.042337e-10 0.7739 -1 -1.346898e-10 0.3395 4.5085)" class="st0 st1 st2">&lt;</text>
<text transform="matrix(1.737229e-10 -0.7739 1 2.244829e-10 32.5153 44.7262)" class="st0 st1 st2">&lt;</text>
<text transform="matrix(1.737229e-10 -0.7739 1 2.244829e-10 54.4957 44.7272)" class="st0 st1 st2">&lt;</text>
<text transform="matrix(1.737229e-10 -0.7739 1 2.244829e-10 77.1325 44.6911)" class="st0 st1 st2">&lt;</text>
<g>
	<path class="st3" d="M17.9,34.2l6.4-8.7h9L21.7,41.7l-8.9,0.2"/>
</g>
<g>
	<path class="st3" d="M39.9,34.2l6.4-8.7h9L43.6,41.7l-8.9,0.2"/>
</g>
<g>
	<path class="st3" d="M62.5,34.2l6.4-8.7h9L66.2,41.7l-8.9,0.2"/>
</g>
<g>
	<path class="st4" d="M13.3,7.6l8.9-0.2l11.6,16.2h-9.1l-6.3-8.7"/>
</g>
<g>
	<path class="st4" d="M35.2,7.6l8.9-0.2l11.6,16.2h-9.1l-6.3-8.7"/>
</g>
<g>
	<path class="st4" d="M57.1,7.6l8.9-0.2l11.6,16.2h-9.1l-6.3-8.7"/>
</g>
<text transform="matrix(1 0 0 1 100.1193 40.0602)" class="st5 st6 st7">srclaunch</text>
</svg>
