<?xml version="1.0" encoding="utf-8"?>
<!-- Generator: Adobe Illustrator 25.4.1, SVG Export Plug-In . SVG Version: 6.00 Build 0)  -->
<svg version="1.1" id="Layer_1" xmlns="http://www.w3.org/2000/svg" xmlns:xlink="http://www.w3.org/1999/xlink" x="0px" y="0px"
	 viewBox="0 0 363 100" style="enable-background:new 0 0 363 100;" xml:space="preserve">
<style type="text/css">
	.st0{fill:#3E3ECC;}
	.st1{font-family:'Futura-Bold';}
	.st2{font-size:42.6434px;}
	.st3{fill:#FF3ECC;}
	.st4{fill:#666666;}
	.st5{font-family:'Ubuntu-Bold';}
	.st6{font-size:44.8481px;}
	.st7{fill:#2EFFFC;}
</style>
<text transform="matrix(-1.042337e-10 0.7739 -1 -1.346898e-10 72.5252 28.5086)" class="st0 st1 st2">&lt;</text>
<text transform="matrix(-1.042337e-10 0.7739 -1 -1.346898e-10 50.3201 28.5086)" class="st0 st1 st2">&lt;</text>
<text transform="matrix(-1.042337e-10 0.7739 -1 -1.346898e-10 28.3397 28.5086)" class="st0 st1 st2">&lt;</text>
<text transform="matrix(1.737229e-10 -0.7739 1 2.244829e-10 38.3113 68.7264)" class="st0 st1 st2">&lt;</text>
<text transform="matrix(1.737229e-10 -0.7739 1 2.244829e-10 60.5154 68.7264)" class="st0 st1 st2">&lt;</text>
<text transform="matrix(1.737229e-10 -0.7739 1 2.244829e-10 82.4959 68.7274)" class="st0 st1 st2">&lt;</text>
<text transform="matrix(1.737229e-10 -0.7739 1 2.244829e-10 105.1326 68.6912)" class="st0 st1 st2">&lt;</text>
<text transform="matrix(-1.042337e-10 0.7739 -1 -1.346898e-10 95.1175 28.5076)" class="st0 st1 st2">&lt;</text>
<g>
	<path class="st3" d="M23.4,58l6.4-8.7h9L27.2,65.5l-8.9,0.2"/>
</g>
<g>
	<path class="st3" d="M45.9,58.2l6.4-8.7h9L49.7,65.7l-8.9,0.2"/>
</g>
<g>
	<path class="st3" d="M67.9,58.2l6.4-8.7h9L71.6,65.7l-8.9,0.2"/>
</g>
<g>
	<path class="st3" d="M90.5,58.2l6.4-8.7h9L94.2,65.7l-8.9,0.2"/>
</g>
<text transform="matrix(1 0 0 1 148.1194 63.0604)" class="st4 st5 st6">srclaunch</text>
<g>
	<path class="st7" d="M36.2,40l6.4-8.7h9L40,47.5l-8.9,0.2"/>
</g>
<g>
	<path class="st7" d="M58.2,40.7l6.4-8.7h9L62,48.2l-8.9,0.2"/>
</g>
<g>
	<path class="st7" d="M81.2,39.7l6.4-8.7h9L85,47.2l-8.9,0.2"/>
</g>
<g>
	<path class="st7" d="M103.8,39.7l6.4-8.7h9l-11.6,16.2l-8.9,0.2"/>
</g>
</svg>
