<?xml version="1.0" encoding="utf-8"?>
<!-- Generator: Adobe Illustrator 25.4.1, SVG Export Plug-In . SVG Version: 6.00 Build 0)  -->
<svg version="1.1" id="Layer_1" xmlns="http://www.w3.org/2000/svg" xmlns:xlink="http://www.w3.org/1999/xlink" x="0px" y="0px"
	 viewBox="0 0 552 70" style="enable-background:new 0 0 552 70;" xml:space="preserve">
<style type="text/css">
	.st0{fill:#666666;}
	.st1{font-family:'Ubuntu-Bold';}
	.st2{font-size:72px;}
	.st3{opacity:0.75;fill:#3E3ECC;}
	.st4{font-family:'Futura-Bold';}
	.st5{font-size:59.7387px;}
</style>
<text transform="matrix(1 0 0 1 213.8964 56.5517)" class="st0 st1 st2">srclaunch</text>
<text transform="matrix(-1.042337e-10 0.7739 -1 -1.346898e-10 110.4541 8.6567)" class="st3 st4 st5">&lt;</text>
<text transform="matrix(-1.042337e-10 0.7739 -1 -1.346898e-10 79.3477 8.6567)" class="st3 st4 st5">&lt;</text>
<text transform="matrix(-1.042337e-10 0.7739 -1 -1.346898e-10 48.5552 8.6567)" class="st3 st4 st5">&lt;</text>
<text transform="matrix(1.737229e-10 -0.7739 1 2.244830e-10 62.5239 64.998)" class="st3 st4 st5">&lt;</text>
<text transform="matrix(1.737229e-10 -0.7739 1 2.244830e-10 93.6304 64.998)" class="st3 st4 st5">&lt;</text>
<text transform="matrix(1.737229e-10 -0.7739 1 2.244830e-10 124.4224 65)" class="st3 st4 st5">&lt;</text>
<text transform="matrix(1.737229e-10 -0.7739 1 2.244830e-10 156.1338 64.9492)" class="st3 st4 st5">&lt;</text>
<text transform="matrix(-1.042337e-10 0.7739 -1 -1.346898e-10 142.103 8.6563)" class="st3 st4 st5">&lt;</text>
</svg>
