<?xml version="1.0" encoding="utf-8"?>
<!-- Generator: Adobe Illustrator 15.1.0, SVG Export Plug-In  -->
<!DOCTYPE svg PUBLIC "-//W3C//DTD SVG 1.1//EN" "http://www.w3.org/Graphics/SVG/1.1/DTD/svg11.dtd" [ <!ENTITY
	ns_flows "http://ns.adobe.com/Flows/1.0/">
]>
<svg version="1.1" xmlns="http://www.w3.org/2000/svg" xmlns:xlink="http://www.w3.org/1999/xlink"
	xmlns:a="http://ns.adobe.com/AdobeSVGViewerExtensions/3.0/" x="0px" y="0px" width="250px" height="250px"
	viewBox="-0.06 0 250 250" overflow="visible" enable-background="new -0.06 0 250 250" xml:space="preserve">
	<defs>
	</defs>
	<path fillRule="evenodd" clipRule="evenodd" d="M71.082,248.293c-0.405,0-0.812,0-1.217,0c-5.402-1.921-7.462-6.618-10.712-10.954
	c-4.712-6.285-9.042-12.136-13.631-18.257c-2.264-3.019-4.322-6.705-6.817-9.251c-2.608-2.662-6.586-4.991-9.98-7.546
	c-7.135-5.371-13.187-9.627-20.448-15.092c-3.147-2.371-8.234-5.157-8.276-9.494c-0.046-4.83,5.548-8.47,8.276-11.198
	c2.402-2.4,6.903-8.233,10.468-9.007c2.207-0.479,5.295,0.045,8.033,0.244c5.852,0.423,10.877,0.872,16.311,1.216
	c2.872,0.183,6.357,0.927,8.521,0.487c1.843-0.374,4.977-4.248,6.815-6.085c13.49-13.491,25.829-26.074,38.705-38.949
	c2.088-2.088,4.677-3.91,6.086-6.572c-24.689-14.252-49.507-28.466-74.49-42.844c-3.505-2.018-8.117-4.194-8.032-8.765
	c0.079-4.282,4.556-6.989,7.059-9.493c5.993-5.992,11.002-11.001,16.798-16.797c2.493-2.494,5.606-7.206,9.249-7.546
	c3.566-0.333,8.933,2.595,12.659,3.895c28.019,9.778,57.414,20.012,84.47,29.212c2.632-1.38,4.37-3.883,6.33-5.842
	c10.782-10.784,21.403-21.404,32.132-32.134c8.431-8.431,17.023-19.268,33.594-17.283c20.256,2.427,33.702,27.522,19.718,46.252
	c-3.4,4.554-8.375,8.375-12.659,12.659c-10.583,10.583-20.923,20.923-31.646,31.645c-1.771,1.772-5.771,5.211-5.842,6.816
	c-0.051,1.14,1.487,3.795,2.19,5.843c9.247,26.918,18.069,52.046,27.508,78.628c1.368,3.853,4.014,9.041,3.407,12.901
	c-0.486,3.101-5.124,6.585-7.546,9.007c-6.236,6.235-10.49,10.247-16.797,16.554c-2.478,2.477-5.069,7.193-9.736,7.06
	c-4.316-0.125-6.247-4.79-8.277-8.277c-14.528-24.954-28.798-49.668-42.844-74.246c-4.651,3.406-8.585,8.099-12.901,12.415
	c-11.049,11.05-21.4,21.156-32.619,32.376c-1.841,1.841-5.705,4.976-6.086,7.06c-0.426,2.329,0.296,5.485,0.487,8.033
	c0.213,2.861,0.309,5.742,0.486,8.276c0.354,5.045,1.789,11.86,0.729,16.311c-0.889,3.739-5.697,6.914-8.763,9.98
	C78.545,242.777,75.38,247.31,71.082,248.293z M207.159,196.442c1.482-1.481,4.274-3.229,4.382-5.112
	c0.073-1.288-1.58-4.046-2.191-5.842c-9.159-26.947-17.953-52.039-27.264-78.627c-1.307-3.731-4.114-8.899-3.651-12.659
	c0.405-3.295,4.141-5.602,6.329-7.789c12.486-12.486,23.564-23.81,35.784-36.028c4.734-4.733,11.454-9.771,13.632-15.093
	c6.273-15.324-11.141-27.553-23.369-20.204c-4.985,2.995-9.937,9.207-14.362,13.632c-11.757,11.757-22.864,23.108-34.811,35.054
	c-2.361,2.362-5.44,5.871-8.033,6.086c-3.439,0.286-8.676-2.378-12.415-3.651c-28.706-9.775-56.419-19.982-84.47-29.698
	c-6.876,5.7-12.923,12.231-18.988,18.743c24.94,14.189,49.693,28.593,74.733,43.088c3.621,2.096,8.397,3.994,8.033,9.007
	c-0.239,3.308-4.377,6.324-7.06,9.007c-16.539,16.539-32.07,32.314-48.199,48.443c-2.466,2.466-5.878,6.68-8.763,7.545
	c-1.983,0.596-5.226,0.244-8.521,0c-5.753-0.425-10.985-0.904-16.311-1.217c-2.955-0.174-6.467-0.85-8.276-0.486
	c-2.733,0.549-4.411,4.479-6.815,6.572c7.844,5.767,15.842,11.514,23.612,17.283c2.557,1.898,5.719,3.896,7.79,6.086
	c4.355,4.606,7.627,10.441,11.441,15.58c3.827,5.153,7.959,10.066,11.685,15.336c1.905-2.092,5.925-4.017,6.329-6.816
	c0.641-4.427-0.564-10.718-0.974-16.553c-0.382-5.448-1.952-12.371-0.73-16.554c0.778-2.669,5.174-5.904,7.547-8.277
	c16.531-16.531,31.704-31.704,48.198-48.198c2.394-2.394,5.568-6.828,8.764-7.303c6.457-0.958,7.639,4.706,10.224,9.25
	c14.306,25.143,28.627,48.622,42.602,73.272C198.032,206.126,202.365,201.237,207.159,196.442z" />
</svg>