<?xml version="1.0" encoding="utf-8"?>
<!-- Generator: Adobe Illustrator 15.1.0, SVG Export Plug-In  -->
<!DOCTYPE svg PUBLIC "-//W3C//DTD SVG 1.1//EN" "http://www.w3.org/Graphics/SVG/1.1/DTD/svg11.dtd" [ <!ENTITY
	ns_flows "http://ns.adobe.com/Flows/1.0/">
]>
<svg version="1.1" xmlns="http://www.w3.org/2000/svg" xmlns:xlink="http://www.w3.org/1999/xlink"
	xmlns:a="http://ns.adobe.com/AdobeSVGViewerExtensions/3.0/" x="0px" y="0px" width="250px" height="250px"
	viewBox="0.224 -0.391 250 250" overflow="visible" enable-background="new 0.224 -0.391 250 250" xml:space="preserve">
	<defs>
	</defs>
	<path fillRule="evenodd" clipRule="evenodd" d="M123.608,0.035c38.89-0.921,69.061,16.275,88.786,36.002
	c20.126,20.126,37.217,48.344,37.217,87.569c0,39.947-15.604,68.39-36.001,88.787c-20.279,20.278-49.029,37.216-87.569,37.216
	c-39.868,0-68.171-15.386-88.787-36c-20.989-20.989-36.271-47.623-37.217-87.57c-0.926-39.101,15.949-68.09,35.515-88.787
	c9.845-10.413,22.481-19.145,36.73-25.783C86.761,4.723,103.337,0.516,123.608,0.035z M92.958,14.631
	c-22.256,6.336-39.93,18.415-53.028,32.838C22.745,66.392,7.931,94.917,10.497,132.121c2.415,35.026,17.366,59.521,36.974,77.354
	c18.679,16.984,47.86,32.378,84.407,29.677c35.148-2.6,58.689-16.885,77.354-36.975c17.39-18.717,32.466-46.841,29.921-84.164
	c-2.351-34.469-17.358-59.792-36.731-77.598C183.29,22.831,155.075,8.29,117.77,10.496C109.701,10.974,100.485,12.488,92.958,14.631
	z" />
	<path fillRule="evenodd" clipRule="evenodd" d="M146.716,100.012c9.669,1.333,21.049,2.947,32.353,4.621
	c5.214,0.772,11.253,0.812,11.19,6.325c-0.041,3.422-4.47,6.414-6.812,8.756c-5.396,5.397-9.78,10.024-15.324,15.569
	c-1.947,1.946-7.064,5.495-7.541,7.783c-0.423,2.028,1.256,8.118,1.702,10.704c1.254,7.226,2.334,13.146,3.65,21.162
	c0.852,5.193,2.948,12.269-2.434,13.379c-3.886,0.801-7.749-2.673-10.46-4.136c-10.18-5.496-17.888-9.233-28.216-15.081
	c-9.534,5.023-18.227,9.955-28.217,15.325c-3.84,2.063-12.097,7.097-14.108,0.486c-0.962-3.161,0.779-7.796,1.216-10.461
	c1.141-6.942,2.104-13.676,3.406-20.919c0.549-3.056,2.318-7.772,1.946-10.217c-0.348-2.28-5.776-6.262-7.541-8.026
	c-5.229-5.229-10.236-10.568-15.568-15.569c-2.733-2.563-9.31-7.246-5.595-12.162c2.339-3.094,16.117-3.72,20.433-4.378
	c8.755-1.336,14.347-2.108,21.649-3.162c4.144-8.187,10.122-19.679,14.838-29.677c1.691-3.585,4.451-12.913,10.703-8.271
	c1.739,1.292,4.053,7.006,5.109,9.243C137.674,81.016,142.577,91.098,146.716,100.012z M116.796,93.931
	c-1.925,3.83-4.587,13.065-8.27,14.838c-2.028,0.976-5.046,1.056-7.784,1.46c-8.53,1.255-16.415,2.407-24.812,3.648
	c5.445,5.813,12.008,12.008,18.244,18.244c1.935,1.934,5.197,4.486,5.595,6.81c0.449,2.625-0.755,5.805-1.216,8.515
	c-1.493,8.773-2.622,16.869-4.136,25.055c7.595-3.603,14.842-7.867,22.379-11.919c2.368-1.273,6.028-3.506,8.271-3.406
	c2.292,0.102,5.273,2.438,7.542,3.649c7.833,4.186,15.069,7.836,22.377,11.676c-1.055-7.895-2.827-16.888-4.134-24.568
	c-0.482-2.837-1.429-6.212-1.217-8.514c0.251-2.726,3.689-5.322,5.838-7.297c5.797-5.328,10.223-10.223,15.325-15.326
	c1.035-1.034,2.757-1.925,2.434-2.918c-7.942-1.312-16.379-2.438-24.326-3.648c-2.571-0.394-6.117-0.445-8.028-1.46
	c-1.833-0.974-3.159-4.591-4.377-7.055c-4.064-8.22-7.692-15.931-11.434-23.595c-0.014-0.149-0.036-0.289-0.243-0.243
	C122.056,83.025,119.857,87.844,116.796,93.931z" />
</svg>