<?xml version="1.0" encoding="utf-8"?>
<!-- Generator: Adobe Illustrator 15.1.0, SVG Export Plug-In  -->
<!DOCTYPE svg PUBLIC "-//W3C//DTD SVG 1.1//EN" "http://www.w3.org/Graphics/SVG/1.1/DTD/svg11.dtd" [ <!ENTITY
	ns_flows "http://ns.adobe.com/Flows/1.0/">
]>
<svg version="1.1" xmlns="http://www.w3.org/2000/svg" xmlns:xlink="http://www.w3.org/1999/xlink"
	xmlns:a="http://ns.adobe.com/AdobeSVGViewerExtensions/3.0/" x="0px" y="0px" width="250px" height="167px"
	viewBox="-0.032 0 250 167" overflow="visible" enable-background="new -0.032 0 250 167" xml:space="preserve">
	<defs>
	</defs>
	<path fillRule="evenodd" clipRule="evenodd" d="M41.515,0.408c2.751-0.745,9.043-0.241,13.449-0.241c61.033,0,119.794,0,181.797,0
	c4.347,0,9.773-0.481,11.526,1.441c2.26,2.478,1.202,10.746,1.202,15.13c0,33.571,0,62.856,0,96.544
	c0,5.607,0.73,13.295-1.681,15.369c-1.603,1.378-7.872,0.96-12.247,0.96c-56.983,0-114.305,0-171.473,0
	c-7.424,0-22.86,1.289-25.216-1.921c-1.683-2.294-0.961-10.732-0.961-15.609c0-32.442,0-64.814,0-98.225
	C37.912,7.507,36.915,1.654,41.515,0.408z M47.519,10.254c0,36.584,0,73.168,0,109.752c64.119,0,128.243,0,192.362,0
	c0-36.823,0-73.648,0-110.473c-64.042,0-128.079,0-192.122,0C47.479,9.573,47.497,9.914,47.519,10.254z" />
	<path fillRule="evenodd" clipRule="evenodd"
		d="M28.546,138.498c64.938,0.705,128.513-0.115,194.285,0.24
	c5.047,0.026,7.988,1.287,7.926,5.043c-0.119,7.12-15.255,4.803-22.334,4.803c-54.919,0-107.611,0-162.826,0
	c-7.049,0-22.475,1.614-25.456-1.682c-1.763-1.948-1.2-9.862-1.2-14.89c0-32.678,0-62.589,0-95.822
	c0-6.269-1.69-16.562,4.082-17.291c7.299-0.921,5.523,8.942,5.523,16.331C28.546,69.123,28.546,105.818,28.546,138.498z" />
	<path fillRule="evenodd" clipRule="evenodd" d="M225.475,28.506c-4.807,0.381-8.16-0.376-8.646-3.842
	c-1.021-7.281,10.946-7.808,12.007-2.161C229.324,25.104,228.046,27.307,225.475,28.506z" />
	<path fillRule="evenodd" clipRule="evenodd" d="M142.139,22.262c13.112-0.845,24.252,5.217,30.981,11.528
	c6.906,6.478,12.582,16.093,13.448,28.577c0.887,12.782-4.108,23.53-10.809,30.741c-7.094,7.637-15.723,13.482-27.618,14.409
	c-13.835,1.075-25.638-3.948-33.379-11.526c-7.229-7.075-13.652-16.308-13.689-30.981c-0.049-18.907,11.057-32.073,24.256-38.425
	C130.206,24.237,135.697,22.677,142.139,22.262z M120.045,41.715c-5.52,5.67-10.487,14.155-9.365,26.898
	c1.517,17.241,17.171,30.857,36.264,29.298c10.997-0.898,19.181-7.155,24.016-14.17c6.231-9.04,8.102-22.665,2.161-34.102
	c-5.145-9.899-16.791-19.306-33.384-17.531C131.009,33.043,124.507,37.133,120.045,41.715z" />
	<path fillRule="evenodd" clipRule="evenodd" d="M9.813,157.949c64.056,0,128.016,0,193.085,0c5.557,0,8.676,0.387,8.885,4.323
	c0.234,4.384-3.504,5.043-8.644,5.043c-64.128,0-125.317,0-189.724,0c-4.994,0-10.288,0.359-12.007-1.44
	c-1.838-1.923-1.201-9.805-1.201-15.13c0-32.686,0-63.232,0-96.782c0-6.271-1.51-15.253,3.603-16.09
	c7.528-1.234,6.003,8.164,6.003,15.61C9.813,87.781,9.813,124.866,9.813,157.949z" />
	<path fillRule="evenodd" clipRule="evenodd" d="M67.21,107.518c-5.49,0.703-9.889-0.924-8.645-6.243
	c0.806-3.445,6.687-4.585,9.847-2.644C71.87,100.758,70.929,106.149,67.21,107.518z" />
</svg>