<svg width="160" height="160" viewBox="0 0 160 160" fill="none" xmlns="http://www.w3.org/2000/svg">
  <path fillRule="evenodd" clipRule="evenodd"
    d="M151.25 31.25C152.286 31.25 153.125 32.0895 153.125 33.125V36.25H156.25C157.286 36.25 158.125 37.0895 158.125 38.125C158.125 39.1605 157.286 40 156.25 40H153.125V43.125C153.125 44.1605 152.286 45 151.25 45C150.214 45 149.375 44.1605 149.375 43.125V40H146.25C145.214 40 144.375 39.1605 144.375 38.125C144.375 37.0895 145.214 36.25 146.25 36.25L149.375 36.25V33.125C149.375 32.0895 150.214 31.25 151.25 31.25Z"
    fill="#DFEBFD" />
  <path fillRule="evenodd" clipRule="evenodd"
    d="M146.25 138.125C147.286 138.125 148.125 138.964 148.125 140V143.125H151.25C152.286 143.125 153.125 143.964 153.125 145C153.125 146.036 152.286 146.875 151.25 146.875H148.125V150C148.125 151.036 147.286 151.875 146.25 151.875C145.214 151.875 144.375 151.036 144.375 150V146.875H141.25C140.214 146.875 139.375 146.036 139.375 145C139.375 143.964 140.214 143.125 141.25 143.125L144.375 143.125V140C144.375 138.964 145.214 138.125 146.25 138.125Z"
    fill="#DFEBFD" />
  <path
    d="M113.125 13.125C113.125 15.5412 111.166 17.5 108.75 17.5C106.334 17.5 104.375 15.5412 104.375 13.125C104.375 10.7088 106.334 8.75 108.75 8.75C111.166 8.75 113.125 10.7088 113.125 13.125Z"
    fill="#C8E54E" />
  <path
    d="M18.125 127.5C18.125 129.226 16.7259 130.625 15 130.625C13.2741 130.625 11.875 129.226 11.875 127.5C11.875 125.774 13.2741 124.375 15 124.375C16.7259 124.375 18.125 125.774 18.125 127.5Z"
    fill="#C8E54E" />
  <path fillRule="evenodd" clipRule="evenodd"
    d="M31.25 14.375C30.2145 14.375 29.375 15.2145 29.375 16.25C29.375 17.2855 30.2145 18.125 31.25 18.125C32.2855 18.125 33.125 17.2855 33.125 16.25C33.125 15.2145 32.2855 14.375 31.25 14.375ZM24.375 16.25C24.375 12.453 27.453 9.375 31.25 9.375C35.047 9.375 38.125 12.453 38.125 16.25C38.125 20.047 35.047 23.125 31.25 23.125C27.453 23.125 24.375 20.047 24.375 16.25Z"
    fill="#DFEBFD" />
  <path fillRule="evenodd" clipRule="evenodd"
    d="M143.75 8.75C144.643 8.75 145.469 9.2265 145.915 10L150.245 17.5C150.692 18.2735 150.692 19.2265 150.245 20C149.799 20.7735 148.973 21.25 148.08 21.25H139.42C138.527 21.25 137.701 20.7735 137.255 20C136.808 19.2265 136.808 18.2735 137.255 17.5L141.585 10C142.032 9.2265 142.857 8.75 143.75 8.75Z"
    fill="#DFEBFD" />
  <path fillRule="evenodd" clipRule="evenodd"
    d="M26.25 137.5C27.1432 137.5 27.9685 137.976 28.4151 138.75L32.7452 146.25C33.1918 147.024 33.1918 147.976 32.7452 148.75C32.2987 149.524 31.4733 150 30.5802 150H21.9199C21.0268 150 20.2014 149.524 19.7549 148.75C19.3083 147.976 19.3083 147.024 19.7549 146.25L24.085 138.75C24.5316 137.976 25.3569 137.5 26.25 137.5Z"
    fill="#DFEBFD" />
  <path fillRule="evenodd" clipRule="evenodd"
    d="M13.125 32.5C14.0182 32.5 14.8435 32.9765 15.2901 33.75L19.6202 41.25C20.0668 42.0235 20.0668 42.9765 19.6202 43.75C19.1737 44.5235 18.3483 45 17.4552 45H8.79492C7.90176 45 7.07644 44.5235 6.62986 43.75C6.18328 42.9765 6.18328 42.0235 6.62986 41.25L10.96 33.75C11.4066 32.9765 12.2319 32.5 13.125 32.5Z"
    fill="#C8E54E" />
  <g clip-path="url(#clip0)">
    <path
      d="M26.5 64C26.5 58.4772 30.9772 54 36.5 54H121.5C127.023 54 131.5 58.4772 131.5 64V112.75C131.5 118.273 127.023 122.75 121.5 122.75H36.5C30.9772 122.75 26.5 118.273 26.5 112.75V64Z"
      fill="white" />
    <path fillRule="evenodd" clipRule="evenodd"
      d="M36.5 56.5C32.3579 56.5 29 59.8579 29 64V112.75C29 116.892 32.3579 120.25 36.5 120.25H121.5C125.642 120.25 129 116.892 129 112.75V82.125C129 80.7443 130.119 79.625 131.5 79.625C132.881 79.625 134 80.7443 134 82.125V112.75C134 119.654 128.404 125.25 121.5 125.25H36.5C29.5964 125.25 24 119.654 24 112.75V64C24 57.0964 29.5964 51.5 36.5 51.5H70.875C72.2557 51.5 73.375 52.6193 73.375 54C73.375 55.3807 72.2557 56.5 70.875 56.5H36.5Z"
      fill="#179439" />
    <path
      d="M105.25 100.875C105.25 106.053 101.053 110.25 95.875 110.25C90.6973 110.25 86.5 106.053 86.5 100.875C86.5 95.6973 90.6973 91.5 95.875 91.5C101.053 91.5 105.25 95.6973 105.25 100.875Z"
      fill="#C8E54E" />
    <path
      d="M119 100.875C119 106.053 114.803 110.25 109.625 110.25C104.447 110.25 100.25 106.053 100.25 100.875C100.25 95.6973 104.447 91.5 109.625 91.5C114.803 91.5 119 95.6973 119 100.875Z"
      fill="#179439" />
    <path fillRule="evenodd" clipRule="evenodd"
      d="M102.75 107.249C104.301 105.576 105.25 103.336 105.25 100.875C105.25 98.4137 104.301 96.1739 102.75 94.5012C101.199 96.1739 100.25 98.4137 100.25 100.875C100.25 103.336 101.199 105.576 102.75 107.249Z"
      fill="#095A31" />
    <path fillRule="evenodd" clipRule="evenodd"
      d="M36.5 99C36.5 97.6193 37.6193 96.5 39 96.5H56.5C57.8807 96.5 59 97.6193 59 99C59 100.381 57.8807 101.5 56.5 101.5H39C37.6193 101.5 36.5 100.381 36.5 99Z"
      fill="#BAC8DC" />
    <path fillRule="evenodd" clipRule="evenodd"
      d="M36.5 88.375C36.5 86.9943 37.6193 85.875 39 85.875H76.5C77.8807 85.875 79 86.9943 79 88.375C79 89.7557 77.8807 90.875 76.5 90.875H39C37.6193 90.875 36.5 89.7557 36.5 88.375Z"
      fill="#BAC8DC" />
    <path fillRule="evenodd" clipRule="evenodd"
      d="M130.405 73.375C132.691 69.4527 134 64.8988 134 60.0417C134 45.3141 121.968 33.375 107.125 33.375C92.2823 33.375 80.25 45.3141 80.25 60.0417C80.25 64.8988 81.5587 69.4527 83.8454 73.375H130.405Z"
      fill="white" />
    <path fillRule="evenodd" clipRule="evenodd"
      d="M107.125 35.875C93.6447 35.875 82.75 46.7131 82.75 60.0417C82.75 63.9401 83.6793 67.618 85.3298 70.875H128.92C130.571 67.618 131.5 63.9401 131.5 60.0417C131.5 46.7131 120.605 35.875 107.125 35.875ZM77.75 60.0417C77.75 43.9151 90.92 30.875 107.125 30.875C123.33 30.875 136.5 43.9151 136.5 60.0417C136.5 65.3539 135.067 70.3407 132.564 74.6341C132.116 75.4025 131.294 75.875 130.405 75.875H83.8454C82.956 75.875 82.1336 75.4025 81.6856 74.6341C79.1826 70.3407 77.75 65.3539 77.75 60.0417Z"
      fill="#095A31" />
    <path
      d="M117.32 47.4263C117.768 46.8711 118.647 47.3785 118.39 48.0438L112.538 63.1955L107.125 60.0705L117.32 47.4263Z"
      fill="#9DC346" />
    <path
      d="M95.25 67.75C95.25 61.1916 100.567 55.875 107.125 55.875V55.875C113.683 55.875 119 61.1916 119 67.75V70.875H95.25V67.75Z"
      fill="#179439" />
    <path
      d="M109 40.25C109 41.2855 108.161 42.125 107.125 42.125C106.089 42.125 105.25 41.2855 105.25 40.25C105.25 39.2145 106.089 38.375 107.125 38.375C108.161 38.375 109 39.2145 109 40.25Z"
      fill="#C8E54E" />
    <path
      d="M127.75 54C127.75 55.0355 126.911 55.875 125.875 55.875C124.839 55.875 124 55.0355 124 54C124 52.9645 124.839 52.125 125.875 52.125C126.911 52.125 127.75 52.9645 127.75 54Z"
      fill="#C8E54E" />
    <path
      d="M90.25 54C90.25 55.0355 89.4105 55.875 88.375 55.875C87.3395 55.875 86.5 55.0355 86.5 54C86.5 52.9645 87.3395 52.125 88.375 52.125C89.4105 52.125 90.25 52.9645 90.25 54Z"
      fill="#C8E54E" />
    <path
      d="M97.125 44.625C97.125 45.6605 96.2855 46.5 95.25 46.5C94.2145 46.5 93.375 45.6605 93.375 44.625C93.375 43.5895 94.2145 42.75 95.25 42.75C96.2855 42.75 97.125 43.5895 97.125 44.625Z"
      fill="#C8E54E" />
    <path
      d="M127.75 65.25C127.75 66.2855 126.911 67.125 125.875 67.125C124.839 67.125 124 66.2855 124 65.25C124 64.2145 124.839 63.375 125.875 63.375C126.911 63.375 127.75 64.2145 127.75 65.25Z"
      fill="#C8E54E" />
    <path
      d="M90.25 65.25C90.25 66.2855 89.4105 67.125 88.375 67.125C87.3395 67.125 86.5 66.2855 86.5 65.25C86.5 64.2145 87.3395 63.375 88.375 63.375C89.4105 63.375 90.25 64.2145 90.25 65.25Z"
      fill="#C8E54E" />
    <rect x="29" y="65.25" width="43.125" height="8.125" fill="#C8E54E" />
    <path
      d="M123.375 72.125C123.375 81.0996 116.1 88.375 107.125 88.375C98.1504 88.375 90.875 81.0996 90.875 72.125C90.875 63.1504 98.1504 55.875 107.125 55.875C116.1 55.875 123.375 63.1504 123.375 72.125Z"
      fill="#179439" />
    <path fillRule="evenodd" clipRule="evenodd"
      d="M112.819 63.5849C113.393 63.9679 113.548 64.744 113.165 65.3184L103.165 80.3184C102.782 80.8928 102.006 81.048 101.432 80.6651C100.857 80.2821 100.702 79.506 101.085 78.9316L111.085 63.9316C111.468 63.3572 112.244 63.202 112.819 63.5849Z"
      fill="white" />
    <path fillRule="evenodd" clipRule="evenodd"
      d="M101.5 67.125C101.155 67.125 100.875 67.4048 100.875 67.75C100.875 68.0952 101.155 68.375 101.5 68.375C101.845 68.375 102.125 68.0952 102.125 67.75C102.125 67.4048 101.845 67.125 101.5 67.125ZM98.375 67.75C98.375 66.0241 99.7741 64.625 101.5 64.625C103.226 64.625 104.625 66.0241 104.625 67.75C104.625 69.4759 103.226 70.875 101.5 70.875C99.7741 70.875 98.375 69.4759 98.375 67.75Z"
      fill="white" />
    <path fillRule="evenodd" clipRule="evenodd"
      d="M112.75 75.875C112.405 75.875 112.125 76.1548 112.125 76.5C112.125 76.8452 112.405 77.125 112.75 77.125C113.095 77.125 113.375 76.8452 113.375 76.5C113.375 76.1548 113.095 75.875 112.75 75.875ZM109.625 76.5C109.625 74.7741 111.024 73.375 112.75 73.375C114.476 73.375 115.875 74.7741 115.875 76.5C115.875 78.2259 114.476 79.625 112.75 79.625C111.024 79.625 109.625 78.2259 109.625 76.5Z"
      fill="white" />
  </g>
  <defs>
    <clipPath id="clip0">
      <rect width="112.5" height="112.5" fill="white" transform="translate(24 24)" />
    </clipPath>
  </defs>
</svg>