<svg width="180" height="180" viewBox="0 0 180 180" fill="none" xmlns="http://www.w3.org/2000/svg">
  <path
    d="M4 64C4 55.1634 11.1634 48 20 48H156C164.837 48 172 55.1634 172 64V142C172 150.837 164.837 158 156 158H20C11.1634 158 4 150.837 4 142V64Z"
    fill="white" />
  <path fillRule="evenodd" clipRule="evenodd"
    d="M20 52C13.3726 52 8 57.3726 8 64V142C8 148.627 13.3726 154 20 154H156C162.627 154 168 148.627 168 142V93C168 90.7909 169.791 89 172 89C174.209 89 176 90.7909 176 93V142C176 153.046 167.046 162 156 162H20C8.95431 162 0 153.046 0 142V64C0 52.9543 8.95431 44 20 44H75C77.2091 44 79 45.7909 79 48C79 50.2091 77.2091 52 75 52H20Z"
    fill="#179439" />
  <path
    d="M130 123C130 131.284 123.284 138 115 138C106.716 138 100 131.284 100 123C100 114.716 106.716 108 115 108C123.284 108 130 114.716 130 123Z"
    fill="#C8E54E" />
  <path
    d="M152 123C152 131.284 145.284 138 137 138C128.716 138 122 131.284 122 123C122 114.716 128.716 108 137 108C145.284 108 152 114.716 152 123Z"
    fill="#179439" />
  <path fillRule="evenodd" clipRule="evenodd"
    d="M126 133.198C128.482 130.522 130 126.938 130 123C130 119.062 128.482 115.478 126 112.802C123.518 115.478 122 119.062 122 123C122 126.938 123.518 130.522 126 133.198Z"
    fill="#095A31" />
  <path fillRule="evenodd" clipRule="evenodd"
    d="M20 120C20 117.791 21.7909 116 24 116H52C54.2091 116 56 117.791 56 120C56 122.209 54.2091 124 52 124H24C21.7909 124 20 122.209 20 120Z"
    fill="#BAC8DC" />
  <path fillRule="evenodd" clipRule="evenodd"
    d="M20 103C20 100.791 21.7909 99 24 99H84C86.2091 99 88 100.791 88 103C88 105.209 86.2091 107 84 107H24C21.7909 107 20 105.209 20 103Z"
    fill="#BAC8DC" />
  <path d="M8 66H77V79H8V66Z" fill="#C8E54E" />
  <path
    d="M131.536 14C133.076 11.3333 136.925 11.3333 138.464 14L170.507 69.5C172.047 72.1667 170.122 75.5 167.043 75.5H102.957C99.8779 75.5 97.9534 72.1667 99.493 69.5L131.536 14Z"
    fill="#179439" />
  <path fillRule="evenodd" clipRule="evenodd"
    d="M135 34C136.105 34 137 34.8954 137 36V39.2157H140C142.933 39.2157 145 41.7661 145 44.5098C145 45.6144 144.105 46.5098 143 46.5098C141.895 46.5098 141 45.6144 141 44.5098C141 43.6149 140.38 43.2157 140 43.2157H130C129.62 43.2157 129 43.6149 129 44.5098V46.7059C129 47.6007 129.62 48 130 48H140C142.933 48 145 50.5504 145 53.2941V55.4902C145 58.2339 142.933 60.7843 140 60.7843H137V64C137 65.1046 136.105 66 135 66C133.895 66 133 65.1046 133 64V60.7843H130C127.067 60.7843 125 58.2339 125 55.4902C125 54.3856 125.895 53.4902 127 53.4902C128.105 53.4902 129 54.3856 129 55.4902C129 56.3851 129.62 56.7843 130 56.7843H140C140.38 56.7843 141 56.3851 141 55.4902V53.2941C141 52.3993 140.38 52 140 52H130C127.067 52 125 49.4496 125 46.7059V44.5098C125 41.7661 127.067 39.2157 130 39.2157H133V36C133 34.8954 133.895 34 135 34Z"
    fill="white" />
  <path fillRule="evenodd" clipRule="evenodd"
    d="M128.072 12C131.151 6.66665 138.849 6.66668 141.928 12L173.971 67.5C177.05 72.8333 173.201 79.5 167.043 79.5H102.957C96.7986 79.5 92.9496 72.8333 96.0288 67.5L128.072 12ZM135 16L102.957 71.5L167.043 71.5L135 16Z"
    fill="#095A31" />
</svg>