<svg width="180" height="180" viewBox="0 0 180 180" fill="none" xmlns="http://www.w3.org/2000/svg">
  <path
    d="M4 64C4 55.1634 11.1634 48 20 48H156C164.837 48 172 55.1634 172 64V142C172 150.837 164.837 158 156 158H20C11.1634 158 4 150.837 4 142V64Z"
    fill="white" />
  <path fillRule="evenodd" clipRule="evenodd"
    d="M20 52C13.3726 52 8 57.3726 8 64V142C8 148.627 13.3726 154 20 154H156C162.627 154 168 148.627 168 142V93C168 90.7909 169.791 89 172 89C174.209 89 176 90.7909 176 93V142C176 153.046 167.046 162 156 162H20C8.95431 162 0 153.046 0 142V64C0 52.9543 8.95431 44 20 44H75C77.2091 44 79 45.7909 79 48C79 50.2091 77.2091 52 75 52H20Z"
    fill="#179439" />
  <path
    d="M130 123C130 131.284 123.284 138 115 138C106.716 138 100 131.284 100 123C100 114.716 106.716 108 115 108C123.284 108 130 114.716 130 123Z"
    fill="#C8E54E" />
  <path
    d="M152 123C152 131.284 145.284 138 137 138C128.716 138 122 131.284 122 123C122 114.716 128.716 108 137 108C145.284 108 152 114.716 152 123Z"
    fill="#179439" />
  <path fillRule="evenodd" clipRule="evenodd"
    d="M126 133.198C128.482 130.522 130 126.938 130 123C130 119.062 128.482 115.478 126 112.802C123.518 115.478 122 119.062 122 123C122 126.938 123.518 130.522 126 133.198Z"
    fill="#095A31" />
  <path fillRule="evenodd" clipRule="evenodd"
    d="M20 120C20 117.791 21.7909 116 24 116H52C54.2091 116 56 117.791 56 120C56 122.209 54.2091 124 52 124H24C21.7909 124 20 122.209 20 120Z"
    fill="#BAC8DC" />
  <path fillRule="evenodd" clipRule="evenodd"
    d="M20 103C20 100.791 21.7909 99 24 99H84C86.2091 99 88 100.791 88 103C88 105.209 86.2091 107 84 107H24C21.7909 107 20 105.209 20 103Z"
    fill="#BAC8DC" />
  <path d="M8 66H77V79H8V66Z" fill="#C8E54E" />
  <path fillRule="evenodd" clipRule="evenodd"
    d="M128 4C125.791 4 124 5.79086 124 8V19.0785C121.602 19.7403 119.325 20.6922 117.208 21.8943L109.373 14.0589C107.81 12.4968 105.278 12.4968 103.716 14.0589L98.0589 19.7158C96.4968 21.2778 96.4968 23.8105 98.0589 25.3726L105.894 33.208C104.692 35.3248 103.74 37.6022 103.078 40H92C89.7909 40 88 41.7909 88 44V52C88 54.2091 89.7909 56 92 56H103.078C103.74 58.3978 104.692 60.6753 105.894 62.7922L98.0591 70.6274C96.497 72.1895 96.497 74.7222 98.0591 76.2843L103.716 81.9411C105.278 83.5032 107.811 83.5032 109.373 81.9411L117.208 74.1058C119.325 75.3078 121.602 76.2598 124 76.9215V88C124 90.2091 125.791 92 128 92H136C138.209 92 140 90.2091 140 88V76.9215C142.398 76.2597 144.675 75.3078 146.792 74.1058L154.627 81.9412C156.189 83.5033 158.722 83.5033 160.284 81.9412L165.941 76.2843C167.503 74.7222 167.503 72.1895 165.941 70.6274L158.106 62.7921C159.308 60.6752 160.26 58.3978 160.922 56H172C174.209 56 176 54.2091 176 52V44C176 41.7909 174.209 40 172 40H160.922C160.26 37.6023 159.308 35.3249 158.106 33.2081L165.941 25.3726C167.503 23.8105 167.503 21.2778 165.941 19.7157L160.284 14.0589C158.722 12.4968 156.19 12.4968 154.628 14.0589L146.792 21.8944C144.675 20.6923 142.398 19.7403 140 19.0785V8C140 5.79086 138.209 4 136 4H128ZM132 58C137.523 58 142 53.5228 142 48C142 42.4772 137.523 38 132 38C126.477 38 122 42.4772 122 48C122 53.5228 126.477 58 132 58Z"
    fill="#C8E54E" />
  <path fillRule="evenodd" clipRule="evenodd"
    d="M120 8C120 3.58173 123.582 0 128 0H136C140.418 0 144 3.58172 144 8V16.1794C144.682 16.4368 145.354 16.7156 146.015 17.0148L151.799 11.2305C154.923 8.10627 159.989 8.10628 163.113 11.2305L160.284 14.0589L163.113 11.2305L168.77 16.8873C171.894 20.0115 171.894 25.0768 168.77 28.201L162.985 33.9854C163.285 34.6459 163.563 35.3177 163.821 36H172C176.418 36 180 39.5817 180 44V52C180 56.4183 176.418 60 172 60H163.821C163.563 60.6824 163.284 61.3542 162.985 62.0148L168.77 67.799C171.894 70.9232 171.894 75.9885 168.77 79.1127L163.113 84.7696C159.988 87.8938 154.923 87.8938 151.799 84.7696L146.015 78.9853C145.354 79.2845 144.682 79.5632 144 79.8206V88C144 92.4183 140.418 96 136 96H128C123.582 96 120 92.4183 120 88V79.8206C119.318 79.5632 118.646 79.2845 117.985 78.9854L112.201 84.7696C109.077 87.8938 104.012 87.8938 100.888 84.7696L95.2307 79.1127L98.0111 76.3322L95.2307 79.1127C92.1065 75.9885 92.1065 70.9232 95.2307 67.799L101.015 62.0149C100.716 61.3543 100.437 60.6824 100.179 60H92C87.5817 60 84 56.4183 84 52V44C84 39.5817 87.5817 36 92 36H100.179C100.437 35.3176 100.716 34.6458 101.015 33.9853L95.2304 28.201C92.1062 25.0768 92.1062 20.0115 95.2304 16.8873L100.887 11.2305C104.011 8.10628 109.077 8.10628 112.201 11.2305L117.985 17.0147C118.646 16.7155 119.318 16.4368 120 16.1794V8ZM136 8L128 8V19.0785C128 20.8778 126.799 22.4556 125.064 22.9343C122.989 23.5071 121.017 24.3312 119.183 25.3726C117.618 26.2613 115.652 25.9953 114.38 24.7227L106.544 16.8873L100.887 22.5442L108.723 30.3796C109.995 31.6522 110.261 33.6181 109.373 35.1831C108.331 37.0172 107.507 38.989 106.934 41.0642C106.456 42.7986 104.878 44 103.078 44H92V52H103.078C104.878 52 106.456 53.2014 106.934 54.9358C107.507 57.011 108.331 58.9829 109.373 60.817C110.261 62.3821 109.995 64.348 108.723 65.6206L100.888 73.4559L98.0591 76.2843L100.888 73.4559L106.544 79.1127L114.38 71.2774C115.652 70.0048 117.618 69.7388 119.183 70.6275C121.017 71.6689 122.989 72.493 125.064 73.0657C126.799 73.5444 128 75.1222 128 76.9215V88H136V76.9215C136 75.1222 137.201 73.5444 138.936 73.0657C141.011 72.4929 142.983 71.6688 144.817 70.6274C146.382 69.7387 148.348 70.0047 149.62 71.2773L157.456 79.1127L163.113 73.4559L155.277 65.6205C154.005 64.3478 153.739 62.382 154.627 60.8169C155.669 58.9829 156.493 57.011 157.066 54.9358C157.544 53.2014 159.122 52 160.922 52H172V44H160.922C159.122 44 157.544 42.7986 157.066 41.0642C156.493 38.989 155.669 37.0172 154.627 35.1832C153.739 33.6182 154.005 31.6523 155.277 30.3797L163.113 22.5442L157.456 16.8873L149.621 24.7228C148.348 25.9954 146.382 26.2614 144.817 25.3727C142.983 24.3312 141.011 23.5071 138.936 22.9343C137.201 22.4556 136 20.8777 136 19.0785V8ZM132 42C128.686 42 126 44.6863 126 48C126 51.3137 128.686 54 132 54C135.314 54 138 51.3137 138 48C138 44.6863 135.314 42 132 42ZM118 48C118 40.268 124.268 34 132 34C139.732 34 146 40.268 146 48C146 55.732 139.732 62 132 62C124.268 62 118 55.732 118 48Z"
    fill="#179439" />
  <path
    d="M153 48C153 59.598 143.598 69 132 69C120.402 69 111 59.598 111 48C111 36.402 120.402 27 132 27C143.598 27 153 36.402 153 48Z"
    fill="#179439" />
  <path fillRule="evenodd" clipRule="evenodd"
    d="M139.358 36.9636C140.1 37.4585 140.3 38.4614 139.806 39.2037L126.882 58.5884C126.388 59.3307 125.385 59.5313 124.642 59.0364C123.9 58.5415 123.699 57.5386 124.194 56.7963L137.117 37.4116C137.612 36.6693 138.615 36.4687 139.358 36.9636Z"
    fill="white" />
  <path fillRule="evenodd" clipRule="evenodd"
    d="M124.731 41.5384C124.285 41.5384 123.923 41.9 123.923 42.3461C123.923 42.7922 124.285 43.1538 124.731 43.1538C125.177 43.1538 125.539 42.7922 125.539 42.3461C125.539 41.9 125.177 41.5384 124.731 41.5384ZM120.692 42.3461C120.692 40.1157 122.5 38.3076 124.731 38.3076C126.961 38.3076 128.769 40.1157 128.769 42.3461C128.769 44.5765 126.961 46.3845 124.731 46.3845C122.5 46.3845 120.692 44.5765 120.692 42.3461Z"
    fill="white" />
  <path fillRule="evenodd" clipRule="evenodd"
    d="M139.269 52.8462C138.823 52.8462 138.461 53.2079 138.461 53.6539C138.461 54.1 138.823 54.4616 139.269 54.4616C139.715 54.4616 140.077 54.1 140.077 53.6539C140.077 53.2079 139.715 52.8462 139.269 52.8462ZM135.231 53.6539C135.231 51.4236 137.039 49.6155 139.269 49.6155C141.5 49.6155 143.308 51.4236 143.308 53.6539C143.308 55.8843 141.5 57.6924 139.269 57.6924C137.039 57.6924 135.231 55.8843 135.231 53.6539Z"
    fill="white" />
</svg>