<svg width="180" height="180" viewBox="0 0 180 180" fill="none" xmlns="http://www.w3.org/2000/svg">
  <g clip-path="url(#clip0)">
    <path fillRule="evenodd" clipRule="evenodd"
      d="M90 33C92.2092 33 94 34.7909 94 37V98.622L138.311 69.652C140.16 68.4432 142.639 68.9621 143.848 70.8111C145.057 72.6602 144.538 75.1391 142.689 76.348L94 108.18V165C94 167.209 92.2092 169 90 169C87.7909 169 86 167.209 86 165V122.781L54.2835 93.4361C52.662 91.9358 52.5637 89.405 54.0639 87.7835C55.5642 86.1619 58.095 86.0636 59.7165 87.5639L86 111.882V37C86 34.7909 87.7909 33 90 33Z"
      fill="#179439" />
    <path
      d="M50 8C50 5.79086 51.7909 4 54 4L126 4C128.209 4 130 5.79086 130 8V42C130 44.2091 128.209 46 126 46L54 46C51.7909 46 50 44.2091 50 42V8Z"
      fill="#9DC346" />
    <path fillRule="evenodd" clipRule="evenodd"
      d="M46 8C46 3.58172 49.5817 0 54 0L126 0C130.418 0 134 3.58172 134 8V42C134 46.4183 130.418 50 126 50L54 50C49.5817 50 46 46.4183 46 42V8ZM126 8L54 8V42L126 42V8Z"
      fill="#095A31" />
    <path
      d="M104 25C104 32.732 97.732 39 90 39C82.268 39 76 32.732 76 25C76 17.268 82.268 11 90 11C97.732 11 104 17.268 104 25Z"
      fill="white" />
    <path fillRule="evenodd" clipRule="evenodd"
      d="M58 14C58 12.8954 58.8954 12 60 12H66C67.1046 12 68 12.8954 68 14C68 15.1046 67.1046 16 66 16H60C58.8954 16 58 15.1046 58 14Z"
      fill="#C8E54E" />
    <path fillRule="evenodd" clipRule="evenodd"
      d="M112 36C112 34.8954 112.895 34 114 34H120C121.105 34 122 34.8954 122 36C122 37.1046 121.105 38 120 38H114C112.895 38 112 37.1046 112 36Z"
      fill="#C8E54E" />
    <path
      d="M46 129C46 126.791 47.7909 125 50 125H130C132.209 125 134 126.791 134 129V138C134 140.209 132.209 142 130 142H50C47.7909 142 46 140.209 46 138V129Z"
      fill="#C8E54E" />
    <path fillRule="evenodd" clipRule="evenodd"
      d="M42 129C42 124.582 45.5817 121 50 121H130C134.418 121 138 124.582 138 129V138C138 142.418 134.418 146 130 146H50C45.5817 146 42 142.418 42 138V129ZM130 129H50V138H130V129Z"
      fill="#179439" />
    <path
      d="M57.5085 147.129C56.755 144.567 58.6755 142 61.3459 142H118.654C121.325 142 123.245 144.567 122.492 147.129L114.845 173.129C114.344 174.831 112.782 176 111.007 176H68.993C67.2186 176 65.6562 174.831 65.1555 173.129L57.5085 147.129Z"
      fill="#C8E54E" />
    <path fillRule="evenodd" clipRule="evenodd"
      d="M53.671 148.257C52.164 143.134 56.005 138 61.3459 138H118.654C123.995 138 127.836 143.133 126.329 148.257L118.682 174.257C117.681 177.662 114.556 180 111.007 180H68.993C65.4441 180 62.3194 177.662 61.318 174.257L53.671 148.257ZM61.3459 146L61.3459 146L68.993 172H111.007L118.654 146H61.3459Z"
      fill="#179439" />
    <path fillRule="evenodd" clipRule="evenodd"
      d="M112 80C112 66.1929 123.193 55 137 55C150.807 55 162 66.1929 162 80C162 93.8071 150.807 105 137 105C123.193 105 112 93.8071 112 80Z"
      fill="#095A31" />
    <path
      d="M157.833 80.0001C157.833 91.506 148.506 100.833 137 100.833C125.494 100.833 116.167 91.506 116.167 80.0001C116.167 68.4941 125.494 59.1667 137 59.1667C148.506 59.1667 157.833 68.4941 157.833 80.0001Z"
      fill="#179439" />
    <path fillRule="evenodd" clipRule="evenodd"
      d="M137 66.6667C137.92 66.6667 138.667 67.4129 138.667 68.3334V71.0132H141.167C143.611 71.0132 145.333 73.1385 145.333 75.4249C145.333 76.3454 144.587 77.0916 143.667 77.0916C142.746 77.0916 142 76.3454 142 75.4249C142 74.6792 141.484 74.3465 141.167 74.3465H132.833C132.516 74.3465 132 74.6792 132 75.4249V77.255C132 78.0007 132.516 78.3334 132.833 78.3334H141.167C143.611 78.3334 145.333 80.4587 145.333 82.7452V84.5752C145.333 86.8617 143.611 88.987 141.167 88.987H138.667V91.6667C138.667 92.5872 137.92 93.3334 137 93.3334C136.079 93.3334 135.333 92.5872 135.333 91.6667V88.987H132.833C130.389 88.987 128.667 86.8617 128.667 84.5752C128.667 83.6548 129.413 82.9086 130.333 82.9086C131.254 82.9086 132 83.6548 132 84.5752C132 85.321 132.516 85.6537 132.833 85.6537H141.167C141.484 85.6537 142 85.321 142 84.5752V82.7452C142 81.9995 141.484 81.6667 141.167 81.6667H132.833C130.389 81.6667 128.667 79.5414 128.667 77.255V75.4249C128.667 73.1385 130.389 71.0132 132.833 71.0132H135.333V68.3334C135.333 67.4129 136.079 66.6667 137 66.6667Z"
      fill="white" />
    <path fillRule="evenodd" clipRule="evenodd"
      d="M18 86C18 72.1929 29.1929 61 43 61C56.8071 61 68 72.1929 68 86C68 99.8071 56.8071 111 43 111C29.1929 111 18 99.8071 18 86Z"
      fill="#095A31" />
    <path
      d="M63.8333 86.0001C63.8333 97.506 54.5059 106.833 43 106.833C31.494 106.833 22.1666 97.506 22.1666 86.0001C22.1666 74.4941 31.494 65.1667 43 65.1667C54.5059 65.1667 63.8333 74.4941 63.8333 86.0001Z"
      fill="#179439" />
    <path fillRule="evenodd" clipRule="evenodd"
      d="M43 72.6667C43.9204 72.6667 44.6666 73.4129 44.6666 74.3334V77.0132H47.1666C49.6111 77.0132 51.3333 79.1385 51.3333 81.4249C51.3333 82.3454 50.5871 83.0916 49.6666 83.0916C48.7462 83.0916 48 82.3454 48 81.4249C48 80.6792 47.4836 80.3465 47.1666 80.3465H38.8333C38.5163 80.3465 38 80.6792 38 81.4249V83.255C38 84.0007 38.5163 84.3334 38.8333 84.3334H47.1666C49.6111 84.3334 51.3333 86.4587 51.3333 88.7452V90.5752C51.3333 92.8617 49.6111 94.987 47.1666 94.987H44.6666V97.6667C44.6666 98.5872 43.9204 99.3334 43 99.3334C42.0795 99.3334 41.3333 98.5872 41.3333 97.6667V94.987H38.8333C36.3888 94.987 34.6666 92.8617 34.6666 90.5752C34.6666 89.6548 35.4128 88.9086 36.3333 88.9086C37.2538 88.9086 38 89.6548 38 90.5752C38 91.321 38.5163 91.6537 38.8333 91.6537H47.1666C47.4836 91.6537 48 91.321 48 90.5752V88.7452C48 87.9995 47.4836 87.6667 47.1666 87.6667H38.8333C36.3888 87.6667 34.6666 85.5414 34.6666 83.255V81.4249C34.6666 79.1385 36.3888 77.0132 38.8333 77.0132H41.3333V74.3334C41.3333 73.4129 42.0795 72.6667 43 72.6667Z"
      fill="white" />
  </g>
  <defs>
    <clipPath id="clip0">
      <rect width="180" height="180" fill="white" />
    </clipPath>
  </defs>
</svg>