<svg width="180" height="180" viewBox="0 0 180 180" fill="none" xmlns="http://www.w3.org/2000/svg">
  <g clip-path="url(#clip0)">
    <path
      d="M76.5 166H30.5V118L47.5 109H94.5V127.35H108.9H164.71C171.166 127.35 176.4 132.584 176.4 139.041C176.4 144.736 172.296 149.603 166.682 150.563L76.5 166Z"
      fill="white" />
    <path d="M30.15 121.05L44.1 109.35V168.3H30.15V121.05Z" fill="#DFEBFD" />
    <path fillRule="evenodd" clipRule="evenodd"
      d="M104.9 127.35C104.9 125.141 106.691 123.35 108.9 123.35H164.71C173.375 123.35 180.4 130.375 180.4 139.041C180.4 146.685 174.891 153.217 167.357 154.506L76.8399 170H31.05V162H76.1602L166.007 146.621C169.7 145.989 172.4 142.787 172.4 139.041C172.4 134.793 168.957 131.35 164.71 131.35H108.9C106.691 131.35 104.9 129.559 104.9 127.35Z"
      fill="#179439" />
    <path fillRule="evenodd" clipRule="evenodd"
      d="M33.4251 111.361C39.4355 106.594 46.8812 104 54.5525 104H85.4001C93.1321 104 99.4001 110.268 99.4001 118V123.2C99.4001 130.932 93.1321 137.2 85.4001 137.2H59.8501C57.6409 137.2 55.8501 135.409 55.8501 133.2C55.8501 130.991 57.6409 129.2 59.8501 129.2H85.4001C88.7138 129.2 91.4001 126.514 91.4001 123.2V118C91.4001 114.686 88.7138 112 85.4001 112H54.5525C48.6862 112 42.9924 113.984 38.3962 117.629L33.5357 121.484C31.8048 122.857 29.2888 122.566 27.9161 120.836C26.5433 119.105 26.8337 116.589 28.5645 115.216L33.4251 111.361Z"
      fill="#179439" />
    <path
      d="M5.40002 114.4C5.40002 108.877 9.87718 104.4 15.4 104.4H20.6C26.1229 104.4 30.6 108.877 30.6 114.4V165.5C30.6 171.023 26.1229 175.5 20.6 175.5H15.4C9.87717 175.5 5.40002 171.023 5.40002 165.5V114.4Z"
      fill="#C8E54E" />
    <path fillRule="evenodd" clipRule="evenodd"
      d="M-0.400024 114.4C-0.400024 106.668 5.86799 100.4 13.6 100.4H20.6C28.332 100.4 34.6 106.668 34.6 114.4V118.8C34.6 121.009 32.8091 122.8 30.6 122.8C28.3908 122.8 26.6 121.009 26.6 118.8V114.4C26.6 111.086 23.9137 108.4 20.6 108.4H13.6C10.2863 108.4 7.59998 111.086 7.59998 114.4V166.4C7.59998 169.714 10.2863 172.4 13.6 172.4H20.6C23.9137 172.4 26.6 169.714 26.6 166.4V135.9C26.6 133.691 28.3908 131.9 30.6 131.9C32.8091 131.9 34.6 133.691 34.6 135.9V166.4C34.6 174.132 28.332 180.4 20.6 180.4H13.6C5.86799 180.4 -0.400024 174.132 -0.400024 166.4V114.4Z"
      fill="#095A31" />
    <path
      d="M22.5 163.8C22.5 166.782 20.0823 169.2 17.1 169.2C14.1176 169.2 11.7 166.782 11.7 163.8C11.7 160.818 14.1176 158.4 17.1 158.4C20.0823 158.4 22.5 160.818 22.5 163.8Z"
      fill="#179439" />
    <path fillRule="evenodd" clipRule="evenodd"
      d="M167 44C169.209 44 171 45.7909 171 48V72C171 83.0457 162.046 92 151 92H90C87.7909 92 86 90.2091 86 88C86 85.7909 87.7909 84 90 84H151C157.627 84 163 78.6274 163 72V48C163 45.7909 164.791 44 167 44Z"
      fill="#179439" />
    <path
      d="M55 22C55 19.7909 56.7909 18 59 18H151C153.209 18 155 19.7909 155 22V72C155 74.2091 153.209 76 151 76H59C56.7909 76 55 74.2091 55 72V22Z"
      fill="#9DC346" />
    <path fillRule="evenodd" clipRule="evenodd"
      d="M51 22C51 17.5817 54.5817 14 59 14H151C155.418 14 159 17.5817 159 22V72C159 76.4183 155.418 80 151 80H59C54.5817 80 51 76.4183 51 72V22ZM151 22L59 22V72H151V22Z"
      fill="#095A31" />
    <path
      d="M123 48C123 57.9411 114.941 66 105 66C95.0589 66 87 57.9411 87 48C87 38.0589 95.0589 30 105 30C114.941 30 123 38.0589 123 48Z"
      fill="white" />
    <path fillRule="evenodd" clipRule="evenodd"
      d="M105 32C106.105 32 107 32.8954 107 34V37.2157H110C112.933 37.2157 115 39.7661 115 42.5098C115 43.6144 114.105 44.5098 113 44.5098C111.895 44.5098 111 43.6144 111 42.5098C111 41.6149 110.38 41.2157 110 41.2157H100C99.6196 41.2157 99 41.6149 99 42.5098V44.7059C99 45.6007 99.6196 46 100 46H110C112.933 46 115 48.5504 115 51.2941V53.4902C115 56.2339 112.933 58.7843 110 58.7843H107V62C107 63.1046 106.105 64 105 64C103.895 64 103 63.1046 103 62V58.7843H100C97.0667 58.7843 95 56.2339 95 53.4902C95 52.3856 95.8954 51.4902 97 51.4902C98.1046 51.4902 99 52.3856 99 53.4902C99 54.3851 99.6196 54.7843 100 54.7843H110C110.38 54.7843 111 54.3851 111 53.4902V51.2941C111 50.3993 110.38 50 110 50H100C97.0667 50 95 47.4496 95 44.7059V42.5098C95 39.7661 97.0667 37.2157 100 37.2157H103V34C103 32.8954 103.895 32 105 32Z"
      fill="#179439" />
    <path
      d="M71 22C71 23.5759 70.6896 25.1363 70.0866 26.5922C69.4835 28.0481 68.5996 29.371 67.4853 30.4853C66.371 31.5996 65.0481 32.4835 63.5922 33.0866C62.1363 33.6896 60.5759 34 59 34L59 22H71Z"
      fill="#095A31" />
    <path
      d="M71 72C71 70.4241 70.6896 68.8637 70.0866 67.4078C69.4835 65.9519 68.5996 64.629 67.4853 63.5147C66.371 62.4004 65.0481 61.5165 63.5922 60.9134C62.1363 60.3104 60.5759 60 59 60L59 72H71Z"
      fill="#095A31" />
    <path
      d="M139 22C139 23.5759 139.31 25.1363 139.913 26.5922C140.517 28.0481 141.4 29.371 142.515 30.4853C143.629 31.5996 144.952 32.4835 146.408 33.0866C147.864 33.6896 149.424 34 151 34L151 22H139Z"
      fill="#095A31" />
    <path
      d="M139 72C139 70.4241 139.31 68.8637 139.913 67.4078C140.517 65.9519 141.4 64.629 142.515 63.5147C143.629 62.4004 144.952 61.5165 146.408 60.9134C147.864 60.3104 149.424 60 151 60L151 72H139Z"
      fill="#095A31" />
  </g>
  <defs>
    <clipPath id="clip0">
      <rect width="180" height="180" fill="white" />
    </clipPath>
  </defs>
</svg>