<svg width="180" height="180" viewBox="0 0 180 180" fill="none" xmlns="http://www.w3.org/2000/svg">
  <g clip-path="url(#clip0)">
    <path
      d="M76.5 166H30.5V118L47.5 109H94.5V127.35H108.9H164.71C171.166 127.35 176.4 132.584 176.4 139.041C176.4 144.736 172.296 149.603 166.682 150.563L76.5 166Z"
      fill="white" />
    <path d="M30.15 121.05L44.1 109.35V168.3H30.15V121.05Z" fill="#DFEBFD" />
    <path fillRule="evenodd" clipRule="evenodd"
      d="M104.9 127.35C104.9 125.141 106.691 123.35 108.9 123.35H164.71C173.375 123.35 180.4 130.375 180.4 139.04C180.4 146.685 174.891 153.216 167.357 154.506L76.8399 170H31.05V162H76.1602L166.007 146.621C169.7 145.989 172.4 142.787 172.4 139.04C172.4 134.793 168.957 131.35 164.71 131.35H108.9C106.691 131.35 104.9 129.559 104.9 127.35Z"
      fill="#179439" />
    <path fillRule="evenodd" clipRule="evenodd"
      d="M33.4251 111.361C39.4355 106.594 46.8812 104 54.5525 104H85.4001C93.1321 104 99.4001 110.268 99.4001 118V123.2C99.4001 130.932 93.1321 137.2 85.4001 137.2H59.8501C57.6409 137.2 55.8501 135.409 55.8501 133.2C55.8501 130.991 57.6409 129.2 59.8501 129.2H85.4001C88.7138 129.2 91.4001 126.514 91.4001 123.2V118C91.4001 114.686 88.7138 112 85.4001 112H54.5525C48.6862 112 42.9924 113.984 38.3962 117.629L33.5357 121.484C31.8048 122.857 29.2888 122.566 27.9161 120.836C26.5433 119.105 26.8337 116.589 28.5645 115.216L33.4251 111.361Z"
      fill="#179439" />
    <path
      d="M5.40002 114.4C5.40002 108.877 9.87718 104.4 15.4 104.4H20.6C26.1229 104.4 30.6 108.877 30.6 114.4V165.5C30.6 171.023 26.1229 175.5 20.6 175.5H15.4C9.87717 175.5 5.40002 171.023 5.40002 165.5V114.4Z"
      fill="#C8E54E" />
    <path fillRule="evenodd" clipRule="evenodd"
      d="M-0.400024 114.4C-0.400024 106.668 5.86799 100.4 13.6 100.4H20.6C28.332 100.4 34.6 106.668 34.6 114.4V118.8C34.6 121.009 32.8091 122.8 30.6 122.8C28.3908 122.8 26.6 121.009 26.6 118.8V114.4C26.6 111.086 23.9137 108.4 20.6 108.4H13.6C10.2863 108.4 7.59998 111.086 7.59998 114.4V166.4C7.59998 169.714 10.2863 172.4 13.6 172.4H20.6C23.9137 172.4 26.6 169.714 26.6 166.4V135.9C26.6 133.691 28.3908 131.9 30.6 131.9C32.8091 131.9 34.6 133.691 34.6 135.9V166.4C34.6 174.132 28.332 180.4 20.6 180.4H13.6C5.86799 180.4 -0.400024 174.132 -0.400024 166.4V114.4Z"
      fill="#095A31" />
    <path
      d="M22.5 163.8C22.5 166.782 20.0823 169.2 17.1 169.2C14.1176 169.2 11.7 166.782 11.7 163.8C11.7 160.818 14.1176 158.4 17.1 158.4C20.0823 158.4 22.5 160.818 22.5 163.8Z"
      fill="#179439" />
    <path
      d="M129.281 32H142.719C149.655 32 155.801 36.4692 157.939 43.0676L170.418 81.5745C173.186 90.1175 170.484 99.4856 163.592 105.242L161.624 106.886C157.667 110.19 152.676 112 147.521 112H124.479C119.324 112 114.333 110.19 110.376 106.886L108.408 105.242C101.516 99.4856 98.8137 90.1175 101.582 81.5745L114.061 43.0676C116.199 36.4692 122.345 32 129.281 32Z"
      fill="#C8E54E" />
    <path fillRule="evenodd" clipRule="evenodd"
      d="M136 56C137.105 56 138 56.8954 138 58V61.2157H141C143.933 61.2157 146 63.7661 146 66.5098C146 67.6144 145.105 68.5098 144 68.5098C142.895 68.5098 142 67.6144 142 66.5098C142 65.6149 141.38 65.2157 141 65.2157H131C130.62 65.2157 130 65.6149 130 66.5098V68.7059C130 69.6007 130.62 70 131 70H141C143.933 70 146 72.5504 146 75.2941V77.4902C146 80.2339 143.933 82.7843 141 82.7843H138V86C138 87.1046 137.105 88 136 88C134.895 88 134 87.1046 134 86V82.7843H131C128.067 82.7843 126 80.2339 126 77.4902C126 76.3856 126.895 75.4902 128 75.4902C129.105 75.4902 130 76.3856 130 77.4902C130 78.3851 130.62 78.7843 131 78.7843H141C141.38 78.7843 142 78.3851 142 77.4902V75.2941C142 74.3993 141.38 74 141 74H131C128.067 74 126 71.4496 126 68.7059V66.5098C126 63.7661 128.067 61.2157 131 61.2157H134V58C134 56.8954 134.895 56 136 56Z"
      fill="#179439" />
    <path fillRule="evenodd" clipRule="evenodd"
      d="M110.255 41.8345C112.928 33.5865 120.611 28 129.281 28H142.719C151.389 28 159.072 33.5865 161.745 41.8345L174.223 80.3414C177.495 90.4377 174.302 101.509 166.156 108.312L164.188 109.956C159.512 113.861 153.613 116 147.521 116H124.479C118.387 116 112.488 113.861 107.812 109.956L110.376 106.886L107.812 109.956L105.844 108.312C97.6983 101.509 94.5051 90.4377 97.7769 80.3414L110.255 41.8345ZM129.281 36C124.079 36 119.469 39.3519 117.866 44.3007L105.387 82.8076C103.122 89.7973 105.333 97.4621 110.972 102.172L108.408 105.242L110.972 102.172L112.94 103.816C116.177 106.519 120.261 108 124.479 108H147.521C151.739 108 155.823 106.519 159.06 103.816L161.028 102.172C166.667 97.4621 168.878 89.7973 166.613 82.8076L154.134 44.3007C152.531 39.3519 147.921 36 142.719 36H129.281Z"
      fill="#095A31" />
    <path
      d="M115.346 22.3087L125.814 31.9999H146.326L154.224 22.0983C157.483 18.0126 157.046 12.1062 153.221 8.54439L150.862 6.34674C147.022 2.77081 141.071 2.77081 137.231 6.34675L131.953 11.262C129.613 13.4417 126.196 14.0116 123.275 12.7095L122.04 12.1591C119.547 11.048 116.621 11.7091 114.847 13.7838C112.698 16.2985 112.918 20.0615 115.346 22.3087Z"
      fill="#C8E54E" />
    <path fillRule="evenodd" clipRule="evenodd"
      d="M148.136 9.27396C145.832 7.1284 142.261 7.12841 139.957 9.27397L134.679 14.1893C131.164 17.4627 126.033 18.3184 121.646 16.363L120.412 15.8126C119.537 15.4228 118.51 15.6547 117.888 16.3826C117.134 17.2649 117.211 18.585 118.063 19.3735L127.381 27.9999H144.4L151.097 19.604C153.052 17.1525 152.79 13.6087 150.495 11.4716L148.136 9.27396ZM134.505 3.41953C139.881 -1.58678 148.212 -1.58679 153.588 3.41952L155.948 5.61717C161.302 10.6038 161.914 18.8726 157.351 24.5926L148.252 35.9999H124.247L112.628 25.244C108.625 21.5379 108.262 15.3321 111.807 11.185C114.731 7.76343 119.558 6.67318 123.669 8.50564L124.903 9.05598C126.359 9.70474 128.061 9.42082 129.227 8.33483L134.505 3.41953Z"
      fill="#095A31" />
  </g>
  <defs>
    <clipPath id="clip0">
      <rect width="180" height="180" fill="white" />
    </clipPath>
  </defs>
</svg>