<svg width="180" height="180" viewBox="0 0 180 180" fill="none" xmlns="http://www.w3.org/2000/svg">
  <path
    d="M20 30C20 27.7909 21.7909 26 24 26H136C138.209 26 140 27.7909 140 30V172C140 174.209 138.209 176 136 176H24C21.7909 176 20 174.209 20 172V30Z"
    fill="white" />
  <path fillRule="evenodd" clipRule="evenodd"
    d="M16 30C16 25.5817 19.5817 22 24 22H136C140.418 22 144 25.5817 144 30V172C144 176.418 140.418 180 136 180H24C19.5817 180 16 176.418 16 172V30ZM136 30L24 30V172H136V30Z"
    fill="#095A31" />
  <path d="M35 34H125V162H35V34Z" fill="white" />
  <path d="M85.8826 96.0994L64.7061 118.812H107.647L85.8826 96.0994Z" fill="#179439" />
  <path d="M86.4705 130.823H99.4117V149.647H86.4705V130.823Z" fill="#9DC346" />
  <path d="M97.059 95.5295H107.647V116.706L97.059 106.706V95.5295Z" fill="#DFEBFD" />
  <path fillRule="evenodd" clipRule="evenodd"
    d="M94.4123 94.353C94.4123 93.0535 95.4658 92 96.7653 92H107.648C108.947 92 110.001 93.0535 110.001 94.353V149.065C110.001 150.365 108.947 151.418 107.648 151.418H86.4711C85.1716 151.418 84.1182 150.365 84.1182 149.065V131.678C84.1182 129.079 86.2251 126.972 88.8241 126.972H97.0594C99.6584 126.972 101.765 129.079 101.765 131.678V146.712H105.295V118.617L85.9057 99.4318L67.0593 118.598V124.037C67.0593 125.337 66.0058 126.39 64.7063 126.39C63.4068 126.39 62.3534 125.337 62.3534 124.037V117.635C62.3534 117.018 62.5959 116.425 63.0286 115.985L84.2052 94.4493C84.6436 94.0035 85.2415 93.7505 85.8668 93.7462C86.4921 93.7419 87.0934 93.9867 87.5379 94.4265L94.4123 101.229V94.353ZM99.1182 105.885L105.295 111.996V96.7059H99.1182V105.885ZM97.0594 146.712V131.678H88.8241V146.712H97.0594Z"
    fill="#095A31" />
  <path
    d="M52.3527 140.36C52.3527 139.06 53.4061 138.007 54.7056 138.007H75.8822C77.1817 138.007 78.2351 139.06 78.2351 140.36V142.638C78.2351 143.938 77.1817 144.991 75.8822 144.991H73.5292H57.6468H54.7056C53.4061 144.991 52.3527 143.938 52.3527 142.638V140.36Z"
    fill="#DFEBFD" />
  <path fillRule="evenodd" clipRule="evenodd"
    d="M50 140.359C50 137.76 52.1069 135.653 54.7059 135.653H75.8825C78.4815 135.653 80.5884 137.76 80.5884 140.359V142.638C80.5884 145.237 78.4814 147.344 75.8825 147.344V149.647C75.8825 150.946 74.829 152 73.5295 152C72.23 152 71.1766 150.946 71.1766 149.647V147.344H60V149.647C60 150.946 58.9466 152 57.6471 152C56.3476 152 55.2941 150.946 55.2941 149.647V147.344H54.7059C52.1069 147.344 50 145.237 50 142.638V140.359ZM75.8825 140.359L54.7059 140.359V142.638L75.8825 142.638V140.359Z"
    fill="#095A31" />
  <path
    d="M56.7382 133.182L54.7064 138.007H75.883L73.8512 133.182C73.3001 131.873 72.0184 131.022 70.5984 131.022H59.991C58.571 131.022 57.2893 131.873 56.7382 133.182Z"
    fill="#C8E54E" />
  <path fillRule="evenodd" clipRule="evenodd"
    d="M59.9902 133.374C59.5168 133.374 59.0896 133.658 58.9059 134.094L58.2495 135.653H72.3383L71.6819 134.094L73.8504 133.181L71.6819 134.094C71.4982 133.658 71.071 133.374 70.5976 133.374H59.9902ZM54.5688 132.268C55.4873 130.087 57.6235 128.668 59.9902 128.668H70.5976C72.9643 128.668 75.1005 130.087 76.0189 132.268L78.0507 137.093C78.3566 137.819 78.2784 138.65 77.8424 139.307C77.4064 139.964 76.6705 140.359 75.8822 140.359H54.7056C53.9173 140.359 53.1814 139.964 52.7454 139.307C52.3094 138.65 52.2312 137.819 52.5371 137.093L54.5688 132.268Z"
    fill="#095A31" />
  <path fillRule="evenodd" clipRule="evenodd"
    d="M31 34C31 31.7909 32.7909 30 35 30H125C127.209 30 129 31.7909 129 34V162C129 164.209 127.209 166 125 166H35C32.7909 166 31 164.209 31 162V34ZM39 38V158H121V38H39Z"
    fill="#BAC8DC" />
  <path d="M39 30H121V44H39V30Z" fill="#DFEBFD" />
  <path fillRule="evenodd" clipRule="evenodd"
    d="M90.8341 14H110C111.105 14 112 14.8954 112 16V32C112 33.1046 111.105 34 110 34H50C48.8954 34 48 33.1046 48 32V16C48 14.8954 48.8954 14 50 14H67.1659C68.1181 8.32457 73.054 4 79 4C84.946 4 89.8819 8.32457 90.8341 14Z"
    fill="white" />
  <path fillRule="evenodd" clipRule="evenodd"
    d="M79 8C75.04 8 71.745 10.8812 71.1108 14.6618C70.7875 16.5886 69.1197 18 67.1659 18H52V30H108V18H90.8341C88.8803 18 87.2125 16.5886 86.8892 14.6618C86.255 10.8812 82.96 8 79 8ZM64.1642 10C66.5381 4.13597 72.2832 0 79 0C85.7168 0 91.4619 4.13597 93.8358 10H110C113.314 10 116 12.6863 116 16V32C116 35.3137 113.314 38 110 38H50C46.6863 38 44 35.3137 44 32V16C44 12.6863 46.6863 10 50 10H64.1642Z"
    fill="#179439" />
  <path
    d="M81 16C81 17.1046 80.1046 18 79 18C77.8954 18 77 17.1046 77 16C77 14.8954 77.8954 14 79 14C80.1046 14 81 14.8954 81 16Z"
    fill="#179439" />
  <path fillRule="evenodd" clipRule="evenodd"
    d="M100.866 53.2097C102.407 54.7926 102.373 57.3251 100.79 58.8661L76.1381 82.8661C74.5851 84.378 72.1105 84.378 70.5576 82.8661L59.2097 71.8185C57.6268 70.2774 57.5929 67.745 59.1339 66.1621C60.6749 64.5792 63.2074 64.5453 64.7903 66.0863L73.3478 74.4175L95.2097 53.1339C96.7926 51.5929 99.3251 51.6268 100.866 53.2097Z"
    fill="#179439" />
  <path fillRule="evenodd" clipRule="evenodd"
    d="M110 35C110 15.67 125.67 0 145 0C164.33 0 180 15.67 180 35C180 54.33 164.33 70 145 70C125.67 70 110 54.33 110 35Z"
    fill="#095A31" />
  <path
    d="M174.167 34.9999C174.167 51.1082 161.108 64.1666 145 64.1666C128.892 64.1666 115.833 51.1082 115.833 34.9999C115.833 18.8916 128.892 5.83325 145 5.83325C161.108 5.83325 174.167 18.8916 174.167 34.9999Z"
    fill="#179439" />
  <path fillRule="evenodd" clipRule="evenodd"
    d="M145 16.3333C146.289 16.3333 147.333 17.3779 147.333 18.6666V22.4182H150.833C154.256 22.4182 156.667 25.3937 156.667 28.5947C156.667 29.8834 155.622 30.928 154.333 30.928C153.045 30.928 152 29.8834 152 28.5947C152 27.5507 151.277 27.0849 150.833 27.0849H139.167C138.723 27.0849 138 27.5507 138 28.5947V31.1568C138 32.2008 138.723 32.6666 139.167 32.6666H150.833C154.256 32.6666 156.667 35.6421 156.667 38.8431V41.4051C156.667 44.6061 154.256 47.5816 150.833 47.5816H147.333V51.3332C147.333 52.6219 146.289 53.6666 145 53.6666C143.711 53.6666 142.667 52.6219 142.667 51.3332V47.5816H139.167C135.744 47.5816 133.333 44.6061 133.333 41.4051C133.333 40.1165 134.378 39.0718 135.667 39.0718C136.955 39.0718 138 40.1165 138 41.4051C138 42.4492 138.723 42.9149 139.167 42.9149H150.833C151.277 42.9149 152 42.4492 152 41.4051V38.8431C152 37.799 151.277 37.3332 150.833 37.3332H139.167C135.744 37.3332 133.333 34.3578 133.333 31.1568V28.5947C133.333 25.3937 135.744 22.4182 139.167 22.4182H142.667V18.6666C142.667 17.3779 143.711 16.3333 145 16.3333Z"
    fill="white" />
</svg>