<svg width="160" height="160" viewBox="0 0 160 160" fill="none" xmlns="http://www.w3.org/2000/svg">
  <path fillRule="evenodd" clipRule="evenodd"
    d="M11.875 68.125C12.9105 68.125 13.75 68.9645 13.75 70V73.125H16.875C17.9105 73.125 18.75 73.9645 18.75 75C18.75 76.0355 17.9105 76.875 16.875 76.875H13.75V80C13.75 81.0355 12.9105 81.875 11.875 81.875C10.8395 81.875 10 81.0355 10 80V76.875H6.875C5.83947 76.875 5 76.0355 5 75C5 73.9645 5.83947 73.125 6.875 73.125L10 73.125V70C10 68.9645 10.8395 68.125 11.875 68.125Z"
    fill="#DFEBFD" />
  <path fillRule="evenodd" clipRule="evenodd"
    d="M146.875 122.5C147.911 122.5 148.75 123.339 148.75 124.375V127.5H151.875C152.911 127.5 153.75 128.339 153.75 129.375C153.75 130.411 152.911 131.25 151.875 131.25H148.75V134.375C148.75 135.411 147.911 136.25 146.875 136.25C145.839 136.25 145 135.411 145 134.375V131.25H141.875C140.839 131.25 140 130.411 140 129.375C140 128.339 140.839 127.5 141.875 127.5L145 127.5V124.375C145 123.339 145.839 122.5 146.875 122.5Z"
    fill="#DFEBFD" />
  <path fillRule="evenodd" clipRule="evenodd"
    d="M147.5 67.5C148.536 67.5 149.375 68.3395 149.375 69.375V72.5H152.5C153.536 72.5 154.375 73.3395 154.375 74.375C154.375 75.4105 153.536 76.25 152.5 76.25H149.375V79.375C149.375 80.4105 148.536 81.25 147.5 81.25C146.464 81.25 145.625 80.4105 145.625 79.375V76.25H142.5C141.464 76.25 140.625 75.4105 140.625 74.375C140.625 73.3395 141.464 72.5 142.5 72.5L145.625 72.5V69.375C145.625 68.3395 146.464 67.5 147.5 67.5Z"
    fill="#C8E54E" />
  <path
    d="M15.625 52.5C15.625 54.2259 14.2259 55.625 12.5 55.625C10.7741 55.625 9.375 54.2259 9.375 52.5C9.375 50.7741 10.7741 49.375 12.5 49.375C14.2259 49.375 15.625 50.7741 15.625 52.5Z"
    fill="#C8E54E" />
  <path fillRule="evenodd" clipRule="evenodd"
    d="M19.375 142.5C18.6846 142.5 18.125 143.06 18.125 143.75C18.125 144.44 18.6846 145 19.375 145C20.0654 145 20.625 144.44 20.625 143.75C20.625 143.06 20.0654 142.5 19.375 142.5ZM13.125 143.75C13.125 140.298 15.9232 137.5 19.375 137.5C22.8268 137.5 25.625 140.298 25.625 143.75C25.625 147.202 22.8268 150 19.375 150C15.9232 150 13.125 147.202 13.125 143.75Z"
    fill="#C8E54E" />
  <path fillRule="evenodd" clipRule="evenodd"
    d="M137.5 13.75C136.464 13.75 135.625 14.5895 135.625 15.625C135.625 16.6605 136.464 17.5 137.5 17.5C138.536 17.5 139.375 16.6605 139.375 15.625C139.375 14.5895 138.536 13.75 137.5 13.75ZM130.625 15.625C130.625 11.828 133.703 8.75 137.5 8.75C141.297 8.75 144.375 11.828 144.375 15.625C144.375 19.422 141.297 22.5 137.5 22.5C133.703 22.5 130.625 19.422 130.625 15.625Z"
    fill="#DFEBFD" />
  <path fillRule="evenodd" clipRule="evenodd"
    d="M14.375 13.125C15.2682 13.125 16.0935 13.6015 16.5401 14.375L20.8702 21.875C21.3168 22.6485 21.3168 23.6015 20.8702 24.375C20.4237 25.1485 19.5983 25.625 18.7052 25.625H10.0449C9.15176 25.625 8.32644 25.1485 7.87986 24.375C7.43328 23.6015 7.43328 22.6485 7.87986 21.875L12.21 14.375C12.6566 13.6015 13.4819 13.125 14.375 13.125Z"
    fill="#DFEBFD" />
  <path fillRule="evenodd" clipRule="evenodd"
    d="M131.25 135C132.143 135 132.969 135.476 133.415 136.25L137.745 143.75C138.192 144.524 138.192 145.476 137.745 146.25C137.299 147.024 136.473 147.5 135.58 147.5H126.92C126.027 147.5 125.201 147.024 124.755 146.25C124.308 145.476 124.308 144.524 124.755 143.75L129.085 136.25C129.532 135.476 130.357 135 131.25 135Z"
    fill="#DFEBFD" />
  <g clip-path="url(#clip0)">
    <path
      d="M36.5 42.75C36.5 41.3693 37.6193 40.25 39 40.25H109C110.381 40.25 111.5 41.3693 111.5 42.75V131.5C111.5 132.881 110.381 134 109 134H39C37.6193 134 36.5 132.881 36.5 131.5V42.75Z"
      fill="white" />
    <path fillRule="evenodd" clipRule="evenodd"
      d="M34 42.75C34 39.9886 36.2386 37.75 39 37.75H109C111.761 37.75 114 39.9886 114 42.75V131.5C114 134.261 111.761 136.5 109 136.5H39C36.2386 136.5 34 134.261 34 131.5V42.75ZM109 42.75L39 42.75V131.5H109V42.75Z"
      fill="#095A31" />
    <path d="M45.875 45.25H102.125V125.25H45.875V45.25Z" fill="white" />
    <path d="M77.6767 84.062L64.4414 98.2571H91.2797L77.6767 84.062Z" fill="#179439" />
    <path d="M78.0439 105.765H86.1322V117.529H78.0439V105.765Z" fill="#9DC346" />
    <path d="M84.6616 83.7059H91.2793V96.9413L84.6616 90.6913V83.7059Z" fill="#DFEBFD" />
    <path fillRule="evenodd" clipRule="evenodd"
      d="M83.0075 82.9706C83.0075 82.1584 83.666 81.5 84.4781 81.5H91.2796C92.0918 81.5 92.7502 82.1584 92.7502 82.9706V117.166C92.7502 117.978 92.0918 118.636 91.2796 118.636H78.0443C77.2321 118.636 76.5737 117.978 76.5737 117.166V106.299C76.5737 104.674 77.8905 103.358 79.5149 103.358H84.662C86.2863 103.358 87.6031 104.674 87.6031 106.299V115.695H89.809V98.1354L77.6909 86.1449L65.9119 98.1236V101.523C65.9119 102.335 65.2535 102.994 64.4413 102.994C63.6291 102.994 62.9707 102.335 62.9707 101.523V97.5217C62.9707 97.136 63.1223 96.7657 63.3927 96.4906L76.6281 83.0308C76.9021 82.7522 77.2758 82.594 77.6666 82.5914C78.0574 82.5887 78.4332 82.7417 78.711 83.0166L83.0075 87.2679V82.9706ZM85.9487 90.1781L89.809 93.9978V84.4412H85.9487V90.1781ZM84.662 115.695V106.299H79.5149V115.695H84.662Z"
      fill="#095A31" />
    <path
      d="M56.7202 111.725C56.7202 110.913 57.3786 110.254 58.1908 110.254H71.4262C72.2383 110.254 72.8967 110.913 72.8967 111.725V113.149C72.8967 113.961 72.2383 114.62 71.4262 114.62H69.9556H60.0291H58.1908C57.3786 114.62 56.7202 113.961 56.7202 113.149V111.725Z"
      fill="#DFEBFD" />
    <path fillRule="evenodd" clipRule="evenodd"
      d="M55.25 111.724C55.25 110.1 56.5668 108.783 58.1912 108.783H71.4265C73.0509 108.783 74.3677 110.1 74.3677 111.724V113.149C74.3677 114.773 73.0509 116.09 71.4265 116.09V117.529C71.4265 118.342 70.7681 119 69.9559 119C69.1438 119 68.4853 118.342 68.4853 117.529V116.09H61.5V117.529C61.5 118.342 60.8416 119 60.0294 119C59.2172 119 58.5588 118.342 58.5588 117.529V116.09H58.1912C56.5668 116.09 55.25 114.773 55.25 113.149V111.724ZM71.4265 111.724L58.1912 111.724V113.149L71.4265 113.149V111.724Z"
      fill="#095A31" />
    <path
      d="M59.4612 107.238L58.1914 110.254H71.4268L70.1569 107.238C69.8125 106.421 69.0114 105.889 68.1239 105.889H61.4942C60.6067 105.889 59.8057 106.421 59.4612 107.238Z"
      fill="#C8E54E" />
    <path fillRule="evenodd" clipRule="evenodd"
      d="M61.4937 107.359C61.1978 107.359 60.9308 107.536 60.816 107.809L60.4057 108.783H69.2112L68.801 107.809L70.1563 107.238L68.801 107.809C68.6862 107.536 68.4192 107.359 68.1233 107.359H61.4937ZM58.1053 106.667C58.6794 105.304 60.0145 104.418 61.4937 104.418H68.1233C69.6025 104.418 70.9376 105.304 71.5116 106.667L72.7815 109.683C72.9727 110.137 72.9238 110.657 72.6513 111.067C72.3788 111.478 71.9188 111.724 71.4262 111.724H58.1908C57.6981 111.724 57.2382 111.478 56.9657 111.067C56.6932 110.657 56.6443 110.137 56.8355 109.683L58.1053 106.667Z"
      fill="#095A31" />
    <path fillRule="evenodd" clipRule="evenodd"
      d="M43.375 45.25C43.375 43.8693 44.4943 42.75 45.875 42.75H102.125C103.506 42.75 104.625 43.8693 104.625 45.25V125.25C104.625 126.631 103.506 127.75 102.125 127.75H45.875C44.4943 127.75 43.375 126.631 43.375 125.25V45.25ZM48.375 47.75V122.75H99.625V47.75H48.375Z"
      fill="#BAC8DC" />
    <path d="M48.375 42.75H99.625V51.5H48.375V42.75Z" fill="#DFEBFD" />
    <path fillRule="evenodd" clipRule="evenodd"
      d="M80.7713 32.75H92.75C93.4403 32.75 94 33.3096 94 34V44C94 44.6904 93.4403 45.25 92.75 45.25H55.25C54.5596 45.25 54 44.6904 54 44V34C54 33.3096 54.5596 32.75 55.25 32.75H65.9787C66.5738 29.2029 69.6588 26.5 73.375 26.5C77.0912 26.5 80.1762 29.2029 80.7713 32.75Z"
      fill="white" />
    <path fillRule="evenodd" clipRule="evenodd"
      d="M73.375 29C70.9 29 68.8407 30.8008 68.4442 33.1636C68.2422 34.3679 67.1998 35.25 65.9787 35.25H56.5V42.75H91.5V35.25H80.7713C79.5502 35.25 78.5078 34.3679 78.3058 33.1636C77.9093 30.8008 75.85 29 73.375 29ZM64.1026 30.25C65.5863 26.585 69.177 24 73.375 24C77.573 24 81.1637 26.585 82.6474 30.25H92.75C94.8211 30.25 96.5 31.9289 96.5 34V44C96.5 46.0711 94.8211 47.75 92.75 47.75H55.25C53.1789 47.75 51.5 46.0711 51.5 44V34C51.5 31.9289 53.1789 30.25 55.25 30.25H64.1026Z"
      fill="#179439" />
    <path
      d="M74.625 34C74.625 34.6904 74.0654 35.25 73.375 35.25C72.6846 35.25 72.125 34.6904 72.125 34C72.125 33.3096 72.6846 32.75 73.375 32.75C74.0654 32.75 74.625 33.3096 74.625 34Z"
      fill="#179439" />
    <path fillRule="evenodd" clipRule="evenodd"
      d="M87.0413 57.2561C88.0044 58.2454 87.9832 59.8282 86.9939 60.7913L71.5863 75.7913C70.6157 76.7362 69.0691 76.7362 68.0985 75.7913L61.0061 68.8865C60.0168 67.9234 59.9956 66.3406 60.9587 65.3513C61.9218 64.362 63.5046 64.3408 64.4939 65.3039L69.8424 70.5109L83.5061 57.2087C84.4954 56.2456 86.0782 56.2668 87.0413 57.2561Z"
      fill="#179439" />
    <path fillRule="evenodd" clipRule="evenodd"
      d="M92.75 45.875C92.75 33.7938 102.544 24 114.625 24C126.706 24 136.5 33.7938 136.5 45.875C136.5 57.9562 126.706 67.75 114.625 67.75C102.544 67.75 92.75 57.9562 92.75 45.875Z"
      fill="#095A31" />
    <path
      d="M132.854 45.875C132.854 55.9427 124.693 64.1042 114.625 64.1042C104.557 64.1042 96.396 55.9427 96.396 45.875C96.396 35.8074 104.557 27.6459 114.625 27.6459C124.693 27.6459 132.854 35.8074 132.854 45.875Z"
      fill="#179439" />
    <path fillRule="evenodd" clipRule="evenodd"
      d="M114.625 34.2084C115.431 34.2084 116.083 34.8613 116.083 35.6667V38.0115H118.271C120.41 38.0115 121.917 39.8711 121.917 41.8718C121.917 42.6772 121.264 43.3301 120.458 43.3301C119.653 43.3301 119 42.6772 119 41.8718C119 41.2193 118.548 40.9281 118.271 40.9281H110.979C110.702 40.9281 110.25 41.2193 110.25 41.8718V43.4731C110.25 44.1256 110.702 44.4167 110.979 44.4167H118.271C120.41 44.4167 121.917 46.2764 121.917 48.277V49.8783C121.917 51.8789 120.41 53.7386 118.271 53.7386H116.083V56.0834C116.083 56.8888 115.431 57.5417 114.625 57.5417C113.82 57.5417 113.167 56.8888 113.167 56.0834V53.7386H110.979C108.84 53.7386 107.333 51.8789 107.333 49.8783C107.333 49.0729 107.986 48.42 108.792 48.42C109.597 48.42 110.25 49.0729 110.25 49.8783C110.25 50.5308 110.702 50.8219 110.979 50.8219H118.271C118.548 50.8219 119 50.5308 119 49.8783V48.277C119 47.6245 118.548 47.3334 118.271 47.3334H110.979C108.84 47.3334 107.333 45.4737 107.333 43.4731V41.8718C107.333 39.8711 108.84 38.0115 110.979 38.0115H113.167V35.6667C113.167 34.8613 113.82 34.2084 114.625 34.2084Z"
      fill="white" />
  </g>
  <defs>
    <clipPath id="clip0">
      <rect width="112.5" height="112.5" fill="white" transform="translate(24 24)" />
    </clipPath>
  </defs>
</svg>