<svg width="180" height="180" viewBox="0 0 180 180" fill="none" xmlns="http://www.w3.org/2000/svg">
  <path fillRule="evenodd" clipRule="evenodd"
    d="M154.966 132C161.348 121.018 165 108.267 165 94.6666C165 53.4294 131.421 20 90 20C48.5786 20 15 53.4294 15 94.6666C15 108.267 18.6523 121.018 25.0337 132H154.966Z"
    fill="white" />
  <path fillRule="evenodd" clipRule="evenodd"
    d="M90 24C50.771 24 19 55.6553 19 94.6666C19 106.727 22.0324 118.073 27.3784 128H152.622C157.968 118.073 161 106.727 161 94.6666C161 55.6553 129.229 24 90 24ZM11 94.6666C11 51.2035 46.3863 16 90 16C133.614 16 169 51.2035 169 94.6666C169 108.992 165.151 122.434 158.425 134.01C157.709 135.242 156.391 136 154.966 136H25.0337C23.6086 136 22.2911 135.242 21.5751 134.01C14.8491 122.434 11 108.992 11 94.6666Z"
    fill="#095A31" />
  <mask id="mask0" mask-type="alpha" maskUnits="userSpaceOnUse" x="15" y="20" width="150" height="112">
    <path
      d="M154.966 132C161.348 121.018 165 108.267 165 94.6666C165 53.4294 131.421 20 90 20C48.5786 20 15 53.4294 15 94.6666C15 108.267 18.6523 121.018 25.0337 132H154.966Z"
      fill="#C8E54E" />
  </mask>
  <g mask="url(#mask0)">
    <path
      d="M153.877 55.5388C159.039 63.89 162.497 73.1715 164.055 82.8534C165.614 92.5352 165.241 102.428 162.959 111.966C160.677 121.505 156.53 130.503 150.756 138.446C144.981 146.389 137.691 153.122 129.303 158.26L90 94.6668L153.877 55.5388Z"
      fill="#C8E54E" />
  </g>
  <path fillRule="evenodd" clipRule="evenodd"
    d="M90 24C50.771 24 19 55.6553 19 94.6666C19 106.727 22.0324 118.073 27.3784 128H152.622C157.968 118.073 161 106.727 161 94.6666C161 55.6553 129.229 24 90 24ZM11 94.6666C11 51.2035 46.3863 16 90 16C133.614 16 169 51.2035 169 94.6666C169 108.992 165.151 122.434 158.425 134.01C157.709 135.242 156.391 136 154.966 136H25.0337C23.6086 136 22.2911 135.242 21.5751 134.01C14.8491 122.434 11 108.992 11 94.6666Z"
    fill="#095A31" />
  <path d="M144.77 90.886C145.833 90.4717 146.645 91.8783 145.758 92.5974L106.728 124.234L98 109.116L144.77 90.886Z"
    fill="#179439" />
  <path
    d="M95.2322 39.25C95.2322 42.1495 92.8895 44.5 89.9996 44.5C87.1098 44.5 84.7671 42.1495 84.7671 39.25C84.7671 36.3505 87.1098 34 89.9996 34C92.8895 34 95.2322 36.3505 95.2322 39.25Z"
    fill="#179439" />
  <path
    d="M147.558 77.75C147.558 80.6495 145.216 83 142.326 83C139.436 83 137.093 80.6495 137.093 77.75C137.093 74.8505 139.436 72.5 142.326 72.5C145.216 72.5 147.558 74.8505 147.558 77.75Z"
    fill="#179439" />
  <path
    d="M42.907 77.75C42.907 80.6495 40.5643 83 37.6745 83C34.7846 83 32.4419 80.6495 32.4419 77.75C32.4419 74.8505 34.7846 72.5 37.6745 72.5C40.5643 72.5 42.907 74.8505 42.907 77.75Z"
    fill="#179439" />
  <path
    d="M62.093 51.5C62.093 54.3995 59.7503 56.75 56.8605 56.75C53.9706 56.75 51.6279 54.3995 51.6279 51.5C51.6279 48.6005 53.9706 46.25 56.8605 46.25C59.7503 46.25 62.093 48.6005 62.093 51.5Z"
    fill="#179439" />
  <path
    d="M130.465 51.5C130.465 54.3995 128.122 56.75 125.233 56.75C122.343 56.75 120 54.3995 120 51.5C120 48.6005 122.343 46.25 125.233 46.25C128.122 46.25 130.465 48.6005 130.465 51.5Z"
    fill="#179439" />
  <path
    d="M147.558 109.25C147.558 112.149 145.216 114.5 142.326 114.5C139.436 114.5 137.093 112.149 137.093 109.25C137.093 106.351 139.436 104 142.326 104C145.216 104 147.558 106.351 147.558 109.25Z"
    fill="#C8E54E" />
  <path
    d="M42.907 109.25C42.907 112.149 40.5643 114.5 37.6745 114.5C34.7846 114.5 32.4419 112.149 32.4419 109.25C32.4419 106.351 34.7846 104 37.6745 104C40.5643 104 42.907 106.351 42.907 109.25Z"
    fill="#179439" />
  <path fillRule="evenodd" clipRule="evenodd"
    d="M54 128C54 108.118 70.1177 92 90 92C109.882 92 126 108.118 126 128C126 147.882 109.882 164 90 164C70.1177 164 54 147.882 54 128Z"
    fill="#095A31" />
  <path
    d="M120 128C120 144.569 106.569 158 90 158C73.4315 158 60 144.569 60 128C60 111.431 73.4315 98 90 98C106.569 98 120 111.431 120 128Z"
    fill="#179439" />
  <path fillRule="evenodd" clipRule="evenodd"
    d="M90 108.8C91.3255 108.8 92.4 109.875 92.4 111.2V115.059H96C99.52 115.059 102 118.119 102 121.412C102 122.737 100.925 123.812 99.6 123.812C98.2745 123.812 97.2 122.737 97.2 121.412C97.2 120.338 96.4564 119.859 96 119.859H84C83.5436 119.859 82.8 120.338 82.8 121.412V124.047C82.8 125.121 83.5436 125.6 84 125.6H96C99.52 125.6 102 128.661 102 131.953V134.588C102 137.881 99.52 140.941 96 140.941H92.4V144.8C92.4 146.126 91.3255 147.2 90 147.2C88.6745 147.2 87.6 146.126 87.6 144.8V140.941H84C80.48 140.941 78 137.881 78 134.588C78 133.263 79.0745 132.188 80.4 132.188C81.7255 132.188 82.8 133.263 82.8 134.588C82.8 135.662 83.5436 136.141 84 136.141H96C96.4564 136.141 97.2 135.662 97.2 134.588V131.953C97.2 130.879 96.4564 130.4 96 130.4H84C80.48 130.4 78 127.34 78 124.047V121.412C78 118.119 80.48 115.059 84 115.059H87.6V111.2C87.6 109.875 88.6745 108.8 90 108.8Z"
    fill="white" />
</svg>