<svg width="180" height="180" viewBox="0 0 180 180" fill="none" xmlns="http://www.w3.org/2000/svg">
  <path fillRule="evenodd" clipRule="evenodd"
    d="M16.3868 10.6756C21.5365 8.68007 27.3289 11.2371 29.3244 16.3868L55.6912 94.4304H138.31C143.833 94.4304 148.31 98.9076 148.31 104.43C148.31 109.953 143.833 114.43 138.31 114.43H51.5815C45.8016 114.43 40.6158 110.878 38.5273 105.489L10.6756 23.6132C8.68007 18.4635 11.2371 12.6711 16.3868 10.6756Z"
    fill="#C8E54E" />
  <path fillRule="evenodd" clipRule="evenodd"
    d="M14.9416 6.94592C22.1512 4.1522 30.2606 7.73199 33.0543 14.9416C33.0754 14.9962 33.0954 15.0512 33.1141 15.1066L58.5621 90.4305H138.31C146.042 90.4305 152.31 96.6985 152.31 104.431C152.31 112.163 146.042 118.431 138.31 118.431H51.5816C44.1503 118.431 37.4828 113.864 34.7977 106.934C34.7775 106.882 34.7585 106.83 34.7405 106.777L6.91351 24.9742C4.18018 17.7858 7.76012 9.72874 14.9416 6.94592ZM25.5666 17.7608C24.3437 14.7188 20.8981 13.2174 17.8322 14.4055C14.7423 15.6028 13.2081 19.0782 14.4055 22.168C14.4256 22.22 14.4446 22.2724 14.4626 22.3251L42.2852 104.115C43.7948 107.925 47.4786 110.431 51.5816 110.431H138.31C141.624 110.431 144.31 107.744 144.31 104.431C144.31 101.117 141.624 98.4305 138.31 98.4305H55.6913C53.9756 98.4305 52.4509 97.3363 51.9018 95.7108L25.5666 17.7608Z"
    fill="#095A31" />
  <path fillRule="evenodd" clipRule="evenodd"
    d="M13 61C13 58.7909 14.7909 57 17 57H115.559C121.319 57 126.887 59.0715 131.246 62.8362L136.614 67.4727C138.286 68.9166 138.471 71.4426 137.027 73.1145C135.583 74.7864 133.057 74.9712 131.386 73.5273L126.017 68.8908C123.111 66.381 119.399 65 115.559 65H115.5V103.5C115.5 105.709 113.709 107.5 111.5 107.5C109.291 107.5 107.5 105.709 107.5 103.5V65H85V103.5C85 105.709 83.2091 107.5 81 107.5C78.7909 107.5 77 105.709 77 103.5V65H17C14.7909 65 13 63.2091 13 61Z"
    fill="#095A31" />
  <path fillRule="evenodd" clipRule="evenodd"
    d="M121.627 110.743C123.701 109.985 125.998 111.052 126.757 113.127L143.757 159.627C144.515 161.701 143.448 163.998 141.374 164.757C139.299 165.515 137.002 164.448 136.243 162.374L119.243 115.874C118.485 113.799 119.552 111.502 121.627 110.743Z"
    fill="#095A31" />
  <path fillRule="evenodd" clipRule="evenodd"
    d="M56.5129 110.797C54.4679 109.962 52.1327 110.942 51.2971 112.987L32.2971 159.487C31.4615 161.532 32.4419 163.867 34.4869 164.703C36.532 165.538 38.8671 164.558 39.7027 162.513L58.7027 116.013C59.5383 113.968 58.5579 111.633 56.5129 110.797Z"
    fill="#095A31" />
  <path fillRule="evenodd" clipRule="evenodd"
    d="M170.656 138.509C172.308 139.976 172.458 142.504 170.991 144.156C152.237 165.273 120.439 176.729 89.3419 177.462C58.2606 178.196 26.6888 168.227 8.82795 144.978C7.4821 143.227 7.81123 140.715 9.56308 139.37C11.3149 138.024 13.8261 138.353 15.172 140.105C30.9188 160.602 59.5399 170.163 89.1532 169.465C118.751 168.766 148.149 157.828 165.009 138.844C166.476 137.192 169.004 137.042 170.656 138.509Z"
    fill="#095A31" />
  <path fillRule="evenodd" clipRule="evenodd"
    d="M110 35C110 15.67 125.67 0 145 0C164.33 0 180 15.67 180 35C180 54.33 164.33 70 145 70C125.67 70 110 54.33 110 35Z"
    fill="#095A31" />
  <path
    d="M174.167 34.9999C174.167 51.1082 161.108 64.1666 145 64.1666C128.892 64.1666 115.833 51.1082 115.833 34.9999C115.833 18.8916 128.892 5.83325 145 5.83325C161.108 5.83325 174.167 18.8916 174.167 34.9999Z"
    fill="#179439" />
  <path fillRule="evenodd" clipRule="evenodd"
    d="M145 16.3333C146.289 16.3333 147.333 17.3779 147.333 18.6666V22.4182H150.833C154.255 22.4182 156.667 25.3937 156.667 28.5947C156.667 29.8834 155.622 30.928 154.333 30.928C153.045 30.928 152 29.8834 152 28.5947C152 27.5507 151.277 27.0849 150.833 27.0849H139.167C138.723 27.0849 138 27.5507 138 28.5947V31.1568C138 32.2008 138.723 32.6666 139.167 32.6666H150.833C154.255 32.6666 156.667 35.6421 156.667 38.8431V41.4051C156.667 44.6061 154.255 47.5816 150.833 47.5816H147.333V51.3332C147.333 52.6219 146.289 53.6666 145 53.6666C143.711 53.6666 142.667 52.6219 142.667 51.3332V47.5816H139.167C135.744 47.5816 133.333 44.6061 133.333 41.4051C133.333 40.1165 134.378 39.0718 135.667 39.0718C136.955 39.0718 138 40.1165 138 41.4051C138 42.4492 138.723 42.9149 139.167 42.9149H150.833C151.277 42.9149 152 42.4492 152 41.4051V38.8431C152 37.799 151.277 37.3332 150.833 37.3332H139.167C135.744 37.3332 133.333 34.3578 133.333 31.1568V28.5947C133.333 25.3937 135.744 22.4182 139.167 22.4182H142.667V18.6666C142.667 17.3779 143.711 16.3333 145 16.3333Z"
    fill="white" />
</svg>