<svg width="160" height="160" viewBox="0 0 160 160" fill="none" xmlns="http://www.w3.org/2000/svg">
  <path fillRule="evenodd" clipRule="evenodd"
    d="M16.25 16.875C17.2855 16.875 18.125 17.7145 18.125 18.75V21.875H21.25C22.2855 21.875 23.125 22.7145 23.125 23.75C23.125 24.7855 22.2855 25.625 21.25 25.625H18.125V28.75C18.125 29.7855 17.2855 30.625 16.25 30.625C15.2145 30.625 14.375 29.7855 14.375 28.75V25.625H11.25C10.2145 25.625 9.375 24.7855 9.375 23.75C9.375 22.7145 10.2145 21.875 11.25 21.875L14.375 21.875V18.75C14.375 17.7145 15.2145 16.875 16.25 16.875Z"
    fill="#DFEBFD" />
  <path fillRule="evenodd" clipRule="evenodd"
    d="M151.25 68.125C152.286 68.125 153.125 68.9645 153.125 70V73.125H156.25C157.286 73.125 158.125 73.9645 158.125 75C158.125 76.0355 157.286 76.875 156.25 76.875H153.125V80C153.125 81.0355 152.286 81.875 151.25 81.875C150.214 81.875 149.375 81.0355 149.375 80V76.875H146.25C145.214 76.875 144.375 76.0355 144.375 75C144.375 73.9645 145.214 73.125 146.25 73.125L149.375 73.125V70C149.375 68.9645 150.214 68.125 151.25 68.125Z"
    fill="#C8E54E" />
  <path fillRule="evenodd" clipRule="evenodd"
    d="M146.25 138.125C147.286 138.125 148.125 138.964 148.125 140V143.125H151.25C152.286 143.125 153.125 143.964 153.125 145C153.125 146.036 152.286 146.875 151.25 146.875H148.125V150C148.125 151.036 147.286 151.875 146.25 151.875C145.214 151.875 144.375 151.036 144.375 150V146.875H141.25C140.214 146.875 139.375 146.036 139.375 145C139.375 143.964 140.214 143.125 141.25 143.125L144.375 143.125V140C144.375 138.964 145.214 138.125 146.25 138.125Z"
    fill="#DFEBFD" />
  <path fillRule="evenodd" clipRule="evenodd"
    d="M17.5 103.75C18.5355 103.75 19.375 104.589 19.375 105.625V108.75H22.5C23.5355 108.75 24.375 109.589 24.375 110.625C24.375 111.661 23.5355 112.5 22.5 112.5H19.375V115.625C19.375 116.661 18.5355 117.5 17.5 117.5C16.4645 117.5 15.625 116.661 15.625 115.625V112.5H12.5C11.4645 112.5 10.625 111.661 10.625 110.625C10.625 109.589 11.4645 108.75 12.5 108.75L15.625 108.75V105.625C15.625 104.589 16.4645 103.75 17.5 103.75Z"
    fill="#C8E54E" />
  <path
    d="M152.5 126.875C152.5 128.601 151.101 130 149.375 130C147.649 130 146.25 128.601 146.25 126.875C146.25 125.149 147.649 123.75 149.375 123.75C151.101 123.75 152.5 125.149 152.5 126.875Z"
    fill="#9DC346" />
  <path
    d="M102.5 17.5C102.5 19.9162 100.541 21.875 98.125 21.875C95.7088 21.875 93.75 19.9162 93.75 17.5C93.75 15.0838 95.7088 13.125 98.125 13.125C100.541 13.125 102.5 15.0838 102.5 17.5Z"
    fill="#DFEBFD" />
  <path
    d="M50.625 148.125C50.625 149.851 49.2259 151.25 47.5 151.25C45.7741 151.25 44.375 149.851 44.375 148.125C44.375 146.399 45.7741 145 47.5 145C49.2259 145 50.625 146.399 50.625 148.125Z"
    fill="#C8E54E" />
  <path fillRule="evenodd" clipRule="evenodd"
    d="M141.25 10C142.143 10 142.969 10.4765 143.415 11.25L147.745 18.75C148.192 19.5235 148.192 20.4765 147.745 21.25C147.299 22.0235 146.473 22.5 145.58 22.5H136.92C136.027 22.5 135.201 22.0235 134.755 21.25C134.308 20.4765 134.308 19.5235 134.755 18.75L139.085 11.25C139.532 10.4765 140.357 10 141.25 10Z"
    fill="#DFEBFD" />
  <path fillRule="evenodd" clipRule="evenodd"
    d="M16.25 137.5C17.1432 137.5 17.9685 137.976 18.4151 138.75L22.7452 146.25C23.1918 147.024 23.1918 147.976 22.7452 148.75C22.2987 149.524 21.4733 150 20.5802 150H11.9199C11.0268 150 10.2014 149.524 9.75486 148.75C9.30828 147.976 9.30828 147.024 9.75486 146.25L14.085 138.75C14.5316 137.976 15.3569 137.5 16.25 137.5Z"
    fill="#DFEBFD" />
  <path fillRule="evenodd" clipRule="evenodd"
    d="M120.854 106.5C124.842 99.636 127.125 91.6667 127.125 83.1667C127.125 57.3934 106.138 36.5 80.25 36.5C54.3617 36.5 33.375 57.3934 33.375 83.1667C33.375 91.6667 35.6577 99.636 39.6461 106.5H120.854Z"
    fill="white" />
  <path fillRule="evenodd" clipRule="evenodd"
    d="M80.25 39C55.7319 39 35.875 58.7846 35.875 83.1667C35.875 90.7045 37.7702 97.7956 41.1115 104H119.388C122.73 97.7956 124.625 90.7045 124.625 83.1667C124.625 58.7846 104.768 39 80.25 39ZM30.875 83.1667C30.875 56.0022 52.9915 34 80.25 34C107.509 34 129.625 56.0022 129.625 83.1667C129.625 92.1201 127.219 100.521 123.016 107.756C122.568 108.526 121.745 109 120.854 109H39.6461C38.7554 109 37.9319 108.526 37.4845 107.756C33.2807 100.521 30.875 92.1201 30.875 83.1667Z"
    fill="#095A31" />
  <mask id="mask0" mask-type="alpha" maskUnits="userSpaceOnUse" x="33" y="36" width="95" height="71">
    <path
      d="M120.854 106.5C124.842 99.636 127.125 91.6667 127.125 83.1667C127.125 57.3934 106.138 36.5 80.25 36.5C54.3617 36.5 33.375 57.3934 33.375 83.1667C33.375 91.6667 35.6577 99.636 39.6461 106.5H120.854Z"
      fill="#C8E54E" />
  </mask>
  <g mask="url(#mask0)">
    <path
      d="M120.173 58.7117C123.399 63.9312 125.561 69.7321 126.535 75.7833C127.509 81.8344 127.276 88.0173 125.85 93.9789C124.423 99.9405 121.832 105.564 118.222 110.528C114.613 115.493 110.057 119.701 104.814 122.912L80.25 83.1666L120.173 58.7117Z"
      fill="#C8E54E" />
  </g>
  <path fillRule="evenodd" clipRule="evenodd"
    d="M80.25 39C55.7319 39 35.875 58.7846 35.875 83.1667C35.875 90.7045 37.7702 97.7956 41.1115 104H119.388C122.73 97.7956 124.625 90.7045 124.625 83.1667C124.625 58.7846 104.768 39 80.25 39ZM30.875 83.1667C30.875 56.0022 52.9915 34 80.25 34C107.509 34 129.625 56.0022 129.625 83.1667C129.625 92.1201 127.219 100.521 123.016 107.756C122.568 108.526 121.745 109 120.854 109H39.6461C38.7554 109 37.9319 108.526 37.4845 107.756C33.2807 100.521 30.875 92.1201 30.875 83.1667Z"
    fill="#095A31" />
  <path
    d="M114.481 80.8038C115.146 80.5448 115.653 81.4239 115.099 81.8734L90.7051 101.646L85.2499 92.1977L114.481 80.8038Z"
    fill="#179439" />
  <path
    d="M83.5202 48.5313C83.5202 50.3434 82.056 51.8125 80.2498 51.8125C78.4437 51.8125 76.9795 50.3434 76.9795 48.5313C76.9795 46.7191 78.4437 45.25 80.2498 45.25C82.056 45.25 83.5202 46.7191 83.5202 48.5313Z"
    fill="#179439" />
  <path
    d="M116.224 72.5938C116.224 74.4059 114.76 75.875 112.953 75.875C111.147 75.875 109.683 74.4059 109.683 72.5938C109.683 70.7816 111.147 69.3125 112.953 69.3125C114.76 69.3125 116.224 70.7816 116.224 72.5938Z"
    fill="#179439" />
  <path
    d="M50.8171 72.5938C50.8171 74.4059 49.3529 75.875 47.5467 75.875C45.7406 75.875 44.2764 74.4059 44.2764 72.5938C44.2764 70.7816 45.7406 69.3125 47.5467 69.3125C49.3529 69.3125 50.8171 70.7816 50.8171 72.5938Z"
    fill="#179439" />
  <path
    d="M62.8083 56.1875C62.8083 57.9997 61.3441 59.4688 59.5379 59.4688C57.7318 59.4688 56.2676 57.9997 56.2676 56.1875C56.2676 54.3753 57.7318 52.9062 59.5379 52.9062C61.3441 52.9062 62.8083 54.3753 62.8083 56.1875Z"
    fill="#179439" />
  <path
    d="M105.541 56.1875C105.541 57.9997 104.077 59.4688 102.27 59.4688C100.464 59.4688 99 57.9997 99 56.1875C99 54.3753 100.464 52.9062 102.27 52.9062C104.077 52.9062 105.541 54.3753 105.541 56.1875Z"
    fill="#179439" />
  <path
    d="M116.224 92.2813C116.224 94.0934 114.76 95.5625 112.953 95.5625C111.147 95.5625 109.683 94.0934 109.683 92.2813C109.683 90.4691 111.147 89 112.953 89C114.76 89 116.224 90.4691 116.224 92.2813Z"
    fill="#C8E54E" />
  <path
    d="M50.8171 92.2813C50.8171 94.0934 49.3529 95.5625 47.5467 95.5625C45.7406 95.5625 44.2764 94.0934 44.2764 92.2813C44.2764 90.4691 45.7406 89 47.5467 89C49.3529 89 50.8171 90.4691 50.8171 92.2813Z"
    fill="#179439" />
  <path fillRule="evenodd" clipRule="evenodd"
    d="M57.75 104C57.75 91.5736 67.8236 81.5 80.25 81.5C92.6764 81.5 102.75 91.5736 102.75 104C102.75 116.426 92.6764 126.5 80.25 126.5C67.8236 126.5 57.75 116.426 57.75 104Z"
    fill="#095A31" />
  <path
    d="M99 104C99 114.355 90.6053 122.75 80.25 122.75C69.8947 122.75 61.5 114.355 61.5 104C61.5 93.6447 69.8947 85.25 80.25 85.25C90.6053 85.25 99 93.6447 99 104Z"
    fill="#179439" />
  <path fillRule="evenodd" clipRule="evenodd"
    d="M80.25 92C81.0784 92 81.75 92.6716 81.75 93.5V95.9118H84C86.2 95.9118 87.75 97.8246 87.75 99.8824C87.75 100.711 87.0784 101.382 86.25 101.382C85.4216 101.382 84.75 100.711 84.75 99.8824C84.75 99.2112 84.2853 98.9118 84 98.9118H76.5C76.2147 98.9118 75.75 99.2112 75.75 99.8824V101.529C75.75 102.201 76.2147 102.5 76.5 102.5H84C86.2 102.5 87.75 104.413 87.75 106.471V108.118C87.75 110.175 86.2 112.088 84 112.088H81.75V114.5C81.75 115.328 81.0784 116 80.25 116C79.4216 116 78.75 115.328 78.75 114.5V112.088H76.5C74.3 112.088 72.75 110.175 72.75 108.118C72.75 107.289 73.4216 106.618 74.25 106.618C75.0784 106.618 75.75 107.289 75.75 108.118C75.75 108.789 76.2147 109.088 76.5 109.088H84C84.2853 109.088 84.75 108.789 84.75 108.118V106.471C84.75 105.799 84.2853 105.5 84 105.5H76.5C74.3 105.5 72.75 103.587 72.75 101.529V99.8824C72.75 97.8246 74.3 95.9118 76.5 95.9118H78.75V93.5C78.75 92.6716 79.4216 92 80.25 92Z"
    fill="white" />
</svg>