<svg width="160" height="160" viewBox="0 0 160 160" fill="none" xmlns="http://www.w3.org/2000/svg">
  <path fillRule="evenodd" clipRule="evenodd"
    d="M16.25 16.875C17.2855 16.875 18.125 17.7145 18.125 18.75V21.875H21.25C22.2855 21.875 23.125 22.7145 23.125 23.75C23.125 24.7855 22.2855 25.625 21.25 25.625H18.125V28.75C18.125 29.7855 17.2855 30.625 16.25 30.625C15.2145 30.625 14.375 29.7855 14.375 28.75V25.625H11.25C10.2145 25.625 9.375 24.7855 9.375 23.75C9.375 22.7145 10.2145 21.875 11.25 21.875L14.375 21.875V18.75C14.375 17.7145 15.2145 16.875 16.25 16.875Z"
    fill="#DFEBFD" />
  <path fillRule="evenodd" clipRule="evenodd"
    d="M151.25 68.125C152.286 68.125 153.125 68.9645 153.125 70V73.125H156.25C157.286 73.125 158.125 73.9645 158.125 75C158.125 76.0355 157.286 76.875 156.25 76.875H153.125V80C153.125 81.0355 152.286 81.875 151.25 81.875C150.214 81.875 149.375 81.0355 149.375 80V76.875H146.25C145.214 76.875 144.375 76.0355 144.375 75C144.375 73.9645 145.214 73.125 146.25 73.125L149.375 73.125V70C149.375 68.9645 150.214 68.125 151.25 68.125Z"
    fill="#C8E54E" />
  <path fillRule="evenodd" clipRule="evenodd"
    d="M146.25 138.125C147.286 138.125 148.125 138.964 148.125 140V143.125H151.25C152.286 143.125 153.125 143.964 153.125 145C153.125 146.036 152.286 146.875 151.25 146.875H148.125V150C148.125 151.036 147.286 151.875 146.25 151.875C145.214 151.875 144.375 151.036 144.375 150V146.875H141.25C140.214 146.875 139.375 146.036 139.375 145C139.375 143.964 140.214 143.125 141.25 143.125L144.375 143.125V140C144.375 138.964 145.214 138.125 146.25 138.125Z"
    fill="#DFEBFD" />
  <path fillRule="evenodd" clipRule="evenodd"
    d="M17.5 103.75C18.5355 103.75 19.375 104.589 19.375 105.625V108.75H22.5C23.5355 108.75 24.375 109.589 24.375 110.625C24.375 111.661 23.5355 112.5 22.5 112.5H19.375V115.625C19.375 116.661 18.5355 117.5 17.5 117.5C16.4645 117.5 15.625 116.661 15.625 115.625V112.5H12.5C11.4645 112.5 10.625 111.661 10.625 110.625C10.625 109.589 11.4645 108.75 12.5 108.75L15.625 108.75V105.625C15.625 104.589 16.4645 103.75 17.5 103.75Z"
    fill="#C8E54E" />
  <path
    d="M152.5 126.875C152.5 128.601 151.101 130 149.375 130C147.649 130 146.25 128.601 146.25 126.875C146.25 125.149 147.649 123.75 149.375 123.75C151.101 123.75 152.5 125.149 152.5 126.875Z"
    fill="#9DC346" />
  <path
    d="M102.5 17.5C102.5 19.9162 100.541 21.875 98.125 21.875C95.7088 21.875 93.75 19.9162 93.75 17.5C93.75 15.0838 95.7088 13.125 98.125 13.125C100.541 13.125 102.5 15.0838 102.5 17.5Z"
    fill="#DFEBFD" />
  <path
    d="M50.625 148.125C50.625 149.851 49.2259 151.25 47.5 151.25C45.7741 151.25 44.375 149.851 44.375 148.125C44.375 146.399 45.7741 145 47.5 145C49.2259 145 50.625 146.399 50.625 148.125Z"
    fill="#C8E54E" />
  <path fillRule="evenodd" clipRule="evenodd"
    d="M141.25 10C142.143 10 142.969 10.4765 143.415 11.25L147.745 18.75C148.192 19.5235 148.192 20.4765 147.745 21.25C147.299 22.0235 146.473 22.5 145.58 22.5H136.92C136.027 22.5 135.201 22.0235 134.755 21.25C134.308 20.4765 134.308 19.5235 134.755 18.75L139.085 11.25C139.532 10.4765 140.357 10 141.25 10Z"
    fill="#DFEBFD" />
  <path fillRule="evenodd" clipRule="evenodd"
    d="M16.25 137.5C17.1432 137.5 17.9685 137.976 18.4151 138.75L22.7452 146.25C23.1918 147.024 23.1918 147.976 22.7452 148.75C22.2987 149.524 21.4733 150 20.5802 150H11.9199C11.0268 150 10.2014 149.524 9.75486 148.75C9.30828 147.976 9.30828 147.024 9.75486 146.25L14.085 138.75C14.5316 137.976 15.3569 137.5 16.25 137.5Z"
    fill="#DFEBFD" />
  <path
    d="M42.75 31.5C42.75 28.7386 44.9886 26.5 47.75 26.5H112.75C115.511 26.5 117.75 28.7386 117.75 31.5V130.509C117.75 132.208 115.67 133.031 114.507 131.791L112.023 129.141C110.047 127.034 106.703 127.034 104.727 129.141L102.648 131.359C100.672 133.466 97.3277 133.466 95.3523 131.359L93.2727 129.141C91.2973 127.034 87.9527 127.034 85.9773 129.141L83.8977 131.359C81.9223 133.466 78.5777 133.466 76.6023 131.359L74.5227 129.141C72.5473 127.034 69.2027 127.034 67.2273 129.141L65.1477 131.359C63.1723 133.466 59.8277 133.466 57.8523 131.359L55.7727 129.141C53.7973 127.034 50.4527 127.034 48.4773 129.141L45.9929 131.791C44.8303 133.031 42.75 132.208 42.75 130.509V31.5Z"
    fill="white" />
  <path fillRule="evenodd" clipRule="evenodd"
    d="M40.25 31.5C40.25 27.3579 43.6079 24 47.75 24H112.75C116.892 24 120.25 27.3579 120.25 31.5V130.509C120.25 134.475 115.396 136.394 112.683 133.501L110.199 130.851C109.211 129.797 107.539 129.797 106.551 130.851L104.472 133.069C101.508 136.23 96.4915 136.23 93.5285 133.069L91.4488 130.851C90.4612 129.797 88.7888 129.797 87.8012 130.851L85.7215 133.069C82.7585 136.23 77.7415 136.23 74.7785 133.069L72.6988 130.851C71.7112 129.797 70.0388 129.797 69.0512 130.851L66.9715 133.069C64.0085 136.23 58.9915 136.23 56.0285 133.069L53.9488 130.851C52.9612 129.797 51.2888 129.797 50.3012 130.851L47.8167 133.501C45.1041 136.394 40.25 134.475 40.25 130.509V31.5ZM47.75 29C46.3693 29 45.25 30.1193 45.25 31.5V128.928L46.6535 127.431C49.6165 124.27 54.6335 124.27 57.5965 127.431L59.6762 129.649C60.6638 130.703 62.3362 130.703 63.3238 129.649L65.4035 127.431C68.3665 124.27 73.3835 124.27 76.3465 127.431L78.4262 129.649C79.4138 130.703 81.0862 130.703 82.0738 129.649L84.1535 127.431C87.1165 124.27 92.1335 124.27 95.0965 127.431L97.1762 129.649C98.1638 130.703 99.8362 130.703 100.824 129.649L102.903 127.431C105.867 124.27 110.883 124.27 113.847 127.431L115.25 128.928V31.5C115.25 30.1193 114.131 29 112.75 29H47.75Z"
    fill="#095A31" />
  <path fillRule="evenodd" clipRule="evenodd"
    d="M52.75 89C52.75 87.6193 53.8693 86.5 55.25 86.5H105.25C106.631 86.5 107.75 87.6193 107.75 89C107.75 90.3807 106.631 91.5 105.25 91.5H55.25C53.8693 91.5 52.75 90.3807 52.75 89Z"
    fill="#9DC346" />
  <path fillRule="evenodd" clipRule="evenodd"
    d="M52.75 101.5C52.75 100.119 53.8693 99 55.25 99H105.25C106.631 99 107.75 100.119 107.75 101.5C107.75 102.881 106.631 104 105.25 104H55.25C53.8693 104 52.75 102.881 52.75 101.5Z"
    fill="#9DC346" />
  <path fillRule="evenodd" clipRule="evenodd"
    d="M52.75 114C52.75 112.619 53.8693 111.5 55.25 111.5H80.25C81.6307 111.5 82.75 112.619 82.75 114C82.75 115.381 81.6307 116.5 80.25 116.5H55.25C53.8693 116.5 52.75 115.381 52.75 114Z"
    fill="#9DC346" />
  <path d="M45.25 31.5C45.25 30.1193 46.3693 29 47.75 29H112.75C114.131 29 115.25 30.1193 115.25 31.5V34H45.25V31.5Z"
    fill="#DFEBFD" />
  <path fillRule="evenodd" clipRule="evenodd"
    d="M61.5 58.375C61.5 46.2938 71.2938 36.5 83.375 36.5C95.4562 36.5 105.25 46.2938 105.25 58.375C105.25 70.4562 95.4562 80.25 83.375 80.25C71.2938 80.25 61.5 70.4562 61.5 58.375Z"
    fill="#095A31" />
  <path
    d="M101.604 58.375C101.604 68.4427 93.4429 76.6042 83.3752 76.6042C73.3075 76.6042 65.146 68.4427 65.146 58.375C65.146 48.3073 73.3075 40.1459 83.3752 40.1459C93.4429 40.1459 101.604 48.3073 101.604 58.375Z"
    fill="#179439" />
  <path fillRule="evenodd" clipRule="evenodd"
    d="M83.3752 46.7084C84.1806 46.7084 84.8335 47.3613 84.8335 48.1667V50.5115H87.021C89.1599 50.5115 90.6668 52.3711 90.6668 54.3718C90.6668 55.1772 90.0139 55.8301 89.2085 55.8301C88.4031 55.8301 87.7502 55.1772 87.7502 54.3718C87.7502 53.7193 87.2983 53.4281 87.021 53.4281H79.7293C79.452 53.4281 79.0002 53.7193 79.0002 54.3718V55.9731C79.0002 56.6256 79.452 56.9167 79.7293 56.9167H87.021C89.1599 56.9167 90.6668 58.7764 90.6668 60.777V62.3783C90.6668 64.3789 89.1599 66.2386 87.021 66.2386H84.8335V68.5834C84.8335 69.3888 84.1806 70.0417 83.3752 70.0417C82.5697 70.0417 81.9168 69.3888 81.9168 68.5834V66.2386H79.7293C77.5904 66.2386 76.0835 64.3789 76.0835 62.3783C76.0835 61.5729 76.7364 60.92 77.5418 60.92C78.3472 60.92 79.0002 61.5729 79.0002 62.3783C79.0002 63.0308 79.452 63.3219 79.7293 63.3219H87.021C87.2983 63.3219 87.7502 63.0308 87.7502 62.3783V60.777C87.7502 60.1245 87.2983 59.8334 87.021 59.8334H79.7293C77.5904 59.8334 76.0835 57.9737 76.0835 55.9731V54.3718C76.0835 52.3711 77.5904 50.5115 79.7293 50.5115H81.9168V48.1667C81.9168 47.3613 82.5697 46.7084 83.3752 46.7084Z"
    fill="white" />
</svg>