<svg width="160" height="160" viewBox="0 0 160 160" fill="none" xmlns="http://www.w3.org/2000/svg">
  <path fillRule="evenodd" clipRule="evenodd"
    d="M16.25 16.875C17.2855 16.875 18.125 17.7145 18.125 18.75V21.875H21.25C22.2855 21.875 23.125 22.7145 23.125 23.75C23.125 24.7855 22.2855 25.625 21.25 25.625H18.125V28.75C18.125 29.7855 17.2855 30.625 16.25 30.625C15.2145 30.625 14.375 29.7855 14.375 28.75V25.625H11.25C10.2145 25.625 9.375 24.7855 9.375 23.75C9.375 22.7145 10.2145 21.875 11.25 21.875L14.375 21.875V18.75C14.375 17.7145 15.2145 16.875 16.25 16.875Z"
    fill="#DFEBFD" />
  <path fillRule="evenodd" clipRule="evenodd"
    d="M145 97.5C146.036 97.5 146.875 98.3395 146.875 99.375V102.5H150C151.036 102.5 151.875 103.339 151.875 104.375C151.875 105.411 151.036 106.25 150 106.25H146.875V109.375C146.875 110.411 146.036 111.25 145 111.25C143.964 111.25 143.125 110.411 143.125 109.375V106.25H140C138.964 106.25 138.125 105.411 138.125 104.375C138.125 103.339 138.964 102.5 140 102.5L143.125 102.5V99.375C143.125 98.3395 143.964 97.5 145 97.5Z"
    fill="#DFEBFD" />
  <path
    d="M61.25 146.25C61.25 147.976 59.8509 149.375 58.125 149.375C56.3991 149.375 55 147.976 55 146.25C55 144.524 56.3991 143.125 58.125 143.125C59.8509 143.125 61.25 144.524 61.25 146.25Z"
    fill="#C8E54E" />
  <path fillRule="evenodd" clipRule="evenodd"
    d="M150 134.375C149.31 134.375 148.75 134.935 148.75 135.625C148.75 136.315 149.31 136.875 150 136.875C150.69 136.875 151.25 136.315 151.25 135.625C151.25 134.935 150.69 134.375 150 134.375ZM143.75 135.625C143.75 132.173 146.548 129.375 150 129.375C153.452 129.375 156.25 132.173 156.25 135.625C156.25 139.077 153.452 141.875 150 141.875C146.548 141.875 143.75 139.077 143.75 135.625Z"
    fill="#C8E54E" />
  <path fillRule="evenodd" clipRule="evenodd"
    d="M15.625 73.75C14.5895 73.75 13.75 74.5895 13.75 75.625C13.75 76.6605 14.5895 77.5 15.625 77.5C16.6605 77.5 17.5 76.6605 17.5 75.625C17.5 74.5895 16.6605 73.75 15.625 73.75ZM8.75 75.625C8.75 71.828 11.828 68.75 15.625 68.75C19.422 68.75 22.5 71.828 22.5 75.625C22.5 79.422 19.422 82.5 15.625 82.5C11.828 82.5 8.75 79.422 8.75 75.625Z"
    fill="#DFEBFD" />
  <path fillRule="evenodd" clipRule="evenodd"
    d="M143.125 11.25C142.089 11.25 141.25 12.0895 141.25 13.125C141.25 14.1605 142.089 15 143.125 15C144.161 15 145 14.1605 145 13.125C145 12.0895 144.161 11.25 143.125 11.25ZM136.25 13.125C136.25 9.32804 139.328 6.25 143.125 6.25C146.922 6.25 150 9.32804 150 13.125C150 16.922 146.922 20 143.125 20C139.328 20 136.25 16.922 136.25 13.125Z"
    fill="#DFEBFD" />
  <path fillRule="evenodd" clipRule="evenodd"
    d="M23.125 136.875C24.0182 136.875 24.8435 137.351 25.2901 138.125L29.6202 145.625C30.0668 146.399 30.0668 147.351 29.6202 148.125C29.1737 148.899 28.3483 149.375 27.4552 149.375H18.7949C17.9018 149.375 17.0764 148.899 16.6299 148.125C16.1833 147.351 16.1833 146.399 16.6299 145.625L20.96 138.125C21.4066 137.351 22.2319 136.875 23.125 136.875Z"
    fill="#C8E54E" />
  <path fillRule="evenodd" clipRule="evenodd"
    d="M115.625 142.5C116.518 142.5 117.344 142.976 117.79 143.75L122.12 151.25C122.567 152.024 122.567 152.976 122.12 153.75C121.674 154.524 120.848 155 119.955 155H111.295C110.402 155 109.576 154.524 109.13 153.75C108.683 152.976 108.683 152.024 109.13 151.25L113.46 143.75C113.907 142.976 114.732 142.5 115.625 142.5Z"
    fill="#DFEBFD" />
  <g clip-path="url(#clip0)">
    <path
      d="M27.75 55.875C27.75 50.3522 32.2272 45.875 37.75 45.875H122.75C128.273 45.875 132.75 50.3522 132.75 55.875V104.625C132.75 110.148 128.273 114.625 122.75 114.625H37.75C32.2272 114.625 27.75 110.148 27.75 104.625V55.875Z"
      fill="white" />
    <path fillRule="evenodd" clipRule="evenodd"
      d="M25.25 55.875C25.25 48.9714 30.8464 43.375 37.75 43.375H122.75C129.654 43.375 135.25 48.9714 135.25 55.875V104.625C135.25 111.529 129.654 117.125 122.75 117.125H37.75C30.8464 117.125 25.25 111.529 25.25 104.625V55.875ZM37.75 48.375C33.6079 48.375 30.25 51.7329 30.25 55.875V104.625C30.25 108.767 33.6079 112.125 37.75 112.125H122.75C126.892 112.125 130.25 108.767 130.25 104.625V55.875C130.25 51.7329 126.892 48.375 122.75 48.375H37.75Z"
      fill="#179439" />
    <path
      d="M106.5 92.75C106.5 97.9277 102.303 102.125 97.125 102.125C91.9473 102.125 87.75 97.9277 87.75 92.75C87.75 87.5723 91.9473 83.375 97.125 83.375C102.303 83.375 106.5 87.5723 106.5 92.75Z"
      fill="#C8E54E" />
    <path
      d="M120.25 92.75C120.25 97.9277 116.053 102.125 110.875 102.125C105.697 102.125 101.5 97.9277 101.5 92.75C101.5 87.5723 105.697 83.375 110.875 83.375C116.053 83.375 120.25 87.5723 120.25 92.75Z"
      fill="#179439" />
    <path fillRule="evenodd" clipRule="evenodd"
      d="M104 99.1239C105.551 97.4512 106.5 95.2114 106.5 92.7501C106.5 90.2887 105.551 88.0489 104 86.3762C102.449 88.0489 101.5 90.2887 101.5 92.7501C101.5 95.2114 102.449 97.4512 104 99.1239Z"
      fill="#095A31" />
    <path fillRule="evenodd" clipRule="evenodd"
      d="M37.75 90.875C37.75 89.4943 38.8693 88.375 40.25 88.375H57.75C59.1307 88.375 60.25 89.4943 60.25 90.875C60.25 92.2557 59.1307 93.375 57.75 93.375H40.25C38.8693 93.375 37.75 92.2557 37.75 90.875Z"
      fill="#BAC8DC" />
    <path fillRule="evenodd" clipRule="evenodd"
      d="M37.75 80.25C37.75 78.8693 38.8693 77.75 40.25 77.75H77.75C79.1307 77.75 80.25 78.8693 80.25 80.25C80.25 81.6307 79.1307 82.75 77.75 82.75H40.25C38.8693 82.75 37.75 81.6307 37.75 80.25Z"
      fill="#BAC8DC" />
    <path d="M30.25 57.125H130.25V68.375H30.25V57.125Z" fill="#C8E54E" />
    <path fillRule="evenodd" clipRule="evenodd"
      d="M92.75 45.875C92.75 33.7938 102.544 24 114.625 24C126.706 24 136.5 33.7938 136.5 45.875C136.5 57.9562 126.706 67.75 114.625 67.75C102.544 67.75 92.75 57.9562 92.75 45.875Z"
      fill="#095A31" />
    <path
      d="M132.854 45.875C132.854 55.9427 124.692 64.1042 114.625 64.1042C104.557 64.1042 96.3955 55.9427 96.3955 45.875C96.3955 35.8074 104.557 27.6459 114.625 27.6459C124.692 27.6459 132.854 35.8074 132.854 45.875Z"
      fill="#179439" />
    <path fillRule="evenodd" clipRule="evenodd"
      d="M114.625 34.2084C115.43 34.2084 116.083 34.8613 116.083 35.6667V38.0115H118.271C120.409 38.0115 121.916 39.8711 121.916 41.8718C121.916 42.6772 121.263 43.3301 120.458 43.3301C119.653 43.3301 119 42.6772 119 41.8718C119 41.2193 118.548 40.9281 118.271 40.9281H110.979C110.701 40.9281 110.25 41.2193 110.25 41.8718V43.4731C110.25 44.1256 110.701 44.4167 110.979 44.4167H118.271C120.409 44.4167 121.916 46.2764 121.916 48.277V49.8783C121.916 51.8789 120.409 53.7386 118.271 53.7386H116.083V56.0834C116.083 56.8888 115.43 57.5417 114.625 57.5417C113.819 57.5417 113.166 56.8888 113.166 56.0834V53.7386H110.979C108.84 53.7386 107.333 51.8789 107.333 49.8783C107.333 49.0729 107.986 48.42 108.791 48.42C109.597 48.42 110.25 49.0729 110.25 49.8783C110.25 50.5308 110.701 50.8219 110.979 50.8219H118.271C118.548 50.8219 119 50.5308 119 49.8783V48.277C119 47.6245 118.548 47.3334 118.271 47.3334H110.979C108.84 47.3334 107.333 45.4737 107.333 43.4731V41.8718C107.333 39.8711 108.84 38.0115 110.979 38.0115H113.166V35.6667C113.166 34.8613 113.819 34.2084 114.625 34.2084Z"
      fill="white" />
  </g>
  <defs>
    <clipPath id="clip0">
      <rect width="112.5" height="112.5" fill="white" transform="translate(24 24)" />
    </clipPath>
  </defs>
</svg>