<svg width="160" height="160" viewBox="0 0 160 160" fill="none" xmlns="http://www.w3.org/2000/svg">
  <path fillRule="evenodd" clipRule="evenodd"
    d="M151.25 31.25C152.286 31.25 153.125 32.0895 153.125 33.125V36.25H156.25C157.286 36.25 158.125 37.0895 158.125 38.125C158.125 39.1605 157.286 40 156.25 40H153.125V43.125C153.125 44.1605 152.286 45 151.25 45C150.214 45 149.375 44.1605 149.375 43.125V40H146.25C145.214 40 144.375 39.1605 144.375 38.125C144.375 37.0895 145.214 36.25 146.25 36.25L149.375 36.25V33.125C149.375 32.0895 150.214 31.25 151.25 31.25Z"
    fill="#DFEBFD" />
  <path fillRule="evenodd" clipRule="evenodd"
    d="M146.25 138.125C147.286 138.125 148.125 138.964 148.125 140V143.125H151.25C152.286 143.125 153.125 143.964 153.125 145C153.125 146.036 152.286 146.875 151.25 146.875H148.125V150C148.125 151.036 147.286 151.875 146.25 151.875C145.214 151.875 144.375 151.036 144.375 150V146.875H141.25C140.214 146.875 139.375 146.036 139.375 145C139.375 143.964 140.214 143.125 141.25 143.125L144.375 143.125V140C144.375 138.964 145.214 138.125 146.25 138.125Z"
    fill="#DFEBFD" />
  <path
    d="M113.125 13.125C113.125 15.5412 111.166 17.5 108.75 17.5C106.334 17.5 104.375 15.5412 104.375 13.125C104.375 10.7088 106.334 8.75 108.75 8.75C111.166 8.75 113.125 10.7088 113.125 13.125Z"
    fill="#C8E54E" />
  <path
    d="M18.125 127.5C18.125 129.226 16.7259 130.625 15 130.625C13.2741 130.625 11.875 129.226 11.875 127.5C11.875 125.774 13.2741 124.375 15 124.375C16.7259 124.375 18.125 125.774 18.125 127.5Z"
    fill="#C8E54E" />
  <path fillRule="evenodd" clipRule="evenodd"
    d="M31.25 14.375C30.2145 14.375 29.375 15.2145 29.375 16.25C29.375 17.2855 30.2145 18.125 31.25 18.125C32.2855 18.125 33.125 17.2855 33.125 16.25C33.125 15.2145 32.2855 14.375 31.25 14.375ZM24.375 16.25C24.375 12.453 27.453 9.375 31.25 9.375C35.047 9.375 38.125 12.453 38.125 16.25C38.125 20.047 35.047 23.125 31.25 23.125C27.453 23.125 24.375 20.047 24.375 16.25Z"
    fill="#DFEBFD" />
  <path fillRule="evenodd" clipRule="evenodd"
    d="M143.75 8.75C144.643 8.75 145.469 9.2265 145.915 10L150.245 17.5C150.692 18.2735 150.692 19.2265 150.245 20C149.799 20.7735 148.973 21.25 148.08 21.25H139.42C138.527 21.25 137.701 20.7735 137.255 20C136.808 19.2265 136.808 18.2735 137.255 17.5L141.585 10C142.032 9.2265 142.857 8.75 143.75 8.75Z"
    fill="#DFEBFD" />
  <path fillRule="evenodd" clipRule="evenodd"
    d="M26.25 137.5C27.1432 137.5 27.9685 137.976 28.4151 138.75L32.7452 146.25C33.1918 147.024 33.1918 147.976 32.7452 148.75C32.2987 149.524 31.4733 150 30.5802 150H21.9199C21.0268 150 20.2014 149.524 19.7549 148.75C19.3083 147.976 19.3083 147.024 19.7549 146.25L24.085 138.75C24.5316 137.976 25.3569 137.5 26.25 137.5Z"
    fill="#DFEBFD" />
  <path fillRule="evenodd" clipRule="evenodd"
    d="M13.125 32.5C14.0182 32.5 14.8435 32.9765 15.2901 33.75L19.6202 41.25C20.0668 42.0235 20.0668 42.9765 19.6202 43.75C19.1737 44.5235 18.3483 45 17.4552 45H8.79492C7.90176 45 7.07644 44.5235 6.62986 43.75C6.18328 42.9765 6.18328 42.0235 6.62986 41.25L10.96 33.75C11.4066 32.9765 12.2319 32.5 13.125 32.5Z"
    fill="#C8E54E" />
  <g clip-path="url(#clip0)">
    <path d="M126.188 81.1875L134 47.125H127.359H78.2188H49.9375L60.5625 81.1875H126.188Z" fill="white" />
    <path d="M80.25 81.1875L69.625 47.125H49.9375L60.5625 81.1875H80.25Z" fill="#DFEBFD" />
    <path fillRule="evenodd" clipRule="evenodd"
      d="M47.9237 45.6436C48.3948 45.0032 49.1425 44.625 49.9375 44.625H71.9688C73.3495 44.625 74.4688 45.7443 74.4688 47.125C74.4688 48.5057 73.3495 49.625 71.9688 49.625H53.3361L62.4015 78.6875H124.196L130.862 49.625H127.359C125.979 49.625 124.859 48.5057 124.859 47.125C124.859 45.7443 125.979 44.625 127.359 44.625H134C134.761 44.625 135.481 44.9719 135.955 45.5673C136.43 46.1628 136.607 46.9419 136.437 47.6839L128.624 81.7464C128.364 82.8823 127.353 83.6875 126.188 83.6875H60.5625C59.4686 83.6875 58.5017 82.9763 58.1759 81.9319L47.5509 47.8694C47.3142 47.1104 47.4526 46.2841 47.9237 45.6436Z"
      fill="#095A31" />
    <path fillRule="evenodd" clipRule="evenodd"
      d="M26.5 34C26.5 30.5482 29.2982 27.75 32.75 27.75H39.0427C45.5706 27.75 51.349 31.9718 53.333 38.1909L69.3355 88.3504C69.5316 88.965 69.6313 89.6063 69.6312 90.2514L69.6278 92.7486C69.627 96.2009 72.4255 99 75.8778 99H120.562C124.014 99 126.812 101.798 126.812 105.25C126.812 108.702 124.014 111.5 120.562 111.5H75.8778C65.5208 111.5 57.1255 103.103 57.1278 92.7458L57.131 91.2221L41.4244 41.9902C41.0937 40.9536 40.1307 40.25 39.0427 40.25H32.75C29.2982 40.25 26.5 37.4518 26.5 34Z"
      fill="#C8E54E" />
    <path fillRule="evenodd" clipRule="evenodd"
      d="M24 34C24 29.1675 27.9175 25.25 32.75 25.25H39.0427C46.6586 25.25 53.4 30.1755 55.7148 37.4311L71.7172 87.5905C71.9918 88.451 72.1314 89.3488 72.1312 90.252V90.2548L72.1278 92.7492C72.1278 92.75 72.1278 92.7509 72.1278 92.7518C72.1278 92.7518 72.1278 92.7519 72.1278 92.752C72.1289 94.8221 73.8074 96.5 75.8778 96.5H120.562C125.395 96.5 129.312 100.418 129.312 105.25C129.312 110.082 125.395 114 120.562 114H75.8778C64.1399 114 54.6252 104.483 54.6278 92.7452L54.6278 92.7406L54.6302 91.6087L39.0427 42.75H32.75C27.9175 42.75 24 38.8325 24 34ZM32.75 30.25C30.6789 30.25 29 31.9289 29 34C29 36.0711 30.6789 37.75 32.75 37.75H39.0427C41.2186 37.75 43.1448 39.1573 43.8061 41.2303L59.5127 90.4623C59.5916 90.7096 59.6315 90.9677 59.631 91.2273L59.6278 92.7463C59.6278 92.7472 59.6278 92.748 59.6278 92.7488C59.6271 101.724 66.9026 109 75.8778 109H120.562C122.634 109 124.312 107.321 124.312 105.25C124.312 103.179 122.634 101.5 120.562 101.5H75.8778C71.0446 101.5 67.1267 97.5813 67.1278 92.748V92.7452L67.1312 90.2508C67.1312 90.25 67.1312 90.2491 67.1312 90.2483C67.1312 90.2482 67.1312 90.2481 67.1312 90.248C67.131 89.8619 67.0711 89.4781 66.9538 89.1102L50.9513 38.9508C49.2979 33.7682 44.4826 30.25 39.0427 30.25H32.75Z"
      fill="#095A31" />
    <path
      d="M79.625 127.125C79.625 130.577 76.8268 133.375 73.375 133.375C69.9232 133.375 67.125 130.577 67.125 127.125C67.125 123.673 69.9232 120.875 73.375 120.875C76.8268 120.875 79.625 123.673 79.625 127.125Z"
      fill="#179439" />
    <path fillRule="evenodd" clipRule="evenodd"
      d="M73.375 123.375C71.3039 123.375 69.625 125.054 69.625 127.125C69.625 129.196 71.3039 130.875 73.375 130.875C75.4461 130.875 77.125 129.196 77.125 127.125C77.125 125.054 75.4461 123.375 73.375 123.375ZM64.625 127.125C64.625 122.293 68.5425 118.375 73.375 118.375C78.2075 118.375 82.125 122.293 82.125 127.125C82.125 131.957 78.2075 135.875 73.375 135.875C68.5425 135.875 64.625 131.957 64.625 127.125Z"
      fill="#095A31" />
    <path
      d="M117.125 127.125C117.125 130.577 114.327 133.375 110.875 133.375C107.423 133.375 104.625 130.577 104.625 127.125C104.625 123.673 107.423 120.875 110.875 120.875C114.327 120.875 117.125 123.673 117.125 127.125Z"
      fill="#179439" />
    <path fillRule="evenodd" clipRule="evenodd"
      d="M110.875 123.375C108.804 123.375 107.125 125.054 107.125 127.125C107.125 129.196 108.804 130.875 110.875 130.875C112.946 130.875 114.625 129.196 114.625 127.125C114.625 125.054 112.946 123.375 110.875 123.375ZM102.125 127.125C102.125 122.293 106.043 118.375 110.875 118.375C115.707 118.375 119.625 122.293 119.625 127.125C119.625 131.957 115.707 135.875 110.875 135.875C106.043 135.875 102.125 131.957 102.125 127.125Z"
      fill="#095A31" />
    <path fillRule="evenodd" clipRule="evenodd"
      d="M77.75 45.875C77.75 33.7938 87.5438 24 99.625 24C111.706 24 121.5 33.7938 121.5 45.875C121.5 57.9562 111.706 67.75 99.625 67.75C87.5438 67.75 77.75 57.9562 77.75 45.875Z"
      fill="#095A31" />
    <path
      d="M117.854 45.875C117.854 55.9427 109.692 64.1042 99.6247 64.1042C89.557 64.1042 81.3955 55.9427 81.3955 45.875C81.3955 35.8073 89.557 27.6459 99.6247 27.6459C109.692 27.6459 117.854 35.8073 117.854 45.875Z"
      fill="#179439" />
    <path fillRule="evenodd" clipRule="evenodd"
      d="M99.6247 34.2084C100.43 34.2084 101.083 34.8613 101.083 35.6667V38.0115H103.271C105.409 38.0115 106.916 39.8711 106.916 41.8718C106.916 42.6772 106.263 43.3301 105.458 43.3301C104.653 43.3301 104 42.6772 104 41.8718C104 41.2193 103.548 40.9281 103.271 40.9281H95.9788C95.7015 40.9281 95.2497 41.2193 95.2497 41.8718V43.4731C95.2497 44.1256 95.7015 44.4167 95.9788 44.4167H103.271C105.409 44.4167 106.916 46.2764 106.916 48.277V49.8783C106.916 51.8789 105.409 53.7386 103.271 53.7386H101.083V56.0834C101.083 56.8888 100.43 57.5417 99.6247 57.5417C98.8193 57.5417 98.1663 56.8888 98.1663 56.0834V53.7386H95.9788C93.8399 53.7386 92.333 51.8789 92.333 49.8783C92.333 49.0729 92.9859 48.42 93.7913 48.42C94.5968 48.42 95.2497 49.0729 95.2497 49.8783C95.2497 50.5308 95.7015 50.8219 95.9788 50.8219H103.271C103.548 50.8219 104 50.5308 104 49.8783V48.277C104 47.6245 103.548 47.3334 103.271 47.3334H95.9788C93.8399 47.3334 92.333 45.4737 92.333 43.4731V41.8718C92.333 39.8711 93.8399 38.0115 95.9788 38.0115H98.1663V35.6667C98.1663 34.8613 98.8193 34.2084 99.6247 34.2084Z"
      fill="white" />
  </g>
  <defs>
    <clipPath id="clip0">
      <rect width="112.5" height="112.5" fill="white" transform="translate(24 24)" />
    </clipPath>
  </defs>
</svg>