<svg width="180" height="180" viewBox="0 0 180 180" fill="none" xmlns="http://www.w3.org/2000/svg">
  <g clip-path="url(#clip0)">
    <path d="M163.5 91.5L176 37H165.375H86.75H41.5L58.5 91.5H163.5Z" fill="white" />
    <path d="M90 91.5L73 37H41.5L58.5 91.5H90Z" fill="#DFEBFD" />
    <path fillRule="evenodd" clipRule="evenodd"
      d="M38.2779 34.6298C39.0317 33.6051 40.2279 33 41.5 33H76.75C78.9592 33 80.75 34.7909 80.75 37C80.75 39.2091 78.9592 41 76.75 41H46.9378L61.4424 87.5H160.314L170.979 41H165.375C163.166 41 161.375 39.2091 161.375 37C161.375 34.7909 163.166 33 165.375 33H176C177.218 33 178.37 33.555 179.129 34.5077C179.888 35.4604 180.171 36.707 179.899 37.8942L167.399 92.3942C166.982 94.2117 165.365 95.5 163.5 95.5H58.5C56.7497 95.5 55.2027 94.362 54.6815 92.6911L37.6815 38.1911C37.3027 36.9767 37.5241 35.6545 38.2779 34.6298Z"
      fill="#095A31" />
    <path fillRule="evenodd" clipRule="evenodd"
      d="M4 16C4 10.4772 8.47715 6 14 6H24.0683C34.5129 6 43.7583 12.755 46.9329 22.7055L72.5368 102.961C72.8506 103.944 73.0101 104.97 73.0099 106.002L73.0045 109.998C73.0033 115.521 77.4808 120 83.0045 120H154.5C160.023 120 164.5 124.477 164.5 130C164.5 135.523 160.023 140 154.5 140H83.0045C66.4333 140 53.0008 126.564 53.0045 109.993L53.0096 107.555L27.879 28.7842C27.3499 27.1258 25.809 26 24.0683 26H14C8.47715 26 4 21.5228 4 16Z"
      fill="#C8E54E" />
    <path fillRule="evenodd" clipRule="evenodd"
      d="M0 16C0 8.26801 6.26801 2 14 2H24.0683C36.2537 2 47.04 9.88078 50.7436 21.4897L76.3476 101.745C76.7868 103.122 77.0102 104.558 77.0099 106.003V106.008L77.0045 109.999C77.0045 110 77.0045 110.001 77.0045 110.003C77.0045 110.003 77.0045 110.003 77.0045 110.003C77.0062 113.315 79.6918 116 83.0045 116H154.5C162.232 116 168.5 122.268 168.5 130C168.5 137.732 162.232 144 154.5 144H83.0045C64.2238 144 49.0003 128.773 49.0045 109.992L49.0045 109.985L49.0083 108.174L24.0683 30H14C6.26801 30 0 23.732 0 16ZM14 10C10.6863 10 8 12.6863 8 16C8 19.3137 10.6863 22 14 22H24.0683C27.5498 22 30.6316 24.2516 31.6898 27.5685L56.8203 106.34C56.9466 106.735 57.0104 107.148 57.0095 107.564L57.0045 109.994C57.0045 109.995 57.0045 109.997 57.0045 109.998C57.0034 124.358 68.6441 136 83.0045 136H154.5C157.814 136 160.5 133.314 160.5 130C160.5 126.686 157.814 124 154.5 124H83.0045C75.2713 124 69.0028 117.73 69.0045 109.997V109.992L69.0099 106.001C69.0099 106 69.0099 105.999 69.0099 105.997C69.0099 105.997 69.0099 105.997 69.0099 105.997C69.0096 105.379 68.9138 104.765 68.7261 104.176L43.1221 23.9212C40.4767 15.6291 32.7721 10 24.0683 10H14Z"
      fill="#095A31" />
    <path
      d="M89 165C89 170.523 84.5228 175 79 175C73.4772 175 69 170.523 69 165C69 159.477 73.4772 155 79 155C84.5228 155 89 159.477 89 165Z"
      fill="#179439" />
    <path fillRule="evenodd" clipRule="evenodd"
      d="M79 159C75.6863 159 73 161.686 73 165C73 168.314 75.6863 171 79 171C82.3137 171 85 168.314 85 165C85 161.686 82.3137 159 79 159ZM65 165C65 157.268 71.268 151 79 151C86.732 151 93 157.268 93 165C93 172.732 86.732 179 79 179C71.268 179 65 172.732 65 165Z"
      fill="#095A31" />
    <path
      d="M149 165C149 170.523 144.523 175 139 175C133.477 175 129 170.523 129 165C129 159.477 133.477 155 139 155C144.523 155 149 159.477 149 165Z"
      fill="#179439" />
    <path fillRule="evenodd" clipRule="evenodd"
      d="M139 159C135.686 159 133 161.686 133 165C133 168.314 135.686 171 139 171C142.314 171 145 168.314 145 165C145 161.686 142.314 159 139 159ZM125 165C125 157.268 131.268 151 139 151C146.732 151 153 157.268 153 165C153 172.732 146.732 179 139 179C131.268 179 125 172.732 125 165Z"
      fill="#095A31" />
    <path fillRule="evenodd" clipRule="evenodd"
      d="M86 35C86 15.67 101.67 0 121 0C140.33 0 156 15.67 156 35C156 54.33 140.33 70 121 70C101.67 70 86 54.33 86 35Z"
      fill="#095A31" />
    <path
      d="M150.167 34.9999C150.167 51.1082 137.108 64.1666 121 64.1666C104.892 64.1666 91.8333 51.1082 91.8333 34.9999C91.8333 18.8916 104.892 5.83325 121 5.83325C137.108 5.83325 150.167 18.8916 150.167 34.9999Z"
      fill="#179439" />
    <path fillRule="evenodd" clipRule="evenodd"
      d="M121 16.3333C122.289 16.3333 123.333 17.3779 123.333 18.6666V22.4182H126.833C130.255 22.4182 132.667 25.3937 132.667 28.5947C132.667 29.8834 131.622 30.928 130.333 30.928C129.045 30.928 128 29.8834 128 28.5947C128 27.5507 127.277 27.0849 126.833 27.0849H115.167C114.723 27.0849 114 27.5507 114 28.5947V31.1568C114 32.2008 114.723 32.6666 115.167 32.6666H126.833C130.255 32.6666 132.667 35.6421 132.667 38.8431V41.4051C132.667 44.6061 130.255 47.5816 126.833 47.5816H123.333V51.3332C123.333 52.6219 122.289 53.6666 121 53.6666C119.711 53.6666 118.667 52.6219 118.667 51.3332V47.5816H115.167C111.744 47.5816 109.333 44.6061 109.333 41.4051C109.333 40.1165 110.378 39.0718 111.667 39.0718C112.955 39.0718 114 40.1165 114 41.4051C114 42.4492 114.723 42.9149 115.167 42.9149H126.833C127.277 42.9149 128 42.4492 128 41.4051V38.8431C128 37.799 127.277 37.3332 126.833 37.3332H115.167C111.744 37.3332 109.333 34.3578 109.333 31.1568V28.5947C109.333 25.3937 111.744 22.4182 115.167 22.4182H118.667V18.6666C118.667 17.3779 119.711 16.3333 121 16.3333Z"
      fill="white" />
  </g>
  <defs>
    <clipPath id="clip0">
      <rect width="180" height="180" fill="white" />
    </clipPath>
  </defs>
</svg>