<svg width="160" height="160" viewBox="0 0 160 160" fill="none" xmlns="http://www.w3.org/2000/svg">
  <path fillRule="evenodd" clipRule="evenodd"
    d="M16.25 16.875C17.2855 16.875 18.125 17.7145 18.125 18.75V21.875H21.25C22.2855 21.875 23.125 22.7145 23.125 23.75C23.125 24.7855 22.2855 25.625 21.25 25.625H18.125V28.75C18.125 29.7855 17.2855 30.625 16.25 30.625C15.2145 30.625 14.375 29.7855 14.375 28.75V25.625H11.25C10.2145 25.625 9.375 24.7855 9.375 23.75C9.375 22.7145 10.2145 21.875 11.25 21.875L14.375 21.875V18.75C14.375 17.7145 15.2145 16.875 16.25 16.875Z"
    fill="#DFEBFD" />
  <path fillRule="evenodd" clipRule="evenodd"
    d="M145 97.5C146.036 97.5 146.875 98.3395 146.875 99.375V102.5H150C151.036 102.5 151.875 103.339 151.875 104.375C151.875 105.411 151.036 106.25 150 106.25H146.875V109.375C146.875 110.411 146.036 111.25 145 111.25C143.964 111.25 143.125 110.411 143.125 109.375V106.25H140C138.964 106.25 138.125 105.411 138.125 104.375C138.125 103.339 138.964 102.5 140 102.5L143.125 102.5V99.375C143.125 98.3395 143.964 97.5 145 97.5Z"
    fill="#DFEBFD" />
  <path
    d="M61.25 146.25C61.25 147.976 59.8509 149.375 58.125 149.375C56.3991 149.375 55 147.976 55 146.25C55 144.524 56.3991 143.125 58.125 143.125C59.8509 143.125 61.25 144.524 61.25 146.25Z"
    fill="#C8E54E" />
  <path fillRule="evenodd" clipRule="evenodd"
    d="M150 134.375C149.31 134.375 148.75 134.935 148.75 135.625C148.75 136.315 149.31 136.875 150 136.875C150.69 136.875 151.25 136.315 151.25 135.625C151.25 134.935 150.69 134.375 150 134.375ZM143.75 135.625C143.75 132.173 146.548 129.375 150 129.375C153.452 129.375 156.25 132.173 156.25 135.625C156.25 139.077 153.452 141.875 150 141.875C146.548 141.875 143.75 139.077 143.75 135.625Z"
    fill="#C8E54E" />
  <path fillRule="evenodd" clipRule="evenodd"
    d="M15.625 73.75C14.5895 73.75 13.75 74.5895 13.75 75.625C13.75 76.6605 14.5895 77.5 15.625 77.5C16.6605 77.5 17.5 76.6605 17.5 75.625C17.5 74.5895 16.6605 73.75 15.625 73.75ZM8.75 75.625C8.75 71.828 11.828 68.75 15.625 68.75C19.422 68.75 22.5 71.828 22.5 75.625C22.5 79.422 19.422 82.5 15.625 82.5C11.828 82.5 8.75 79.422 8.75 75.625Z"
    fill="#DFEBFD" />
  <path fillRule="evenodd" clipRule="evenodd"
    d="M143.125 11.25C142.089 11.25 141.25 12.0895 141.25 13.125C141.25 14.1605 142.089 15 143.125 15C144.161 15 145 14.1605 145 13.125C145 12.0895 144.161 11.25 143.125 11.25ZM136.25 13.125C136.25 9.32804 139.328 6.25 143.125 6.25C146.922 6.25 150 9.32804 150 13.125C150 16.922 146.922 20 143.125 20C139.328 20 136.25 16.922 136.25 13.125Z"
    fill="#DFEBFD" />
  <path fillRule="evenodd" clipRule="evenodd"
    d="M23.125 136.875C24.0182 136.875 24.8435 137.351 25.2901 138.125L29.6202 145.625C30.0668 146.399 30.0668 147.351 29.6202 148.125C29.1737 148.899 28.3483 149.375 27.4552 149.375H18.7949C17.9018 149.375 17.0764 148.899 16.6299 148.125C16.1833 147.351 16.1833 146.399 16.6299 145.625L20.96 138.125C21.4066 137.351 22.2319 136.875 23.125 136.875Z"
    fill="#C8E54E" />
  <path fillRule="evenodd" clipRule="evenodd"
    d="M115.625 142.5C116.518 142.5 117.344 142.976 117.79 143.75L122.12 151.25C122.567 152.024 122.567 152.976 122.12 153.75C121.674 154.524 120.848 155 119.955 155H111.295C110.402 155 109.576 154.524 109.13 153.75C108.683 152.976 108.683 152.024 109.13 151.25L113.46 143.75C113.907 142.976 114.732 142.5 115.625 142.5Z"
    fill="#DFEBFD" />
  <g clip-path="url(#clip0)">
    <path fillRule="evenodd" clipRule="evenodd"
      d="M34.2425 30.6722C37.461 29.425 41.0813 31.0231 42.3285 34.2417L58.8077 83.019H110.444C113.896 83.019 116.694 85.8172 116.694 89.269C116.694 92.7208 113.896 95.519 110.444 95.519H56.2392C52.6267 95.519 49.3856 93.299 48.0803 89.9305L30.6729 38.7582C29.4257 35.5396 31.0239 31.9194 34.2425 30.6722Z"
      fill="#C8E54E" />
    <path fillRule="evenodd" clipRule="evenodd"
      d="M33.3388 28.3412C37.8449 26.5951 42.9132 28.8325 44.6593 33.3385C44.6725 33.3726 44.6849 33.407 44.6966 33.4416L60.6016 80.519H110.444C115.277 80.519 119.194 84.4366 119.194 89.269C119.194 94.1015 115.277 98.019 110.444 98.019H56.2389C51.5942 98.019 47.4271 95.1648 45.7489 90.8339C45.7363 90.8014 45.7244 90.7687 45.7132 90.7357L28.3213 39.6088C26.613 35.1161 28.8504 30.0804 33.3388 28.3412ZM39.9794 35.1004C39.2151 33.1992 37.0617 32.2608 35.1454 33.0034C33.2143 33.7517 32.2554 35.9238 33.0037 37.855C33.0163 37.8875 33.0282 37.9202 33.0394 37.9532L50.4286 89.0719C51.3721 91.4529 53.6745 93.019 56.2389 93.019H110.444C112.515 93.019 114.194 91.3401 114.194 89.269C114.194 87.198 112.515 85.519 110.444 85.519H58.8074C57.7351 85.519 56.7822 84.8352 56.4389 83.8192L39.9794 35.1004Z"
      fill="#095A31" />
    <path fillRule="evenodd" clipRule="evenodd"
      d="M32.125 62.125C32.125 60.7443 33.2443 59.625 34.625 59.625H96.2244C99.8243 59.625 103.304 60.9197 106.029 63.2727L109.384 66.1704C110.429 67.0729 110.545 68.6516 109.642 69.6965C108.74 70.7415 107.161 70.857 106.116 69.9546L102.761 67.0568C100.944 65.4881 98.6244 64.625 96.2244 64.625H96.1875V88.6875C96.1875 90.0682 95.0682 91.1875 93.6875 91.1875C92.3068 91.1875 91.1875 90.0682 91.1875 88.6875V64.625H77.125V88.6875C77.125 90.0682 76.0057 91.1875 74.625 91.1875C73.2443 91.1875 72.125 90.0682 72.125 88.6875V64.625H34.625C33.2443 64.625 32.125 63.5057 32.125 62.125Z"
      fill="#095A31" />
    <path fillRule="evenodd" clipRule="evenodd"
      d="M100.017 93.2146C101.314 92.7405 102.75 93.4074 103.224 94.7042L113.849 123.767C114.323 125.063 113.656 126.499 112.359 126.973C111.062 127.447 109.627 126.78 109.153 125.483L98.5277 96.421C98.0536 95.1242 98.7205 93.6887 100.017 93.2146Z"
      fill="#095A31" />
    <path fillRule="evenodd" clipRule="evenodd"
      d="M59.3209 93.2483C58.0428 92.726 56.5833 93.3388 56.0611 94.6169L44.1861 123.679C43.6638 124.958 44.2766 126.417 45.5547 126.939C46.8328 127.462 48.2923 126.849 48.8146 125.571L60.6896 96.5082C61.2118 95.23 60.5991 93.7705 59.3209 93.2483Z"
      fill="#095A31" />
    <path fillRule="evenodd" clipRule="evenodd"
      d="M130.66 110.568C131.693 111.485 131.786 113.065 130.869 114.098C119.148 127.295 99.2742 134.455 79.8388 134.914C60.413 135.372 40.6807 129.142 29.5176 114.612C28.6765 113.517 28.8822 111.947 29.9771 111.106C31.072 110.265 32.6415 110.471 33.4826 111.565C43.3244 124.376 61.2126 130.352 79.7209 129.915C98.2196 129.479 116.593 122.643 127.131 110.777C128.048 109.745 129.628 109.651 130.66 110.568Z"
      fill="#095A31" />
    <path fillRule="evenodd" clipRule="evenodd"
      d="M92.75 45.875C92.75 33.7938 102.544 24 114.625 24C126.706 24 136.5 33.7938 136.5 45.875C136.5 57.9562 126.706 67.75 114.625 67.75C102.544 67.75 92.75 57.9562 92.75 45.875Z"
      fill="#095A31" />
    <path
      d="M132.854 45.875C132.854 55.9427 124.692 64.1042 114.625 64.1042C104.557 64.1042 96.3955 55.9427 96.3955 45.875C96.3955 35.8074 104.557 27.6459 114.625 27.6459C124.692 27.6459 132.854 35.8074 132.854 45.875Z"
      fill="#179439" />
    <path fillRule="evenodd" clipRule="evenodd"
      d="M114.625 34.2084C115.43 34.2084 116.083 34.8613 116.083 35.6667V38.0115H118.271C120.409 38.0115 121.916 39.8711 121.916 41.8718C121.916 42.6772 121.263 43.3301 120.458 43.3301C119.653 43.3301 119 42.6772 119 41.8718C119 41.2193 118.548 40.9281 118.271 40.9281H110.979C110.701 40.9281 110.25 41.2193 110.25 41.8718V43.4731C110.25 44.1256 110.701 44.4167 110.979 44.4167H118.271C120.409 44.4167 121.916 46.2764 121.916 48.277V49.8783C121.916 51.8789 120.409 53.7386 118.271 53.7386H116.083V56.0834C116.083 56.8888 115.43 57.5417 114.625 57.5417C113.819 57.5417 113.166 56.8888 113.166 56.0834V53.7386H110.979C108.84 53.7386 107.333 51.8789 107.333 49.8783C107.333 49.0729 107.986 48.42 108.791 48.42C109.597 48.42 110.25 49.0729 110.25 49.8783C110.25 50.5308 110.701 50.8219 110.979 50.8219H118.271C118.548 50.8219 119 50.5308 119 49.8783V48.277C119 47.6245 118.548 47.3334 118.271 47.3334H110.979C108.84 47.3334 107.333 45.4737 107.333 43.4731V41.8718C107.333 39.8711 108.84 38.0115 110.979 38.0115H113.166V35.6667C113.166 34.8613 113.819 34.2084 114.625 34.2084Z"
      fill="white" />
  </g>
  <defs>
    <clipPath id="clip0">
      <rect width="112.5" height="112.5" fill="white" transform="translate(24 24)" />
    </clipPath>
  </defs>
</svg>