<svg width="160" height="160" viewBox="0 0 160 160" fill="none" xmlns="http://www.w3.org/2000/svg">
  <path fillRule="evenodd" clipRule="evenodd"
    d="M16.25 8.125C17.2855 8.125 18.125 8.96447 18.125 10V13.125H21.25C22.2855 13.125 23.125 13.9645 23.125 15C23.125 16.0355 22.2855 16.875 21.25 16.875H18.125V20C18.125 21.0355 17.2855 21.875 16.25 21.875C15.2145 21.875 14.375 21.0355 14.375 20V16.875H11.25C10.2145 16.875 9.375 16.0355 9.375 15C9.375 13.9645 10.2145 13.125 11.25 13.125L14.375 13.125V10C14.375 8.96447 15.2145 8.125 16.25 8.125Z"
    fill="#DFEBFD" />
  <path fillRule="evenodd" clipRule="evenodd"
    d="M146.25 138.125C147.286 138.125 148.125 138.964 148.125 140V143.125H151.25C152.286 143.125 153.125 143.964 153.125 145C153.125 146.036 152.286 146.875 151.25 146.875H148.125V150C148.125 151.036 147.286 151.875 146.25 151.875C145.214 151.875 144.375 151.036 144.375 150V146.875H141.25C140.214 146.875 139.375 146.036 139.375 145C139.375 143.964 140.214 143.125 141.25 143.125L144.375 143.125V140C144.375 138.964 145.214 138.125 146.25 138.125Z"
    fill="#DFEBFD" />
  <path fillRule="evenodd" clipRule="evenodd"
    d="M11.875 105C12.9105 105 13.75 105.839 13.75 106.875V110H16.875C17.9105 110 18.75 110.839 18.75 111.875C18.75 112.911 17.9105 113.75 16.875 113.75H13.75V116.875C13.75 117.911 12.9105 118.75 11.875 118.75C10.8395 118.75 10 117.911 10 116.875V113.75H6.875C5.83947 113.75 5 112.911 5 111.875C5 110.839 5.83947 110 6.875 110L10 110V106.875C10 105.839 10.8395 105 11.875 105Z"
    fill="#C8E54E" />
  <path
    d="M156.25 115.625C156.25 117.351 154.851 118.75 153.125 118.75C151.399 118.75 150 117.351 150 115.625C150 113.899 151.399 112.5 153.125 112.5C154.851 112.5 156.25 113.899 156.25 115.625Z"
    fill="#9DC346" />
  <path
    d="M156.25 95C156.25 97.4162 154.291 99.375 151.875 99.375C149.459 99.375 147.5 97.4162 147.5 95C147.5 92.5838 149.459 90.625 151.875 90.625C154.291 90.625 156.25 92.5838 156.25 95Z"
    fill="#DFEBFD" />
  <path
    d="M57.5 17.5C57.5 19.9162 55.5412 21.875 53.125 21.875C50.7088 21.875 48.75 19.9162 48.75 17.5C48.75 15.0838 50.7088 13.125 53.125 13.125C55.5412 13.125 57.5 15.0838 57.5 17.5Z"
    fill="#C8E54E" />
  <path
    d="M53.125 153.125C53.125 154.851 51.7259 156.25 50 156.25C48.2741 156.25 46.875 154.851 46.875 153.125C46.875 151.399 48.2741 150 50 150C51.7259 150 53.125 151.399 53.125 153.125Z"
    fill="#C8E54E" />
  <path fillRule="evenodd" clipRule="evenodd"
    d="M19.375 142.5C18.6846 142.5 18.125 143.06 18.125 143.75C18.125 144.44 18.6846 145 19.375 145C20.0654 145 20.625 144.44 20.625 143.75C20.625 143.06 20.0654 142.5 19.375 142.5ZM13.125 143.75C13.125 140.298 15.9232 137.5 19.375 137.5C22.8268 137.5 25.625 140.298 25.625 143.75C25.625 147.202 22.8268 150 19.375 150C15.9232 150 13.125 147.202 13.125 143.75Z"
    fill="#C8E54E" />
  <path fillRule="evenodd" clipRule="evenodd"
    d="M11.875 49.375C10.8395 49.375 10 50.2145 10 51.25C10 52.2855 10.8395 53.125 11.875 53.125C12.9105 53.125 13.75 52.2855 13.75 51.25C13.75 50.2145 12.9105 49.375 11.875 49.375ZM5 51.25C5 47.453 8.07804 44.375 11.875 44.375C15.672 44.375 18.75 47.453 18.75 51.25C18.75 55.047 15.672 58.125 11.875 58.125C8.07804 58.125 5 55.047 5 51.25Z"
    fill="#DFEBFD" />
  <path fillRule="evenodd" clipRule="evenodd"
    d="M143.125 11.25C142.089 11.25 141.25 12.0895 141.25 13.125C141.25 14.1605 142.089 15 143.125 15C144.161 15 145 14.1605 145 13.125C145 12.0895 144.161 11.25 143.125 11.25ZM136.25 13.125C136.25 9.32804 139.328 6.25 143.125 6.25C146.922 6.25 150 9.32804 150 13.125C150 16.922 146.922 20 143.125 20C139.328 20 136.25 16.922 136.25 13.125Z"
    fill="#DFEBFD" />
  <path fillRule="evenodd" clipRule="evenodd"
    d="M149.955 36.25C150.848 36.25 151.674 36.7265 152.12 37.5L156.45 45C156.897 45.7735 156.897 46.7265 156.45 47.5C156.004 48.2735 155.178 48.75 154.285 48.75H145.625C144.732 48.75 143.907 48.2735 143.46 47.5C143.013 46.7265 143.013 45.7735 143.46 45L147.79 37.5C148.237 36.7265 149.062 36.25 149.955 36.25Z"
    fill="#DFEBFD" />
  <path fillRule="evenodd" clipRule="evenodd"
    d="M108.705 140.625C109.598 140.625 110.424 141.101 110.87 141.875L115.2 149.375C115.647 150.149 115.647 151.101 115.2 151.875C114.754 152.649 113.928 153.125 113.035 153.125H104.375C103.482 153.125 102.657 152.649 102.21 151.875C101.763 151.101 101.763 150.149 102.21 149.375L106.54 141.875C106.987 141.101 107.812 140.625 108.705 140.625Z"
    fill="#DFEBFD" />
  <g clip-path="url(#clip0)">
    <path
      d="M134 80.25C134 109.935 109.935 134 80.25 134C50.5647 134 26.5 109.935 26.5 80.25C26.5 50.5647 50.5647 26.5 80.25 26.5C109.935 26.5 134 50.5647 134 80.25Z"
      fill="white" />
    <path fillRule="evenodd" clipRule="evenodd"
      d="M91.5 44.625C92.1904 44.625 92.75 45.1846 92.75 45.875V47.8848H94.625C96.4583 47.8848 97.75 49.4788 97.75 51.1936C97.75 51.884 97.1904 52.4436 96.5 52.4436C95.8096 52.4436 95.25 51.884 95.25 51.1936C95.25 50.6343 94.8627 50.3848 94.625 50.3848H88.375C88.1373 50.3848 87.75 50.6343 87.75 51.1936V52.5662C87.75 53.1255 88.1373 53.375 88.375 53.375H94.625C96.4583 53.375 97.75 54.969 97.75 56.6838V58.0564C97.75 59.7712 96.4583 61.3652 94.625 61.3652H92.75V63.375C92.75 64.0654 92.1904 64.625 91.5 64.625C90.8096 64.625 90.25 64.0654 90.25 63.375V61.3652H88.375C86.5417 61.3652 85.25 59.7712 85.25 58.0564C85.25 57.366 85.8096 56.8064 86.5 56.8064C87.1904 56.8064 87.75 57.366 87.75 58.0564C87.75 58.6157 88.1373 58.8652 88.375 58.8652H94.625C94.8627 58.8652 95.25 58.6157 95.25 58.0564V56.6838C95.25 56.1245 94.8627 55.875 94.625 55.875H88.375C86.5417 55.875 85.25 54.281 85.25 52.5662V51.1936C85.25 49.4788 86.5417 47.8848 88.375 47.8848H90.25V45.875C90.25 45.1846 90.8096 44.625 91.5 44.625Z"
      fill="#179439" />
    <path
      d="M134 80.25C134 89.3745 131.677 98.3489 127.25 106.328C122.823 114.306 116.438 121.027 108.696 125.856C100.954 130.685 92.1101 133.463 82.9975 133.93C73.8848 134.396 64.8035 132.535 56.6089 128.522C48.4143 124.508 41.3763 118.475 36.1579 110.99C30.9395 103.505 27.7125 94.8146 26.7809 85.7377C25.8493 76.6608 27.2438 67.4962 30.833 59.1072C34.4222 50.7182 40.0879 43.381 47.2964 37.7868L80.25 80.25H134Z"
      fill="#C8E54E" />
    <path fillRule="evenodd" clipRule="evenodd"
      d="M47.6092 35.3064C48.267 35.3894 48.8649 35.7302 49.2714 36.2541L81.4744 77.75H134C135.381 77.75 136.5 78.8693 136.5 80.25C136.5 89.7989 134.069 99.1907 129.436 107.541C124.803 115.89 118.121 122.923 110.019 127.977C101.917 133.031 92.6618 135.938 83.1253 136.426C73.5888 136.915 64.085 134.967 55.5093 130.767C46.9336 126.567 39.5682 120.253 34.1071 112.42C28.646 104.587 25.2689 95.492 24.294 85.993C23.319 76.4939 24.7784 66.903 28.5345 58.1238C32.2906 49.3446 38.2199 41.6661 45.7637 35.8118C46.2875 35.4052 46.9513 35.2235 47.6092 35.3064ZM46.8915 41.3427C40.9373 46.4477 36.2253 52.8593 33.1314 60.0906C29.7092 68.0894 28.3796 76.8278 29.2678 85.4825C30.1561 94.1372 33.233 102.423 38.2087 109.56C43.1844 116.697 49.895 122.45 57.7085 126.276C65.5219 130.103 74.1809 131.878 82.8697 131.433C91.5585 130.988 99.9911 128.339 107.373 123.735C114.755 119.13 120.843 112.722 125.064 105.115C128.88 98.2371 131.056 90.5837 131.439 82.75H80.25C79.4776 82.75 78.7486 82.3929 78.275 81.7827L46.8915 41.3427Z"
      fill="#179439" />
    <path
      d="M134 80.25C134 87.3086 132.61 94.298 129.909 100.819C127.207 107.34 123.248 113.266 118.257 118.257C113.266 123.248 107.34 127.207 100.819 129.909C94.298 132.61 87.3086 134 80.25 134V80.25H134Z"
      fill="#9DC346" />
    <path fillRule="evenodd" clipRule="evenodd"
      d="M77.75 80.25C77.75 78.8693 78.8693 77.75 80.25 77.75H134C135.381 77.75 136.5 78.8693 136.5 80.25C136.5 87.6369 135.045 94.9514 132.218 101.776C129.391 108.601 125.248 114.801 120.025 120.025C114.801 125.248 108.601 129.391 101.776 132.218C94.9514 135.045 87.6369 136.5 80.25 136.5C78.8693 136.5 77.75 135.381 77.75 134V80.25ZM82.75 82.75V131.439C88.6262 131.152 94.4156 129.855 99.8625 127.599C106.08 125.023 111.73 121.248 116.489 116.489C121.248 111.73 125.023 106.08 127.599 99.8625C129.855 94.4156 131.152 88.6262 131.439 82.75H82.75Z"
      fill="#179439" />
    <path fillRule="evenodd" clipRule="evenodd"
      d="M80.25 29C51.9454 29 29 51.9454 29 80.25C29 108.555 51.9454 131.5 80.25 131.5C108.555 131.5 131.5 108.555 131.5 80.25C131.5 51.9454 108.555 29 80.25 29ZM24 80.25C24 49.184 49.184 24 80.25 24C111.316 24 136.5 49.184 136.5 80.25C136.5 111.316 111.316 136.5 80.25 136.5C49.184 136.5 24 111.316 24 80.25Z"
      fill="#095A31" />
  </g>
  <defs>
    <clipPath id="clip0">
      <rect width="112.5" height="112.5" fill="white" transform="translate(24 24)" />
    </clipPath>
  </defs>
</svg>